%TF.GenerationSoftware,KiCad,Pcbnew,(5.1.7)-1*%
%TF.CreationDate,2020-12-23T17:26:37-03:00*%
%TF.ProjectId,Breadboard Power Supply,42726561-6462-46f6-9172-6420506f7765,-*%
%TF.SameCoordinates,Original*%
%TF.FileFunction,Copper,L2,Bot*%
%TF.FilePolarity,Positive*%
%FSLAX46Y46*%
G04 Gerber Fmt 4.6, Leading zero omitted, Abs format (unit mm)*
G04 Created by KiCad (PCBNEW (5.1.7)-1) date 2020-12-23 17:26:37*
%MOMM*%
%LPD*%
G01*
G04 APERTURE LIST*
%TA.AperFunction,ComponentPad*%
%ADD10R,2.000000X2.000000*%
%TD*%
%TA.AperFunction,ComponentPad*%
%ADD11C,2.000000*%
%TD*%
%TA.AperFunction,ComponentPad*%
%ADD12R,1.600000X1.600000*%
%TD*%
%TA.AperFunction,ComponentPad*%
%ADD13C,1.600000*%
%TD*%
%TA.AperFunction,ComponentPad*%
%ADD14O,2.200000X2.200000*%
%TD*%
%TA.AperFunction,ComponentPad*%
%ADD15R,2.200000X2.200000*%
%TD*%
%TA.AperFunction,ComponentPad*%
%ADD16R,1.800000X1.800000*%
%TD*%
%TA.AperFunction,ComponentPad*%
%ADD17C,1.800000*%
%TD*%
%TA.AperFunction,ComponentPad*%
%ADD18R,2.600000X2.600000*%
%TD*%
%TA.AperFunction,ComponentPad*%
%ADD19C,2.600000*%
%TD*%
%TA.AperFunction,ComponentPad*%
%ADD20R,1.700000X1.700000*%
%TD*%
%TA.AperFunction,ComponentPad*%
%ADD21O,1.700000X1.700000*%
%TD*%
%TA.AperFunction,ComponentPad*%
%ADD22O,1.600000X1.600000*%
%TD*%
%TA.AperFunction,ComponentPad*%
%ADD23R,1.900000X1.900000*%
%TD*%
%TA.AperFunction,ComponentPad*%
%ADD24C,1.900000*%
%TD*%
%TA.AperFunction,ComponentPad*%
%ADD25R,1.905000X2.000000*%
%TD*%
%TA.AperFunction,ComponentPad*%
%ADD26O,1.905000X2.000000*%
%TD*%
%TA.AperFunction,ViaPad*%
%ADD27C,1.000000*%
%TD*%
%TA.AperFunction,ViaPad*%
%ADD28C,0.800000*%
%TD*%
%TA.AperFunction,Conductor*%
%ADD29C,0.300000*%
%TD*%
%TA.AperFunction,Conductor*%
%ADD30C,0.254000*%
%TD*%
%TA.AperFunction,Conductor*%
%ADD31C,0.100000*%
%TD*%
G04 APERTURE END LIST*
D10*
%TO.P,C1,1*%
%TO.N,/Vin*%
X117348000Y-68834000D03*
D11*
%TO.P,C1,2*%
%TO.N,/V-*%
X122348000Y-68834000D03*
%TD*%
D12*
%TO.P,C2,1*%
%TO.N,/Vout1*%
X128143000Y-67183000D03*
D13*
%TO.P,C2,2*%
%TO.N,/V-*%
X130643000Y-67183000D03*
%TD*%
D14*
%TO.P,D1,2*%
%TO.N,Net-(D1-Pad2)*%
X126238000Y-95207666D03*
D15*
%TO.P,D1,1*%
%TO.N,/Vin*%
X116078000Y-95207666D03*
%TD*%
D14*
%TO.P,D2,2*%
%TO.N,/V-*%
X126238000Y-85979000D03*
D15*
%TO.P,D2,1*%
%TO.N,Net-(D1-Pad2)*%
X116078000Y-85979000D03*
%TD*%
%TO.P,D3,1*%
%TO.N,Net-(D3-Pad1)*%
X116078000Y-99822000D03*
D14*
%TO.P,D3,2*%
%TO.N,/V-*%
X126238000Y-99822000D03*
%TD*%
D15*
%TO.P,D4,1*%
%TO.N,/Vin*%
X116078000Y-90593333D03*
D14*
%TO.P,D4,2*%
%TO.N,Net-(D3-Pad1)*%
X126238000Y-90593333D03*
%TD*%
D16*
%TO.P,D5,1*%
%TO.N,/V-*%
X132842000Y-98679000D03*
D17*
%TO.P,D5,2*%
%TO.N,Net-(D5-Pad2)*%
X135382000Y-98679000D03*
%TD*%
%TO.P,D6,2*%
%TO.N,Net-(D6-Pad2)*%
X135382000Y-76581000D03*
D16*
%TO.P,D6,1*%
%TO.N,/V-*%
X132842000Y-76581000D03*
%TD*%
D18*
%TO.P,J1,1*%
%TO.N,Net-(D1-Pad2)*%
X128524000Y-108204000D03*
D19*
%TO.P,J1,2*%
%TO.N,Net-(D3-Pad1)*%
X122524000Y-108204000D03*
%TO.P,J1,3*%
%TO.N,N/C*%
X125524000Y-112904000D03*
%TD*%
D20*
%TO.P,J2,1*%
%TO.N,/Vout2*%
X140208000Y-65151000D03*
D21*
%TO.P,J2,2*%
X142748000Y-65151000D03*
%TO.P,J2,3*%
%TO.N,/V-*%
X140208000Y-67691000D03*
%TO.P,J2,4*%
X142748000Y-67691000D03*
%TD*%
%TO.P,J3,4*%
%TO.N,/V-*%
X142494000Y-112395000D03*
%TO.P,J3,3*%
X139954000Y-112395000D03*
%TO.P,J3,2*%
%TO.N,/Vout2*%
X142494000Y-109855000D03*
D20*
%TO.P,J3,1*%
X139954000Y-109855000D03*
%TD*%
D13*
%TO.P,R1,1*%
%TO.N,/Vout1*%
X134239000Y-105029000D03*
D22*
%TO.P,R1,2*%
%TO.N,Net-(D5-Pad2)*%
X134239000Y-112649000D03*
%TD*%
%TO.P,R2,2*%
%TO.N,Net-(D6-Pad2)*%
X128397000Y-73914000D03*
D13*
%TO.P,R2,1*%
%TO.N,/Vout2*%
X128397000Y-81534000D03*
%TD*%
D23*
%TO.P,SW1,1*%
%TO.N,/Vout2*%
X134112000Y-90010000D03*
D24*
%TO.P,SW1,2*%
%TO.N,/Vout1*%
X134112000Y-87510000D03*
%TO.P,SW1,3*%
%TO.N,N/C*%
X134112000Y-85010000D03*
%TD*%
D25*
%TO.P,U1,1*%
%TO.N,/Vin*%
X117475000Y-80264000D03*
D26*
%TO.P,U1,2*%
%TO.N,/V-*%
X120015000Y-80264000D03*
%TO.P,U1,3*%
%TO.N,/Vout1*%
X122555000Y-80264000D03*
%TD*%
D27*
%TO.N,/Vout1*%
X137160000Y-87757000D03*
D28*
X137795000Y-104902000D03*
%TD*%
D29*
%TO.N,/Vout1*%
X137668000Y-105029000D02*
X137795000Y-104902000D01*
X134239000Y-105029000D02*
X137668000Y-105029000D01*
X136913000Y-87510000D02*
X137160000Y-87757000D01*
X134112000Y-87510000D02*
X136913000Y-87510000D01*
%TO.N,Net-(D3-Pad1)*%
X122524000Y-106268000D02*
X116078000Y-99822000D01*
X122524000Y-108204000D02*
X122524000Y-106268000D01*
%TO.N,/V-*%
X142494000Y-112395000D02*
X139954000Y-112395000D01*
X132842000Y-106485081D02*
X132842000Y-98679000D01*
X138751919Y-112395000D02*
X132842000Y-106485081D01*
X139954000Y-112395000D02*
X138751919Y-112395000D01*
X127381000Y-98679000D02*
X126238000Y-99822000D01*
X132842000Y-98679000D02*
X127381000Y-98679000D01*
X132842000Y-79375000D02*
X132842000Y-76581000D01*
X126238000Y-85979000D02*
X132842000Y-79375000D01*
X120523000Y-80264000D02*
X126238000Y-85979000D01*
X120015000Y-80264000D02*
X120523000Y-80264000D01*
X122348000Y-78440052D02*
X122348000Y-68834000D01*
X120524052Y-80264000D02*
X122348000Y-78440052D01*
X120015000Y-80264000D02*
X120524052Y-80264000D01*
X122748999Y-68433001D02*
X122348000Y-68834000D01*
X129392999Y-68433001D02*
X122748999Y-68433001D01*
X130643000Y-67183000D02*
X129392999Y-68433001D01*
X139700000Y-67183000D02*
X140208000Y-67691000D01*
X130643000Y-67183000D02*
X139700000Y-67183000D01*
X140208000Y-67691000D02*
X142748000Y-67691000D01*
%TD*%
D30*
%TO.N,/V-*%
X138768498Y-64056820D02*
X138732188Y-64176518D01*
X138719928Y-64301000D01*
X138719928Y-66001000D01*
X138732188Y-66125482D01*
X138768498Y-66245180D01*
X138827463Y-66355494D01*
X138906815Y-66452185D01*
X139003506Y-66531537D01*
X139113820Y-66590502D01*
X139194466Y-66614966D01*
X139110412Y-66690731D01*
X138936359Y-66924080D01*
X138811175Y-67186901D01*
X138766524Y-67334110D01*
X138887845Y-67564000D01*
X140081000Y-67564000D01*
X140081000Y-67544000D01*
X140335000Y-67544000D01*
X140335000Y-67564000D01*
X142621000Y-67564000D01*
X142621000Y-67544000D01*
X142875000Y-67544000D01*
X142875000Y-67564000D01*
X142895000Y-67564000D01*
X142895000Y-67818000D01*
X142875000Y-67818000D01*
X142875000Y-67838000D01*
X142621000Y-67838000D01*
X142621000Y-67818000D01*
X140335000Y-67818000D01*
X140335000Y-67838000D01*
X140081000Y-67838000D01*
X140081000Y-67818000D01*
X138887845Y-67818000D01*
X138766524Y-68047890D01*
X138811175Y-68195099D01*
X138936359Y-68457920D01*
X139103498Y-68682000D01*
X138589419Y-68682000D01*
X138557000Y-68678807D01*
X138524581Y-68682000D01*
X138427617Y-68691550D01*
X138303207Y-68729290D01*
X138188550Y-68790575D01*
X138088052Y-68873052D01*
X138005575Y-68973550D01*
X137944290Y-69088207D01*
X137906550Y-69212617D01*
X137893807Y-69342000D01*
X137897001Y-69374429D01*
X137897001Y-86888869D01*
X137883520Y-86875388D01*
X137697624Y-86751176D01*
X137491067Y-86665617D01*
X137271788Y-86622000D01*
X137048212Y-86622000D01*
X136828933Y-86665617D01*
X136685570Y-86725000D01*
X135493743Y-86725000D01*
X135343150Y-86499621D01*
X135122379Y-86278850D01*
X135094168Y-86260000D01*
X135122379Y-86241150D01*
X135343150Y-86020379D01*
X135516609Y-85760779D01*
X135636089Y-85472327D01*
X135697000Y-85166109D01*
X135697000Y-84853891D01*
X135636089Y-84547673D01*
X135516609Y-84259221D01*
X135343150Y-83999621D01*
X135122379Y-83778850D01*
X134862779Y-83605391D01*
X134574327Y-83485911D01*
X134268109Y-83425000D01*
X133955891Y-83425000D01*
X133649673Y-83485911D01*
X133361221Y-83605391D01*
X133101621Y-83778850D01*
X132880850Y-83999621D01*
X132707391Y-84259221D01*
X132587911Y-84547673D01*
X132527000Y-84853891D01*
X132527000Y-85166109D01*
X132587911Y-85472327D01*
X132707391Y-85760779D01*
X132880850Y-86020379D01*
X133101621Y-86241150D01*
X133129832Y-86260000D01*
X133101621Y-86278850D01*
X132880850Y-86499621D01*
X132707391Y-86759221D01*
X132587911Y-87047673D01*
X132527000Y-87353891D01*
X132527000Y-87666109D01*
X132587911Y-87972327D01*
X132707391Y-88260779D01*
X132866021Y-88498186D01*
X132807506Y-88529463D01*
X132710815Y-88608815D01*
X132631463Y-88705506D01*
X132572498Y-88815820D01*
X132536188Y-88935518D01*
X132523928Y-89060000D01*
X132523928Y-90960000D01*
X132536188Y-91084482D01*
X132572498Y-91204180D01*
X132631463Y-91314494D01*
X132710815Y-91411185D01*
X132807506Y-91490537D01*
X132917820Y-91549502D01*
X133037518Y-91585812D01*
X133162000Y-91598072D01*
X135062000Y-91598072D01*
X135186482Y-91585812D01*
X135306180Y-91549502D01*
X135416494Y-91490537D01*
X135513185Y-91411185D01*
X135592537Y-91314494D01*
X135651502Y-91204180D01*
X135687812Y-91084482D01*
X135700072Y-90960000D01*
X135700072Y-89060000D01*
X135687812Y-88935518D01*
X135651502Y-88815820D01*
X135592537Y-88705506D01*
X135513185Y-88608815D01*
X135416494Y-88529463D01*
X135357979Y-88498186D01*
X135493743Y-88295000D01*
X136154427Y-88295000D01*
X136278388Y-88480520D01*
X136436480Y-88638612D01*
X136622376Y-88762824D01*
X136828933Y-88848383D01*
X137048212Y-88892000D01*
X137271788Y-88892000D01*
X137491067Y-88848383D01*
X137697624Y-88762824D01*
X137883520Y-88638612D01*
X137897000Y-88625132D01*
X137897000Y-97486355D01*
X137834033Y-103867000D01*
X137693061Y-103867000D01*
X137493102Y-103906774D01*
X137304744Y-103984795D01*
X137135226Y-104098063D01*
X136991063Y-104242226D01*
X136989878Y-104244000D01*
X135440339Y-104244000D01*
X135353637Y-104114241D01*
X135153759Y-103914363D01*
X134918727Y-103757320D01*
X134657574Y-103649147D01*
X134380335Y-103594000D01*
X134097665Y-103594000D01*
X133820426Y-103649147D01*
X133559273Y-103757320D01*
X133324241Y-103914363D01*
X133124363Y-104114241D01*
X132967320Y-104349273D01*
X132859147Y-104610426D01*
X132804000Y-104887665D01*
X132804000Y-105170335D01*
X132859147Y-105447574D01*
X132967320Y-105708727D01*
X133124363Y-105943759D01*
X133324241Y-106143637D01*
X133559273Y-106300680D01*
X133820426Y-106408853D01*
X134097665Y-106464000D01*
X134380335Y-106464000D01*
X134657574Y-106408853D01*
X134918727Y-106300680D01*
X135153759Y-106143637D01*
X135353637Y-105943759D01*
X135440339Y-105814000D01*
X137296954Y-105814000D01*
X137304744Y-105819205D01*
X137493102Y-105897226D01*
X137693061Y-105937000D01*
X137813605Y-105937000D01*
X137795006Y-107821747D01*
X137797202Y-107846546D01*
X137804193Y-107870441D01*
X137815712Y-107892512D01*
X137831316Y-107911912D01*
X137850404Y-107927895D01*
X137872244Y-107939847D01*
X137895996Y-107947309D01*
X137922000Y-107950000D01*
X137944401Y-107950000D01*
X138005575Y-108064450D01*
X138088052Y-108164948D01*
X138188550Y-108247425D01*
X138303207Y-108308710D01*
X138427617Y-108346450D01*
X138557000Y-108359193D01*
X138589419Y-108356000D01*
X143866001Y-108356000D01*
X143866001Y-109286812D01*
X143809990Y-109151589D01*
X143647475Y-108908368D01*
X143440632Y-108701525D01*
X143197411Y-108539010D01*
X142927158Y-108427068D01*
X142640260Y-108370000D01*
X142347740Y-108370000D01*
X142060842Y-108427068D01*
X141790589Y-108539010D01*
X141547368Y-108701525D01*
X141415513Y-108833380D01*
X141393502Y-108760820D01*
X141334537Y-108650506D01*
X141255185Y-108553815D01*
X141158494Y-108474463D01*
X141048180Y-108415498D01*
X140928482Y-108379188D01*
X140804000Y-108366928D01*
X139104000Y-108366928D01*
X138979518Y-108379188D01*
X138859820Y-108415498D01*
X138749506Y-108474463D01*
X138652815Y-108553815D01*
X138573463Y-108650506D01*
X138514498Y-108760820D01*
X138478188Y-108880518D01*
X138465928Y-109005000D01*
X138465928Y-110705000D01*
X138478188Y-110829482D01*
X138514498Y-110949180D01*
X138573463Y-111059494D01*
X138652815Y-111156185D01*
X138749506Y-111235537D01*
X138859820Y-111294502D01*
X138940466Y-111318966D01*
X138856412Y-111394731D01*
X138682359Y-111628080D01*
X138557175Y-111890901D01*
X138512524Y-112038110D01*
X138633845Y-112268000D01*
X139827000Y-112268000D01*
X139827000Y-112248000D01*
X140081000Y-112248000D01*
X140081000Y-112268000D01*
X142367000Y-112268000D01*
X142367000Y-112248000D01*
X142621000Y-112248000D01*
X142621000Y-112268000D01*
X142641000Y-112268000D01*
X142641000Y-112522000D01*
X142621000Y-112522000D01*
X142621000Y-113715814D01*
X142850891Y-113836481D01*
X143125252Y-113739157D01*
X143375355Y-113590178D01*
X143591588Y-113395269D01*
X143765641Y-113161920D01*
X143866000Y-112951218D01*
X143866000Y-114021000D01*
X134676533Y-114021000D01*
X134918727Y-113920680D01*
X135153759Y-113763637D01*
X135353637Y-113563759D01*
X135510680Y-113328727D01*
X135618853Y-113067574D01*
X135674000Y-112790335D01*
X135674000Y-112751890D01*
X138512524Y-112751890D01*
X138557175Y-112899099D01*
X138682359Y-113161920D01*
X138856412Y-113395269D01*
X139072645Y-113590178D01*
X139322748Y-113739157D01*
X139597109Y-113836481D01*
X139827000Y-113715814D01*
X139827000Y-112522000D01*
X140081000Y-112522000D01*
X140081000Y-113715814D01*
X140310891Y-113836481D01*
X140585252Y-113739157D01*
X140835355Y-113590178D01*
X141051588Y-113395269D01*
X141224000Y-113164120D01*
X141396412Y-113395269D01*
X141612645Y-113590178D01*
X141862748Y-113739157D01*
X142137109Y-113836481D01*
X142367000Y-113715814D01*
X142367000Y-112522000D01*
X140081000Y-112522000D01*
X139827000Y-112522000D01*
X138633845Y-112522000D01*
X138512524Y-112751890D01*
X135674000Y-112751890D01*
X135674000Y-112507665D01*
X135618853Y-112230426D01*
X135510680Y-111969273D01*
X135353637Y-111734241D01*
X135153759Y-111534363D01*
X134918727Y-111377320D01*
X134657574Y-111269147D01*
X134380335Y-111214000D01*
X134097665Y-111214000D01*
X133820426Y-111269147D01*
X133559273Y-111377320D01*
X133324241Y-111534363D01*
X133124363Y-111734241D01*
X132967320Y-111969273D01*
X132859147Y-112230426D01*
X132804000Y-112507665D01*
X132804000Y-112790335D01*
X132859147Y-113067574D01*
X132967320Y-113328727D01*
X133124363Y-113563759D01*
X133324241Y-113763637D01*
X133559273Y-113920680D01*
X133801467Y-114021000D01*
X127104850Y-114021000D01*
X127238775Y-113820566D01*
X127384639Y-113468419D01*
X127459000Y-113094581D01*
X127459000Y-112713419D01*
X127384639Y-112339581D01*
X127238775Y-111987434D01*
X127027013Y-111670509D01*
X126757491Y-111400987D01*
X126440566Y-111189225D01*
X126088419Y-111043361D01*
X125714581Y-110969000D01*
X125333419Y-110969000D01*
X124959581Y-111043361D01*
X124607434Y-111189225D01*
X124290509Y-111400987D01*
X124020987Y-111670509D01*
X123809225Y-111987434D01*
X123663361Y-112339581D01*
X123589000Y-112713419D01*
X123589000Y-113094581D01*
X123663361Y-113468419D01*
X123809225Y-113820566D01*
X123943150Y-114021000D01*
X113563000Y-114021000D01*
X113563000Y-98722000D01*
X114339928Y-98722000D01*
X114339928Y-100922000D01*
X114352188Y-101046482D01*
X114388498Y-101166180D01*
X114447463Y-101276494D01*
X114526815Y-101373185D01*
X114623506Y-101452537D01*
X114733820Y-101511502D01*
X114853518Y-101547812D01*
X114978000Y-101560072D01*
X116705915Y-101560072D01*
X121626974Y-106481131D01*
X121607434Y-106489225D01*
X121290509Y-106700987D01*
X121020987Y-106970509D01*
X120809225Y-107287434D01*
X120663361Y-107639581D01*
X120589000Y-108013419D01*
X120589000Y-108394581D01*
X120663361Y-108768419D01*
X120809225Y-109120566D01*
X121020987Y-109437491D01*
X121290509Y-109707013D01*
X121607434Y-109918775D01*
X121959581Y-110064639D01*
X122333419Y-110139000D01*
X122714581Y-110139000D01*
X123088419Y-110064639D01*
X123440566Y-109918775D01*
X123757491Y-109707013D01*
X124027013Y-109437491D01*
X124238775Y-109120566D01*
X124384639Y-108768419D01*
X124459000Y-108394581D01*
X124459000Y-108013419D01*
X124384639Y-107639581D01*
X124238775Y-107287434D01*
X124027013Y-106970509D01*
X123960504Y-106904000D01*
X126585928Y-106904000D01*
X126585928Y-109504000D01*
X126598188Y-109628482D01*
X126634498Y-109748180D01*
X126693463Y-109858494D01*
X126772815Y-109955185D01*
X126869506Y-110034537D01*
X126979820Y-110093502D01*
X127099518Y-110129812D01*
X127224000Y-110142072D01*
X129824000Y-110142072D01*
X129948482Y-110129812D01*
X130068180Y-110093502D01*
X130178494Y-110034537D01*
X130275185Y-109955185D01*
X130354537Y-109858494D01*
X130413502Y-109748180D01*
X130449812Y-109628482D01*
X130462072Y-109504000D01*
X130462072Y-106904000D01*
X130449812Y-106779518D01*
X130413502Y-106659820D01*
X130354537Y-106549506D01*
X130275185Y-106452815D01*
X130178494Y-106373463D01*
X130068180Y-106314498D01*
X129948482Y-106278188D01*
X129824000Y-106265928D01*
X127224000Y-106265928D01*
X127099518Y-106278188D01*
X126979820Y-106314498D01*
X126869506Y-106373463D01*
X126772815Y-106452815D01*
X126693463Y-106549506D01*
X126634498Y-106659820D01*
X126598188Y-106779518D01*
X126585928Y-106904000D01*
X123960504Y-106904000D01*
X123757491Y-106700987D01*
X123440566Y-106489225D01*
X123309000Y-106434729D01*
X123309000Y-106306556D01*
X123312797Y-106268000D01*
X123309000Y-106229444D01*
X123309000Y-106229439D01*
X123305020Y-106189026D01*
X123297642Y-106114113D01*
X123252754Y-105966140D01*
X123240791Y-105943759D01*
X123179862Y-105829767D01*
X123081764Y-105710236D01*
X123051810Y-105685653D01*
X117816072Y-100449915D01*
X117816072Y-100218122D01*
X124548825Y-100218122D01*
X124613425Y-100431094D01*
X124763469Y-100736329D01*
X124970178Y-101006427D01*
X125225609Y-101231008D01*
X125519946Y-101401442D01*
X125841877Y-101511179D01*
X126111000Y-101393600D01*
X126111000Y-99949000D01*
X126365000Y-99949000D01*
X126365000Y-101393600D01*
X126634123Y-101511179D01*
X126956054Y-101401442D01*
X127250391Y-101231008D01*
X127505822Y-101006427D01*
X127712531Y-100736329D01*
X127862575Y-100431094D01*
X127927175Y-100218122D01*
X127809125Y-99949000D01*
X126365000Y-99949000D01*
X126111000Y-99949000D01*
X124666875Y-99949000D01*
X124548825Y-100218122D01*
X117816072Y-100218122D01*
X117816072Y-99425878D01*
X124548825Y-99425878D01*
X124666875Y-99695000D01*
X126111000Y-99695000D01*
X126111000Y-98250400D01*
X126365000Y-98250400D01*
X126365000Y-99695000D01*
X127809125Y-99695000D01*
X127860008Y-99579000D01*
X131303928Y-99579000D01*
X131316188Y-99703482D01*
X131352498Y-99823180D01*
X131411463Y-99933494D01*
X131490815Y-100030185D01*
X131587506Y-100109537D01*
X131697820Y-100168502D01*
X131817518Y-100204812D01*
X131942000Y-100217072D01*
X132556250Y-100214000D01*
X132715000Y-100055250D01*
X132715000Y-98806000D01*
X131465750Y-98806000D01*
X131307000Y-98964750D01*
X131303928Y-99579000D01*
X127860008Y-99579000D01*
X127927175Y-99425878D01*
X127862575Y-99212906D01*
X127712531Y-98907671D01*
X127505822Y-98637573D01*
X127250391Y-98412992D01*
X126956054Y-98242558D01*
X126634123Y-98132821D01*
X126365000Y-98250400D01*
X126111000Y-98250400D01*
X125841877Y-98132821D01*
X125519946Y-98242558D01*
X125225609Y-98412992D01*
X124970178Y-98637573D01*
X124763469Y-98907671D01*
X124613425Y-99212906D01*
X124548825Y-99425878D01*
X117816072Y-99425878D01*
X117816072Y-98722000D01*
X117803812Y-98597518D01*
X117767502Y-98477820D01*
X117708537Y-98367506D01*
X117629185Y-98270815D01*
X117532494Y-98191463D01*
X117422180Y-98132498D01*
X117302482Y-98096188D01*
X117178000Y-98083928D01*
X114978000Y-98083928D01*
X114853518Y-98096188D01*
X114733820Y-98132498D01*
X114623506Y-98191463D01*
X114526815Y-98270815D01*
X114447463Y-98367506D01*
X114388498Y-98477820D01*
X114352188Y-98597518D01*
X114339928Y-98722000D01*
X113563000Y-98722000D01*
X113563000Y-97779000D01*
X131303928Y-97779000D01*
X131307000Y-98393250D01*
X131465750Y-98552000D01*
X132715000Y-98552000D01*
X132715000Y-97302750D01*
X132969000Y-97302750D01*
X132969000Y-98552000D01*
X132989000Y-98552000D01*
X132989000Y-98806000D01*
X132969000Y-98806000D01*
X132969000Y-100055250D01*
X133127750Y-100214000D01*
X133742000Y-100217072D01*
X133866482Y-100204812D01*
X133986180Y-100168502D01*
X134096494Y-100109537D01*
X134193185Y-100030185D01*
X134272537Y-99933494D01*
X134331502Y-99823180D01*
X134337056Y-99804873D01*
X134403495Y-99871312D01*
X134654905Y-100039299D01*
X134934257Y-100155011D01*
X135230816Y-100214000D01*
X135533184Y-100214000D01*
X135829743Y-100155011D01*
X136109095Y-100039299D01*
X136360505Y-99871312D01*
X136574312Y-99657505D01*
X136742299Y-99406095D01*
X136858011Y-99126743D01*
X136917000Y-98830184D01*
X136917000Y-98527816D01*
X136858011Y-98231257D01*
X136742299Y-97951905D01*
X136574312Y-97700495D01*
X136360505Y-97486688D01*
X136109095Y-97318701D01*
X135829743Y-97202989D01*
X135533184Y-97144000D01*
X135230816Y-97144000D01*
X134934257Y-97202989D01*
X134654905Y-97318701D01*
X134403495Y-97486688D01*
X134337056Y-97553127D01*
X134331502Y-97534820D01*
X134272537Y-97424506D01*
X134193185Y-97327815D01*
X134096494Y-97248463D01*
X133986180Y-97189498D01*
X133866482Y-97153188D01*
X133742000Y-97140928D01*
X133127750Y-97144000D01*
X132969000Y-97302750D01*
X132715000Y-97302750D01*
X132556250Y-97144000D01*
X131942000Y-97140928D01*
X131817518Y-97153188D01*
X131697820Y-97189498D01*
X131587506Y-97248463D01*
X131490815Y-97327815D01*
X131411463Y-97424506D01*
X131352498Y-97534820D01*
X131316188Y-97654518D01*
X131303928Y-97779000D01*
X113563000Y-97779000D01*
X113563000Y-94107666D01*
X114339928Y-94107666D01*
X114339928Y-96307666D01*
X114352188Y-96432148D01*
X114388498Y-96551846D01*
X114447463Y-96662160D01*
X114526815Y-96758851D01*
X114623506Y-96838203D01*
X114733820Y-96897168D01*
X114853518Y-96933478D01*
X114978000Y-96945738D01*
X117178000Y-96945738D01*
X117302482Y-96933478D01*
X117422180Y-96897168D01*
X117532494Y-96838203D01*
X117629185Y-96758851D01*
X117708537Y-96662160D01*
X117767502Y-96551846D01*
X117803812Y-96432148D01*
X117816072Y-96307666D01*
X117816072Y-95036783D01*
X124503000Y-95036783D01*
X124503000Y-95378549D01*
X124569675Y-95713747D01*
X124700463Y-96029497D01*
X124890337Y-96313664D01*
X125132002Y-96555329D01*
X125416169Y-96745203D01*
X125731919Y-96875991D01*
X126067117Y-96942666D01*
X126408883Y-96942666D01*
X126744081Y-96875991D01*
X127059831Y-96745203D01*
X127343998Y-96555329D01*
X127585663Y-96313664D01*
X127775537Y-96029497D01*
X127906325Y-95713747D01*
X127973000Y-95378549D01*
X127973000Y-95036783D01*
X127906325Y-94701585D01*
X127775537Y-94385835D01*
X127585663Y-94101668D01*
X127343998Y-93860003D01*
X127059831Y-93670129D01*
X126744081Y-93539341D01*
X126408883Y-93472666D01*
X126067117Y-93472666D01*
X125731919Y-93539341D01*
X125416169Y-93670129D01*
X125132002Y-93860003D01*
X124890337Y-94101668D01*
X124700463Y-94385835D01*
X124569675Y-94701585D01*
X124503000Y-95036783D01*
X117816072Y-95036783D01*
X117816072Y-94107666D01*
X117803812Y-93983184D01*
X117767502Y-93863486D01*
X117708537Y-93753172D01*
X117629185Y-93656481D01*
X117532494Y-93577129D01*
X117422180Y-93518164D01*
X117302482Y-93481854D01*
X117178000Y-93469594D01*
X114978000Y-93469594D01*
X114853518Y-93481854D01*
X114733820Y-93518164D01*
X114623506Y-93577129D01*
X114526815Y-93656481D01*
X114447463Y-93753172D01*
X114388498Y-93863486D01*
X114352188Y-93983184D01*
X114339928Y-94107666D01*
X113563000Y-94107666D01*
X113563000Y-89493333D01*
X114339928Y-89493333D01*
X114339928Y-91693333D01*
X114352188Y-91817815D01*
X114388498Y-91937513D01*
X114447463Y-92047827D01*
X114526815Y-92144518D01*
X114623506Y-92223870D01*
X114733820Y-92282835D01*
X114853518Y-92319145D01*
X114978000Y-92331405D01*
X117178000Y-92331405D01*
X117302482Y-92319145D01*
X117422180Y-92282835D01*
X117532494Y-92223870D01*
X117629185Y-92144518D01*
X117708537Y-92047827D01*
X117767502Y-91937513D01*
X117803812Y-91817815D01*
X117816072Y-91693333D01*
X117816072Y-90422450D01*
X124503000Y-90422450D01*
X124503000Y-90764216D01*
X124569675Y-91099414D01*
X124700463Y-91415164D01*
X124890337Y-91699331D01*
X125132002Y-91940996D01*
X125416169Y-92130870D01*
X125731919Y-92261658D01*
X126067117Y-92328333D01*
X126408883Y-92328333D01*
X126744081Y-92261658D01*
X127059831Y-92130870D01*
X127343998Y-91940996D01*
X127585663Y-91699331D01*
X127775537Y-91415164D01*
X127906325Y-91099414D01*
X127973000Y-90764216D01*
X127973000Y-90422450D01*
X127906325Y-90087252D01*
X127775537Y-89771502D01*
X127585663Y-89487335D01*
X127343998Y-89245670D01*
X127059831Y-89055796D01*
X126744081Y-88925008D01*
X126408883Y-88858333D01*
X126067117Y-88858333D01*
X125731919Y-88925008D01*
X125416169Y-89055796D01*
X125132002Y-89245670D01*
X124890337Y-89487335D01*
X124700463Y-89771502D01*
X124569675Y-90087252D01*
X124503000Y-90422450D01*
X117816072Y-90422450D01*
X117816072Y-89493333D01*
X117803812Y-89368851D01*
X117767502Y-89249153D01*
X117708537Y-89138839D01*
X117629185Y-89042148D01*
X117532494Y-88962796D01*
X117422180Y-88903831D01*
X117302482Y-88867521D01*
X117178000Y-88855261D01*
X114978000Y-88855261D01*
X114853518Y-88867521D01*
X114733820Y-88903831D01*
X114623506Y-88962796D01*
X114526815Y-89042148D01*
X114447463Y-89138839D01*
X114388498Y-89249153D01*
X114352188Y-89368851D01*
X114339928Y-89493333D01*
X113563000Y-89493333D01*
X113563000Y-84879000D01*
X114339928Y-84879000D01*
X114339928Y-87079000D01*
X114352188Y-87203482D01*
X114388498Y-87323180D01*
X114447463Y-87433494D01*
X114526815Y-87530185D01*
X114623506Y-87609537D01*
X114733820Y-87668502D01*
X114853518Y-87704812D01*
X114978000Y-87717072D01*
X117178000Y-87717072D01*
X117302482Y-87704812D01*
X117422180Y-87668502D01*
X117532494Y-87609537D01*
X117629185Y-87530185D01*
X117708537Y-87433494D01*
X117767502Y-87323180D01*
X117803812Y-87203482D01*
X117816072Y-87079000D01*
X117816072Y-86375122D01*
X124548825Y-86375122D01*
X124613425Y-86588094D01*
X124763469Y-86893329D01*
X124970178Y-87163427D01*
X125225609Y-87388008D01*
X125519946Y-87558442D01*
X125841877Y-87668179D01*
X126111000Y-87550600D01*
X126111000Y-86106000D01*
X126365000Y-86106000D01*
X126365000Y-87550600D01*
X126634123Y-87668179D01*
X126956054Y-87558442D01*
X127250391Y-87388008D01*
X127505822Y-87163427D01*
X127712531Y-86893329D01*
X127862575Y-86588094D01*
X127927175Y-86375122D01*
X127809125Y-86106000D01*
X126365000Y-86106000D01*
X126111000Y-86106000D01*
X124666875Y-86106000D01*
X124548825Y-86375122D01*
X117816072Y-86375122D01*
X117816072Y-85582878D01*
X124548825Y-85582878D01*
X124666875Y-85852000D01*
X126111000Y-85852000D01*
X126111000Y-84407400D01*
X126365000Y-84407400D01*
X126365000Y-85852000D01*
X127809125Y-85852000D01*
X127927175Y-85582878D01*
X127862575Y-85369906D01*
X127712531Y-85064671D01*
X127505822Y-84794573D01*
X127250391Y-84569992D01*
X126956054Y-84399558D01*
X126634123Y-84289821D01*
X126365000Y-84407400D01*
X126111000Y-84407400D01*
X125841877Y-84289821D01*
X125519946Y-84399558D01*
X125225609Y-84569992D01*
X124970178Y-84794573D01*
X124763469Y-85064671D01*
X124613425Y-85369906D01*
X124548825Y-85582878D01*
X117816072Y-85582878D01*
X117816072Y-84879000D01*
X117803812Y-84754518D01*
X117767502Y-84634820D01*
X117708537Y-84524506D01*
X117629185Y-84427815D01*
X117532494Y-84348463D01*
X117422180Y-84289498D01*
X117302482Y-84253188D01*
X117178000Y-84240928D01*
X114978000Y-84240928D01*
X114853518Y-84253188D01*
X114733820Y-84289498D01*
X114623506Y-84348463D01*
X114526815Y-84427815D01*
X114447463Y-84524506D01*
X114388498Y-84634820D01*
X114352188Y-84754518D01*
X114339928Y-84879000D01*
X113563000Y-84879000D01*
X113563000Y-79264000D01*
X115884428Y-79264000D01*
X115884428Y-81264000D01*
X115896688Y-81388482D01*
X115932998Y-81508180D01*
X115991963Y-81618494D01*
X116071315Y-81715185D01*
X116168006Y-81794537D01*
X116278320Y-81853502D01*
X116398018Y-81889812D01*
X116522500Y-81902072D01*
X118427500Y-81902072D01*
X118551982Y-81889812D01*
X118671680Y-81853502D01*
X118781994Y-81794537D01*
X118878685Y-81715185D01*
X118958037Y-81618494D01*
X119007059Y-81526781D01*
X119148077Y-81639969D01*
X119423906Y-81783571D01*
X119642020Y-81854563D01*
X119888000Y-81734594D01*
X119888000Y-80391000D01*
X119868000Y-80391000D01*
X119868000Y-80137000D01*
X119888000Y-80137000D01*
X119888000Y-78793406D01*
X120142000Y-78793406D01*
X120142000Y-80137000D01*
X120162000Y-80137000D01*
X120162000Y-80391000D01*
X120142000Y-80391000D01*
X120142000Y-81734594D01*
X120387980Y-81854563D01*
X120606094Y-81783571D01*
X120881923Y-81639969D01*
X121124437Y-81445315D01*
X121279837Y-81260101D01*
X121427037Y-81439463D01*
X121668766Y-81637845D01*
X121944552Y-81785255D01*
X122243797Y-81876030D01*
X122555000Y-81906681D01*
X122866204Y-81876030D01*
X123165449Y-81785255D01*
X123441235Y-81637845D01*
X123682963Y-81439463D01*
X123721369Y-81392665D01*
X126962000Y-81392665D01*
X126962000Y-81675335D01*
X127017147Y-81952574D01*
X127125320Y-82213727D01*
X127282363Y-82448759D01*
X127482241Y-82648637D01*
X127717273Y-82805680D01*
X127978426Y-82913853D01*
X128255665Y-82969000D01*
X128538335Y-82969000D01*
X128815574Y-82913853D01*
X129076727Y-82805680D01*
X129311759Y-82648637D01*
X129511637Y-82448759D01*
X129668680Y-82213727D01*
X129776853Y-81952574D01*
X129832000Y-81675335D01*
X129832000Y-81392665D01*
X129776853Y-81115426D01*
X129668680Y-80854273D01*
X129511637Y-80619241D01*
X129311759Y-80419363D01*
X129076727Y-80262320D01*
X128815574Y-80154147D01*
X128538335Y-80099000D01*
X128255665Y-80099000D01*
X127978426Y-80154147D01*
X127717273Y-80262320D01*
X127482241Y-80419363D01*
X127282363Y-80619241D01*
X127125320Y-80854273D01*
X127017147Y-81115426D01*
X126962000Y-81392665D01*
X123721369Y-81392665D01*
X123881345Y-81197734D01*
X124028755Y-80921948D01*
X124119530Y-80622703D01*
X124142500Y-80389485D01*
X124142500Y-80138514D01*
X124119530Y-79905296D01*
X124028755Y-79606051D01*
X123881345Y-79330265D01*
X123682963Y-79088537D01*
X123441234Y-78890155D01*
X123165448Y-78742745D01*
X122866203Y-78651970D01*
X122555000Y-78621319D01*
X122243796Y-78651970D01*
X121944551Y-78742745D01*
X121668765Y-78890155D01*
X121427037Y-79088537D01*
X121279838Y-79267900D01*
X121124437Y-79082685D01*
X120881923Y-78888031D01*
X120606094Y-78744429D01*
X120387980Y-78673437D01*
X120142000Y-78793406D01*
X119888000Y-78793406D01*
X119642020Y-78673437D01*
X119423906Y-78744429D01*
X119148077Y-78888031D01*
X119007059Y-79001219D01*
X118958037Y-78909506D01*
X118878685Y-78812815D01*
X118781994Y-78733463D01*
X118671680Y-78674498D01*
X118551982Y-78638188D01*
X118427500Y-78625928D01*
X116522500Y-78625928D01*
X116398018Y-78638188D01*
X116278320Y-78674498D01*
X116168006Y-78733463D01*
X116071315Y-78812815D01*
X115991963Y-78909506D01*
X115932998Y-79019820D01*
X115896688Y-79139518D01*
X115884428Y-79264000D01*
X113563000Y-79264000D01*
X113563000Y-77481000D01*
X131303928Y-77481000D01*
X131316188Y-77605482D01*
X131352498Y-77725180D01*
X131411463Y-77835494D01*
X131490815Y-77932185D01*
X131587506Y-78011537D01*
X131697820Y-78070502D01*
X131817518Y-78106812D01*
X131942000Y-78119072D01*
X132556250Y-78116000D01*
X132715000Y-77957250D01*
X132715000Y-76708000D01*
X131465750Y-76708000D01*
X131307000Y-76866750D01*
X131303928Y-77481000D01*
X113563000Y-77481000D01*
X113563000Y-75681000D01*
X131303928Y-75681000D01*
X131307000Y-76295250D01*
X131465750Y-76454000D01*
X132715000Y-76454000D01*
X132715000Y-75204750D01*
X132969000Y-75204750D01*
X132969000Y-76454000D01*
X132989000Y-76454000D01*
X132989000Y-76708000D01*
X132969000Y-76708000D01*
X132969000Y-77957250D01*
X133127750Y-78116000D01*
X133742000Y-78119072D01*
X133866482Y-78106812D01*
X133986180Y-78070502D01*
X134096494Y-78011537D01*
X134193185Y-77932185D01*
X134272537Y-77835494D01*
X134331502Y-77725180D01*
X134337056Y-77706873D01*
X134403495Y-77773312D01*
X134654905Y-77941299D01*
X134934257Y-78057011D01*
X135230816Y-78116000D01*
X135533184Y-78116000D01*
X135829743Y-78057011D01*
X136109095Y-77941299D01*
X136360505Y-77773312D01*
X136574312Y-77559505D01*
X136742299Y-77308095D01*
X136858011Y-77028743D01*
X136917000Y-76732184D01*
X136917000Y-76429816D01*
X136858011Y-76133257D01*
X136742299Y-75853905D01*
X136574312Y-75602495D01*
X136360505Y-75388688D01*
X136109095Y-75220701D01*
X135829743Y-75104989D01*
X135533184Y-75046000D01*
X135230816Y-75046000D01*
X134934257Y-75104989D01*
X134654905Y-75220701D01*
X134403495Y-75388688D01*
X134337056Y-75455127D01*
X134331502Y-75436820D01*
X134272537Y-75326506D01*
X134193185Y-75229815D01*
X134096494Y-75150463D01*
X133986180Y-75091498D01*
X133866482Y-75055188D01*
X133742000Y-75042928D01*
X133127750Y-75046000D01*
X132969000Y-75204750D01*
X132715000Y-75204750D01*
X132556250Y-75046000D01*
X131942000Y-75042928D01*
X131817518Y-75055188D01*
X131697820Y-75091498D01*
X131587506Y-75150463D01*
X131490815Y-75229815D01*
X131411463Y-75326506D01*
X131352498Y-75436820D01*
X131316188Y-75556518D01*
X131303928Y-75681000D01*
X113563000Y-75681000D01*
X113563000Y-73772665D01*
X126962000Y-73772665D01*
X126962000Y-74055335D01*
X127017147Y-74332574D01*
X127125320Y-74593727D01*
X127282363Y-74828759D01*
X127482241Y-75028637D01*
X127717273Y-75185680D01*
X127978426Y-75293853D01*
X128255665Y-75349000D01*
X128538335Y-75349000D01*
X128815574Y-75293853D01*
X129076727Y-75185680D01*
X129311759Y-75028637D01*
X129511637Y-74828759D01*
X129668680Y-74593727D01*
X129776853Y-74332574D01*
X129832000Y-74055335D01*
X129832000Y-73772665D01*
X129776853Y-73495426D01*
X129668680Y-73234273D01*
X129511637Y-72999241D01*
X129311759Y-72799363D01*
X129076727Y-72642320D01*
X128815574Y-72534147D01*
X128538335Y-72479000D01*
X128255665Y-72479000D01*
X127978426Y-72534147D01*
X127717273Y-72642320D01*
X127482241Y-72799363D01*
X127282363Y-72999241D01*
X127125320Y-73234273D01*
X127017147Y-73495426D01*
X126962000Y-73772665D01*
X113563000Y-73772665D01*
X113563000Y-67834000D01*
X115709928Y-67834000D01*
X115709928Y-69834000D01*
X115722188Y-69958482D01*
X115758498Y-70078180D01*
X115817463Y-70188494D01*
X115896815Y-70285185D01*
X115993506Y-70364537D01*
X116103820Y-70423502D01*
X116223518Y-70459812D01*
X116348000Y-70472072D01*
X118348000Y-70472072D01*
X118472482Y-70459812D01*
X118592180Y-70423502D01*
X118702494Y-70364537D01*
X118799185Y-70285185D01*
X118878537Y-70188494D01*
X118937502Y-70078180D01*
X118970496Y-69969413D01*
X121392192Y-69969413D01*
X121487956Y-70233814D01*
X121777571Y-70374704D01*
X122089108Y-70456384D01*
X122410595Y-70475718D01*
X122729675Y-70431961D01*
X123034088Y-70326795D01*
X123208044Y-70233814D01*
X123303808Y-69969413D01*
X122348000Y-69013605D01*
X121392192Y-69969413D01*
X118970496Y-69969413D01*
X118973812Y-69958482D01*
X118986072Y-69834000D01*
X118986072Y-68896595D01*
X120706282Y-68896595D01*
X120750039Y-69215675D01*
X120855205Y-69520088D01*
X120948186Y-69694044D01*
X121212587Y-69789808D01*
X122168395Y-68834000D01*
X122527605Y-68834000D01*
X123483413Y-69789808D01*
X123747814Y-69694044D01*
X123888704Y-69404429D01*
X123970384Y-69092892D01*
X123989718Y-68771405D01*
X123945961Y-68452325D01*
X123840795Y-68147912D01*
X123747814Y-67973956D01*
X123483413Y-67878192D01*
X122527605Y-68834000D01*
X122168395Y-68834000D01*
X121212587Y-67878192D01*
X120948186Y-67973956D01*
X120807296Y-68263571D01*
X120725616Y-68575108D01*
X120706282Y-68896595D01*
X118986072Y-68896595D01*
X118986072Y-67834000D01*
X118973812Y-67709518D01*
X118970497Y-67698587D01*
X121392192Y-67698587D01*
X122348000Y-68654395D01*
X123303808Y-67698587D01*
X123208044Y-67434186D01*
X122918429Y-67293296D01*
X122606892Y-67211616D01*
X122285405Y-67192282D01*
X121966325Y-67236039D01*
X121661912Y-67341205D01*
X121487956Y-67434186D01*
X121392192Y-67698587D01*
X118970497Y-67698587D01*
X118937502Y-67589820D01*
X118878537Y-67479506D01*
X118799185Y-67382815D01*
X118702494Y-67303463D01*
X118592180Y-67244498D01*
X118472482Y-67208188D01*
X118348000Y-67195928D01*
X116348000Y-67195928D01*
X116223518Y-67208188D01*
X116103820Y-67244498D01*
X115993506Y-67303463D01*
X115896815Y-67382815D01*
X115817463Y-67479506D01*
X115758498Y-67589820D01*
X115722188Y-67709518D01*
X115709928Y-67834000D01*
X113563000Y-67834000D01*
X113563000Y-66383000D01*
X126704928Y-66383000D01*
X126704928Y-67983000D01*
X126717188Y-68107482D01*
X126753498Y-68227180D01*
X126812463Y-68337494D01*
X126891815Y-68434185D01*
X126988506Y-68513537D01*
X127098820Y-68572502D01*
X127218518Y-68608812D01*
X127343000Y-68621072D01*
X128943000Y-68621072D01*
X129067482Y-68608812D01*
X129187180Y-68572502D01*
X129297494Y-68513537D01*
X129394185Y-68434185D01*
X129473537Y-68337494D01*
X129532502Y-68227180D01*
X129548117Y-68175702D01*
X129829903Y-68175702D01*
X129901486Y-68419671D01*
X130156996Y-68540571D01*
X130431184Y-68609300D01*
X130713512Y-68623217D01*
X130993130Y-68581787D01*
X131259292Y-68486603D01*
X131384514Y-68419671D01*
X131456097Y-68175702D01*
X130643000Y-67362605D01*
X129829903Y-68175702D01*
X129548117Y-68175702D01*
X129568812Y-68107482D01*
X129581072Y-67983000D01*
X129581072Y-67975785D01*
X129650298Y-67996097D01*
X130463395Y-67183000D01*
X130822605Y-67183000D01*
X131635702Y-67996097D01*
X131879671Y-67924514D01*
X132000571Y-67669004D01*
X132069300Y-67394816D01*
X132083217Y-67112488D01*
X132041787Y-66832870D01*
X131946603Y-66566708D01*
X131879671Y-66441486D01*
X131635702Y-66369903D01*
X130822605Y-67183000D01*
X130463395Y-67183000D01*
X129650298Y-66369903D01*
X129581072Y-66390215D01*
X129581072Y-66383000D01*
X129568812Y-66258518D01*
X129548118Y-66190298D01*
X129829903Y-66190298D01*
X130643000Y-67003395D01*
X131456097Y-66190298D01*
X131384514Y-65946329D01*
X131129004Y-65825429D01*
X130854816Y-65756700D01*
X130572488Y-65742783D01*
X130292870Y-65784213D01*
X130026708Y-65879397D01*
X129901486Y-65946329D01*
X129829903Y-66190298D01*
X129548118Y-66190298D01*
X129532502Y-66138820D01*
X129473537Y-66028506D01*
X129394185Y-65931815D01*
X129297494Y-65852463D01*
X129187180Y-65793498D01*
X129067482Y-65757188D01*
X128943000Y-65744928D01*
X127343000Y-65744928D01*
X127218518Y-65757188D01*
X127098820Y-65793498D01*
X126988506Y-65852463D01*
X126891815Y-65931815D01*
X126812463Y-66028506D01*
X126753498Y-66138820D01*
X126717188Y-66258518D01*
X126704928Y-66383000D01*
X113563000Y-66383000D01*
X113563000Y-64033000D01*
X138781230Y-64033000D01*
X138768498Y-64056820D01*
%TA.AperFunction,Conductor*%
D31*
G36*
X138768498Y-64056820D02*
G01*
X138732188Y-64176518D01*
X138719928Y-64301000D01*
X138719928Y-66001000D01*
X138732188Y-66125482D01*
X138768498Y-66245180D01*
X138827463Y-66355494D01*
X138906815Y-66452185D01*
X139003506Y-66531537D01*
X139113820Y-66590502D01*
X139194466Y-66614966D01*
X139110412Y-66690731D01*
X138936359Y-66924080D01*
X138811175Y-67186901D01*
X138766524Y-67334110D01*
X138887845Y-67564000D01*
X140081000Y-67564000D01*
X140081000Y-67544000D01*
X140335000Y-67544000D01*
X140335000Y-67564000D01*
X142621000Y-67564000D01*
X142621000Y-67544000D01*
X142875000Y-67544000D01*
X142875000Y-67564000D01*
X142895000Y-67564000D01*
X142895000Y-67818000D01*
X142875000Y-67818000D01*
X142875000Y-67838000D01*
X142621000Y-67838000D01*
X142621000Y-67818000D01*
X140335000Y-67818000D01*
X140335000Y-67838000D01*
X140081000Y-67838000D01*
X140081000Y-67818000D01*
X138887845Y-67818000D01*
X138766524Y-68047890D01*
X138811175Y-68195099D01*
X138936359Y-68457920D01*
X139103498Y-68682000D01*
X138589419Y-68682000D01*
X138557000Y-68678807D01*
X138524581Y-68682000D01*
X138427617Y-68691550D01*
X138303207Y-68729290D01*
X138188550Y-68790575D01*
X138088052Y-68873052D01*
X138005575Y-68973550D01*
X137944290Y-69088207D01*
X137906550Y-69212617D01*
X137893807Y-69342000D01*
X137897001Y-69374429D01*
X137897001Y-86888869D01*
X137883520Y-86875388D01*
X137697624Y-86751176D01*
X137491067Y-86665617D01*
X137271788Y-86622000D01*
X137048212Y-86622000D01*
X136828933Y-86665617D01*
X136685570Y-86725000D01*
X135493743Y-86725000D01*
X135343150Y-86499621D01*
X135122379Y-86278850D01*
X135094168Y-86260000D01*
X135122379Y-86241150D01*
X135343150Y-86020379D01*
X135516609Y-85760779D01*
X135636089Y-85472327D01*
X135697000Y-85166109D01*
X135697000Y-84853891D01*
X135636089Y-84547673D01*
X135516609Y-84259221D01*
X135343150Y-83999621D01*
X135122379Y-83778850D01*
X134862779Y-83605391D01*
X134574327Y-83485911D01*
X134268109Y-83425000D01*
X133955891Y-83425000D01*
X133649673Y-83485911D01*
X133361221Y-83605391D01*
X133101621Y-83778850D01*
X132880850Y-83999621D01*
X132707391Y-84259221D01*
X132587911Y-84547673D01*
X132527000Y-84853891D01*
X132527000Y-85166109D01*
X132587911Y-85472327D01*
X132707391Y-85760779D01*
X132880850Y-86020379D01*
X133101621Y-86241150D01*
X133129832Y-86260000D01*
X133101621Y-86278850D01*
X132880850Y-86499621D01*
X132707391Y-86759221D01*
X132587911Y-87047673D01*
X132527000Y-87353891D01*
X132527000Y-87666109D01*
X132587911Y-87972327D01*
X132707391Y-88260779D01*
X132866021Y-88498186D01*
X132807506Y-88529463D01*
X132710815Y-88608815D01*
X132631463Y-88705506D01*
X132572498Y-88815820D01*
X132536188Y-88935518D01*
X132523928Y-89060000D01*
X132523928Y-90960000D01*
X132536188Y-91084482D01*
X132572498Y-91204180D01*
X132631463Y-91314494D01*
X132710815Y-91411185D01*
X132807506Y-91490537D01*
X132917820Y-91549502D01*
X133037518Y-91585812D01*
X133162000Y-91598072D01*
X135062000Y-91598072D01*
X135186482Y-91585812D01*
X135306180Y-91549502D01*
X135416494Y-91490537D01*
X135513185Y-91411185D01*
X135592537Y-91314494D01*
X135651502Y-91204180D01*
X135687812Y-91084482D01*
X135700072Y-90960000D01*
X135700072Y-89060000D01*
X135687812Y-88935518D01*
X135651502Y-88815820D01*
X135592537Y-88705506D01*
X135513185Y-88608815D01*
X135416494Y-88529463D01*
X135357979Y-88498186D01*
X135493743Y-88295000D01*
X136154427Y-88295000D01*
X136278388Y-88480520D01*
X136436480Y-88638612D01*
X136622376Y-88762824D01*
X136828933Y-88848383D01*
X137048212Y-88892000D01*
X137271788Y-88892000D01*
X137491067Y-88848383D01*
X137697624Y-88762824D01*
X137883520Y-88638612D01*
X137897000Y-88625132D01*
X137897000Y-97486355D01*
X137834033Y-103867000D01*
X137693061Y-103867000D01*
X137493102Y-103906774D01*
X137304744Y-103984795D01*
X137135226Y-104098063D01*
X136991063Y-104242226D01*
X136989878Y-104244000D01*
X135440339Y-104244000D01*
X135353637Y-104114241D01*
X135153759Y-103914363D01*
X134918727Y-103757320D01*
X134657574Y-103649147D01*
X134380335Y-103594000D01*
X134097665Y-103594000D01*
X133820426Y-103649147D01*
X133559273Y-103757320D01*
X133324241Y-103914363D01*
X133124363Y-104114241D01*
X132967320Y-104349273D01*
X132859147Y-104610426D01*
X132804000Y-104887665D01*
X132804000Y-105170335D01*
X132859147Y-105447574D01*
X132967320Y-105708727D01*
X133124363Y-105943759D01*
X133324241Y-106143637D01*
X133559273Y-106300680D01*
X133820426Y-106408853D01*
X134097665Y-106464000D01*
X134380335Y-106464000D01*
X134657574Y-106408853D01*
X134918727Y-106300680D01*
X135153759Y-106143637D01*
X135353637Y-105943759D01*
X135440339Y-105814000D01*
X137296954Y-105814000D01*
X137304744Y-105819205D01*
X137493102Y-105897226D01*
X137693061Y-105937000D01*
X137813605Y-105937000D01*
X137795006Y-107821747D01*
X137797202Y-107846546D01*
X137804193Y-107870441D01*
X137815712Y-107892512D01*
X137831316Y-107911912D01*
X137850404Y-107927895D01*
X137872244Y-107939847D01*
X137895996Y-107947309D01*
X137922000Y-107950000D01*
X137944401Y-107950000D01*
X138005575Y-108064450D01*
X138088052Y-108164948D01*
X138188550Y-108247425D01*
X138303207Y-108308710D01*
X138427617Y-108346450D01*
X138557000Y-108359193D01*
X138589419Y-108356000D01*
X143866001Y-108356000D01*
X143866001Y-109286812D01*
X143809990Y-109151589D01*
X143647475Y-108908368D01*
X143440632Y-108701525D01*
X143197411Y-108539010D01*
X142927158Y-108427068D01*
X142640260Y-108370000D01*
X142347740Y-108370000D01*
X142060842Y-108427068D01*
X141790589Y-108539010D01*
X141547368Y-108701525D01*
X141415513Y-108833380D01*
X141393502Y-108760820D01*
X141334537Y-108650506D01*
X141255185Y-108553815D01*
X141158494Y-108474463D01*
X141048180Y-108415498D01*
X140928482Y-108379188D01*
X140804000Y-108366928D01*
X139104000Y-108366928D01*
X138979518Y-108379188D01*
X138859820Y-108415498D01*
X138749506Y-108474463D01*
X138652815Y-108553815D01*
X138573463Y-108650506D01*
X138514498Y-108760820D01*
X138478188Y-108880518D01*
X138465928Y-109005000D01*
X138465928Y-110705000D01*
X138478188Y-110829482D01*
X138514498Y-110949180D01*
X138573463Y-111059494D01*
X138652815Y-111156185D01*
X138749506Y-111235537D01*
X138859820Y-111294502D01*
X138940466Y-111318966D01*
X138856412Y-111394731D01*
X138682359Y-111628080D01*
X138557175Y-111890901D01*
X138512524Y-112038110D01*
X138633845Y-112268000D01*
X139827000Y-112268000D01*
X139827000Y-112248000D01*
X140081000Y-112248000D01*
X140081000Y-112268000D01*
X142367000Y-112268000D01*
X142367000Y-112248000D01*
X142621000Y-112248000D01*
X142621000Y-112268000D01*
X142641000Y-112268000D01*
X142641000Y-112522000D01*
X142621000Y-112522000D01*
X142621000Y-113715814D01*
X142850891Y-113836481D01*
X143125252Y-113739157D01*
X143375355Y-113590178D01*
X143591588Y-113395269D01*
X143765641Y-113161920D01*
X143866000Y-112951218D01*
X143866000Y-114021000D01*
X134676533Y-114021000D01*
X134918727Y-113920680D01*
X135153759Y-113763637D01*
X135353637Y-113563759D01*
X135510680Y-113328727D01*
X135618853Y-113067574D01*
X135674000Y-112790335D01*
X135674000Y-112751890D01*
X138512524Y-112751890D01*
X138557175Y-112899099D01*
X138682359Y-113161920D01*
X138856412Y-113395269D01*
X139072645Y-113590178D01*
X139322748Y-113739157D01*
X139597109Y-113836481D01*
X139827000Y-113715814D01*
X139827000Y-112522000D01*
X140081000Y-112522000D01*
X140081000Y-113715814D01*
X140310891Y-113836481D01*
X140585252Y-113739157D01*
X140835355Y-113590178D01*
X141051588Y-113395269D01*
X141224000Y-113164120D01*
X141396412Y-113395269D01*
X141612645Y-113590178D01*
X141862748Y-113739157D01*
X142137109Y-113836481D01*
X142367000Y-113715814D01*
X142367000Y-112522000D01*
X140081000Y-112522000D01*
X139827000Y-112522000D01*
X138633845Y-112522000D01*
X138512524Y-112751890D01*
X135674000Y-112751890D01*
X135674000Y-112507665D01*
X135618853Y-112230426D01*
X135510680Y-111969273D01*
X135353637Y-111734241D01*
X135153759Y-111534363D01*
X134918727Y-111377320D01*
X134657574Y-111269147D01*
X134380335Y-111214000D01*
X134097665Y-111214000D01*
X133820426Y-111269147D01*
X133559273Y-111377320D01*
X133324241Y-111534363D01*
X133124363Y-111734241D01*
X132967320Y-111969273D01*
X132859147Y-112230426D01*
X132804000Y-112507665D01*
X132804000Y-112790335D01*
X132859147Y-113067574D01*
X132967320Y-113328727D01*
X133124363Y-113563759D01*
X133324241Y-113763637D01*
X133559273Y-113920680D01*
X133801467Y-114021000D01*
X127104850Y-114021000D01*
X127238775Y-113820566D01*
X127384639Y-113468419D01*
X127459000Y-113094581D01*
X127459000Y-112713419D01*
X127384639Y-112339581D01*
X127238775Y-111987434D01*
X127027013Y-111670509D01*
X126757491Y-111400987D01*
X126440566Y-111189225D01*
X126088419Y-111043361D01*
X125714581Y-110969000D01*
X125333419Y-110969000D01*
X124959581Y-111043361D01*
X124607434Y-111189225D01*
X124290509Y-111400987D01*
X124020987Y-111670509D01*
X123809225Y-111987434D01*
X123663361Y-112339581D01*
X123589000Y-112713419D01*
X123589000Y-113094581D01*
X123663361Y-113468419D01*
X123809225Y-113820566D01*
X123943150Y-114021000D01*
X113563000Y-114021000D01*
X113563000Y-98722000D01*
X114339928Y-98722000D01*
X114339928Y-100922000D01*
X114352188Y-101046482D01*
X114388498Y-101166180D01*
X114447463Y-101276494D01*
X114526815Y-101373185D01*
X114623506Y-101452537D01*
X114733820Y-101511502D01*
X114853518Y-101547812D01*
X114978000Y-101560072D01*
X116705915Y-101560072D01*
X121626974Y-106481131D01*
X121607434Y-106489225D01*
X121290509Y-106700987D01*
X121020987Y-106970509D01*
X120809225Y-107287434D01*
X120663361Y-107639581D01*
X120589000Y-108013419D01*
X120589000Y-108394581D01*
X120663361Y-108768419D01*
X120809225Y-109120566D01*
X121020987Y-109437491D01*
X121290509Y-109707013D01*
X121607434Y-109918775D01*
X121959581Y-110064639D01*
X122333419Y-110139000D01*
X122714581Y-110139000D01*
X123088419Y-110064639D01*
X123440566Y-109918775D01*
X123757491Y-109707013D01*
X124027013Y-109437491D01*
X124238775Y-109120566D01*
X124384639Y-108768419D01*
X124459000Y-108394581D01*
X124459000Y-108013419D01*
X124384639Y-107639581D01*
X124238775Y-107287434D01*
X124027013Y-106970509D01*
X123960504Y-106904000D01*
X126585928Y-106904000D01*
X126585928Y-109504000D01*
X126598188Y-109628482D01*
X126634498Y-109748180D01*
X126693463Y-109858494D01*
X126772815Y-109955185D01*
X126869506Y-110034537D01*
X126979820Y-110093502D01*
X127099518Y-110129812D01*
X127224000Y-110142072D01*
X129824000Y-110142072D01*
X129948482Y-110129812D01*
X130068180Y-110093502D01*
X130178494Y-110034537D01*
X130275185Y-109955185D01*
X130354537Y-109858494D01*
X130413502Y-109748180D01*
X130449812Y-109628482D01*
X130462072Y-109504000D01*
X130462072Y-106904000D01*
X130449812Y-106779518D01*
X130413502Y-106659820D01*
X130354537Y-106549506D01*
X130275185Y-106452815D01*
X130178494Y-106373463D01*
X130068180Y-106314498D01*
X129948482Y-106278188D01*
X129824000Y-106265928D01*
X127224000Y-106265928D01*
X127099518Y-106278188D01*
X126979820Y-106314498D01*
X126869506Y-106373463D01*
X126772815Y-106452815D01*
X126693463Y-106549506D01*
X126634498Y-106659820D01*
X126598188Y-106779518D01*
X126585928Y-106904000D01*
X123960504Y-106904000D01*
X123757491Y-106700987D01*
X123440566Y-106489225D01*
X123309000Y-106434729D01*
X123309000Y-106306556D01*
X123312797Y-106268000D01*
X123309000Y-106229444D01*
X123309000Y-106229439D01*
X123305020Y-106189026D01*
X123297642Y-106114113D01*
X123252754Y-105966140D01*
X123240791Y-105943759D01*
X123179862Y-105829767D01*
X123081764Y-105710236D01*
X123051810Y-105685653D01*
X117816072Y-100449915D01*
X117816072Y-100218122D01*
X124548825Y-100218122D01*
X124613425Y-100431094D01*
X124763469Y-100736329D01*
X124970178Y-101006427D01*
X125225609Y-101231008D01*
X125519946Y-101401442D01*
X125841877Y-101511179D01*
X126111000Y-101393600D01*
X126111000Y-99949000D01*
X126365000Y-99949000D01*
X126365000Y-101393600D01*
X126634123Y-101511179D01*
X126956054Y-101401442D01*
X127250391Y-101231008D01*
X127505822Y-101006427D01*
X127712531Y-100736329D01*
X127862575Y-100431094D01*
X127927175Y-100218122D01*
X127809125Y-99949000D01*
X126365000Y-99949000D01*
X126111000Y-99949000D01*
X124666875Y-99949000D01*
X124548825Y-100218122D01*
X117816072Y-100218122D01*
X117816072Y-99425878D01*
X124548825Y-99425878D01*
X124666875Y-99695000D01*
X126111000Y-99695000D01*
X126111000Y-98250400D01*
X126365000Y-98250400D01*
X126365000Y-99695000D01*
X127809125Y-99695000D01*
X127860008Y-99579000D01*
X131303928Y-99579000D01*
X131316188Y-99703482D01*
X131352498Y-99823180D01*
X131411463Y-99933494D01*
X131490815Y-100030185D01*
X131587506Y-100109537D01*
X131697820Y-100168502D01*
X131817518Y-100204812D01*
X131942000Y-100217072D01*
X132556250Y-100214000D01*
X132715000Y-100055250D01*
X132715000Y-98806000D01*
X131465750Y-98806000D01*
X131307000Y-98964750D01*
X131303928Y-99579000D01*
X127860008Y-99579000D01*
X127927175Y-99425878D01*
X127862575Y-99212906D01*
X127712531Y-98907671D01*
X127505822Y-98637573D01*
X127250391Y-98412992D01*
X126956054Y-98242558D01*
X126634123Y-98132821D01*
X126365000Y-98250400D01*
X126111000Y-98250400D01*
X125841877Y-98132821D01*
X125519946Y-98242558D01*
X125225609Y-98412992D01*
X124970178Y-98637573D01*
X124763469Y-98907671D01*
X124613425Y-99212906D01*
X124548825Y-99425878D01*
X117816072Y-99425878D01*
X117816072Y-98722000D01*
X117803812Y-98597518D01*
X117767502Y-98477820D01*
X117708537Y-98367506D01*
X117629185Y-98270815D01*
X117532494Y-98191463D01*
X117422180Y-98132498D01*
X117302482Y-98096188D01*
X117178000Y-98083928D01*
X114978000Y-98083928D01*
X114853518Y-98096188D01*
X114733820Y-98132498D01*
X114623506Y-98191463D01*
X114526815Y-98270815D01*
X114447463Y-98367506D01*
X114388498Y-98477820D01*
X114352188Y-98597518D01*
X114339928Y-98722000D01*
X113563000Y-98722000D01*
X113563000Y-97779000D01*
X131303928Y-97779000D01*
X131307000Y-98393250D01*
X131465750Y-98552000D01*
X132715000Y-98552000D01*
X132715000Y-97302750D01*
X132969000Y-97302750D01*
X132969000Y-98552000D01*
X132989000Y-98552000D01*
X132989000Y-98806000D01*
X132969000Y-98806000D01*
X132969000Y-100055250D01*
X133127750Y-100214000D01*
X133742000Y-100217072D01*
X133866482Y-100204812D01*
X133986180Y-100168502D01*
X134096494Y-100109537D01*
X134193185Y-100030185D01*
X134272537Y-99933494D01*
X134331502Y-99823180D01*
X134337056Y-99804873D01*
X134403495Y-99871312D01*
X134654905Y-100039299D01*
X134934257Y-100155011D01*
X135230816Y-100214000D01*
X135533184Y-100214000D01*
X135829743Y-100155011D01*
X136109095Y-100039299D01*
X136360505Y-99871312D01*
X136574312Y-99657505D01*
X136742299Y-99406095D01*
X136858011Y-99126743D01*
X136917000Y-98830184D01*
X136917000Y-98527816D01*
X136858011Y-98231257D01*
X136742299Y-97951905D01*
X136574312Y-97700495D01*
X136360505Y-97486688D01*
X136109095Y-97318701D01*
X135829743Y-97202989D01*
X135533184Y-97144000D01*
X135230816Y-97144000D01*
X134934257Y-97202989D01*
X134654905Y-97318701D01*
X134403495Y-97486688D01*
X134337056Y-97553127D01*
X134331502Y-97534820D01*
X134272537Y-97424506D01*
X134193185Y-97327815D01*
X134096494Y-97248463D01*
X133986180Y-97189498D01*
X133866482Y-97153188D01*
X133742000Y-97140928D01*
X133127750Y-97144000D01*
X132969000Y-97302750D01*
X132715000Y-97302750D01*
X132556250Y-97144000D01*
X131942000Y-97140928D01*
X131817518Y-97153188D01*
X131697820Y-97189498D01*
X131587506Y-97248463D01*
X131490815Y-97327815D01*
X131411463Y-97424506D01*
X131352498Y-97534820D01*
X131316188Y-97654518D01*
X131303928Y-97779000D01*
X113563000Y-97779000D01*
X113563000Y-94107666D01*
X114339928Y-94107666D01*
X114339928Y-96307666D01*
X114352188Y-96432148D01*
X114388498Y-96551846D01*
X114447463Y-96662160D01*
X114526815Y-96758851D01*
X114623506Y-96838203D01*
X114733820Y-96897168D01*
X114853518Y-96933478D01*
X114978000Y-96945738D01*
X117178000Y-96945738D01*
X117302482Y-96933478D01*
X117422180Y-96897168D01*
X117532494Y-96838203D01*
X117629185Y-96758851D01*
X117708537Y-96662160D01*
X117767502Y-96551846D01*
X117803812Y-96432148D01*
X117816072Y-96307666D01*
X117816072Y-95036783D01*
X124503000Y-95036783D01*
X124503000Y-95378549D01*
X124569675Y-95713747D01*
X124700463Y-96029497D01*
X124890337Y-96313664D01*
X125132002Y-96555329D01*
X125416169Y-96745203D01*
X125731919Y-96875991D01*
X126067117Y-96942666D01*
X126408883Y-96942666D01*
X126744081Y-96875991D01*
X127059831Y-96745203D01*
X127343998Y-96555329D01*
X127585663Y-96313664D01*
X127775537Y-96029497D01*
X127906325Y-95713747D01*
X127973000Y-95378549D01*
X127973000Y-95036783D01*
X127906325Y-94701585D01*
X127775537Y-94385835D01*
X127585663Y-94101668D01*
X127343998Y-93860003D01*
X127059831Y-93670129D01*
X126744081Y-93539341D01*
X126408883Y-93472666D01*
X126067117Y-93472666D01*
X125731919Y-93539341D01*
X125416169Y-93670129D01*
X125132002Y-93860003D01*
X124890337Y-94101668D01*
X124700463Y-94385835D01*
X124569675Y-94701585D01*
X124503000Y-95036783D01*
X117816072Y-95036783D01*
X117816072Y-94107666D01*
X117803812Y-93983184D01*
X117767502Y-93863486D01*
X117708537Y-93753172D01*
X117629185Y-93656481D01*
X117532494Y-93577129D01*
X117422180Y-93518164D01*
X117302482Y-93481854D01*
X117178000Y-93469594D01*
X114978000Y-93469594D01*
X114853518Y-93481854D01*
X114733820Y-93518164D01*
X114623506Y-93577129D01*
X114526815Y-93656481D01*
X114447463Y-93753172D01*
X114388498Y-93863486D01*
X114352188Y-93983184D01*
X114339928Y-94107666D01*
X113563000Y-94107666D01*
X113563000Y-89493333D01*
X114339928Y-89493333D01*
X114339928Y-91693333D01*
X114352188Y-91817815D01*
X114388498Y-91937513D01*
X114447463Y-92047827D01*
X114526815Y-92144518D01*
X114623506Y-92223870D01*
X114733820Y-92282835D01*
X114853518Y-92319145D01*
X114978000Y-92331405D01*
X117178000Y-92331405D01*
X117302482Y-92319145D01*
X117422180Y-92282835D01*
X117532494Y-92223870D01*
X117629185Y-92144518D01*
X117708537Y-92047827D01*
X117767502Y-91937513D01*
X117803812Y-91817815D01*
X117816072Y-91693333D01*
X117816072Y-90422450D01*
X124503000Y-90422450D01*
X124503000Y-90764216D01*
X124569675Y-91099414D01*
X124700463Y-91415164D01*
X124890337Y-91699331D01*
X125132002Y-91940996D01*
X125416169Y-92130870D01*
X125731919Y-92261658D01*
X126067117Y-92328333D01*
X126408883Y-92328333D01*
X126744081Y-92261658D01*
X127059831Y-92130870D01*
X127343998Y-91940996D01*
X127585663Y-91699331D01*
X127775537Y-91415164D01*
X127906325Y-91099414D01*
X127973000Y-90764216D01*
X127973000Y-90422450D01*
X127906325Y-90087252D01*
X127775537Y-89771502D01*
X127585663Y-89487335D01*
X127343998Y-89245670D01*
X127059831Y-89055796D01*
X126744081Y-88925008D01*
X126408883Y-88858333D01*
X126067117Y-88858333D01*
X125731919Y-88925008D01*
X125416169Y-89055796D01*
X125132002Y-89245670D01*
X124890337Y-89487335D01*
X124700463Y-89771502D01*
X124569675Y-90087252D01*
X124503000Y-90422450D01*
X117816072Y-90422450D01*
X117816072Y-89493333D01*
X117803812Y-89368851D01*
X117767502Y-89249153D01*
X117708537Y-89138839D01*
X117629185Y-89042148D01*
X117532494Y-88962796D01*
X117422180Y-88903831D01*
X117302482Y-88867521D01*
X117178000Y-88855261D01*
X114978000Y-88855261D01*
X114853518Y-88867521D01*
X114733820Y-88903831D01*
X114623506Y-88962796D01*
X114526815Y-89042148D01*
X114447463Y-89138839D01*
X114388498Y-89249153D01*
X114352188Y-89368851D01*
X114339928Y-89493333D01*
X113563000Y-89493333D01*
X113563000Y-84879000D01*
X114339928Y-84879000D01*
X114339928Y-87079000D01*
X114352188Y-87203482D01*
X114388498Y-87323180D01*
X114447463Y-87433494D01*
X114526815Y-87530185D01*
X114623506Y-87609537D01*
X114733820Y-87668502D01*
X114853518Y-87704812D01*
X114978000Y-87717072D01*
X117178000Y-87717072D01*
X117302482Y-87704812D01*
X117422180Y-87668502D01*
X117532494Y-87609537D01*
X117629185Y-87530185D01*
X117708537Y-87433494D01*
X117767502Y-87323180D01*
X117803812Y-87203482D01*
X117816072Y-87079000D01*
X117816072Y-86375122D01*
X124548825Y-86375122D01*
X124613425Y-86588094D01*
X124763469Y-86893329D01*
X124970178Y-87163427D01*
X125225609Y-87388008D01*
X125519946Y-87558442D01*
X125841877Y-87668179D01*
X126111000Y-87550600D01*
X126111000Y-86106000D01*
X126365000Y-86106000D01*
X126365000Y-87550600D01*
X126634123Y-87668179D01*
X126956054Y-87558442D01*
X127250391Y-87388008D01*
X127505822Y-87163427D01*
X127712531Y-86893329D01*
X127862575Y-86588094D01*
X127927175Y-86375122D01*
X127809125Y-86106000D01*
X126365000Y-86106000D01*
X126111000Y-86106000D01*
X124666875Y-86106000D01*
X124548825Y-86375122D01*
X117816072Y-86375122D01*
X117816072Y-85582878D01*
X124548825Y-85582878D01*
X124666875Y-85852000D01*
X126111000Y-85852000D01*
X126111000Y-84407400D01*
X126365000Y-84407400D01*
X126365000Y-85852000D01*
X127809125Y-85852000D01*
X127927175Y-85582878D01*
X127862575Y-85369906D01*
X127712531Y-85064671D01*
X127505822Y-84794573D01*
X127250391Y-84569992D01*
X126956054Y-84399558D01*
X126634123Y-84289821D01*
X126365000Y-84407400D01*
X126111000Y-84407400D01*
X125841877Y-84289821D01*
X125519946Y-84399558D01*
X125225609Y-84569992D01*
X124970178Y-84794573D01*
X124763469Y-85064671D01*
X124613425Y-85369906D01*
X124548825Y-85582878D01*
X117816072Y-85582878D01*
X117816072Y-84879000D01*
X117803812Y-84754518D01*
X117767502Y-84634820D01*
X117708537Y-84524506D01*
X117629185Y-84427815D01*
X117532494Y-84348463D01*
X117422180Y-84289498D01*
X117302482Y-84253188D01*
X117178000Y-84240928D01*
X114978000Y-84240928D01*
X114853518Y-84253188D01*
X114733820Y-84289498D01*
X114623506Y-84348463D01*
X114526815Y-84427815D01*
X114447463Y-84524506D01*
X114388498Y-84634820D01*
X114352188Y-84754518D01*
X114339928Y-84879000D01*
X113563000Y-84879000D01*
X113563000Y-79264000D01*
X115884428Y-79264000D01*
X115884428Y-81264000D01*
X115896688Y-81388482D01*
X115932998Y-81508180D01*
X115991963Y-81618494D01*
X116071315Y-81715185D01*
X116168006Y-81794537D01*
X116278320Y-81853502D01*
X116398018Y-81889812D01*
X116522500Y-81902072D01*
X118427500Y-81902072D01*
X118551982Y-81889812D01*
X118671680Y-81853502D01*
X118781994Y-81794537D01*
X118878685Y-81715185D01*
X118958037Y-81618494D01*
X119007059Y-81526781D01*
X119148077Y-81639969D01*
X119423906Y-81783571D01*
X119642020Y-81854563D01*
X119888000Y-81734594D01*
X119888000Y-80391000D01*
X119868000Y-80391000D01*
X119868000Y-80137000D01*
X119888000Y-80137000D01*
X119888000Y-78793406D01*
X120142000Y-78793406D01*
X120142000Y-80137000D01*
X120162000Y-80137000D01*
X120162000Y-80391000D01*
X120142000Y-80391000D01*
X120142000Y-81734594D01*
X120387980Y-81854563D01*
X120606094Y-81783571D01*
X120881923Y-81639969D01*
X121124437Y-81445315D01*
X121279837Y-81260101D01*
X121427037Y-81439463D01*
X121668766Y-81637845D01*
X121944552Y-81785255D01*
X122243797Y-81876030D01*
X122555000Y-81906681D01*
X122866204Y-81876030D01*
X123165449Y-81785255D01*
X123441235Y-81637845D01*
X123682963Y-81439463D01*
X123721369Y-81392665D01*
X126962000Y-81392665D01*
X126962000Y-81675335D01*
X127017147Y-81952574D01*
X127125320Y-82213727D01*
X127282363Y-82448759D01*
X127482241Y-82648637D01*
X127717273Y-82805680D01*
X127978426Y-82913853D01*
X128255665Y-82969000D01*
X128538335Y-82969000D01*
X128815574Y-82913853D01*
X129076727Y-82805680D01*
X129311759Y-82648637D01*
X129511637Y-82448759D01*
X129668680Y-82213727D01*
X129776853Y-81952574D01*
X129832000Y-81675335D01*
X129832000Y-81392665D01*
X129776853Y-81115426D01*
X129668680Y-80854273D01*
X129511637Y-80619241D01*
X129311759Y-80419363D01*
X129076727Y-80262320D01*
X128815574Y-80154147D01*
X128538335Y-80099000D01*
X128255665Y-80099000D01*
X127978426Y-80154147D01*
X127717273Y-80262320D01*
X127482241Y-80419363D01*
X127282363Y-80619241D01*
X127125320Y-80854273D01*
X127017147Y-81115426D01*
X126962000Y-81392665D01*
X123721369Y-81392665D01*
X123881345Y-81197734D01*
X124028755Y-80921948D01*
X124119530Y-80622703D01*
X124142500Y-80389485D01*
X124142500Y-80138514D01*
X124119530Y-79905296D01*
X124028755Y-79606051D01*
X123881345Y-79330265D01*
X123682963Y-79088537D01*
X123441234Y-78890155D01*
X123165448Y-78742745D01*
X122866203Y-78651970D01*
X122555000Y-78621319D01*
X122243796Y-78651970D01*
X121944551Y-78742745D01*
X121668765Y-78890155D01*
X121427037Y-79088537D01*
X121279838Y-79267900D01*
X121124437Y-79082685D01*
X120881923Y-78888031D01*
X120606094Y-78744429D01*
X120387980Y-78673437D01*
X120142000Y-78793406D01*
X119888000Y-78793406D01*
X119642020Y-78673437D01*
X119423906Y-78744429D01*
X119148077Y-78888031D01*
X119007059Y-79001219D01*
X118958037Y-78909506D01*
X118878685Y-78812815D01*
X118781994Y-78733463D01*
X118671680Y-78674498D01*
X118551982Y-78638188D01*
X118427500Y-78625928D01*
X116522500Y-78625928D01*
X116398018Y-78638188D01*
X116278320Y-78674498D01*
X116168006Y-78733463D01*
X116071315Y-78812815D01*
X115991963Y-78909506D01*
X115932998Y-79019820D01*
X115896688Y-79139518D01*
X115884428Y-79264000D01*
X113563000Y-79264000D01*
X113563000Y-77481000D01*
X131303928Y-77481000D01*
X131316188Y-77605482D01*
X131352498Y-77725180D01*
X131411463Y-77835494D01*
X131490815Y-77932185D01*
X131587506Y-78011537D01*
X131697820Y-78070502D01*
X131817518Y-78106812D01*
X131942000Y-78119072D01*
X132556250Y-78116000D01*
X132715000Y-77957250D01*
X132715000Y-76708000D01*
X131465750Y-76708000D01*
X131307000Y-76866750D01*
X131303928Y-77481000D01*
X113563000Y-77481000D01*
X113563000Y-75681000D01*
X131303928Y-75681000D01*
X131307000Y-76295250D01*
X131465750Y-76454000D01*
X132715000Y-76454000D01*
X132715000Y-75204750D01*
X132969000Y-75204750D01*
X132969000Y-76454000D01*
X132989000Y-76454000D01*
X132989000Y-76708000D01*
X132969000Y-76708000D01*
X132969000Y-77957250D01*
X133127750Y-78116000D01*
X133742000Y-78119072D01*
X133866482Y-78106812D01*
X133986180Y-78070502D01*
X134096494Y-78011537D01*
X134193185Y-77932185D01*
X134272537Y-77835494D01*
X134331502Y-77725180D01*
X134337056Y-77706873D01*
X134403495Y-77773312D01*
X134654905Y-77941299D01*
X134934257Y-78057011D01*
X135230816Y-78116000D01*
X135533184Y-78116000D01*
X135829743Y-78057011D01*
X136109095Y-77941299D01*
X136360505Y-77773312D01*
X136574312Y-77559505D01*
X136742299Y-77308095D01*
X136858011Y-77028743D01*
X136917000Y-76732184D01*
X136917000Y-76429816D01*
X136858011Y-76133257D01*
X136742299Y-75853905D01*
X136574312Y-75602495D01*
X136360505Y-75388688D01*
X136109095Y-75220701D01*
X135829743Y-75104989D01*
X135533184Y-75046000D01*
X135230816Y-75046000D01*
X134934257Y-75104989D01*
X134654905Y-75220701D01*
X134403495Y-75388688D01*
X134337056Y-75455127D01*
X134331502Y-75436820D01*
X134272537Y-75326506D01*
X134193185Y-75229815D01*
X134096494Y-75150463D01*
X133986180Y-75091498D01*
X133866482Y-75055188D01*
X133742000Y-75042928D01*
X133127750Y-75046000D01*
X132969000Y-75204750D01*
X132715000Y-75204750D01*
X132556250Y-75046000D01*
X131942000Y-75042928D01*
X131817518Y-75055188D01*
X131697820Y-75091498D01*
X131587506Y-75150463D01*
X131490815Y-75229815D01*
X131411463Y-75326506D01*
X131352498Y-75436820D01*
X131316188Y-75556518D01*
X131303928Y-75681000D01*
X113563000Y-75681000D01*
X113563000Y-73772665D01*
X126962000Y-73772665D01*
X126962000Y-74055335D01*
X127017147Y-74332574D01*
X127125320Y-74593727D01*
X127282363Y-74828759D01*
X127482241Y-75028637D01*
X127717273Y-75185680D01*
X127978426Y-75293853D01*
X128255665Y-75349000D01*
X128538335Y-75349000D01*
X128815574Y-75293853D01*
X129076727Y-75185680D01*
X129311759Y-75028637D01*
X129511637Y-74828759D01*
X129668680Y-74593727D01*
X129776853Y-74332574D01*
X129832000Y-74055335D01*
X129832000Y-73772665D01*
X129776853Y-73495426D01*
X129668680Y-73234273D01*
X129511637Y-72999241D01*
X129311759Y-72799363D01*
X129076727Y-72642320D01*
X128815574Y-72534147D01*
X128538335Y-72479000D01*
X128255665Y-72479000D01*
X127978426Y-72534147D01*
X127717273Y-72642320D01*
X127482241Y-72799363D01*
X127282363Y-72999241D01*
X127125320Y-73234273D01*
X127017147Y-73495426D01*
X126962000Y-73772665D01*
X113563000Y-73772665D01*
X113563000Y-67834000D01*
X115709928Y-67834000D01*
X115709928Y-69834000D01*
X115722188Y-69958482D01*
X115758498Y-70078180D01*
X115817463Y-70188494D01*
X115896815Y-70285185D01*
X115993506Y-70364537D01*
X116103820Y-70423502D01*
X116223518Y-70459812D01*
X116348000Y-70472072D01*
X118348000Y-70472072D01*
X118472482Y-70459812D01*
X118592180Y-70423502D01*
X118702494Y-70364537D01*
X118799185Y-70285185D01*
X118878537Y-70188494D01*
X118937502Y-70078180D01*
X118970496Y-69969413D01*
X121392192Y-69969413D01*
X121487956Y-70233814D01*
X121777571Y-70374704D01*
X122089108Y-70456384D01*
X122410595Y-70475718D01*
X122729675Y-70431961D01*
X123034088Y-70326795D01*
X123208044Y-70233814D01*
X123303808Y-69969413D01*
X122348000Y-69013605D01*
X121392192Y-69969413D01*
X118970496Y-69969413D01*
X118973812Y-69958482D01*
X118986072Y-69834000D01*
X118986072Y-68896595D01*
X120706282Y-68896595D01*
X120750039Y-69215675D01*
X120855205Y-69520088D01*
X120948186Y-69694044D01*
X121212587Y-69789808D01*
X122168395Y-68834000D01*
X122527605Y-68834000D01*
X123483413Y-69789808D01*
X123747814Y-69694044D01*
X123888704Y-69404429D01*
X123970384Y-69092892D01*
X123989718Y-68771405D01*
X123945961Y-68452325D01*
X123840795Y-68147912D01*
X123747814Y-67973956D01*
X123483413Y-67878192D01*
X122527605Y-68834000D01*
X122168395Y-68834000D01*
X121212587Y-67878192D01*
X120948186Y-67973956D01*
X120807296Y-68263571D01*
X120725616Y-68575108D01*
X120706282Y-68896595D01*
X118986072Y-68896595D01*
X118986072Y-67834000D01*
X118973812Y-67709518D01*
X118970497Y-67698587D01*
X121392192Y-67698587D01*
X122348000Y-68654395D01*
X123303808Y-67698587D01*
X123208044Y-67434186D01*
X122918429Y-67293296D01*
X122606892Y-67211616D01*
X122285405Y-67192282D01*
X121966325Y-67236039D01*
X121661912Y-67341205D01*
X121487956Y-67434186D01*
X121392192Y-67698587D01*
X118970497Y-67698587D01*
X118937502Y-67589820D01*
X118878537Y-67479506D01*
X118799185Y-67382815D01*
X118702494Y-67303463D01*
X118592180Y-67244498D01*
X118472482Y-67208188D01*
X118348000Y-67195928D01*
X116348000Y-67195928D01*
X116223518Y-67208188D01*
X116103820Y-67244498D01*
X115993506Y-67303463D01*
X115896815Y-67382815D01*
X115817463Y-67479506D01*
X115758498Y-67589820D01*
X115722188Y-67709518D01*
X115709928Y-67834000D01*
X113563000Y-67834000D01*
X113563000Y-66383000D01*
X126704928Y-66383000D01*
X126704928Y-67983000D01*
X126717188Y-68107482D01*
X126753498Y-68227180D01*
X126812463Y-68337494D01*
X126891815Y-68434185D01*
X126988506Y-68513537D01*
X127098820Y-68572502D01*
X127218518Y-68608812D01*
X127343000Y-68621072D01*
X128943000Y-68621072D01*
X129067482Y-68608812D01*
X129187180Y-68572502D01*
X129297494Y-68513537D01*
X129394185Y-68434185D01*
X129473537Y-68337494D01*
X129532502Y-68227180D01*
X129548117Y-68175702D01*
X129829903Y-68175702D01*
X129901486Y-68419671D01*
X130156996Y-68540571D01*
X130431184Y-68609300D01*
X130713512Y-68623217D01*
X130993130Y-68581787D01*
X131259292Y-68486603D01*
X131384514Y-68419671D01*
X131456097Y-68175702D01*
X130643000Y-67362605D01*
X129829903Y-68175702D01*
X129548117Y-68175702D01*
X129568812Y-68107482D01*
X129581072Y-67983000D01*
X129581072Y-67975785D01*
X129650298Y-67996097D01*
X130463395Y-67183000D01*
X130822605Y-67183000D01*
X131635702Y-67996097D01*
X131879671Y-67924514D01*
X132000571Y-67669004D01*
X132069300Y-67394816D01*
X132083217Y-67112488D01*
X132041787Y-66832870D01*
X131946603Y-66566708D01*
X131879671Y-66441486D01*
X131635702Y-66369903D01*
X130822605Y-67183000D01*
X130463395Y-67183000D01*
X129650298Y-66369903D01*
X129581072Y-66390215D01*
X129581072Y-66383000D01*
X129568812Y-66258518D01*
X129548118Y-66190298D01*
X129829903Y-66190298D01*
X130643000Y-67003395D01*
X131456097Y-66190298D01*
X131384514Y-65946329D01*
X131129004Y-65825429D01*
X130854816Y-65756700D01*
X130572488Y-65742783D01*
X130292870Y-65784213D01*
X130026708Y-65879397D01*
X129901486Y-65946329D01*
X129829903Y-66190298D01*
X129548118Y-66190298D01*
X129532502Y-66138820D01*
X129473537Y-66028506D01*
X129394185Y-65931815D01*
X129297494Y-65852463D01*
X129187180Y-65793498D01*
X129067482Y-65757188D01*
X128943000Y-65744928D01*
X127343000Y-65744928D01*
X127218518Y-65757188D01*
X127098820Y-65793498D01*
X126988506Y-65852463D01*
X126891815Y-65931815D01*
X126812463Y-66028506D01*
X126753498Y-66138820D01*
X126717188Y-66258518D01*
X126704928Y-66383000D01*
X113563000Y-66383000D01*
X113563000Y-64033000D01*
X138781230Y-64033000D01*
X138768498Y-64056820D01*
G37*
%TD.AperFunction*%
%TD*%
M02*
