%TF.GenerationSoftware,KiCad,Pcbnew,(5.1.7)-1*%
%TF.CreationDate,2020-12-23T17:26:37-03:00*%
%TF.ProjectId,Breadboard Power Supply,42726561-6462-46f6-9172-6420506f7765,-*%
%TF.SameCoordinates,Original*%
%TF.FileFunction,Copper,L1,Top*%
%TF.FilePolarity,Positive*%
%FSLAX46Y46*%
G04 Gerber Fmt 4.6, Leading zero omitted, Abs format (unit mm)*
G04 Created by KiCad (PCBNEW (5.1.7)-1) date 2020-12-23 17:26:37*
%MOMM*%
%LPD*%
G01*
G04 APERTURE LIST*
%TA.AperFunction,ComponentPad*%
%ADD10R,2.000000X2.000000*%
%TD*%
%TA.AperFunction,ComponentPad*%
%ADD11C,2.000000*%
%TD*%
%TA.AperFunction,ComponentPad*%
%ADD12R,1.600000X1.600000*%
%TD*%
%TA.AperFunction,ComponentPad*%
%ADD13C,1.600000*%
%TD*%
%TA.AperFunction,ComponentPad*%
%ADD14O,2.200000X2.200000*%
%TD*%
%TA.AperFunction,ComponentPad*%
%ADD15R,2.200000X2.200000*%
%TD*%
%TA.AperFunction,ComponentPad*%
%ADD16R,1.800000X1.800000*%
%TD*%
%TA.AperFunction,ComponentPad*%
%ADD17C,1.800000*%
%TD*%
%TA.AperFunction,ComponentPad*%
%ADD18R,2.600000X2.600000*%
%TD*%
%TA.AperFunction,ComponentPad*%
%ADD19C,2.600000*%
%TD*%
%TA.AperFunction,ComponentPad*%
%ADD20R,1.700000X1.700000*%
%TD*%
%TA.AperFunction,ComponentPad*%
%ADD21O,1.700000X1.700000*%
%TD*%
%TA.AperFunction,ComponentPad*%
%ADD22O,1.600000X1.600000*%
%TD*%
%TA.AperFunction,ComponentPad*%
%ADD23R,1.900000X1.900000*%
%TD*%
%TA.AperFunction,ComponentPad*%
%ADD24C,1.900000*%
%TD*%
%TA.AperFunction,ComponentPad*%
%ADD25R,1.905000X2.000000*%
%TD*%
%TA.AperFunction,ComponentPad*%
%ADD26O,1.905000X2.000000*%
%TD*%
%TA.AperFunction,ViaPad*%
%ADD27C,1.000000*%
%TD*%
%TA.AperFunction,ViaPad*%
%ADD28C,0.800000*%
%TD*%
%TA.AperFunction,Conductor*%
%ADD29C,0.300000*%
%TD*%
%TA.AperFunction,Conductor*%
%ADD30C,0.250000*%
%TD*%
%TA.AperFunction,Conductor*%
%ADD31C,0.254000*%
%TD*%
%TA.AperFunction,Conductor*%
%ADD32C,0.100000*%
%TD*%
G04 APERTURE END LIST*
D10*
%TO.P,C1,1*%
%TO.N,/Vin*%
X117348000Y-68834000D03*
D11*
%TO.P,C1,2*%
%TO.N,/V-*%
X122348000Y-68834000D03*
%TD*%
D12*
%TO.P,C2,1*%
%TO.N,/Vout1*%
X128143000Y-67183000D03*
D13*
%TO.P,C2,2*%
%TO.N,/V-*%
X130643000Y-67183000D03*
%TD*%
D14*
%TO.P,D1,2*%
%TO.N,Net-(D1-Pad2)*%
X126238000Y-95207666D03*
D15*
%TO.P,D1,1*%
%TO.N,/Vin*%
X116078000Y-95207666D03*
%TD*%
D14*
%TO.P,D2,2*%
%TO.N,/V-*%
X126238000Y-85979000D03*
D15*
%TO.P,D2,1*%
%TO.N,Net-(D1-Pad2)*%
X116078000Y-85979000D03*
%TD*%
%TO.P,D3,1*%
%TO.N,Net-(D3-Pad1)*%
X116078000Y-99822000D03*
D14*
%TO.P,D3,2*%
%TO.N,/V-*%
X126238000Y-99822000D03*
%TD*%
D15*
%TO.P,D4,1*%
%TO.N,/Vin*%
X116078000Y-90593333D03*
D14*
%TO.P,D4,2*%
%TO.N,Net-(D3-Pad1)*%
X126238000Y-90593333D03*
%TD*%
D16*
%TO.P,D5,1*%
%TO.N,/V-*%
X132842000Y-98679000D03*
D17*
%TO.P,D5,2*%
%TO.N,Net-(D5-Pad2)*%
X135382000Y-98679000D03*
%TD*%
%TO.P,D6,2*%
%TO.N,Net-(D6-Pad2)*%
X135382000Y-76581000D03*
D16*
%TO.P,D6,1*%
%TO.N,/V-*%
X132842000Y-76581000D03*
%TD*%
D18*
%TO.P,J1,1*%
%TO.N,Net-(D1-Pad2)*%
X128524000Y-108204000D03*
D19*
%TO.P,J1,2*%
%TO.N,Net-(D3-Pad1)*%
X122524000Y-108204000D03*
%TO.P,J1,3*%
%TO.N,N/C*%
X125524000Y-112904000D03*
%TD*%
D20*
%TO.P,J2,1*%
%TO.N,/Vout2*%
X140208000Y-65151000D03*
D21*
%TO.P,J2,2*%
X142748000Y-65151000D03*
%TO.P,J2,3*%
%TO.N,/V-*%
X140208000Y-67691000D03*
%TO.P,J2,4*%
X142748000Y-67691000D03*
%TD*%
%TO.P,J3,4*%
%TO.N,/V-*%
X142494000Y-112395000D03*
%TO.P,J3,3*%
X139954000Y-112395000D03*
%TO.P,J3,2*%
%TO.N,/Vout2*%
X142494000Y-109855000D03*
D20*
%TO.P,J3,1*%
X139954000Y-109855000D03*
%TD*%
D13*
%TO.P,R1,1*%
%TO.N,/Vout1*%
X134239000Y-105029000D03*
D22*
%TO.P,R1,2*%
%TO.N,Net-(D5-Pad2)*%
X134239000Y-112649000D03*
%TD*%
%TO.P,R2,2*%
%TO.N,Net-(D6-Pad2)*%
X128397000Y-73914000D03*
D13*
%TO.P,R2,1*%
%TO.N,/Vout2*%
X128397000Y-81534000D03*
%TD*%
D23*
%TO.P,SW1,1*%
%TO.N,/Vout2*%
X134112000Y-90010000D03*
D24*
%TO.P,SW1,2*%
%TO.N,/Vout1*%
X134112000Y-87510000D03*
%TO.P,SW1,3*%
%TO.N,N/C*%
X134112000Y-85010000D03*
%TD*%
D25*
%TO.P,U1,1*%
%TO.N,/Vin*%
X117475000Y-80264000D03*
D26*
%TO.P,U1,2*%
%TO.N,/V-*%
X120015000Y-80264000D03*
%TO.P,U1,3*%
%TO.N,/Vout1*%
X122555000Y-80264000D03*
%TD*%
D27*
%TO.N,/Vout1*%
X137160000Y-87757000D03*
D28*
X137795000Y-104902000D03*
%TD*%
D29*
%TO.N,/Vin*%
X116078000Y-95207666D02*
X116078000Y-90593333D01*
X117348000Y-80137000D02*
X117475000Y-80264000D01*
X117348000Y-68834000D02*
X117348000Y-80137000D01*
X114527999Y-83211001D02*
X117475000Y-80264000D01*
X114527999Y-89043332D02*
X114527999Y-83211001D01*
X116078000Y-90593333D02*
X114527999Y-89043332D01*
%TO.N,/Vout1*%
X122555000Y-72771000D02*
X122555000Y-80264000D01*
X128143000Y-67183000D02*
X122555000Y-72771000D01*
X126719999Y-84428999D02*
X122555000Y-80264000D01*
X131030999Y-84428999D02*
X126719999Y-84428999D01*
X134112000Y-87510000D02*
X131030999Y-84428999D01*
X137795000Y-88392000D02*
X137160000Y-87757000D01*
X137795000Y-104902000D02*
X137795000Y-88392000D01*
D30*
%TO.N,Net-(D1-Pad2)*%
X128524000Y-97493666D02*
X126238000Y-95207666D01*
X128524000Y-108204000D02*
X128524000Y-97493666D01*
X117009334Y-85979000D02*
X116078000Y-85979000D01*
X126238000Y-95207666D02*
X117009334Y-85979000D01*
D29*
%TO.N,Net-(D3-Pad1)*%
X130274001Y-94629334D02*
X126238000Y-90593333D01*
X130274001Y-109864001D02*
X130274001Y-94629334D01*
X130184001Y-109954001D02*
X130274001Y-109864001D01*
X126210001Y-109954001D02*
X130184001Y-109954001D01*
X116078000Y-99822000D02*
X126210001Y-109954001D01*
D30*
%TO.N,Net-(D5-Pad2)*%
X132736999Y-96033999D02*
X135382000Y-98679000D01*
X135464001Y-98761001D02*
X135382000Y-98679000D01*
X135464001Y-111423999D02*
X135464001Y-98761001D01*
X134239000Y-112649000D02*
X135464001Y-111423999D01*
%TO.N,Net-(D6-Pad2)*%
X134056999Y-75255999D02*
X135382000Y-76581000D01*
X131601999Y-75255999D02*
X134056999Y-75255999D01*
X129622001Y-77235997D02*
X131601999Y-75255999D01*
X129622001Y-82122001D02*
X129622001Y-77235997D01*
X128985001Y-82759001D02*
X129622001Y-82122001D01*
X127808999Y-82759001D02*
X128985001Y-82759001D01*
X127171999Y-82122001D02*
X127808999Y-82759001D01*
X127171999Y-75139001D02*
X127171999Y-82122001D01*
X128397000Y-73914000D02*
X127171999Y-75139001D01*
D29*
%TO.N,/Vout2*%
X142494000Y-109855000D02*
X139954000Y-109855000D01*
X136732001Y-92630001D02*
X134112000Y-90010000D01*
X136732001Y-107783001D02*
X136732001Y-92630001D01*
X138804000Y-109855000D02*
X136732001Y-107783001D01*
X139954000Y-109855000D02*
X138804000Y-109855000D01*
X142748000Y-65151000D02*
X140208000Y-65151000D01*
X128397000Y-76962000D02*
X128397000Y-81534000D01*
X140208000Y-65151000D02*
X128397000Y-76962000D01*
X128397000Y-75764002D02*
X128397000Y-81534000D01*
X129647001Y-74514001D02*
X128397000Y-75764002D01*
X129647001Y-73313999D02*
X129647001Y-74514001D01*
X128997001Y-72663999D02*
X129647001Y-73313999D01*
X127796999Y-72663999D02*
X128997001Y-72663999D01*
X126596989Y-73864009D02*
X127796999Y-72663999D01*
X126596989Y-82360177D02*
X126596989Y-73864009D01*
X127570823Y-83334011D02*
X126596989Y-82360177D01*
X134508013Y-83334011D02*
X127570823Y-83334011D01*
X135512001Y-84337999D02*
X134508013Y-83334011D01*
X135512001Y-88609999D02*
X135512001Y-84337999D01*
X134112000Y-90010000D02*
X135512001Y-88609999D01*
%TO.N,/V-*%
X130874011Y-90615011D02*
X130874011Y-96711011D01*
X130874011Y-96711011D02*
X132842000Y-98679000D01*
X126238000Y-85979000D02*
X130874011Y-90615011D01*
%TD*%
D31*
%TO.N,/V-*%
X138221658Y-110382816D02*
X138246236Y-110412764D01*
X138276184Y-110437342D01*
X138276187Y-110437345D01*
X138305559Y-110461450D01*
X138365767Y-110510862D01*
X138465928Y-110564399D01*
X138465928Y-110705000D01*
X138478188Y-110829482D01*
X138514498Y-110949180D01*
X138573463Y-111059494D01*
X138652815Y-111156185D01*
X138749506Y-111235537D01*
X138859820Y-111294502D01*
X138940466Y-111318966D01*
X138856412Y-111394731D01*
X138682359Y-111628080D01*
X138557175Y-111890901D01*
X138512524Y-112038110D01*
X138633845Y-112268000D01*
X139827000Y-112268000D01*
X139827000Y-112248000D01*
X140081000Y-112248000D01*
X140081000Y-112268000D01*
X142367000Y-112268000D01*
X142367000Y-112248000D01*
X142621000Y-112248000D01*
X142621000Y-112268000D01*
X142641000Y-112268000D01*
X142641000Y-112522000D01*
X142621000Y-112522000D01*
X142621000Y-113715814D01*
X142850891Y-113836481D01*
X143125252Y-113739157D01*
X143375355Y-113590178D01*
X143591588Y-113395269D01*
X143765641Y-113161920D01*
X143866000Y-112951218D01*
X143866000Y-114021000D01*
X134676533Y-114021000D01*
X134918727Y-113920680D01*
X135153759Y-113763637D01*
X135353637Y-113563759D01*
X135510680Y-113328727D01*
X135618853Y-113067574D01*
X135674000Y-112790335D01*
X135674000Y-112751890D01*
X138512524Y-112751890D01*
X138557175Y-112899099D01*
X138682359Y-113161920D01*
X138856412Y-113395269D01*
X139072645Y-113590178D01*
X139322748Y-113739157D01*
X139597109Y-113836481D01*
X139827000Y-113715814D01*
X139827000Y-112522000D01*
X140081000Y-112522000D01*
X140081000Y-113715814D01*
X140310891Y-113836481D01*
X140585252Y-113739157D01*
X140835355Y-113590178D01*
X141051588Y-113395269D01*
X141224000Y-113164120D01*
X141396412Y-113395269D01*
X141612645Y-113590178D01*
X141862748Y-113739157D01*
X142137109Y-113836481D01*
X142367000Y-113715814D01*
X142367000Y-112522000D01*
X140081000Y-112522000D01*
X139827000Y-112522000D01*
X138633845Y-112522000D01*
X138512524Y-112751890D01*
X135674000Y-112751890D01*
X135674000Y-112507665D01*
X135637688Y-112325114D01*
X135975005Y-111987797D01*
X136004002Y-111964000D01*
X136063993Y-111890901D01*
X136098975Y-111848276D01*
X136169547Y-111716246D01*
X136196291Y-111628080D01*
X136213004Y-111572985D01*
X136224001Y-111461332D01*
X136224001Y-111461323D01*
X136227677Y-111424000D01*
X136224001Y-111386677D01*
X136224001Y-108385158D01*
X138221658Y-110382816D01*
%TA.AperFunction,Conductor*%
D32*
G36*
X138221658Y-110382816D02*
G01*
X138246236Y-110412764D01*
X138276184Y-110437342D01*
X138276187Y-110437345D01*
X138305559Y-110461450D01*
X138365767Y-110510862D01*
X138465928Y-110564399D01*
X138465928Y-110705000D01*
X138478188Y-110829482D01*
X138514498Y-110949180D01*
X138573463Y-111059494D01*
X138652815Y-111156185D01*
X138749506Y-111235537D01*
X138859820Y-111294502D01*
X138940466Y-111318966D01*
X138856412Y-111394731D01*
X138682359Y-111628080D01*
X138557175Y-111890901D01*
X138512524Y-112038110D01*
X138633845Y-112268000D01*
X139827000Y-112268000D01*
X139827000Y-112248000D01*
X140081000Y-112248000D01*
X140081000Y-112268000D01*
X142367000Y-112268000D01*
X142367000Y-112248000D01*
X142621000Y-112248000D01*
X142621000Y-112268000D01*
X142641000Y-112268000D01*
X142641000Y-112522000D01*
X142621000Y-112522000D01*
X142621000Y-113715814D01*
X142850891Y-113836481D01*
X143125252Y-113739157D01*
X143375355Y-113590178D01*
X143591588Y-113395269D01*
X143765641Y-113161920D01*
X143866000Y-112951218D01*
X143866000Y-114021000D01*
X134676533Y-114021000D01*
X134918727Y-113920680D01*
X135153759Y-113763637D01*
X135353637Y-113563759D01*
X135510680Y-113328727D01*
X135618853Y-113067574D01*
X135674000Y-112790335D01*
X135674000Y-112751890D01*
X138512524Y-112751890D01*
X138557175Y-112899099D01*
X138682359Y-113161920D01*
X138856412Y-113395269D01*
X139072645Y-113590178D01*
X139322748Y-113739157D01*
X139597109Y-113836481D01*
X139827000Y-113715814D01*
X139827000Y-112522000D01*
X140081000Y-112522000D01*
X140081000Y-113715814D01*
X140310891Y-113836481D01*
X140585252Y-113739157D01*
X140835355Y-113590178D01*
X141051588Y-113395269D01*
X141224000Y-113164120D01*
X141396412Y-113395269D01*
X141612645Y-113590178D01*
X141862748Y-113739157D01*
X142137109Y-113836481D01*
X142367000Y-113715814D01*
X142367000Y-112522000D01*
X140081000Y-112522000D01*
X139827000Y-112522000D01*
X138633845Y-112522000D01*
X138512524Y-112751890D01*
X135674000Y-112751890D01*
X135674000Y-112507665D01*
X135637688Y-112325114D01*
X135975005Y-111987797D01*
X136004002Y-111964000D01*
X136063993Y-111890901D01*
X136098975Y-111848276D01*
X136169547Y-111716246D01*
X136196291Y-111628080D01*
X136213004Y-111572985D01*
X136224001Y-111461332D01*
X136224001Y-111461323D01*
X136227677Y-111424000D01*
X136224001Y-111386677D01*
X136224001Y-108385158D01*
X138221658Y-110382816D01*
G37*
%TD.AperFunction*%
D31*
X138768498Y-64056820D02*
X138732188Y-64176518D01*
X138719928Y-64301000D01*
X138719928Y-65528914D01*
X130432001Y-73816842D01*
X130432001Y-73352555D01*
X130435798Y-73313999D01*
X130432001Y-73275439D01*
X130432001Y-73275438D01*
X130425480Y-73209232D01*
X130420643Y-73160112D01*
X130375755Y-73012139D01*
X130351018Y-72965859D01*
X130302863Y-72875766D01*
X130204765Y-72756235D01*
X130174812Y-72731653D01*
X129579348Y-72136189D01*
X129554765Y-72106235D01*
X129435234Y-72008137D01*
X129298861Y-71935245D01*
X129150888Y-71890358D01*
X129035562Y-71878999D01*
X129035554Y-71878999D01*
X128997001Y-71875202D01*
X128958448Y-71878999D01*
X127835551Y-71878999D01*
X127796998Y-71875202D01*
X127758445Y-71878999D01*
X127758438Y-71878999D01*
X127657489Y-71888942D01*
X127643111Y-71890358D01*
X127608671Y-71900805D01*
X127495139Y-71935245D01*
X127358766Y-72008137D01*
X127317205Y-72042246D01*
X127269186Y-72081654D01*
X127269183Y-72081657D01*
X127239235Y-72106235D01*
X127214657Y-72136184D01*
X126069174Y-73281667D01*
X126039226Y-73306245D01*
X126014648Y-73336193D01*
X126014644Y-73336197D01*
X126000571Y-73353345D01*
X125941128Y-73425776D01*
X125903900Y-73495426D01*
X125868235Y-73562150D01*
X125823348Y-73710123D01*
X125808192Y-73864009D01*
X125811990Y-73902572D01*
X125811989Y-82321624D01*
X125808192Y-82360177D01*
X125811989Y-82398730D01*
X125811989Y-82398737D01*
X125813310Y-82412153D01*
X124097263Y-80696106D01*
X124119530Y-80622703D01*
X124142500Y-80389485D01*
X124142500Y-80138514D01*
X124119530Y-79905296D01*
X124028755Y-79606051D01*
X123881345Y-79330265D01*
X123682963Y-79088537D01*
X123441234Y-78890155D01*
X123340000Y-78836045D01*
X123340000Y-73096157D01*
X127815086Y-68621072D01*
X128943000Y-68621072D01*
X129067482Y-68608812D01*
X129187180Y-68572502D01*
X129297494Y-68513537D01*
X129394185Y-68434185D01*
X129473537Y-68337494D01*
X129532502Y-68227180D01*
X129548117Y-68175702D01*
X129829903Y-68175702D01*
X129901486Y-68419671D01*
X130156996Y-68540571D01*
X130431184Y-68609300D01*
X130713512Y-68623217D01*
X130993130Y-68581787D01*
X131259292Y-68486603D01*
X131384514Y-68419671D01*
X131456097Y-68175702D01*
X130643000Y-67362605D01*
X129829903Y-68175702D01*
X129548117Y-68175702D01*
X129568812Y-68107482D01*
X129581072Y-67983000D01*
X129581072Y-67975785D01*
X129650298Y-67996097D01*
X130463395Y-67183000D01*
X130822605Y-67183000D01*
X131635702Y-67996097D01*
X131879671Y-67924514D01*
X132000571Y-67669004D01*
X132069300Y-67394816D01*
X132083217Y-67112488D01*
X132041787Y-66832870D01*
X131946603Y-66566708D01*
X131879671Y-66441486D01*
X131635702Y-66369903D01*
X130822605Y-67183000D01*
X130463395Y-67183000D01*
X129650298Y-66369903D01*
X129581072Y-66390215D01*
X129581072Y-66383000D01*
X129568812Y-66258518D01*
X129548118Y-66190298D01*
X129829903Y-66190298D01*
X130643000Y-67003395D01*
X131456097Y-66190298D01*
X131384514Y-65946329D01*
X131129004Y-65825429D01*
X130854816Y-65756700D01*
X130572488Y-65742783D01*
X130292870Y-65784213D01*
X130026708Y-65879397D01*
X129901486Y-65946329D01*
X129829903Y-66190298D01*
X129548118Y-66190298D01*
X129532502Y-66138820D01*
X129473537Y-66028506D01*
X129394185Y-65931815D01*
X129297494Y-65852463D01*
X129187180Y-65793498D01*
X129067482Y-65757188D01*
X128943000Y-65744928D01*
X127343000Y-65744928D01*
X127218518Y-65757188D01*
X127098820Y-65793498D01*
X126988506Y-65852463D01*
X126891815Y-65931815D01*
X126812463Y-66028506D01*
X126753498Y-66138820D01*
X126717188Y-66258518D01*
X126704928Y-66383000D01*
X126704928Y-67510914D01*
X122027190Y-72188653D01*
X121997236Y-72213236D01*
X121899138Y-72332768D01*
X121826246Y-72469141D01*
X121781359Y-72617114D01*
X121770000Y-72732440D01*
X121770000Y-72732447D01*
X121766203Y-72771000D01*
X121770000Y-72809553D01*
X121770001Y-78836044D01*
X121668765Y-78890155D01*
X121427037Y-79088537D01*
X121279838Y-79267900D01*
X121124437Y-79082685D01*
X120881923Y-78888031D01*
X120606094Y-78744429D01*
X120387980Y-78673437D01*
X120142000Y-78793406D01*
X120142000Y-80137000D01*
X120162000Y-80137000D01*
X120162000Y-80391000D01*
X120142000Y-80391000D01*
X120142000Y-81734594D01*
X120387980Y-81854563D01*
X120606094Y-81783571D01*
X120881923Y-81639969D01*
X121124437Y-81445315D01*
X121279837Y-81260101D01*
X121427037Y-81439463D01*
X121668766Y-81637845D01*
X121944552Y-81785255D01*
X122243797Y-81876030D01*
X122555000Y-81906681D01*
X122866204Y-81876030D01*
X123012496Y-81831653D01*
X125565032Y-84384190D01*
X125519946Y-84399558D01*
X125225609Y-84569992D01*
X124970178Y-84794573D01*
X124763469Y-85064671D01*
X124613425Y-85369906D01*
X124548825Y-85582878D01*
X124666875Y-85852000D01*
X126111000Y-85852000D01*
X126111000Y-85832000D01*
X126365000Y-85832000D01*
X126365000Y-85852000D01*
X127809125Y-85852000D01*
X127927175Y-85582878D01*
X127862575Y-85369906D01*
X127785936Y-85213999D01*
X130705842Y-85213999D01*
X132579882Y-87088039D01*
X132527000Y-87353891D01*
X132527000Y-87666109D01*
X132587911Y-87972327D01*
X132707391Y-88260779D01*
X132866021Y-88498186D01*
X132807506Y-88529463D01*
X132710815Y-88608815D01*
X132631463Y-88705506D01*
X132572498Y-88815820D01*
X132536188Y-88935518D01*
X132523928Y-89060000D01*
X132523928Y-90960000D01*
X132536188Y-91084482D01*
X132572498Y-91204180D01*
X132631463Y-91314494D01*
X132710815Y-91411185D01*
X132807506Y-91490537D01*
X132917820Y-91549502D01*
X133037518Y-91585812D01*
X133162000Y-91598072D01*
X134589915Y-91598072D01*
X135947002Y-92955160D01*
X135947002Y-97251559D01*
X135829743Y-97202989D01*
X135533184Y-97144000D01*
X135230816Y-97144000D01*
X134973070Y-97195269D01*
X133248001Y-95470200D01*
X133161275Y-95399025D01*
X133029245Y-95328453D01*
X132885984Y-95284997D01*
X132736999Y-95270323D01*
X132588014Y-95284997D01*
X132444753Y-95328453D01*
X132312723Y-95399025D01*
X132196998Y-95493998D01*
X132102025Y-95609723D01*
X132031453Y-95741753D01*
X131987997Y-95885014D01*
X131973323Y-96033999D01*
X131987997Y-96182984D01*
X132031453Y-96326245D01*
X132102025Y-96458275D01*
X132173200Y-96545001D01*
X132772199Y-97144000D01*
X132714998Y-97144000D01*
X132714998Y-97302748D01*
X132556250Y-97144000D01*
X131942000Y-97140928D01*
X131817518Y-97153188D01*
X131697820Y-97189498D01*
X131587506Y-97248463D01*
X131490815Y-97327815D01*
X131411463Y-97424506D01*
X131352498Y-97534820D01*
X131316188Y-97654518D01*
X131303928Y-97779000D01*
X131307000Y-98393250D01*
X131465750Y-98552000D01*
X132715000Y-98552000D01*
X132715000Y-98532000D01*
X132969000Y-98532000D01*
X132969000Y-98552000D01*
X132989000Y-98552000D01*
X132989000Y-98806000D01*
X132969000Y-98806000D01*
X132969000Y-100055250D01*
X133127750Y-100214000D01*
X133742000Y-100217072D01*
X133866482Y-100204812D01*
X133986180Y-100168502D01*
X134096494Y-100109537D01*
X134193185Y-100030185D01*
X134272537Y-99933494D01*
X134331502Y-99823180D01*
X134337056Y-99804873D01*
X134403495Y-99871312D01*
X134654905Y-100039299D01*
X134704002Y-100059636D01*
X134704002Y-103668378D01*
X134657574Y-103649147D01*
X134380335Y-103594000D01*
X134097665Y-103594000D01*
X133820426Y-103649147D01*
X133559273Y-103757320D01*
X133324241Y-103914363D01*
X133124363Y-104114241D01*
X132967320Y-104349273D01*
X132859147Y-104610426D01*
X132804000Y-104887665D01*
X132804000Y-105170335D01*
X132859147Y-105447574D01*
X132967320Y-105708727D01*
X133124363Y-105943759D01*
X133324241Y-106143637D01*
X133559273Y-106300680D01*
X133820426Y-106408853D01*
X134097665Y-106464000D01*
X134380335Y-106464000D01*
X134657574Y-106408853D01*
X134704001Y-106389622D01*
X134704001Y-111109197D01*
X134562886Y-111250312D01*
X134380335Y-111214000D01*
X134097665Y-111214000D01*
X133820426Y-111269147D01*
X133559273Y-111377320D01*
X133324241Y-111534363D01*
X133124363Y-111734241D01*
X132967320Y-111969273D01*
X132859147Y-112230426D01*
X132804000Y-112507665D01*
X132804000Y-112790335D01*
X132859147Y-113067574D01*
X132967320Y-113328727D01*
X133124363Y-113563759D01*
X133324241Y-113763637D01*
X133559273Y-113920680D01*
X133801467Y-114021000D01*
X127104850Y-114021000D01*
X127238775Y-113820566D01*
X127384639Y-113468419D01*
X127459000Y-113094581D01*
X127459000Y-112713419D01*
X127384639Y-112339581D01*
X127238775Y-111987434D01*
X127027013Y-111670509D01*
X126757491Y-111400987D01*
X126440566Y-111189225D01*
X126088419Y-111043361D01*
X125714581Y-110969000D01*
X125333419Y-110969000D01*
X124959581Y-111043361D01*
X124607434Y-111189225D01*
X124290509Y-111400987D01*
X124020987Y-111670509D01*
X123809225Y-111987434D01*
X123663361Y-112339581D01*
X123589000Y-112713419D01*
X123589000Y-113094581D01*
X123663361Y-113468419D01*
X123809225Y-113820566D01*
X123943150Y-114021000D01*
X113563000Y-114021000D01*
X113563000Y-83211001D01*
X113739202Y-83211001D01*
X113743000Y-83249564D01*
X113742999Y-89004779D01*
X113739202Y-89043332D01*
X113742999Y-89081885D01*
X113742999Y-89081892D01*
X113754358Y-89197218D01*
X113799245Y-89345191D01*
X113872137Y-89481564D01*
X113970235Y-89601096D01*
X114000189Y-89625679D01*
X114339928Y-89965418D01*
X114339928Y-91693333D01*
X114352188Y-91817815D01*
X114388498Y-91937513D01*
X114447463Y-92047827D01*
X114526815Y-92144518D01*
X114623506Y-92223870D01*
X114733820Y-92282835D01*
X114853518Y-92319145D01*
X114978000Y-92331405D01*
X115293001Y-92331405D01*
X115293000Y-93469594D01*
X114978000Y-93469594D01*
X114853518Y-93481854D01*
X114733820Y-93518164D01*
X114623506Y-93577129D01*
X114526815Y-93656481D01*
X114447463Y-93753172D01*
X114388498Y-93863486D01*
X114352188Y-93983184D01*
X114339928Y-94107666D01*
X114339928Y-96307666D01*
X114352188Y-96432148D01*
X114388498Y-96551846D01*
X114447463Y-96662160D01*
X114526815Y-96758851D01*
X114623506Y-96838203D01*
X114733820Y-96897168D01*
X114853518Y-96933478D01*
X114978000Y-96945738D01*
X117178000Y-96945738D01*
X117302482Y-96933478D01*
X117422180Y-96897168D01*
X117532494Y-96838203D01*
X117629185Y-96758851D01*
X117708537Y-96662160D01*
X117767502Y-96551846D01*
X117803812Y-96432148D01*
X117816072Y-96307666D01*
X117816072Y-94107666D01*
X117803812Y-93983184D01*
X117767502Y-93863486D01*
X117708537Y-93753172D01*
X117629185Y-93656481D01*
X117532494Y-93577129D01*
X117422180Y-93518164D01*
X117302482Y-93481854D01*
X117178000Y-93469594D01*
X116863000Y-93469594D01*
X116863000Y-92331405D01*
X117178000Y-92331405D01*
X117302482Y-92319145D01*
X117422180Y-92282835D01*
X117532494Y-92223870D01*
X117629185Y-92144518D01*
X117708537Y-92047827D01*
X117767502Y-91937513D01*
X117803812Y-91817815D01*
X117816072Y-91693333D01*
X117816072Y-89493333D01*
X117803812Y-89368851D01*
X117767502Y-89249153D01*
X117708537Y-89138839D01*
X117629185Y-89042148D01*
X117532494Y-88962796D01*
X117422180Y-88903831D01*
X117302482Y-88867521D01*
X117178000Y-88855261D01*
X115450085Y-88855261D01*
X115312999Y-88718175D01*
X115312999Y-87717072D01*
X117178000Y-87717072D01*
X117302482Y-87704812D01*
X117422180Y-87668502D01*
X117532494Y-87609537D01*
X117550386Y-87594853D01*
X124595286Y-94639754D01*
X124569675Y-94701585D01*
X124503000Y-95036783D01*
X124503000Y-95378549D01*
X124569675Y-95713747D01*
X124700463Y-96029497D01*
X124890337Y-96313664D01*
X125132002Y-96555329D01*
X125416169Y-96745203D01*
X125731919Y-96875991D01*
X126067117Y-96942666D01*
X126408883Y-96942666D01*
X126744081Y-96875991D01*
X126805912Y-96850380D01*
X127764001Y-97808469D01*
X127764001Y-99012376D01*
X127712531Y-98907671D01*
X127505822Y-98637573D01*
X127250391Y-98412992D01*
X126956054Y-98242558D01*
X126634123Y-98132821D01*
X126365000Y-98250400D01*
X126365000Y-99695000D01*
X126385000Y-99695000D01*
X126385000Y-99949000D01*
X126365000Y-99949000D01*
X126365000Y-101393600D01*
X126634123Y-101511179D01*
X126956054Y-101401442D01*
X127250391Y-101231008D01*
X127505822Y-101006427D01*
X127712531Y-100736329D01*
X127764001Y-100631624D01*
X127764000Y-106265928D01*
X127224000Y-106265928D01*
X127099518Y-106278188D01*
X126979820Y-106314498D01*
X126869506Y-106373463D01*
X126772815Y-106452815D01*
X126693463Y-106549506D01*
X126634498Y-106659820D01*
X126598188Y-106779518D01*
X126585928Y-106904000D01*
X126585928Y-109169001D01*
X126535159Y-109169001D01*
X117816072Y-100449915D01*
X117816072Y-100218122D01*
X124548825Y-100218122D01*
X124613425Y-100431094D01*
X124763469Y-100736329D01*
X124970178Y-101006427D01*
X125225609Y-101231008D01*
X125519946Y-101401442D01*
X125841877Y-101511179D01*
X126111000Y-101393600D01*
X126111000Y-99949000D01*
X124666875Y-99949000D01*
X124548825Y-100218122D01*
X117816072Y-100218122D01*
X117816072Y-99425878D01*
X124548825Y-99425878D01*
X124666875Y-99695000D01*
X126111000Y-99695000D01*
X126111000Y-98250400D01*
X125841877Y-98132821D01*
X125519946Y-98242558D01*
X125225609Y-98412992D01*
X124970178Y-98637573D01*
X124763469Y-98907671D01*
X124613425Y-99212906D01*
X124548825Y-99425878D01*
X117816072Y-99425878D01*
X117816072Y-98722000D01*
X117803812Y-98597518D01*
X117767502Y-98477820D01*
X117708537Y-98367506D01*
X117629185Y-98270815D01*
X117532494Y-98191463D01*
X117422180Y-98132498D01*
X117302482Y-98096188D01*
X117178000Y-98083928D01*
X114978000Y-98083928D01*
X114853518Y-98096188D01*
X114733820Y-98132498D01*
X114623506Y-98191463D01*
X114526815Y-98270815D01*
X114447463Y-98367506D01*
X114388498Y-98477820D01*
X114352188Y-98597518D01*
X114339928Y-98722000D01*
X114339928Y-100922000D01*
X114352188Y-101046482D01*
X114388498Y-101166180D01*
X114447463Y-101276494D01*
X114526815Y-101373185D01*
X114623506Y-101452537D01*
X114733820Y-101511502D01*
X114853518Y-101547812D01*
X114978000Y-101560072D01*
X116705915Y-101560072D01*
X121626974Y-106481131D01*
X121607434Y-106489225D01*
X121290509Y-106700987D01*
X121020987Y-106970509D01*
X120809225Y-107287434D01*
X120663361Y-107639581D01*
X120589000Y-108013419D01*
X120589000Y-108394581D01*
X120663361Y-108768419D01*
X120809225Y-109120566D01*
X121020987Y-109437491D01*
X121290509Y-109707013D01*
X121607434Y-109918775D01*
X121959581Y-110064639D01*
X122333419Y-110139000D01*
X122714581Y-110139000D01*
X123088419Y-110064639D01*
X123440566Y-109918775D01*
X123757491Y-109707013D01*
X124027013Y-109437491D01*
X124238775Y-109120566D01*
X124246869Y-109101026D01*
X125627659Y-110481817D01*
X125652237Y-110511765D01*
X125682185Y-110536343D01*
X125682188Y-110536346D01*
X125709074Y-110558411D01*
X125771768Y-110609863D01*
X125908141Y-110682755D01*
X126021673Y-110717195D01*
X126056113Y-110727642D01*
X126070491Y-110729058D01*
X126171440Y-110739001D01*
X126171447Y-110739001D01*
X126210000Y-110742798D01*
X126248553Y-110739001D01*
X130145448Y-110739001D01*
X130184001Y-110742798D01*
X130222554Y-110739001D01*
X130222562Y-110739001D01*
X130337888Y-110727642D01*
X130485861Y-110682755D01*
X130622234Y-110609863D01*
X130741765Y-110511765D01*
X130766348Y-110481811D01*
X130801812Y-110446347D01*
X130831765Y-110421765D01*
X130929863Y-110302234D01*
X131002755Y-110165861D01*
X131047642Y-110017888D01*
X131059001Y-109902562D01*
X131059001Y-109902555D01*
X131062798Y-109864002D01*
X131059001Y-109825449D01*
X131059001Y-99579000D01*
X131303928Y-99579000D01*
X131316188Y-99703482D01*
X131352498Y-99823180D01*
X131411463Y-99933494D01*
X131490815Y-100030185D01*
X131587506Y-100109537D01*
X131697820Y-100168502D01*
X131817518Y-100204812D01*
X131942000Y-100217072D01*
X132556250Y-100214000D01*
X132715000Y-100055250D01*
X132715000Y-98806000D01*
X131465750Y-98806000D01*
X131307000Y-98964750D01*
X131303928Y-99579000D01*
X131059001Y-99579000D01*
X131059001Y-94667886D01*
X131062798Y-94629333D01*
X131059001Y-94590780D01*
X131059001Y-94590773D01*
X131047642Y-94475447D01*
X131002755Y-94327474D01*
X130929863Y-94191101D01*
X130861389Y-94107666D01*
X130856346Y-94101521D01*
X130856343Y-94101518D01*
X130831765Y-94071570D01*
X130801817Y-94046992D01*
X127891069Y-91136245D01*
X127906325Y-91099414D01*
X127973000Y-90764216D01*
X127973000Y-90422450D01*
X127906325Y-90087252D01*
X127775537Y-89771502D01*
X127585663Y-89487335D01*
X127343998Y-89245670D01*
X127059831Y-89055796D01*
X126744081Y-88925008D01*
X126408883Y-88858333D01*
X126067117Y-88858333D01*
X125731919Y-88925008D01*
X125416169Y-89055796D01*
X125132002Y-89245670D01*
X124890337Y-89487335D01*
X124700463Y-89771502D01*
X124569675Y-90087252D01*
X124503000Y-90422450D01*
X124503000Y-90764216D01*
X124569675Y-91099414D01*
X124700463Y-91415164D01*
X124890337Y-91699331D01*
X125132002Y-91940996D01*
X125416169Y-92130870D01*
X125731919Y-92261658D01*
X126067117Y-92328333D01*
X126408883Y-92328333D01*
X126744081Y-92261658D01*
X126780912Y-92246402D01*
X129489002Y-94954493D01*
X129489001Y-106265928D01*
X129284000Y-106265928D01*
X129284000Y-97530988D01*
X129287676Y-97493665D01*
X129284000Y-97456342D01*
X129284000Y-97456333D01*
X129273003Y-97344680D01*
X129229546Y-97201419D01*
X129158974Y-97069390D01*
X129064001Y-96953665D01*
X129035003Y-96929867D01*
X127880714Y-95775578D01*
X127906325Y-95713747D01*
X127973000Y-95378549D01*
X127973000Y-95036783D01*
X127906325Y-94701585D01*
X127775537Y-94385835D01*
X127585663Y-94101668D01*
X127343998Y-93860003D01*
X127059831Y-93670129D01*
X126744081Y-93539341D01*
X126408883Y-93472666D01*
X126067117Y-93472666D01*
X125731919Y-93539341D01*
X125670088Y-93564952D01*
X118480258Y-86375122D01*
X124548825Y-86375122D01*
X124613425Y-86588094D01*
X124763469Y-86893329D01*
X124970178Y-87163427D01*
X125225609Y-87388008D01*
X125519946Y-87558442D01*
X125841877Y-87668179D01*
X126111000Y-87550600D01*
X126111000Y-86106000D01*
X126365000Y-86106000D01*
X126365000Y-87550600D01*
X126634123Y-87668179D01*
X126956054Y-87558442D01*
X127250391Y-87388008D01*
X127505822Y-87163427D01*
X127712531Y-86893329D01*
X127862575Y-86588094D01*
X127927175Y-86375122D01*
X127809125Y-86106000D01*
X126365000Y-86106000D01*
X126111000Y-86106000D01*
X124666875Y-86106000D01*
X124548825Y-86375122D01*
X118480258Y-86375122D01*
X117816072Y-85710937D01*
X117816072Y-84879000D01*
X117803812Y-84754518D01*
X117767502Y-84634820D01*
X117708537Y-84524506D01*
X117629185Y-84427815D01*
X117532494Y-84348463D01*
X117422180Y-84289498D01*
X117302482Y-84253188D01*
X117178000Y-84240928D01*
X115312999Y-84240928D01*
X115312999Y-83536158D01*
X116947085Y-81902072D01*
X118427500Y-81902072D01*
X118551982Y-81889812D01*
X118671680Y-81853502D01*
X118781994Y-81794537D01*
X118878685Y-81715185D01*
X118958037Y-81618494D01*
X119007059Y-81526781D01*
X119148077Y-81639969D01*
X119423906Y-81783571D01*
X119642020Y-81854563D01*
X119888000Y-81734594D01*
X119888000Y-80391000D01*
X119868000Y-80391000D01*
X119868000Y-80137000D01*
X119888000Y-80137000D01*
X119888000Y-78793406D01*
X119642020Y-78673437D01*
X119423906Y-78744429D01*
X119148077Y-78888031D01*
X119007059Y-79001219D01*
X118958037Y-78909506D01*
X118878685Y-78812815D01*
X118781994Y-78733463D01*
X118671680Y-78674498D01*
X118551982Y-78638188D01*
X118427500Y-78625928D01*
X118133000Y-78625928D01*
X118133000Y-70472072D01*
X118348000Y-70472072D01*
X118472482Y-70459812D01*
X118592180Y-70423502D01*
X118702494Y-70364537D01*
X118799185Y-70285185D01*
X118878537Y-70188494D01*
X118937502Y-70078180D01*
X118970496Y-69969413D01*
X121392192Y-69969413D01*
X121487956Y-70233814D01*
X121777571Y-70374704D01*
X122089108Y-70456384D01*
X122410595Y-70475718D01*
X122729675Y-70431961D01*
X123034088Y-70326795D01*
X123208044Y-70233814D01*
X123303808Y-69969413D01*
X122348000Y-69013605D01*
X121392192Y-69969413D01*
X118970496Y-69969413D01*
X118973812Y-69958482D01*
X118986072Y-69834000D01*
X118986072Y-68896595D01*
X120706282Y-68896595D01*
X120750039Y-69215675D01*
X120855205Y-69520088D01*
X120948186Y-69694044D01*
X121212587Y-69789808D01*
X122168395Y-68834000D01*
X122527605Y-68834000D01*
X123483413Y-69789808D01*
X123747814Y-69694044D01*
X123888704Y-69404429D01*
X123970384Y-69092892D01*
X123989718Y-68771405D01*
X123945961Y-68452325D01*
X123840795Y-68147912D01*
X123747814Y-67973956D01*
X123483413Y-67878192D01*
X122527605Y-68834000D01*
X122168395Y-68834000D01*
X121212587Y-67878192D01*
X120948186Y-67973956D01*
X120807296Y-68263571D01*
X120725616Y-68575108D01*
X120706282Y-68896595D01*
X118986072Y-68896595D01*
X118986072Y-67834000D01*
X118973812Y-67709518D01*
X118970497Y-67698587D01*
X121392192Y-67698587D01*
X122348000Y-68654395D01*
X123303808Y-67698587D01*
X123208044Y-67434186D01*
X122918429Y-67293296D01*
X122606892Y-67211616D01*
X122285405Y-67192282D01*
X121966325Y-67236039D01*
X121661912Y-67341205D01*
X121487956Y-67434186D01*
X121392192Y-67698587D01*
X118970497Y-67698587D01*
X118937502Y-67589820D01*
X118878537Y-67479506D01*
X118799185Y-67382815D01*
X118702494Y-67303463D01*
X118592180Y-67244498D01*
X118472482Y-67208188D01*
X118348000Y-67195928D01*
X116348000Y-67195928D01*
X116223518Y-67208188D01*
X116103820Y-67244498D01*
X115993506Y-67303463D01*
X115896815Y-67382815D01*
X115817463Y-67479506D01*
X115758498Y-67589820D01*
X115722188Y-67709518D01*
X115709928Y-67834000D01*
X115709928Y-69834000D01*
X115722188Y-69958482D01*
X115758498Y-70078180D01*
X115817463Y-70188494D01*
X115896815Y-70285185D01*
X115993506Y-70364537D01*
X116103820Y-70423502D01*
X116223518Y-70459812D01*
X116348000Y-70472072D01*
X116563000Y-70472072D01*
X116563001Y-78625928D01*
X116522500Y-78625928D01*
X116398018Y-78638188D01*
X116278320Y-78674498D01*
X116168006Y-78733463D01*
X116071315Y-78812815D01*
X115991963Y-78909506D01*
X115932998Y-79019820D01*
X115896688Y-79139518D01*
X115884428Y-79264000D01*
X115884428Y-80744415D01*
X114000184Y-82628659D01*
X113970236Y-82653237D01*
X113945658Y-82683185D01*
X113945654Y-82683189D01*
X113912689Y-82723357D01*
X113872138Y-82772768D01*
X113833176Y-82845661D01*
X113799245Y-82909142D01*
X113754358Y-83057115D01*
X113739202Y-83211001D01*
X113563000Y-83211001D01*
X113563000Y-64033000D01*
X138781230Y-64033000D01*
X138768498Y-64056820D01*
%TA.AperFunction,Conductor*%
D32*
G36*
X138768498Y-64056820D02*
G01*
X138732188Y-64176518D01*
X138719928Y-64301000D01*
X138719928Y-65528914D01*
X130432001Y-73816842D01*
X130432001Y-73352555D01*
X130435798Y-73313999D01*
X130432001Y-73275439D01*
X130432001Y-73275438D01*
X130425480Y-73209232D01*
X130420643Y-73160112D01*
X130375755Y-73012139D01*
X130351018Y-72965859D01*
X130302863Y-72875766D01*
X130204765Y-72756235D01*
X130174812Y-72731653D01*
X129579348Y-72136189D01*
X129554765Y-72106235D01*
X129435234Y-72008137D01*
X129298861Y-71935245D01*
X129150888Y-71890358D01*
X129035562Y-71878999D01*
X129035554Y-71878999D01*
X128997001Y-71875202D01*
X128958448Y-71878999D01*
X127835551Y-71878999D01*
X127796998Y-71875202D01*
X127758445Y-71878999D01*
X127758438Y-71878999D01*
X127657489Y-71888942D01*
X127643111Y-71890358D01*
X127608671Y-71900805D01*
X127495139Y-71935245D01*
X127358766Y-72008137D01*
X127317205Y-72042246D01*
X127269186Y-72081654D01*
X127269183Y-72081657D01*
X127239235Y-72106235D01*
X127214657Y-72136184D01*
X126069174Y-73281667D01*
X126039226Y-73306245D01*
X126014648Y-73336193D01*
X126014644Y-73336197D01*
X126000571Y-73353345D01*
X125941128Y-73425776D01*
X125903900Y-73495426D01*
X125868235Y-73562150D01*
X125823348Y-73710123D01*
X125808192Y-73864009D01*
X125811990Y-73902572D01*
X125811989Y-82321624D01*
X125808192Y-82360177D01*
X125811989Y-82398730D01*
X125811989Y-82398737D01*
X125813310Y-82412153D01*
X124097263Y-80696106D01*
X124119530Y-80622703D01*
X124142500Y-80389485D01*
X124142500Y-80138514D01*
X124119530Y-79905296D01*
X124028755Y-79606051D01*
X123881345Y-79330265D01*
X123682963Y-79088537D01*
X123441234Y-78890155D01*
X123340000Y-78836045D01*
X123340000Y-73096157D01*
X127815086Y-68621072D01*
X128943000Y-68621072D01*
X129067482Y-68608812D01*
X129187180Y-68572502D01*
X129297494Y-68513537D01*
X129394185Y-68434185D01*
X129473537Y-68337494D01*
X129532502Y-68227180D01*
X129548117Y-68175702D01*
X129829903Y-68175702D01*
X129901486Y-68419671D01*
X130156996Y-68540571D01*
X130431184Y-68609300D01*
X130713512Y-68623217D01*
X130993130Y-68581787D01*
X131259292Y-68486603D01*
X131384514Y-68419671D01*
X131456097Y-68175702D01*
X130643000Y-67362605D01*
X129829903Y-68175702D01*
X129548117Y-68175702D01*
X129568812Y-68107482D01*
X129581072Y-67983000D01*
X129581072Y-67975785D01*
X129650298Y-67996097D01*
X130463395Y-67183000D01*
X130822605Y-67183000D01*
X131635702Y-67996097D01*
X131879671Y-67924514D01*
X132000571Y-67669004D01*
X132069300Y-67394816D01*
X132083217Y-67112488D01*
X132041787Y-66832870D01*
X131946603Y-66566708D01*
X131879671Y-66441486D01*
X131635702Y-66369903D01*
X130822605Y-67183000D01*
X130463395Y-67183000D01*
X129650298Y-66369903D01*
X129581072Y-66390215D01*
X129581072Y-66383000D01*
X129568812Y-66258518D01*
X129548118Y-66190298D01*
X129829903Y-66190298D01*
X130643000Y-67003395D01*
X131456097Y-66190298D01*
X131384514Y-65946329D01*
X131129004Y-65825429D01*
X130854816Y-65756700D01*
X130572488Y-65742783D01*
X130292870Y-65784213D01*
X130026708Y-65879397D01*
X129901486Y-65946329D01*
X129829903Y-66190298D01*
X129548118Y-66190298D01*
X129532502Y-66138820D01*
X129473537Y-66028506D01*
X129394185Y-65931815D01*
X129297494Y-65852463D01*
X129187180Y-65793498D01*
X129067482Y-65757188D01*
X128943000Y-65744928D01*
X127343000Y-65744928D01*
X127218518Y-65757188D01*
X127098820Y-65793498D01*
X126988506Y-65852463D01*
X126891815Y-65931815D01*
X126812463Y-66028506D01*
X126753498Y-66138820D01*
X126717188Y-66258518D01*
X126704928Y-66383000D01*
X126704928Y-67510914D01*
X122027190Y-72188653D01*
X121997236Y-72213236D01*
X121899138Y-72332768D01*
X121826246Y-72469141D01*
X121781359Y-72617114D01*
X121770000Y-72732440D01*
X121770000Y-72732447D01*
X121766203Y-72771000D01*
X121770000Y-72809553D01*
X121770001Y-78836044D01*
X121668765Y-78890155D01*
X121427037Y-79088537D01*
X121279838Y-79267900D01*
X121124437Y-79082685D01*
X120881923Y-78888031D01*
X120606094Y-78744429D01*
X120387980Y-78673437D01*
X120142000Y-78793406D01*
X120142000Y-80137000D01*
X120162000Y-80137000D01*
X120162000Y-80391000D01*
X120142000Y-80391000D01*
X120142000Y-81734594D01*
X120387980Y-81854563D01*
X120606094Y-81783571D01*
X120881923Y-81639969D01*
X121124437Y-81445315D01*
X121279837Y-81260101D01*
X121427037Y-81439463D01*
X121668766Y-81637845D01*
X121944552Y-81785255D01*
X122243797Y-81876030D01*
X122555000Y-81906681D01*
X122866204Y-81876030D01*
X123012496Y-81831653D01*
X125565032Y-84384190D01*
X125519946Y-84399558D01*
X125225609Y-84569992D01*
X124970178Y-84794573D01*
X124763469Y-85064671D01*
X124613425Y-85369906D01*
X124548825Y-85582878D01*
X124666875Y-85852000D01*
X126111000Y-85852000D01*
X126111000Y-85832000D01*
X126365000Y-85832000D01*
X126365000Y-85852000D01*
X127809125Y-85852000D01*
X127927175Y-85582878D01*
X127862575Y-85369906D01*
X127785936Y-85213999D01*
X130705842Y-85213999D01*
X132579882Y-87088039D01*
X132527000Y-87353891D01*
X132527000Y-87666109D01*
X132587911Y-87972327D01*
X132707391Y-88260779D01*
X132866021Y-88498186D01*
X132807506Y-88529463D01*
X132710815Y-88608815D01*
X132631463Y-88705506D01*
X132572498Y-88815820D01*
X132536188Y-88935518D01*
X132523928Y-89060000D01*
X132523928Y-90960000D01*
X132536188Y-91084482D01*
X132572498Y-91204180D01*
X132631463Y-91314494D01*
X132710815Y-91411185D01*
X132807506Y-91490537D01*
X132917820Y-91549502D01*
X133037518Y-91585812D01*
X133162000Y-91598072D01*
X134589915Y-91598072D01*
X135947002Y-92955160D01*
X135947002Y-97251559D01*
X135829743Y-97202989D01*
X135533184Y-97144000D01*
X135230816Y-97144000D01*
X134973070Y-97195269D01*
X133248001Y-95470200D01*
X133161275Y-95399025D01*
X133029245Y-95328453D01*
X132885984Y-95284997D01*
X132736999Y-95270323D01*
X132588014Y-95284997D01*
X132444753Y-95328453D01*
X132312723Y-95399025D01*
X132196998Y-95493998D01*
X132102025Y-95609723D01*
X132031453Y-95741753D01*
X131987997Y-95885014D01*
X131973323Y-96033999D01*
X131987997Y-96182984D01*
X132031453Y-96326245D01*
X132102025Y-96458275D01*
X132173200Y-96545001D01*
X132772199Y-97144000D01*
X132714998Y-97144000D01*
X132714998Y-97302748D01*
X132556250Y-97144000D01*
X131942000Y-97140928D01*
X131817518Y-97153188D01*
X131697820Y-97189498D01*
X131587506Y-97248463D01*
X131490815Y-97327815D01*
X131411463Y-97424506D01*
X131352498Y-97534820D01*
X131316188Y-97654518D01*
X131303928Y-97779000D01*
X131307000Y-98393250D01*
X131465750Y-98552000D01*
X132715000Y-98552000D01*
X132715000Y-98532000D01*
X132969000Y-98532000D01*
X132969000Y-98552000D01*
X132989000Y-98552000D01*
X132989000Y-98806000D01*
X132969000Y-98806000D01*
X132969000Y-100055250D01*
X133127750Y-100214000D01*
X133742000Y-100217072D01*
X133866482Y-100204812D01*
X133986180Y-100168502D01*
X134096494Y-100109537D01*
X134193185Y-100030185D01*
X134272537Y-99933494D01*
X134331502Y-99823180D01*
X134337056Y-99804873D01*
X134403495Y-99871312D01*
X134654905Y-100039299D01*
X134704002Y-100059636D01*
X134704002Y-103668378D01*
X134657574Y-103649147D01*
X134380335Y-103594000D01*
X134097665Y-103594000D01*
X133820426Y-103649147D01*
X133559273Y-103757320D01*
X133324241Y-103914363D01*
X133124363Y-104114241D01*
X132967320Y-104349273D01*
X132859147Y-104610426D01*
X132804000Y-104887665D01*
X132804000Y-105170335D01*
X132859147Y-105447574D01*
X132967320Y-105708727D01*
X133124363Y-105943759D01*
X133324241Y-106143637D01*
X133559273Y-106300680D01*
X133820426Y-106408853D01*
X134097665Y-106464000D01*
X134380335Y-106464000D01*
X134657574Y-106408853D01*
X134704001Y-106389622D01*
X134704001Y-111109197D01*
X134562886Y-111250312D01*
X134380335Y-111214000D01*
X134097665Y-111214000D01*
X133820426Y-111269147D01*
X133559273Y-111377320D01*
X133324241Y-111534363D01*
X133124363Y-111734241D01*
X132967320Y-111969273D01*
X132859147Y-112230426D01*
X132804000Y-112507665D01*
X132804000Y-112790335D01*
X132859147Y-113067574D01*
X132967320Y-113328727D01*
X133124363Y-113563759D01*
X133324241Y-113763637D01*
X133559273Y-113920680D01*
X133801467Y-114021000D01*
X127104850Y-114021000D01*
X127238775Y-113820566D01*
X127384639Y-113468419D01*
X127459000Y-113094581D01*
X127459000Y-112713419D01*
X127384639Y-112339581D01*
X127238775Y-111987434D01*
X127027013Y-111670509D01*
X126757491Y-111400987D01*
X126440566Y-111189225D01*
X126088419Y-111043361D01*
X125714581Y-110969000D01*
X125333419Y-110969000D01*
X124959581Y-111043361D01*
X124607434Y-111189225D01*
X124290509Y-111400987D01*
X124020987Y-111670509D01*
X123809225Y-111987434D01*
X123663361Y-112339581D01*
X123589000Y-112713419D01*
X123589000Y-113094581D01*
X123663361Y-113468419D01*
X123809225Y-113820566D01*
X123943150Y-114021000D01*
X113563000Y-114021000D01*
X113563000Y-83211001D01*
X113739202Y-83211001D01*
X113743000Y-83249564D01*
X113742999Y-89004779D01*
X113739202Y-89043332D01*
X113742999Y-89081885D01*
X113742999Y-89081892D01*
X113754358Y-89197218D01*
X113799245Y-89345191D01*
X113872137Y-89481564D01*
X113970235Y-89601096D01*
X114000189Y-89625679D01*
X114339928Y-89965418D01*
X114339928Y-91693333D01*
X114352188Y-91817815D01*
X114388498Y-91937513D01*
X114447463Y-92047827D01*
X114526815Y-92144518D01*
X114623506Y-92223870D01*
X114733820Y-92282835D01*
X114853518Y-92319145D01*
X114978000Y-92331405D01*
X115293001Y-92331405D01*
X115293000Y-93469594D01*
X114978000Y-93469594D01*
X114853518Y-93481854D01*
X114733820Y-93518164D01*
X114623506Y-93577129D01*
X114526815Y-93656481D01*
X114447463Y-93753172D01*
X114388498Y-93863486D01*
X114352188Y-93983184D01*
X114339928Y-94107666D01*
X114339928Y-96307666D01*
X114352188Y-96432148D01*
X114388498Y-96551846D01*
X114447463Y-96662160D01*
X114526815Y-96758851D01*
X114623506Y-96838203D01*
X114733820Y-96897168D01*
X114853518Y-96933478D01*
X114978000Y-96945738D01*
X117178000Y-96945738D01*
X117302482Y-96933478D01*
X117422180Y-96897168D01*
X117532494Y-96838203D01*
X117629185Y-96758851D01*
X117708537Y-96662160D01*
X117767502Y-96551846D01*
X117803812Y-96432148D01*
X117816072Y-96307666D01*
X117816072Y-94107666D01*
X117803812Y-93983184D01*
X117767502Y-93863486D01*
X117708537Y-93753172D01*
X117629185Y-93656481D01*
X117532494Y-93577129D01*
X117422180Y-93518164D01*
X117302482Y-93481854D01*
X117178000Y-93469594D01*
X116863000Y-93469594D01*
X116863000Y-92331405D01*
X117178000Y-92331405D01*
X117302482Y-92319145D01*
X117422180Y-92282835D01*
X117532494Y-92223870D01*
X117629185Y-92144518D01*
X117708537Y-92047827D01*
X117767502Y-91937513D01*
X117803812Y-91817815D01*
X117816072Y-91693333D01*
X117816072Y-89493333D01*
X117803812Y-89368851D01*
X117767502Y-89249153D01*
X117708537Y-89138839D01*
X117629185Y-89042148D01*
X117532494Y-88962796D01*
X117422180Y-88903831D01*
X117302482Y-88867521D01*
X117178000Y-88855261D01*
X115450085Y-88855261D01*
X115312999Y-88718175D01*
X115312999Y-87717072D01*
X117178000Y-87717072D01*
X117302482Y-87704812D01*
X117422180Y-87668502D01*
X117532494Y-87609537D01*
X117550386Y-87594853D01*
X124595286Y-94639754D01*
X124569675Y-94701585D01*
X124503000Y-95036783D01*
X124503000Y-95378549D01*
X124569675Y-95713747D01*
X124700463Y-96029497D01*
X124890337Y-96313664D01*
X125132002Y-96555329D01*
X125416169Y-96745203D01*
X125731919Y-96875991D01*
X126067117Y-96942666D01*
X126408883Y-96942666D01*
X126744081Y-96875991D01*
X126805912Y-96850380D01*
X127764001Y-97808469D01*
X127764001Y-99012376D01*
X127712531Y-98907671D01*
X127505822Y-98637573D01*
X127250391Y-98412992D01*
X126956054Y-98242558D01*
X126634123Y-98132821D01*
X126365000Y-98250400D01*
X126365000Y-99695000D01*
X126385000Y-99695000D01*
X126385000Y-99949000D01*
X126365000Y-99949000D01*
X126365000Y-101393600D01*
X126634123Y-101511179D01*
X126956054Y-101401442D01*
X127250391Y-101231008D01*
X127505822Y-101006427D01*
X127712531Y-100736329D01*
X127764001Y-100631624D01*
X127764000Y-106265928D01*
X127224000Y-106265928D01*
X127099518Y-106278188D01*
X126979820Y-106314498D01*
X126869506Y-106373463D01*
X126772815Y-106452815D01*
X126693463Y-106549506D01*
X126634498Y-106659820D01*
X126598188Y-106779518D01*
X126585928Y-106904000D01*
X126585928Y-109169001D01*
X126535159Y-109169001D01*
X117816072Y-100449915D01*
X117816072Y-100218122D01*
X124548825Y-100218122D01*
X124613425Y-100431094D01*
X124763469Y-100736329D01*
X124970178Y-101006427D01*
X125225609Y-101231008D01*
X125519946Y-101401442D01*
X125841877Y-101511179D01*
X126111000Y-101393600D01*
X126111000Y-99949000D01*
X124666875Y-99949000D01*
X124548825Y-100218122D01*
X117816072Y-100218122D01*
X117816072Y-99425878D01*
X124548825Y-99425878D01*
X124666875Y-99695000D01*
X126111000Y-99695000D01*
X126111000Y-98250400D01*
X125841877Y-98132821D01*
X125519946Y-98242558D01*
X125225609Y-98412992D01*
X124970178Y-98637573D01*
X124763469Y-98907671D01*
X124613425Y-99212906D01*
X124548825Y-99425878D01*
X117816072Y-99425878D01*
X117816072Y-98722000D01*
X117803812Y-98597518D01*
X117767502Y-98477820D01*
X117708537Y-98367506D01*
X117629185Y-98270815D01*
X117532494Y-98191463D01*
X117422180Y-98132498D01*
X117302482Y-98096188D01*
X117178000Y-98083928D01*
X114978000Y-98083928D01*
X114853518Y-98096188D01*
X114733820Y-98132498D01*
X114623506Y-98191463D01*
X114526815Y-98270815D01*
X114447463Y-98367506D01*
X114388498Y-98477820D01*
X114352188Y-98597518D01*
X114339928Y-98722000D01*
X114339928Y-100922000D01*
X114352188Y-101046482D01*
X114388498Y-101166180D01*
X114447463Y-101276494D01*
X114526815Y-101373185D01*
X114623506Y-101452537D01*
X114733820Y-101511502D01*
X114853518Y-101547812D01*
X114978000Y-101560072D01*
X116705915Y-101560072D01*
X121626974Y-106481131D01*
X121607434Y-106489225D01*
X121290509Y-106700987D01*
X121020987Y-106970509D01*
X120809225Y-107287434D01*
X120663361Y-107639581D01*
X120589000Y-108013419D01*
X120589000Y-108394581D01*
X120663361Y-108768419D01*
X120809225Y-109120566D01*
X121020987Y-109437491D01*
X121290509Y-109707013D01*
X121607434Y-109918775D01*
X121959581Y-110064639D01*
X122333419Y-110139000D01*
X122714581Y-110139000D01*
X123088419Y-110064639D01*
X123440566Y-109918775D01*
X123757491Y-109707013D01*
X124027013Y-109437491D01*
X124238775Y-109120566D01*
X124246869Y-109101026D01*
X125627659Y-110481817D01*
X125652237Y-110511765D01*
X125682185Y-110536343D01*
X125682188Y-110536346D01*
X125709074Y-110558411D01*
X125771768Y-110609863D01*
X125908141Y-110682755D01*
X126021673Y-110717195D01*
X126056113Y-110727642D01*
X126070491Y-110729058D01*
X126171440Y-110739001D01*
X126171447Y-110739001D01*
X126210000Y-110742798D01*
X126248553Y-110739001D01*
X130145448Y-110739001D01*
X130184001Y-110742798D01*
X130222554Y-110739001D01*
X130222562Y-110739001D01*
X130337888Y-110727642D01*
X130485861Y-110682755D01*
X130622234Y-110609863D01*
X130741765Y-110511765D01*
X130766348Y-110481811D01*
X130801812Y-110446347D01*
X130831765Y-110421765D01*
X130929863Y-110302234D01*
X131002755Y-110165861D01*
X131047642Y-110017888D01*
X131059001Y-109902562D01*
X131059001Y-109902555D01*
X131062798Y-109864002D01*
X131059001Y-109825449D01*
X131059001Y-99579000D01*
X131303928Y-99579000D01*
X131316188Y-99703482D01*
X131352498Y-99823180D01*
X131411463Y-99933494D01*
X131490815Y-100030185D01*
X131587506Y-100109537D01*
X131697820Y-100168502D01*
X131817518Y-100204812D01*
X131942000Y-100217072D01*
X132556250Y-100214000D01*
X132715000Y-100055250D01*
X132715000Y-98806000D01*
X131465750Y-98806000D01*
X131307000Y-98964750D01*
X131303928Y-99579000D01*
X131059001Y-99579000D01*
X131059001Y-94667886D01*
X131062798Y-94629333D01*
X131059001Y-94590780D01*
X131059001Y-94590773D01*
X131047642Y-94475447D01*
X131002755Y-94327474D01*
X130929863Y-94191101D01*
X130861389Y-94107666D01*
X130856346Y-94101521D01*
X130856343Y-94101518D01*
X130831765Y-94071570D01*
X130801817Y-94046992D01*
X127891069Y-91136245D01*
X127906325Y-91099414D01*
X127973000Y-90764216D01*
X127973000Y-90422450D01*
X127906325Y-90087252D01*
X127775537Y-89771502D01*
X127585663Y-89487335D01*
X127343998Y-89245670D01*
X127059831Y-89055796D01*
X126744081Y-88925008D01*
X126408883Y-88858333D01*
X126067117Y-88858333D01*
X125731919Y-88925008D01*
X125416169Y-89055796D01*
X125132002Y-89245670D01*
X124890337Y-89487335D01*
X124700463Y-89771502D01*
X124569675Y-90087252D01*
X124503000Y-90422450D01*
X124503000Y-90764216D01*
X124569675Y-91099414D01*
X124700463Y-91415164D01*
X124890337Y-91699331D01*
X125132002Y-91940996D01*
X125416169Y-92130870D01*
X125731919Y-92261658D01*
X126067117Y-92328333D01*
X126408883Y-92328333D01*
X126744081Y-92261658D01*
X126780912Y-92246402D01*
X129489002Y-94954493D01*
X129489001Y-106265928D01*
X129284000Y-106265928D01*
X129284000Y-97530988D01*
X129287676Y-97493665D01*
X129284000Y-97456342D01*
X129284000Y-97456333D01*
X129273003Y-97344680D01*
X129229546Y-97201419D01*
X129158974Y-97069390D01*
X129064001Y-96953665D01*
X129035003Y-96929867D01*
X127880714Y-95775578D01*
X127906325Y-95713747D01*
X127973000Y-95378549D01*
X127973000Y-95036783D01*
X127906325Y-94701585D01*
X127775537Y-94385835D01*
X127585663Y-94101668D01*
X127343998Y-93860003D01*
X127059831Y-93670129D01*
X126744081Y-93539341D01*
X126408883Y-93472666D01*
X126067117Y-93472666D01*
X125731919Y-93539341D01*
X125670088Y-93564952D01*
X118480258Y-86375122D01*
X124548825Y-86375122D01*
X124613425Y-86588094D01*
X124763469Y-86893329D01*
X124970178Y-87163427D01*
X125225609Y-87388008D01*
X125519946Y-87558442D01*
X125841877Y-87668179D01*
X126111000Y-87550600D01*
X126111000Y-86106000D01*
X126365000Y-86106000D01*
X126365000Y-87550600D01*
X126634123Y-87668179D01*
X126956054Y-87558442D01*
X127250391Y-87388008D01*
X127505822Y-87163427D01*
X127712531Y-86893329D01*
X127862575Y-86588094D01*
X127927175Y-86375122D01*
X127809125Y-86106000D01*
X126365000Y-86106000D01*
X126111000Y-86106000D01*
X124666875Y-86106000D01*
X124548825Y-86375122D01*
X118480258Y-86375122D01*
X117816072Y-85710937D01*
X117816072Y-84879000D01*
X117803812Y-84754518D01*
X117767502Y-84634820D01*
X117708537Y-84524506D01*
X117629185Y-84427815D01*
X117532494Y-84348463D01*
X117422180Y-84289498D01*
X117302482Y-84253188D01*
X117178000Y-84240928D01*
X115312999Y-84240928D01*
X115312999Y-83536158D01*
X116947085Y-81902072D01*
X118427500Y-81902072D01*
X118551982Y-81889812D01*
X118671680Y-81853502D01*
X118781994Y-81794537D01*
X118878685Y-81715185D01*
X118958037Y-81618494D01*
X119007059Y-81526781D01*
X119148077Y-81639969D01*
X119423906Y-81783571D01*
X119642020Y-81854563D01*
X119888000Y-81734594D01*
X119888000Y-80391000D01*
X119868000Y-80391000D01*
X119868000Y-80137000D01*
X119888000Y-80137000D01*
X119888000Y-78793406D01*
X119642020Y-78673437D01*
X119423906Y-78744429D01*
X119148077Y-78888031D01*
X119007059Y-79001219D01*
X118958037Y-78909506D01*
X118878685Y-78812815D01*
X118781994Y-78733463D01*
X118671680Y-78674498D01*
X118551982Y-78638188D01*
X118427500Y-78625928D01*
X118133000Y-78625928D01*
X118133000Y-70472072D01*
X118348000Y-70472072D01*
X118472482Y-70459812D01*
X118592180Y-70423502D01*
X118702494Y-70364537D01*
X118799185Y-70285185D01*
X118878537Y-70188494D01*
X118937502Y-70078180D01*
X118970496Y-69969413D01*
X121392192Y-69969413D01*
X121487956Y-70233814D01*
X121777571Y-70374704D01*
X122089108Y-70456384D01*
X122410595Y-70475718D01*
X122729675Y-70431961D01*
X123034088Y-70326795D01*
X123208044Y-70233814D01*
X123303808Y-69969413D01*
X122348000Y-69013605D01*
X121392192Y-69969413D01*
X118970496Y-69969413D01*
X118973812Y-69958482D01*
X118986072Y-69834000D01*
X118986072Y-68896595D01*
X120706282Y-68896595D01*
X120750039Y-69215675D01*
X120855205Y-69520088D01*
X120948186Y-69694044D01*
X121212587Y-69789808D01*
X122168395Y-68834000D01*
X122527605Y-68834000D01*
X123483413Y-69789808D01*
X123747814Y-69694044D01*
X123888704Y-69404429D01*
X123970384Y-69092892D01*
X123989718Y-68771405D01*
X123945961Y-68452325D01*
X123840795Y-68147912D01*
X123747814Y-67973956D01*
X123483413Y-67878192D01*
X122527605Y-68834000D01*
X122168395Y-68834000D01*
X121212587Y-67878192D01*
X120948186Y-67973956D01*
X120807296Y-68263571D01*
X120725616Y-68575108D01*
X120706282Y-68896595D01*
X118986072Y-68896595D01*
X118986072Y-67834000D01*
X118973812Y-67709518D01*
X118970497Y-67698587D01*
X121392192Y-67698587D01*
X122348000Y-68654395D01*
X123303808Y-67698587D01*
X123208044Y-67434186D01*
X122918429Y-67293296D01*
X122606892Y-67211616D01*
X122285405Y-67192282D01*
X121966325Y-67236039D01*
X121661912Y-67341205D01*
X121487956Y-67434186D01*
X121392192Y-67698587D01*
X118970497Y-67698587D01*
X118937502Y-67589820D01*
X118878537Y-67479506D01*
X118799185Y-67382815D01*
X118702494Y-67303463D01*
X118592180Y-67244498D01*
X118472482Y-67208188D01*
X118348000Y-67195928D01*
X116348000Y-67195928D01*
X116223518Y-67208188D01*
X116103820Y-67244498D01*
X115993506Y-67303463D01*
X115896815Y-67382815D01*
X115817463Y-67479506D01*
X115758498Y-67589820D01*
X115722188Y-67709518D01*
X115709928Y-67834000D01*
X115709928Y-69834000D01*
X115722188Y-69958482D01*
X115758498Y-70078180D01*
X115817463Y-70188494D01*
X115896815Y-70285185D01*
X115993506Y-70364537D01*
X116103820Y-70423502D01*
X116223518Y-70459812D01*
X116348000Y-70472072D01*
X116563000Y-70472072D01*
X116563001Y-78625928D01*
X116522500Y-78625928D01*
X116398018Y-78638188D01*
X116278320Y-78674498D01*
X116168006Y-78733463D01*
X116071315Y-78812815D01*
X115991963Y-78909506D01*
X115932998Y-79019820D01*
X115896688Y-79139518D01*
X115884428Y-79264000D01*
X115884428Y-80744415D01*
X114000184Y-82628659D01*
X113970236Y-82653237D01*
X113945658Y-82683185D01*
X113945654Y-82683189D01*
X113912689Y-82723357D01*
X113872138Y-82772768D01*
X113833176Y-82845661D01*
X113799245Y-82909142D01*
X113754358Y-83057115D01*
X113739202Y-83211001D01*
X113563000Y-83211001D01*
X113563000Y-64033000D01*
X138781230Y-64033000D01*
X138768498Y-64056820D01*
G37*
%TD.AperFunction*%
D31*
X138723000Y-67818002D02*
X138887844Y-67818002D01*
X138766524Y-68047890D01*
X138811175Y-68195099D01*
X138936359Y-68457920D01*
X139103498Y-68682000D01*
X138589419Y-68682000D01*
X138557000Y-68678807D01*
X138524581Y-68682000D01*
X138427617Y-68691550D01*
X138303207Y-68729290D01*
X138188550Y-68790575D01*
X138117270Y-68849073D01*
X138107657Y-68853957D01*
X138088087Y-68869346D01*
X138071896Y-68888258D01*
X138063927Y-68902449D01*
X138005575Y-68973550D01*
X137944290Y-69088207D01*
X137906550Y-69212617D01*
X137893807Y-69342000D01*
X137897001Y-69374429D01*
X137897001Y-86888869D01*
X137883520Y-86875388D01*
X137697624Y-86751176D01*
X137491067Y-86665617D01*
X137271788Y-86622000D01*
X137048212Y-86622000D01*
X136828933Y-86665617D01*
X136622376Y-86751176D01*
X136436480Y-86875388D01*
X136297001Y-87014867D01*
X136297001Y-84376551D01*
X136300798Y-84337998D01*
X136297001Y-84299445D01*
X136297001Y-84299438D01*
X136285642Y-84184112D01*
X136240755Y-84036139D01*
X136167863Y-83899766D01*
X136069765Y-83780235D01*
X136039816Y-83755656D01*
X135090360Y-82806201D01*
X135065777Y-82776247D01*
X134946246Y-82678149D01*
X134809873Y-82605257D01*
X134661900Y-82560370D01*
X134546574Y-82549011D01*
X134546566Y-82549011D01*
X134508013Y-82545214D01*
X134469460Y-82549011D01*
X130254732Y-82549011D01*
X130256975Y-82546278D01*
X130327547Y-82414248D01*
X130343949Y-82360177D01*
X130371004Y-82270987D01*
X130382001Y-82159334D01*
X130382001Y-82159325D01*
X130385677Y-82122002D01*
X130382001Y-82084679D01*
X130382001Y-77550798D01*
X131307000Y-76625800D01*
X131307000Y-76708002D01*
X131465748Y-76708002D01*
X131307000Y-76866750D01*
X131303928Y-77481000D01*
X131316188Y-77605482D01*
X131352498Y-77725180D01*
X131411463Y-77835494D01*
X131490815Y-77932185D01*
X131587506Y-78011537D01*
X131697820Y-78070502D01*
X131817518Y-78106812D01*
X131942000Y-78119072D01*
X132556250Y-78116000D01*
X132715000Y-77957250D01*
X132715000Y-76708000D01*
X132695000Y-76708000D01*
X132695000Y-76454000D01*
X132715000Y-76454000D01*
X132715000Y-76434000D01*
X132969000Y-76434000D01*
X132969000Y-76454000D01*
X132989000Y-76454000D01*
X132989000Y-76708000D01*
X132969000Y-76708000D01*
X132969000Y-77957250D01*
X133127750Y-78116000D01*
X133742000Y-78119072D01*
X133866482Y-78106812D01*
X133986180Y-78070502D01*
X134096494Y-78011537D01*
X134193185Y-77932185D01*
X134272537Y-77835494D01*
X134331502Y-77725180D01*
X134337056Y-77706873D01*
X134403495Y-77773312D01*
X134654905Y-77941299D01*
X134934257Y-78057011D01*
X135230816Y-78116000D01*
X135533184Y-78116000D01*
X135829743Y-78057011D01*
X136109095Y-77941299D01*
X136360505Y-77773312D01*
X136574312Y-77559505D01*
X136742299Y-77308095D01*
X136858011Y-77028743D01*
X136917000Y-76732184D01*
X136917000Y-76429816D01*
X136858011Y-76133257D01*
X136742299Y-75853905D01*
X136574312Y-75602495D01*
X136360505Y-75388688D01*
X136109095Y-75220701D01*
X135829743Y-75104989D01*
X135533184Y-75046000D01*
X135230816Y-75046000D01*
X134973070Y-75097269D01*
X134620802Y-74745001D01*
X134597000Y-74715998D01*
X134481275Y-74621025D01*
X134349246Y-74550453D01*
X134205985Y-74506996D01*
X134094332Y-74495999D01*
X134094321Y-74495999D01*
X134056999Y-74492323D01*
X134019677Y-74495999D01*
X131973158Y-74495999D01*
X138723000Y-67746158D01*
X138723000Y-67818002D01*
%TA.AperFunction,Conductor*%
D32*
G36*
X138723000Y-67818002D02*
G01*
X138887844Y-67818002D01*
X138766524Y-68047890D01*
X138811175Y-68195099D01*
X138936359Y-68457920D01*
X139103498Y-68682000D01*
X138589419Y-68682000D01*
X138557000Y-68678807D01*
X138524581Y-68682000D01*
X138427617Y-68691550D01*
X138303207Y-68729290D01*
X138188550Y-68790575D01*
X138117270Y-68849073D01*
X138107657Y-68853957D01*
X138088087Y-68869346D01*
X138071896Y-68888258D01*
X138063927Y-68902449D01*
X138005575Y-68973550D01*
X137944290Y-69088207D01*
X137906550Y-69212617D01*
X137893807Y-69342000D01*
X137897001Y-69374429D01*
X137897001Y-86888869D01*
X137883520Y-86875388D01*
X137697624Y-86751176D01*
X137491067Y-86665617D01*
X137271788Y-86622000D01*
X137048212Y-86622000D01*
X136828933Y-86665617D01*
X136622376Y-86751176D01*
X136436480Y-86875388D01*
X136297001Y-87014867D01*
X136297001Y-84376551D01*
X136300798Y-84337998D01*
X136297001Y-84299445D01*
X136297001Y-84299438D01*
X136285642Y-84184112D01*
X136240755Y-84036139D01*
X136167863Y-83899766D01*
X136069765Y-83780235D01*
X136039816Y-83755656D01*
X135090360Y-82806201D01*
X135065777Y-82776247D01*
X134946246Y-82678149D01*
X134809873Y-82605257D01*
X134661900Y-82560370D01*
X134546574Y-82549011D01*
X134546566Y-82549011D01*
X134508013Y-82545214D01*
X134469460Y-82549011D01*
X130254732Y-82549011D01*
X130256975Y-82546278D01*
X130327547Y-82414248D01*
X130343949Y-82360177D01*
X130371004Y-82270987D01*
X130382001Y-82159334D01*
X130382001Y-82159325D01*
X130385677Y-82122002D01*
X130382001Y-82084679D01*
X130382001Y-77550798D01*
X131307000Y-76625800D01*
X131307000Y-76708002D01*
X131465748Y-76708002D01*
X131307000Y-76866750D01*
X131303928Y-77481000D01*
X131316188Y-77605482D01*
X131352498Y-77725180D01*
X131411463Y-77835494D01*
X131490815Y-77932185D01*
X131587506Y-78011537D01*
X131697820Y-78070502D01*
X131817518Y-78106812D01*
X131942000Y-78119072D01*
X132556250Y-78116000D01*
X132715000Y-77957250D01*
X132715000Y-76708000D01*
X132695000Y-76708000D01*
X132695000Y-76454000D01*
X132715000Y-76454000D01*
X132715000Y-76434000D01*
X132969000Y-76434000D01*
X132969000Y-76454000D01*
X132989000Y-76454000D01*
X132989000Y-76708000D01*
X132969000Y-76708000D01*
X132969000Y-77957250D01*
X133127750Y-78116000D01*
X133742000Y-78119072D01*
X133866482Y-78106812D01*
X133986180Y-78070502D01*
X134096494Y-78011537D01*
X134193185Y-77932185D01*
X134272537Y-77835494D01*
X134331502Y-77725180D01*
X134337056Y-77706873D01*
X134403495Y-77773312D01*
X134654905Y-77941299D01*
X134934257Y-78057011D01*
X135230816Y-78116000D01*
X135533184Y-78116000D01*
X135829743Y-78057011D01*
X136109095Y-77941299D01*
X136360505Y-77773312D01*
X136574312Y-77559505D01*
X136742299Y-77308095D01*
X136858011Y-77028743D01*
X136917000Y-76732184D01*
X136917000Y-76429816D01*
X136858011Y-76133257D01*
X136742299Y-75853905D01*
X136574312Y-75602495D01*
X136360505Y-75388688D01*
X136109095Y-75220701D01*
X135829743Y-75104989D01*
X135533184Y-75046000D01*
X135230816Y-75046000D01*
X134973070Y-75097269D01*
X134620802Y-74745001D01*
X134597000Y-74715998D01*
X134481275Y-74621025D01*
X134349246Y-74550453D01*
X134205985Y-74506996D01*
X134094332Y-74495999D01*
X134094321Y-74495999D01*
X134056999Y-74492323D01*
X134019677Y-74495999D01*
X131973158Y-74495999D01*
X138723000Y-67746158D01*
X138723000Y-67818002D01*
G37*
%TD.AperFunction*%
D31*
X140335000Y-67564000D02*
X142621000Y-67564000D01*
X142621000Y-67544000D01*
X142875000Y-67544000D01*
X142875000Y-67564000D01*
X142895000Y-67564000D01*
X142895000Y-67818000D01*
X142875000Y-67818000D01*
X142875000Y-67838000D01*
X142621000Y-67838000D01*
X142621000Y-67818000D01*
X140335000Y-67818000D01*
X140335000Y-67838000D01*
X140081000Y-67838000D01*
X140081000Y-67818000D01*
X140061000Y-67818000D01*
X140061000Y-67564000D01*
X140081000Y-67564000D01*
X140081000Y-67544000D01*
X140335000Y-67544000D01*
X140335000Y-67564000D01*
%TA.AperFunction,Conductor*%
D32*
G36*
X140335000Y-67564000D02*
G01*
X142621000Y-67564000D01*
X142621000Y-67544000D01*
X142875000Y-67544000D01*
X142875000Y-67564000D01*
X142895000Y-67564000D01*
X142895000Y-67818000D01*
X142875000Y-67818000D01*
X142875000Y-67838000D01*
X142621000Y-67838000D01*
X142621000Y-67818000D01*
X140335000Y-67818000D01*
X140335000Y-67838000D01*
X140081000Y-67838000D01*
X140081000Y-67818000D01*
X140061000Y-67818000D01*
X140061000Y-67564000D01*
X140081000Y-67564000D01*
X140081000Y-67544000D01*
X140335000Y-67544000D01*
X140335000Y-67564000D01*
G37*
%TD.AperFunction*%
%TD*%
M02*
