%TF.GenerationSoftware,KiCad,Pcbnew,(5.1.7)-1*%
%TF.CreationDate,2020-12-23T17:26:38-03:00*%
%TF.ProjectId,Breadboard Power Supply,42726561-6462-46f6-9172-6420506f7765,-*%
%TF.SameCoordinates,Original*%
%TF.FileFunction,Soldermask,Top*%
%TF.FilePolarity,Negative*%
%FSLAX46Y46*%
G04 Gerber Fmt 4.6, Leading zero omitted, Abs format (unit mm)*
G04 Created by KiCad (PCBNEW (5.1.7)-1) date 2020-12-23 17:26:38*
%MOMM*%
%LPD*%
G01*
G04 APERTURE LIST*
%ADD10R,2.000000X2.000000*%
%ADD11C,2.000000*%
%ADD12R,1.600000X1.600000*%
%ADD13C,1.600000*%
%ADD14O,2.200000X2.200000*%
%ADD15R,2.200000X2.200000*%
%ADD16R,1.800000X1.800000*%
%ADD17C,1.800000*%
%ADD18R,2.600000X2.600000*%
%ADD19C,2.600000*%
%ADD20R,1.700000X1.700000*%
%ADD21O,1.700000X1.700000*%
%ADD22O,1.600000X1.600000*%
%ADD23R,1.900000X1.900000*%
%ADD24C,1.900000*%
%ADD25R,1.905000X2.000000*%
%ADD26O,1.905000X2.000000*%
G04 APERTURE END LIST*
D10*
%TO.C,C1*%
X117348000Y-68834000D03*
D11*
X122348000Y-68834000D03*
%TD*%
D12*
%TO.C,C2*%
X128143000Y-67183000D03*
D13*
X130643000Y-67183000D03*
%TD*%
D14*
%TO.C,D1*%
X126238000Y-95207666D03*
D15*
X116078000Y-95207666D03*
%TD*%
D14*
%TO.C,D2*%
X126238000Y-85979000D03*
D15*
X116078000Y-85979000D03*
%TD*%
%TO.C,D3*%
X116078000Y-99822000D03*
D14*
X126238000Y-99822000D03*
%TD*%
D15*
%TO.C,D4*%
X116078000Y-90593333D03*
D14*
X126238000Y-90593333D03*
%TD*%
D16*
%TO.C,D5*%
X132842000Y-98679000D03*
D17*
X135382000Y-98679000D03*
%TD*%
%TO.C,D6*%
X135382000Y-76581000D03*
D16*
X132842000Y-76581000D03*
%TD*%
D18*
%TO.C,J1*%
X128524000Y-108204000D03*
D19*
X122524000Y-108204000D03*
X125524000Y-112904000D03*
%TD*%
D20*
%TO.C,J2*%
X140208000Y-65151000D03*
D21*
X142748000Y-65151000D03*
X140208000Y-67691000D03*
X142748000Y-67691000D03*
%TD*%
%TO.C,J3*%
X142494000Y-112395000D03*
X139954000Y-112395000D03*
X142494000Y-109855000D03*
D20*
X139954000Y-109855000D03*
%TD*%
D13*
%TO.C,R1*%
X134239000Y-105029000D03*
D22*
X134239000Y-112649000D03*
%TD*%
%TO.C,R2*%
X128397000Y-73914000D03*
D13*
X128397000Y-81534000D03*
%TD*%
D23*
%TO.C,SW1*%
X134112000Y-90010000D03*
D24*
X134112000Y-87510000D03*
X134112000Y-85010000D03*
%TD*%
D25*
%TO.C,U1*%
X117475000Y-80264000D03*
D26*
X120015000Y-80264000D03*
X122555000Y-80264000D03*
%TD*%
M02*
