%TF.GenerationSoftware,KiCad,Pcbnew,(5.1.7)-1*%
%TF.CreationDate,2020-12-23T17:26:38-03:00*%
%TF.ProjectId,Breadboard Power Supply,42726561-6462-46f6-9172-6420506f7765,-*%
%TF.SameCoordinates,Original*%
%TF.FileFunction,Legend,Top*%
%TF.FilePolarity,Positive*%
%FSLAX46Y46*%
G04 Gerber Fmt 4.6, Leading zero omitted, Abs format (unit mm)*
G04 Created by KiCad (PCBNEW (5.1.7)-1) date 2020-12-23 17:26:38*
%MOMM*%
%LPD*%
G01*
G04 APERTURE LIST*
%ADD10C,0.150000*%
%ADD11C,0.120000*%
%ADD12C,0.100000*%
G04 APERTURE END LIST*
D10*
X128119333Y-71286714D02*
X128119333Y-71953380D01*
X127881238Y-70905761D02*
X127643142Y-71620047D01*
X128262190Y-71620047D01*
X128547904Y-70953380D02*
X129214571Y-70953380D01*
X128786000Y-71953380D01*
X130024095Y-71286714D02*
X130024095Y-71953380D01*
X129595523Y-71286714D02*
X129595523Y-71810523D01*
X129643142Y-71905761D01*
X129738380Y-71953380D01*
X129881238Y-71953380D01*
X129976476Y-71905761D01*
X130024095Y-71858142D01*
X130833619Y-71429571D02*
X130500285Y-71429571D01*
X130500285Y-71953380D02*
X130500285Y-70953380D01*
X130976476Y-70953380D01*
X131405380Y-111473904D02*
X131405380Y-111950095D01*
X131881571Y-111997714D01*
X131833952Y-111950095D01*
X131786333Y-111854857D01*
X131786333Y-111616761D01*
X131833952Y-111521523D01*
X131881571Y-111473904D01*
X131976809Y-111426285D01*
X132214904Y-111426285D01*
X132310142Y-111473904D01*
X132357761Y-111521523D01*
X132405380Y-111616761D01*
X132405380Y-111854857D01*
X132357761Y-111950095D01*
X132310142Y-111997714D01*
X131405380Y-110569142D02*
X131405380Y-110759619D01*
X131453000Y-110854857D01*
X131500619Y-110902476D01*
X131643476Y-110997714D01*
X131833952Y-111045333D01*
X132214904Y-111045333D01*
X132310142Y-110997714D01*
X132357761Y-110950095D01*
X132405380Y-110854857D01*
X132405380Y-110664380D01*
X132357761Y-110569142D01*
X132310142Y-110521523D01*
X132214904Y-110473904D01*
X131976809Y-110473904D01*
X131881571Y-110521523D01*
X131833952Y-110569142D01*
X131786333Y-110664380D01*
X131786333Y-110854857D01*
X131833952Y-110950095D01*
X131881571Y-110997714D01*
X131976809Y-111045333D01*
X131405380Y-109854857D02*
X131405380Y-109759619D01*
X131453000Y-109664380D01*
X131500619Y-109616761D01*
X131595857Y-109569142D01*
X131786333Y-109521523D01*
X132024428Y-109521523D01*
X132214904Y-109569142D01*
X132310142Y-109616761D01*
X132357761Y-109664380D01*
X132405380Y-109759619D01*
X132405380Y-109854857D01*
X132357761Y-109950095D01*
X132310142Y-109997714D01*
X132214904Y-110045333D01*
X132024428Y-110092952D01*
X131786333Y-110092952D01*
X131595857Y-110045333D01*
X131500619Y-109997714D01*
X131453000Y-109950095D01*
X131405380Y-109854857D01*
X131405380Y-108902476D02*
X131405380Y-108712000D01*
X131453000Y-108616761D01*
X131548238Y-108521523D01*
X131738714Y-108473904D01*
X132072047Y-108473904D01*
X132262523Y-108521523D01*
X132357761Y-108616761D01*
X132405380Y-108712000D01*
X132405380Y-108902476D01*
X132357761Y-108997714D01*
X132262523Y-109092952D01*
X132072047Y-109140571D01*
X131738714Y-109140571D01*
X131548238Y-109092952D01*
X131453000Y-108997714D01*
X131405380Y-108902476D01*
X132405380Y-108045333D02*
X131405380Y-108045333D01*
X132405380Y-107616761D02*
X131881571Y-107616761D01*
X131786333Y-107664380D01*
X131738714Y-107759619D01*
X131738714Y-107902476D01*
X131786333Y-107997714D01*
X131833952Y-108045333D01*
X132405380Y-107140571D02*
X131738714Y-107140571D01*
X131833952Y-107140571D02*
X131786333Y-107092952D01*
X131738714Y-106997714D01*
X131738714Y-106854857D01*
X131786333Y-106759619D01*
X131881571Y-106712000D01*
X132405380Y-106712000D01*
X131881571Y-106712000D02*
X131786333Y-106664380D01*
X131738714Y-106569142D01*
X131738714Y-106426285D01*
X131786333Y-106331047D01*
X131881571Y-106283428D01*
X132405380Y-106283428D01*
X132357761Y-105854857D02*
X132405380Y-105759619D01*
X132405380Y-105569142D01*
X132357761Y-105473904D01*
X132262523Y-105426285D01*
X132214904Y-105426285D01*
X132119666Y-105473904D01*
X132072047Y-105569142D01*
X132072047Y-105712000D01*
X132024428Y-105807238D01*
X131929190Y-105854857D01*
X131881571Y-105854857D01*
X131786333Y-105807238D01*
X131738714Y-105712000D01*
X131738714Y-105569142D01*
X131786333Y-105473904D01*
X125563380Y-80485904D02*
X125563380Y-80962095D01*
X126039571Y-81009714D01*
X125991952Y-80962095D01*
X125944333Y-80866857D01*
X125944333Y-80628761D01*
X125991952Y-80533523D01*
X126039571Y-80485904D01*
X126134809Y-80438285D01*
X126372904Y-80438285D01*
X126468142Y-80485904D01*
X126515761Y-80533523D01*
X126563380Y-80628761D01*
X126563380Y-80866857D01*
X126515761Y-80962095D01*
X126468142Y-81009714D01*
X125563380Y-79581142D02*
X125563380Y-79771619D01*
X125611000Y-79866857D01*
X125658619Y-79914476D01*
X125801476Y-80009714D01*
X125991952Y-80057333D01*
X126372904Y-80057333D01*
X126468142Y-80009714D01*
X126515761Y-79962095D01*
X126563380Y-79866857D01*
X126563380Y-79676380D01*
X126515761Y-79581142D01*
X126468142Y-79533523D01*
X126372904Y-79485904D01*
X126134809Y-79485904D01*
X126039571Y-79533523D01*
X125991952Y-79581142D01*
X125944333Y-79676380D01*
X125944333Y-79866857D01*
X125991952Y-79962095D01*
X126039571Y-80009714D01*
X126134809Y-80057333D01*
X125563380Y-78866857D02*
X125563380Y-78771619D01*
X125611000Y-78676380D01*
X125658619Y-78628761D01*
X125753857Y-78581142D01*
X125944333Y-78533523D01*
X126182428Y-78533523D01*
X126372904Y-78581142D01*
X126468142Y-78628761D01*
X126515761Y-78676380D01*
X126563380Y-78771619D01*
X126563380Y-78866857D01*
X126515761Y-78962095D01*
X126468142Y-79009714D01*
X126372904Y-79057333D01*
X126182428Y-79104952D01*
X125944333Y-79104952D01*
X125753857Y-79057333D01*
X125658619Y-79009714D01*
X125611000Y-78962095D01*
X125563380Y-78866857D01*
X125563380Y-77914476D02*
X125563380Y-77724000D01*
X125611000Y-77628761D01*
X125706238Y-77533523D01*
X125896714Y-77485904D01*
X126230047Y-77485904D01*
X126420523Y-77533523D01*
X126515761Y-77628761D01*
X126563380Y-77724000D01*
X126563380Y-77914476D01*
X126515761Y-78009714D01*
X126420523Y-78104952D01*
X126230047Y-78152571D01*
X125896714Y-78152571D01*
X125706238Y-78104952D01*
X125611000Y-78009714D01*
X125563380Y-77914476D01*
X126563380Y-77057333D02*
X125563380Y-77057333D01*
X126563380Y-76628761D02*
X126039571Y-76628761D01*
X125944333Y-76676380D01*
X125896714Y-76771619D01*
X125896714Y-76914476D01*
X125944333Y-77009714D01*
X125991952Y-77057333D01*
X126563380Y-76152571D02*
X125896714Y-76152571D01*
X125991952Y-76152571D02*
X125944333Y-76104952D01*
X125896714Y-76009714D01*
X125896714Y-75866857D01*
X125944333Y-75771619D01*
X126039571Y-75724000D01*
X126563380Y-75724000D01*
X126039571Y-75724000D02*
X125944333Y-75676380D01*
X125896714Y-75581142D01*
X125896714Y-75438285D01*
X125944333Y-75343047D01*
X126039571Y-75295428D01*
X126563380Y-75295428D01*
X126515761Y-74866857D02*
X126563380Y-74771619D01*
X126563380Y-74581142D01*
X126515761Y-74485904D01*
X126420523Y-74438285D01*
X126372904Y-74438285D01*
X126277666Y-74485904D01*
X126230047Y-74581142D01*
X126230047Y-74724000D01*
X126182428Y-74819238D01*
X126087190Y-74866857D01*
X126039571Y-74866857D01*
X125944333Y-74819238D01*
X125896714Y-74724000D01*
X125896714Y-74581142D01*
X125944333Y-74485904D01*
X113831714Y-73778857D02*
X114498380Y-73778857D01*
X113450761Y-74016952D02*
X114165047Y-74255047D01*
X114165047Y-73636000D01*
X113498380Y-73350285D02*
X113498380Y-72683619D01*
X114498380Y-73112190D01*
X113498380Y-72112190D02*
X113498380Y-72016952D01*
X113546000Y-71921714D01*
X113593619Y-71874095D01*
X113688857Y-71826476D01*
X113879333Y-71778857D01*
X114117428Y-71778857D01*
X114307904Y-71826476D01*
X114403142Y-71874095D01*
X114450761Y-71921714D01*
X114498380Y-72016952D01*
X114498380Y-72112190D01*
X114450761Y-72207428D01*
X114403142Y-72255047D01*
X114307904Y-72302666D01*
X114117428Y-72350285D01*
X113879333Y-72350285D01*
X113688857Y-72302666D01*
X113593619Y-72255047D01*
X113546000Y-72207428D01*
X113498380Y-72112190D01*
X113831714Y-70921714D02*
X114498380Y-70921714D01*
X113831714Y-71350285D02*
X114355523Y-71350285D01*
X114450761Y-71302666D01*
X114498380Y-71207428D01*
X114498380Y-71064571D01*
X114450761Y-70969333D01*
X114403142Y-70921714D01*
X113974571Y-70112190D02*
X113974571Y-70445523D01*
X114498380Y-70445523D02*
X113498380Y-70445523D01*
X113498380Y-69969333D01*
D11*
%TO.C,C1*%
X114868354Y-65459000D02*
X114868354Y-66459000D01*
X114368354Y-65959000D02*
X115368354Y-65959000D01*
X124929000Y-68235000D02*
X124929000Y-69433000D01*
X124889000Y-67972000D02*
X124889000Y-69696000D01*
X124849000Y-67772000D02*
X124849000Y-69896000D01*
X124809000Y-67604000D02*
X124809000Y-70064000D01*
X124769000Y-67456000D02*
X124769000Y-70212000D01*
X124729000Y-67324000D02*
X124729000Y-70344000D01*
X124689000Y-67204000D02*
X124689000Y-70464000D01*
X124649000Y-67092000D02*
X124649000Y-70576000D01*
X124609000Y-66988000D02*
X124609000Y-70680000D01*
X124569000Y-66890000D02*
X124569000Y-70778000D01*
X124529000Y-66797000D02*
X124529000Y-70871000D01*
X124489000Y-66709000D02*
X124489000Y-70959000D01*
X124449000Y-66625000D02*
X124449000Y-71043000D01*
X124409000Y-66545000D02*
X124409000Y-71123000D01*
X124369000Y-66469000D02*
X124369000Y-71199000D01*
X124329000Y-66395000D02*
X124329000Y-71273000D01*
X124289000Y-66324000D02*
X124289000Y-71344000D01*
X124249000Y-66255000D02*
X124249000Y-71413000D01*
X124209000Y-66189000D02*
X124209000Y-71479000D01*
X124169000Y-66125000D02*
X124169000Y-71543000D01*
X124129000Y-66064000D02*
X124129000Y-71604000D01*
X124089000Y-66004000D02*
X124089000Y-71664000D01*
X124049000Y-65945000D02*
X124049000Y-71723000D01*
X124009000Y-65889000D02*
X124009000Y-71779000D01*
X123969000Y-65834000D02*
X123969000Y-71834000D01*
X123929000Y-65780000D02*
X123929000Y-71888000D01*
X123889000Y-65728000D02*
X123889000Y-71940000D01*
X123849000Y-65678000D02*
X123849000Y-71990000D01*
X123809000Y-65628000D02*
X123809000Y-72040000D01*
X123769000Y-65580000D02*
X123769000Y-72088000D01*
X123729000Y-65533000D02*
X123729000Y-72135000D01*
X123689000Y-65487000D02*
X123689000Y-72181000D01*
X123649000Y-65442000D02*
X123649000Y-72226000D01*
X123609000Y-65398000D02*
X123609000Y-72270000D01*
X123569000Y-70075000D02*
X123569000Y-72312000D01*
X123569000Y-65356000D02*
X123569000Y-67593000D01*
X123529000Y-70075000D02*
X123529000Y-72354000D01*
X123529000Y-65314000D02*
X123529000Y-67593000D01*
X123489000Y-70075000D02*
X123489000Y-72395000D01*
X123489000Y-65273000D02*
X123489000Y-67593000D01*
X123449000Y-70075000D02*
X123449000Y-72435000D01*
X123449000Y-65233000D02*
X123449000Y-67593000D01*
X123409000Y-70075000D02*
X123409000Y-72474000D01*
X123409000Y-65194000D02*
X123409000Y-67593000D01*
X123369000Y-70075000D02*
X123369000Y-72513000D01*
X123369000Y-65155000D02*
X123369000Y-67593000D01*
X123329000Y-70075000D02*
X123329000Y-72550000D01*
X123329000Y-65118000D02*
X123329000Y-67593000D01*
X123289000Y-70075000D02*
X123289000Y-72587000D01*
X123289000Y-65081000D02*
X123289000Y-67593000D01*
X123249000Y-70075000D02*
X123249000Y-72623000D01*
X123249000Y-65045000D02*
X123249000Y-67593000D01*
X123209000Y-70075000D02*
X123209000Y-72658000D01*
X123209000Y-65010000D02*
X123209000Y-67593000D01*
X123169000Y-70075000D02*
X123169000Y-72692000D01*
X123169000Y-64976000D02*
X123169000Y-67593000D01*
X123129000Y-70075000D02*
X123129000Y-72726000D01*
X123129000Y-64942000D02*
X123129000Y-67593000D01*
X123089000Y-70075000D02*
X123089000Y-72759000D01*
X123089000Y-64909000D02*
X123089000Y-67593000D01*
X123049000Y-70075000D02*
X123049000Y-72791000D01*
X123049000Y-64877000D02*
X123049000Y-67593000D01*
X123009000Y-70075000D02*
X123009000Y-72823000D01*
X123009000Y-64845000D02*
X123009000Y-67593000D01*
X122969000Y-70075000D02*
X122969000Y-72854000D01*
X122969000Y-64814000D02*
X122969000Y-67593000D01*
X122929000Y-70075000D02*
X122929000Y-72884000D01*
X122929000Y-64784000D02*
X122929000Y-67593000D01*
X122889000Y-70075000D02*
X122889000Y-72914000D01*
X122889000Y-64754000D02*
X122889000Y-67593000D01*
X122849000Y-70075000D02*
X122849000Y-72944000D01*
X122849000Y-64724000D02*
X122849000Y-67593000D01*
X122809000Y-70075000D02*
X122809000Y-72972000D01*
X122809000Y-64696000D02*
X122809000Y-67593000D01*
X122769000Y-70075000D02*
X122769000Y-73000000D01*
X122769000Y-64668000D02*
X122769000Y-67593000D01*
X122729000Y-70075000D02*
X122729000Y-73028000D01*
X122729000Y-64640000D02*
X122729000Y-67593000D01*
X122689000Y-70075000D02*
X122689000Y-73055000D01*
X122689000Y-64613000D02*
X122689000Y-67593000D01*
X122649000Y-70075000D02*
X122649000Y-73081000D01*
X122649000Y-64587000D02*
X122649000Y-67593000D01*
X122609000Y-70075000D02*
X122609000Y-73107000D01*
X122609000Y-64561000D02*
X122609000Y-67593000D01*
X122569000Y-70075000D02*
X122569000Y-73132000D01*
X122569000Y-64536000D02*
X122569000Y-67593000D01*
X122529000Y-70075000D02*
X122529000Y-73157000D01*
X122529000Y-64511000D02*
X122529000Y-67593000D01*
X122489000Y-70075000D02*
X122489000Y-73181000D01*
X122489000Y-64487000D02*
X122489000Y-67593000D01*
X122449000Y-70075000D02*
X122449000Y-73205000D01*
X122449000Y-64463000D02*
X122449000Y-67593000D01*
X122409000Y-70075000D02*
X122409000Y-73229000D01*
X122409000Y-64439000D02*
X122409000Y-67593000D01*
X122369000Y-70075000D02*
X122369000Y-73251000D01*
X122369000Y-64417000D02*
X122369000Y-67593000D01*
X122329000Y-70075000D02*
X122329000Y-73274000D01*
X122329000Y-64394000D02*
X122329000Y-67593000D01*
X122289000Y-70075000D02*
X122289000Y-73296000D01*
X122289000Y-64372000D02*
X122289000Y-67593000D01*
X122249000Y-70075000D02*
X122249000Y-73317000D01*
X122249000Y-64351000D02*
X122249000Y-67593000D01*
X122209000Y-70075000D02*
X122209000Y-73338000D01*
X122209000Y-64330000D02*
X122209000Y-67593000D01*
X122169000Y-70075000D02*
X122169000Y-73359000D01*
X122169000Y-64309000D02*
X122169000Y-67593000D01*
X122129000Y-70075000D02*
X122129000Y-73379000D01*
X122129000Y-64289000D02*
X122129000Y-67593000D01*
X122089000Y-70075000D02*
X122089000Y-73398000D01*
X122089000Y-64270000D02*
X122089000Y-67593000D01*
X122049000Y-70075000D02*
X122049000Y-73418000D01*
X122049000Y-64250000D02*
X122049000Y-67593000D01*
X122009000Y-70075000D02*
X122009000Y-73437000D01*
X122009000Y-64231000D02*
X122009000Y-67593000D01*
X121969000Y-70075000D02*
X121969000Y-73455000D01*
X121969000Y-64213000D02*
X121969000Y-67593000D01*
X121929000Y-70075000D02*
X121929000Y-73473000D01*
X121929000Y-64195000D02*
X121929000Y-67593000D01*
X121889000Y-70075000D02*
X121889000Y-73491000D01*
X121889000Y-64177000D02*
X121889000Y-67593000D01*
X121849000Y-70075000D02*
X121849000Y-73508000D01*
X121849000Y-64160000D02*
X121849000Y-67593000D01*
X121809000Y-70075000D02*
X121809000Y-73524000D01*
X121809000Y-64144000D02*
X121809000Y-67593000D01*
X121769000Y-70075000D02*
X121769000Y-73541000D01*
X121769000Y-64127000D02*
X121769000Y-67593000D01*
X121729000Y-70075000D02*
X121729000Y-73557000D01*
X121729000Y-64111000D02*
X121729000Y-67593000D01*
X121689000Y-70075000D02*
X121689000Y-73572000D01*
X121689000Y-64096000D02*
X121689000Y-67593000D01*
X121649000Y-70075000D02*
X121649000Y-73588000D01*
X121649000Y-64080000D02*
X121649000Y-67593000D01*
X121609000Y-70075000D02*
X121609000Y-73602000D01*
X121609000Y-64066000D02*
X121609000Y-67593000D01*
X121569000Y-70075000D02*
X121569000Y-73617000D01*
X121569000Y-64051000D02*
X121569000Y-67593000D01*
X121529000Y-70075000D02*
X121529000Y-73631000D01*
X121529000Y-64037000D02*
X121529000Y-67593000D01*
X121489000Y-70075000D02*
X121489000Y-73645000D01*
X121489000Y-64023000D02*
X121489000Y-67593000D01*
X121449000Y-70075000D02*
X121449000Y-73658000D01*
X121449000Y-64010000D02*
X121449000Y-67593000D01*
X121409000Y-70075000D02*
X121409000Y-73671000D01*
X121409000Y-63997000D02*
X121409000Y-67593000D01*
X121369000Y-70075000D02*
X121369000Y-73684000D01*
X121369000Y-63984000D02*
X121369000Y-67593000D01*
X121329000Y-70075000D02*
X121329000Y-73696000D01*
X121329000Y-63972000D02*
X121329000Y-67593000D01*
X121289000Y-70075000D02*
X121289000Y-73708000D01*
X121289000Y-63960000D02*
X121289000Y-67593000D01*
X121249000Y-70075000D02*
X121249000Y-73719000D01*
X121249000Y-63949000D02*
X121249000Y-67593000D01*
X121209000Y-70075000D02*
X121209000Y-73731000D01*
X121209000Y-63937000D02*
X121209000Y-67593000D01*
X121169000Y-70075000D02*
X121169000Y-73741000D01*
X121169000Y-63927000D02*
X121169000Y-67593000D01*
X121129000Y-70075000D02*
X121129000Y-73752000D01*
X121129000Y-63916000D02*
X121129000Y-67593000D01*
X121089000Y-63906000D02*
X121089000Y-73762000D01*
X121049000Y-63896000D02*
X121049000Y-73772000D01*
X121009000Y-63887000D02*
X121009000Y-73781000D01*
X120969000Y-63878000D02*
X120969000Y-73790000D01*
X120929000Y-63869000D02*
X120929000Y-73799000D01*
X120889000Y-63860000D02*
X120889000Y-73808000D01*
X120849000Y-63852000D02*
X120849000Y-73816000D01*
X120809000Y-63844000D02*
X120809000Y-73824000D01*
X120769000Y-63837000D02*
X120769000Y-73831000D01*
X120729000Y-63830000D02*
X120729000Y-73838000D01*
X120689000Y-63823000D02*
X120689000Y-73845000D01*
X120649000Y-63816000D02*
X120649000Y-73852000D01*
X120609000Y-63810000D02*
X120609000Y-73858000D01*
X120569000Y-63804000D02*
X120569000Y-73864000D01*
X120528000Y-63799000D02*
X120528000Y-73869000D01*
X120488000Y-63794000D02*
X120488000Y-73874000D01*
X120448000Y-63789000D02*
X120448000Y-73879000D01*
X120408000Y-63784000D02*
X120408000Y-73884000D01*
X120368000Y-63780000D02*
X120368000Y-73888000D01*
X120328000Y-63776000D02*
X120328000Y-73892000D01*
X120288000Y-63772000D02*
X120288000Y-73896000D01*
X120248000Y-63769000D02*
X120248000Y-73899000D01*
X120208000Y-63766000D02*
X120208000Y-73902000D01*
X120168000Y-63764000D02*
X120168000Y-73904000D01*
X120128000Y-63761000D02*
X120128000Y-73907000D01*
X120088000Y-63759000D02*
X120088000Y-73909000D01*
X120048000Y-63757000D02*
X120048000Y-73911000D01*
X120008000Y-63756000D02*
X120008000Y-73912000D01*
X119968000Y-63755000D02*
X119968000Y-73913000D01*
X119928000Y-63754000D02*
X119928000Y-73914000D01*
X119888000Y-63754000D02*
X119888000Y-73914000D01*
X119848000Y-63754000D02*
X119848000Y-73914000D01*
X124968000Y-68834000D02*
G75*
G03*
X124968000Y-68834000I-5120000J0D01*
G01*
%TO.C,C2*%
X126207759Y-65029000D02*
X126207759Y-65659000D01*
X125892759Y-65344000D02*
X126522759Y-65344000D01*
X132634000Y-66781000D02*
X132634000Y-67585000D01*
X132594000Y-66550000D02*
X132594000Y-67816000D01*
X132554000Y-66381000D02*
X132554000Y-67985000D01*
X132514000Y-66243000D02*
X132514000Y-68123000D01*
X132474000Y-66124000D02*
X132474000Y-68242000D01*
X132434000Y-66018000D02*
X132434000Y-68348000D01*
X132394000Y-65921000D02*
X132394000Y-68445000D01*
X132354000Y-65833000D02*
X132354000Y-68533000D01*
X132314000Y-65751000D02*
X132314000Y-68615000D01*
X132274000Y-65674000D02*
X132274000Y-68692000D01*
X132234000Y-65602000D02*
X132234000Y-68764000D01*
X132194000Y-65533000D02*
X132194000Y-68833000D01*
X132154000Y-65469000D02*
X132154000Y-68897000D01*
X132114000Y-65407000D02*
X132114000Y-68959000D01*
X132074000Y-65349000D02*
X132074000Y-69017000D01*
X132034000Y-65293000D02*
X132034000Y-69073000D01*
X131994000Y-65239000D02*
X131994000Y-69127000D01*
X131954000Y-65188000D02*
X131954000Y-69178000D01*
X131914000Y-65139000D02*
X131914000Y-69227000D01*
X131874000Y-65091000D02*
X131874000Y-69275000D01*
X131834000Y-65046000D02*
X131834000Y-69320000D01*
X131794000Y-65001000D02*
X131794000Y-69365000D01*
X131754000Y-64959000D02*
X131754000Y-69407000D01*
X131714000Y-64918000D02*
X131714000Y-69448000D01*
X131674000Y-68223000D02*
X131674000Y-69488000D01*
X131674000Y-64878000D02*
X131674000Y-66143000D01*
X131634000Y-68223000D02*
X131634000Y-69526000D01*
X131634000Y-64840000D02*
X131634000Y-66143000D01*
X131594000Y-68223000D02*
X131594000Y-69563000D01*
X131594000Y-64803000D02*
X131594000Y-66143000D01*
X131554000Y-68223000D02*
X131554000Y-69599000D01*
X131554000Y-64767000D02*
X131554000Y-66143000D01*
X131514000Y-68223000D02*
X131514000Y-69633000D01*
X131514000Y-64733000D02*
X131514000Y-66143000D01*
X131474000Y-68223000D02*
X131474000Y-69667000D01*
X131474000Y-64699000D02*
X131474000Y-66143000D01*
X131434000Y-68223000D02*
X131434000Y-69699000D01*
X131434000Y-64667000D02*
X131434000Y-66143000D01*
X131394000Y-68223000D02*
X131394000Y-69731000D01*
X131394000Y-64635000D02*
X131394000Y-66143000D01*
X131354000Y-68223000D02*
X131354000Y-69761000D01*
X131354000Y-64605000D02*
X131354000Y-66143000D01*
X131314000Y-68223000D02*
X131314000Y-69790000D01*
X131314000Y-64576000D02*
X131314000Y-66143000D01*
X131274000Y-68223000D02*
X131274000Y-69819000D01*
X131274000Y-64547000D02*
X131274000Y-66143000D01*
X131234000Y-68223000D02*
X131234000Y-69847000D01*
X131234000Y-64519000D02*
X131234000Y-66143000D01*
X131194000Y-68223000D02*
X131194000Y-69873000D01*
X131194000Y-64493000D02*
X131194000Y-66143000D01*
X131154000Y-68223000D02*
X131154000Y-69899000D01*
X131154000Y-64467000D02*
X131154000Y-66143000D01*
X131114000Y-68223000D02*
X131114000Y-69925000D01*
X131114000Y-64441000D02*
X131114000Y-66143000D01*
X131074000Y-68223000D02*
X131074000Y-69949000D01*
X131074000Y-64417000D02*
X131074000Y-66143000D01*
X131034000Y-68223000D02*
X131034000Y-69973000D01*
X131034000Y-64393000D02*
X131034000Y-66143000D01*
X130994000Y-68223000D02*
X130994000Y-69995000D01*
X130994000Y-64371000D02*
X130994000Y-66143000D01*
X130954000Y-68223000D02*
X130954000Y-70017000D01*
X130954000Y-64349000D02*
X130954000Y-66143000D01*
X130914000Y-68223000D02*
X130914000Y-70039000D01*
X130914000Y-64327000D02*
X130914000Y-66143000D01*
X130874000Y-68223000D02*
X130874000Y-70059000D01*
X130874000Y-64307000D02*
X130874000Y-66143000D01*
X130834000Y-68223000D02*
X130834000Y-70079000D01*
X130834000Y-64287000D02*
X130834000Y-66143000D01*
X130794000Y-68223000D02*
X130794000Y-70099000D01*
X130794000Y-64267000D02*
X130794000Y-66143000D01*
X130754000Y-68223000D02*
X130754000Y-70117000D01*
X130754000Y-64249000D02*
X130754000Y-66143000D01*
X130714000Y-68223000D02*
X130714000Y-70135000D01*
X130714000Y-64231000D02*
X130714000Y-66143000D01*
X130674000Y-68223000D02*
X130674000Y-70153000D01*
X130674000Y-64213000D02*
X130674000Y-66143000D01*
X130634000Y-68223000D02*
X130634000Y-70169000D01*
X130634000Y-64197000D02*
X130634000Y-66143000D01*
X130594000Y-68223000D02*
X130594000Y-70185000D01*
X130594000Y-64181000D02*
X130594000Y-66143000D01*
X130554000Y-68223000D02*
X130554000Y-70201000D01*
X130554000Y-64165000D02*
X130554000Y-66143000D01*
X130514000Y-68223000D02*
X130514000Y-70216000D01*
X130514000Y-64150000D02*
X130514000Y-66143000D01*
X130474000Y-68223000D02*
X130474000Y-70230000D01*
X130474000Y-64136000D02*
X130474000Y-66143000D01*
X130434000Y-68223000D02*
X130434000Y-70244000D01*
X130434000Y-64122000D02*
X130434000Y-66143000D01*
X130394000Y-68223000D02*
X130394000Y-70257000D01*
X130394000Y-64109000D02*
X130394000Y-66143000D01*
X130354000Y-68223000D02*
X130354000Y-70269000D01*
X130354000Y-64097000D02*
X130354000Y-66143000D01*
X130314000Y-68223000D02*
X130314000Y-70281000D01*
X130314000Y-64085000D02*
X130314000Y-66143000D01*
X130274000Y-68223000D02*
X130274000Y-70293000D01*
X130274000Y-64073000D02*
X130274000Y-66143000D01*
X130234000Y-68223000D02*
X130234000Y-70304000D01*
X130234000Y-64062000D02*
X130234000Y-66143000D01*
X130194000Y-68223000D02*
X130194000Y-70314000D01*
X130194000Y-64052000D02*
X130194000Y-66143000D01*
X130154000Y-68223000D02*
X130154000Y-70324000D01*
X130154000Y-64042000D02*
X130154000Y-66143000D01*
X130114000Y-68223000D02*
X130114000Y-70333000D01*
X130114000Y-64033000D02*
X130114000Y-66143000D01*
X130073000Y-68223000D02*
X130073000Y-70342000D01*
X130073000Y-64024000D02*
X130073000Y-66143000D01*
X130033000Y-68223000D02*
X130033000Y-70350000D01*
X130033000Y-64016000D02*
X130033000Y-66143000D01*
X129993000Y-68223000D02*
X129993000Y-70358000D01*
X129993000Y-64008000D02*
X129993000Y-66143000D01*
X129953000Y-68223000D02*
X129953000Y-70365000D01*
X129953000Y-64001000D02*
X129953000Y-66143000D01*
X129913000Y-68223000D02*
X129913000Y-70372000D01*
X129913000Y-63994000D02*
X129913000Y-66143000D01*
X129873000Y-68223000D02*
X129873000Y-70378000D01*
X129873000Y-63988000D02*
X129873000Y-66143000D01*
X129833000Y-68223000D02*
X129833000Y-70384000D01*
X129833000Y-63982000D02*
X129833000Y-66143000D01*
X129793000Y-68223000D02*
X129793000Y-70389000D01*
X129793000Y-63977000D02*
X129793000Y-66143000D01*
X129753000Y-68223000D02*
X129753000Y-70394000D01*
X129753000Y-63972000D02*
X129753000Y-66143000D01*
X129713000Y-68223000D02*
X129713000Y-70398000D01*
X129713000Y-63968000D02*
X129713000Y-66143000D01*
X129673000Y-68223000D02*
X129673000Y-70401000D01*
X129673000Y-63965000D02*
X129673000Y-66143000D01*
X129633000Y-68223000D02*
X129633000Y-70405000D01*
X129633000Y-63961000D02*
X129633000Y-66143000D01*
X129593000Y-63959000D02*
X129593000Y-70407000D01*
X129553000Y-63956000D02*
X129553000Y-70410000D01*
X129513000Y-63955000D02*
X129513000Y-70411000D01*
X129473000Y-63953000D02*
X129473000Y-70413000D01*
X129433000Y-63953000D02*
X129433000Y-70413000D01*
X129393000Y-63953000D02*
X129393000Y-70413000D01*
X132663000Y-67183000D02*
G75*
G03*
X132663000Y-67183000I-3270000J0D01*
G01*
%TO.C,D1*%
X118438000Y-93737666D02*
X118438000Y-96677666D01*
X118438000Y-96677666D02*
X123878000Y-96677666D01*
X123878000Y-96677666D02*
X123878000Y-93737666D01*
X123878000Y-93737666D02*
X118438000Y-93737666D01*
X117418000Y-95207666D02*
X118438000Y-95207666D01*
X124898000Y-95207666D02*
X123878000Y-95207666D01*
X119338000Y-93737666D02*
X119338000Y-96677666D01*
X119458000Y-93737666D02*
X119458000Y-96677666D01*
X119218000Y-93737666D02*
X119218000Y-96677666D01*
%TO.C,D2*%
X118438000Y-84509000D02*
X118438000Y-87449000D01*
X118438000Y-87449000D02*
X123878000Y-87449000D01*
X123878000Y-87449000D02*
X123878000Y-84509000D01*
X123878000Y-84509000D02*
X118438000Y-84509000D01*
X117418000Y-85979000D02*
X118438000Y-85979000D01*
X124898000Y-85979000D02*
X123878000Y-85979000D01*
X119338000Y-84509000D02*
X119338000Y-87449000D01*
X119458000Y-84509000D02*
X119458000Y-87449000D01*
X119218000Y-84509000D02*
X119218000Y-87449000D01*
%TO.C,D3*%
X119218000Y-98352000D02*
X119218000Y-101292000D01*
X119458000Y-98352000D02*
X119458000Y-101292000D01*
X119338000Y-98352000D02*
X119338000Y-101292000D01*
X124898000Y-99822000D02*
X123878000Y-99822000D01*
X117418000Y-99822000D02*
X118438000Y-99822000D01*
X123878000Y-98352000D02*
X118438000Y-98352000D01*
X123878000Y-101292000D02*
X123878000Y-98352000D01*
X118438000Y-101292000D02*
X123878000Y-101292000D01*
X118438000Y-98352000D02*
X118438000Y-101292000D01*
%TO.C,D4*%
X119218000Y-89123333D02*
X119218000Y-92063333D01*
X119458000Y-89123333D02*
X119458000Y-92063333D01*
X119338000Y-89123333D02*
X119338000Y-92063333D01*
X124898000Y-90593333D02*
X123878000Y-90593333D01*
X117418000Y-90593333D02*
X118438000Y-90593333D01*
X123878000Y-89123333D02*
X118438000Y-89123333D01*
X123878000Y-92063333D02*
X123878000Y-89123333D01*
X118438000Y-92063333D02*
X123878000Y-92063333D01*
X118438000Y-89123333D02*
X118438000Y-92063333D01*
%TO.C,D5*%
X131552000Y-97134000D02*
X131552000Y-100224000D01*
X136612000Y-98679000D02*
G75*
G03*
X136612000Y-98679000I-2500000J0D01*
G01*
X137102000Y-98679462D02*
G75*
G03*
X131552000Y-97134170I-2990000J462D01*
G01*
X137102000Y-98678538D02*
G75*
G02*
X131552000Y-100223830I-2990000J-462D01*
G01*
%TO.C,D6*%
X137102000Y-76580538D02*
G75*
G02*
X131552000Y-78125830I-2990000J-462D01*
G01*
X137102000Y-76581462D02*
G75*
G03*
X131552000Y-75036170I-2990000J462D01*
G01*
X136612000Y-76581000D02*
G75*
G03*
X136612000Y-76581000I-2500000J0D01*
G01*
X131552000Y-75036000D02*
X131552000Y-78126000D01*
%TO.C,J1*%
X129564000Y-103364000D02*
X129564000Y-105104000D01*
X127824000Y-103364000D02*
X129564000Y-103364000D01*
X129324000Y-112804000D02*
X127324000Y-112804000D01*
X129324000Y-110004000D02*
X129324000Y-112804000D01*
X129324000Y-103604000D02*
X129324000Y-106404000D01*
X114724000Y-103604000D02*
X129324000Y-103604000D01*
X114724000Y-112804000D02*
X114724000Y-103604000D01*
X123724000Y-112804000D02*
X114724000Y-112804000D01*
%TO.C,J2*%
X138878000Y-63821000D02*
X140208000Y-63821000D01*
X138878000Y-65151000D02*
X138878000Y-63821000D01*
X141478000Y-63821000D02*
X144078000Y-63821000D01*
X141478000Y-66421000D02*
X141478000Y-63821000D01*
X138878000Y-66421000D02*
X141478000Y-66421000D01*
X144078000Y-63821000D02*
X144078000Y-69021000D01*
X138878000Y-66421000D02*
X138878000Y-69021000D01*
X138878000Y-69021000D02*
X144078000Y-69021000D01*
%TO.C,J3*%
X138624000Y-113725000D02*
X143824000Y-113725000D01*
X138624000Y-111125000D02*
X138624000Y-113725000D01*
X143824000Y-108525000D02*
X143824000Y-113725000D01*
X138624000Y-111125000D02*
X141224000Y-111125000D01*
X141224000Y-111125000D02*
X141224000Y-108525000D01*
X141224000Y-108525000D02*
X143824000Y-108525000D01*
X138624000Y-109855000D02*
X138624000Y-108525000D01*
X138624000Y-108525000D02*
X139954000Y-108525000D01*
%TO.C,R1*%
X132869000Y-112109000D02*
X133199000Y-112109000D01*
X132869000Y-105569000D02*
X132869000Y-112109000D01*
X133199000Y-105569000D02*
X132869000Y-105569000D01*
X135609000Y-112109000D02*
X135279000Y-112109000D01*
X135609000Y-105569000D02*
X135609000Y-112109000D01*
X135279000Y-105569000D02*
X135609000Y-105569000D01*
%TO.C,R2*%
X127357000Y-80994000D02*
X127027000Y-80994000D01*
X127027000Y-80994000D02*
X127027000Y-74454000D01*
X127027000Y-74454000D02*
X127357000Y-74454000D01*
X129437000Y-80994000D02*
X129767000Y-80994000D01*
X129767000Y-80994000D02*
X129767000Y-74454000D01*
X129767000Y-74454000D02*
X129437000Y-74454000D01*
D12*
%TO.C,SW1*%
X132012000Y-81710000D02*
X132012000Y-82210000D01*
X132012000Y-81710000D02*
X132512000Y-81710000D01*
X132012000Y-93610000D02*
X132512000Y-93610000D01*
X132012000Y-93610000D02*
X132012000Y-93110000D01*
X136212000Y-93610000D02*
X135712000Y-93610000D01*
X136212000Y-93610000D02*
X136212000Y-93110000D01*
X136212000Y-81710000D02*
X135712000Y-81710000D01*
X136212000Y-81710000D02*
X136212000Y-82210000D01*
D11*
%TO.C,U1*%
X121866000Y-76994000D02*
X121866000Y-78504000D01*
X118165000Y-76994000D02*
X118165000Y-78504000D01*
X114895000Y-78504000D02*
X125135000Y-78504000D01*
X125135000Y-76994000D02*
X125135000Y-81635000D01*
X114895000Y-76994000D02*
X114895000Y-81635000D01*
X114895000Y-81635000D02*
X125135000Y-81635000D01*
X114895000Y-76994000D02*
X125135000Y-76994000D01*
%TO.C,C1*%
D10*
X114641333Y-64873142D02*
X114593714Y-64920761D01*
X114450857Y-64968380D01*
X114355619Y-64968380D01*
X114212761Y-64920761D01*
X114117523Y-64825523D01*
X114069904Y-64730285D01*
X114022285Y-64539809D01*
X114022285Y-64396952D01*
X114069904Y-64206476D01*
X114117523Y-64111238D01*
X114212761Y-64016000D01*
X114355619Y-63968380D01*
X114450857Y-63968380D01*
X114593714Y-64016000D01*
X114641333Y-64063619D01*
X115593714Y-64968380D02*
X115022285Y-64968380D01*
X115308000Y-64968380D02*
X115308000Y-63968380D01*
X115212761Y-64111238D01*
X115117523Y-64206476D01*
X115022285Y-64254095D01*
%TO.C,C2*%
X124801333Y-64746142D02*
X124753714Y-64793761D01*
X124610857Y-64841380D01*
X124515619Y-64841380D01*
X124372761Y-64793761D01*
X124277523Y-64698523D01*
X124229904Y-64603285D01*
X124182285Y-64412809D01*
X124182285Y-64269952D01*
X124229904Y-64079476D01*
X124277523Y-63984238D01*
X124372761Y-63889000D01*
X124515619Y-63841380D01*
X124610857Y-63841380D01*
X124753714Y-63889000D01*
X124801333Y-63936619D01*
X125182285Y-63936619D02*
X125229904Y-63889000D01*
X125325142Y-63841380D01*
X125563238Y-63841380D01*
X125658476Y-63889000D01*
X125706095Y-63936619D01*
X125753714Y-64031857D01*
X125753714Y-64127095D01*
X125706095Y-64269952D01*
X125134666Y-64841380D01*
X125753714Y-64841380D01*
%TO.C,D1*%
X120419904Y-93190046D02*
X120419904Y-92190046D01*
X120658000Y-92190046D01*
X120800857Y-92237666D01*
X120896095Y-92332904D01*
X120943714Y-92428142D01*
X120991333Y-92618618D01*
X120991333Y-92761475D01*
X120943714Y-92951951D01*
X120896095Y-93047189D01*
X120800857Y-93142427D01*
X120658000Y-93190046D01*
X120419904Y-93190046D01*
X121943714Y-93190046D02*
X121372285Y-93190046D01*
X121658000Y-93190046D02*
X121658000Y-92190046D01*
X121562761Y-92332904D01*
X121467523Y-92428142D01*
X121372285Y-92475761D01*
X115816095Y-93560046D02*
X115816095Y-92560046D01*
X116387523Y-93560046D02*
X115958952Y-92988618D01*
X116387523Y-92560046D02*
X115816095Y-93131475D01*
%TO.C,D2*%
X120419904Y-83961380D02*
X120419904Y-82961380D01*
X120658000Y-82961380D01*
X120800857Y-83009000D01*
X120896095Y-83104238D01*
X120943714Y-83199476D01*
X120991333Y-83389952D01*
X120991333Y-83532809D01*
X120943714Y-83723285D01*
X120896095Y-83818523D01*
X120800857Y-83913761D01*
X120658000Y-83961380D01*
X120419904Y-83961380D01*
X121372285Y-83056619D02*
X121419904Y-83009000D01*
X121515142Y-82961380D01*
X121753238Y-82961380D01*
X121848476Y-83009000D01*
X121896095Y-83056619D01*
X121943714Y-83151857D01*
X121943714Y-83247095D01*
X121896095Y-83389952D01*
X121324666Y-83961380D01*
X121943714Y-83961380D01*
X115816095Y-84331380D02*
X115816095Y-83331380D01*
X116387523Y-84331380D02*
X115958952Y-83759952D01*
X116387523Y-83331380D02*
X115816095Y-83902809D01*
%TO.C,D3*%
X120419904Y-97804380D02*
X120419904Y-96804380D01*
X120658000Y-96804380D01*
X120800857Y-96852000D01*
X120896095Y-96947238D01*
X120943714Y-97042476D01*
X120991333Y-97232952D01*
X120991333Y-97375809D01*
X120943714Y-97566285D01*
X120896095Y-97661523D01*
X120800857Y-97756761D01*
X120658000Y-97804380D01*
X120419904Y-97804380D01*
X121324666Y-96804380D02*
X121943714Y-96804380D01*
X121610380Y-97185333D01*
X121753238Y-97185333D01*
X121848476Y-97232952D01*
X121896095Y-97280571D01*
X121943714Y-97375809D01*
X121943714Y-97613904D01*
X121896095Y-97709142D01*
X121848476Y-97756761D01*
X121753238Y-97804380D01*
X121467523Y-97804380D01*
X121372285Y-97756761D01*
X121324666Y-97709142D01*
X115816095Y-98174380D02*
X115816095Y-97174380D01*
X116387523Y-98174380D02*
X115958952Y-97602952D01*
X116387523Y-97174380D02*
X115816095Y-97745809D01*
%TO.C,D4*%
X120419904Y-88575713D02*
X120419904Y-87575713D01*
X120658000Y-87575713D01*
X120800857Y-87623333D01*
X120896095Y-87718571D01*
X120943714Y-87813809D01*
X120991333Y-88004285D01*
X120991333Y-88147142D01*
X120943714Y-88337618D01*
X120896095Y-88432856D01*
X120800857Y-88528094D01*
X120658000Y-88575713D01*
X120419904Y-88575713D01*
X121848476Y-87909047D02*
X121848476Y-88575713D01*
X121610380Y-87528094D02*
X121372285Y-88242380D01*
X121991333Y-88242380D01*
X115816095Y-88945713D02*
X115816095Y-87945713D01*
X116387523Y-88945713D02*
X115958952Y-88374285D01*
X116387523Y-87945713D02*
X115816095Y-88517142D01*
%TO.C,D5*%
X133373904Y-95171380D02*
X133373904Y-94171380D01*
X133612000Y-94171380D01*
X133754857Y-94219000D01*
X133850095Y-94314238D01*
X133897714Y-94409476D01*
X133945333Y-94599952D01*
X133945333Y-94742809D01*
X133897714Y-94933285D01*
X133850095Y-95028523D01*
X133754857Y-95123761D01*
X133612000Y-95171380D01*
X133373904Y-95171380D01*
X134850095Y-94171380D02*
X134373904Y-94171380D01*
X134326285Y-94647571D01*
X134373904Y-94599952D01*
X134469142Y-94552333D01*
X134707238Y-94552333D01*
X134802476Y-94599952D01*
X134850095Y-94647571D01*
X134897714Y-94742809D01*
X134897714Y-94980904D01*
X134850095Y-95076142D01*
X134802476Y-95123761D01*
X134707238Y-95171380D01*
X134469142Y-95171380D01*
X134373904Y-95123761D01*
X134326285Y-95076142D01*
%TO.C,D6*%
X133373904Y-73073380D02*
X133373904Y-72073380D01*
X133612000Y-72073380D01*
X133754857Y-72121000D01*
X133850095Y-72216238D01*
X133897714Y-72311476D01*
X133945333Y-72501952D01*
X133945333Y-72644809D01*
X133897714Y-72835285D01*
X133850095Y-72930523D01*
X133754857Y-73025761D01*
X133612000Y-73073380D01*
X133373904Y-73073380D01*
X134802476Y-72073380D02*
X134612000Y-72073380D01*
X134516761Y-72121000D01*
X134469142Y-72168619D01*
X134373904Y-72311476D01*
X134326285Y-72501952D01*
X134326285Y-72882904D01*
X134373904Y-72978142D01*
X134421523Y-73025761D01*
X134516761Y-73073380D01*
X134707238Y-73073380D01*
X134802476Y-73025761D01*
X134850095Y-72978142D01*
X134897714Y-72882904D01*
X134897714Y-72644809D01*
X134850095Y-72549571D01*
X134802476Y-72501952D01*
X134707238Y-72454333D01*
X134516761Y-72454333D01*
X134421523Y-72501952D01*
X134373904Y-72549571D01*
X134326285Y-72644809D01*
%TO.C,J1*%
X119740666Y-113406380D02*
X119740666Y-114120666D01*
X119693047Y-114263523D01*
X119597809Y-114358761D01*
X119454952Y-114406380D01*
X119359714Y-114406380D01*
X120740666Y-114406380D02*
X120169238Y-114406380D01*
X120454952Y-114406380D02*
X120454952Y-113406380D01*
X120359714Y-113549238D01*
X120264476Y-113644476D01*
X120169238Y-113692095D01*
%TO.C,J2*%
X136699666Y-64984380D02*
X136699666Y-65698666D01*
X136652047Y-65841523D01*
X136556809Y-65936761D01*
X136413952Y-65984380D01*
X136318714Y-65984380D01*
X137128238Y-65079619D02*
X137175857Y-65032000D01*
X137271095Y-64984380D01*
X137509190Y-64984380D01*
X137604428Y-65032000D01*
X137652047Y-65079619D01*
X137699666Y-65174857D01*
X137699666Y-65270095D01*
X137652047Y-65412952D01*
X137080619Y-65984380D01*
X137699666Y-65984380D01*
%TO.C,J3*%
X136572666Y-112101380D02*
X136572666Y-112815666D01*
X136525047Y-112958523D01*
X136429809Y-113053761D01*
X136286952Y-113101380D01*
X136191714Y-113101380D01*
X136953619Y-112101380D02*
X137572666Y-112101380D01*
X137239333Y-112482333D01*
X137382190Y-112482333D01*
X137477428Y-112529952D01*
X137525047Y-112577571D01*
X137572666Y-112672809D01*
X137572666Y-112910904D01*
X137525047Y-113006142D01*
X137477428Y-113053761D01*
X137382190Y-113101380D01*
X137096476Y-113101380D01*
X137001238Y-113053761D01*
X136953619Y-113006142D01*
%TO.C,R1*%
X137061380Y-109005666D02*
X136585190Y-109339000D01*
X137061380Y-109577095D02*
X136061380Y-109577095D01*
X136061380Y-109196142D01*
X136109000Y-109100904D01*
X136156619Y-109053285D01*
X136251857Y-109005666D01*
X136394714Y-109005666D01*
X136489952Y-109053285D01*
X136537571Y-109100904D01*
X136585190Y-109196142D01*
X136585190Y-109577095D01*
X137061380Y-108053285D02*
X137061380Y-108624714D01*
X137061380Y-108339000D02*
X136061380Y-108339000D01*
X136204238Y-108434238D01*
X136299476Y-108529476D01*
X136347095Y-108624714D01*
%TO.C,R2*%
X126817380Y-82970666D02*
X126341190Y-83304000D01*
X126817380Y-83542095D02*
X125817380Y-83542095D01*
X125817380Y-83161142D01*
X125865000Y-83065904D01*
X125912619Y-83018285D01*
X126007857Y-82970666D01*
X126150714Y-82970666D01*
X126245952Y-83018285D01*
X126293571Y-83065904D01*
X126341190Y-83161142D01*
X126341190Y-83542095D01*
X125912619Y-82589714D02*
X125865000Y-82542095D01*
X125817380Y-82446857D01*
X125817380Y-82208761D01*
X125865000Y-82113523D01*
X125912619Y-82065904D01*
X126007857Y-82018285D01*
X126103095Y-82018285D01*
X126245952Y-82065904D01*
X126817380Y-82637333D01*
X126817380Y-82018285D01*
%TO.C,SW1*%
X131496761Y-88853333D02*
X131544380Y-88710476D01*
X131544380Y-88472380D01*
X131496761Y-88377142D01*
X131449142Y-88329523D01*
X131353904Y-88281904D01*
X131258666Y-88281904D01*
X131163428Y-88329523D01*
X131115809Y-88377142D01*
X131068190Y-88472380D01*
X131020571Y-88662857D01*
X130972952Y-88758095D01*
X130925333Y-88805714D01*
X130830095Y-88853333D01*
X130734857Y-88853333D01*
X130639619Y-88805714D01*
X130592000Y-88758095D01*
X130544380Y-88662857D01*
X130544380Y-88424761D01*
X130592000Y-88281904D01*
X130544380Y-87948571D02*
X131544380Y-87710476D01*
X130830095Y-87520000D01*
X131544380Y-87329523D01*
X130544380Y-87091428D01*
X131544380Y-86186666D02*
X131544380Y-86758095D01*
X131544380Y-86472380D02*
X130544380Y-86472380D01*
X130687238Y-86567619D01*
X130782476Y-86662857D01*
X130830095Y-86758095D01*
%TO.C,U1*%
X119253095Y-75446380D02*
X119253095Y-76255904D01*
X119300714Y-76351142D01*
X119348333Y-76398761D01*
X119443571Y-76446380D01*
X119634047Y-76446380D01*
X119729285Y-76398761D01*
X119776904Y-76351142D01*
X119824523Y-76255904D01*
X119824523Y-75446380D01*
X120824523Y-76446380D02*
X120253095Y-76446380D01*
X120538809Y-76446380D02*
X120538809Y-75446380D01*
X120443571Y-75589238D01*
X120348333Y-75684476D01*
X120253095Y-75732095D01*
%TD*%
M02*
