M48
; DRILL file {KiCad (5.1.7)-1} date 12/23/20 17:27:05
; FORMAT={-:-/ absolute / inch / decimal}
; #@! TF.CreationDate,2020-12-23T17:27:05-03:00
; #@! TF.GenerationSoftware,Kicad,Pcbnew,(5.1.7)-1
; #@! TF.FileFunction,Plated,1,2,PTH
FMAT,2
INCH
T1C0.0157
T2C0.0197
T3C0.0315
T4C0.0354
T5C0.0394
T6C0.0433
T7C0.0630
%
G90
G05
T1
X5.425Y-4.13
T2
X5.4Y-3.455
T3
X5.045Y-2.645
X5.1434Y-2.645
X5.055Y-2.91
X5.055Y-3.21
X5.285Y-4.135
X5.285Y-4.435
T4
X5.23Y-3.015
X5.33Y-3.015
X5.28Y-3.3469
X5.28Y-3.4453
X5.28Y-3.5437
X5.23Y-3.885
X5.33Y-3.885
T5
X5.51Y-4.325
X5.51Y-4.425
X5.61Y-4.325
X5.61Y-4.425
X4.62Y-2.71
X4.8169Y-2.71
X5.52Y-2.565
X5.52Y-2.665
X5.62Y-2.565
X5.62Y-2.665
T6
X4.57Y-3.385
X4.97Y-3.385
X4.57Y-3.5667
X4.97Y-3.5667
X4.625Y-3.16
X4.725Y-3.16
X4.825Y-3.16
X4.57Y-3.7483
X4.97Y-3.7483
X4.57Y-3.93
X4.97Y-3.93
T7
X4.8238Y-4.26
X4.9419Y-4.445
X5.06Y-4.26
T0
M30
