%TF.GenerationSoftware,KiCad,Pcbnew,(5.1.7)-1*%
%TF.CreationDate,2021-01-08T18:54:40-03:00*%
%TF.ProjectId,GettingToBlinky5.0,47657474-696e-4675-946f-426c696e6b79,rev?*%
%TF.SameCoordinates,Original*%
%TF.FileFunction,Legend,Top*%
%TF.FilePolarity,Positive*%
%FSLAX46Y46*%
G04 Gerber Fmt 4.6, Leading zero omitted, Abs format (unit mm)*
G04 Created by KiCad (PCBNEW (5.1.7)-1) date 2021-01-08 18:54:40*
%MOMM*%
%LPD*%
G01*
G04 APERTURE LIST*
%ADD10C,0.150000*%
%ADD11C,0.120000*%
G04 APERTURE END LIST*
D10*
X132452380Y-105688095D02*
X132452380Y-104388095D01*
X132885714Y-105316666D01*
X133319047Y-104388095D01*
X133319047Y-105688095D01*
X134495238Y-105688095D02*
X134495238Y-105007142D01*
X134433333Y-104883333D01*
X134309523Y-104821428D01*
X134061904Y-104821428D01*
X133938095Y-104883333D01*
X134495238Y-105626190D02*
X134371428Y-105688095D01*
X134061904Y-105688095D01*
X133938095Y-105626190D01*
X133876190Y-105502380D01*
X133876190Y-105378571D01*
X133938095Y-105254761D01*
X134061904Y-105192857D01*
X134371428Y-105192857D01*
X134495238Y-105130952D01*
X135671428Y-105688095D02*
X135671428Y-104388095D01*
X135671428Y-105626190D02*
X135547619Y-105688095D01*
X135300000Y-105688095D01*
X135176190Y-105626190D01*
X135114285Y-105564285D01*
X135052380Y-105440476D01*
X135052380Y-105069047D01*
X135114285Y-104945238D01*
X135176190Y-104883333D01*
X135300000Y-104821428D01*
X135547619Y-104821428D01*
X135671428Y-104883333D01*
X136785714Y-105626190D02*
X136661904Y-105688095D01*
X136414285Y-105688095D01*
X136290476Y-105626190D01*
X136228571Y-105502380D01*
X136228571Y-105007142D01*
X136290476Y-104883333D01*
X136414285Y-104821428D01*
X136661904Y-104821428D01*
X136785714Y-104883333D01*
X136847619Y-105007142D01*
X136847619Y-105130952D01*
X136228571Y-105254761D01*
X138395238Y-105688095D02*
X138395238Y-104388095D01*
X138395238Y-104883333D02*
X138519047Y-104821428D01*
X138766666Y-104821428D01*
X138890476Y-104883333D01*
X138952380Y-104945238D01*
X139014285Y-105069047D01*
X139014285Y-105440476D01*
X138952380Y-105564285D01*
X138890476Y-105626190D01*
X138766666Y-105688095D01*
X138519047Y-105688095D01*
X138395238Y-105626190D01*
X139447619Y-104821428D02*
X139757142Y-105688095D01*
X140066666Y-104821428D02*
X139757142Y-105688095D01*
X139633333Y-105997619D01*
X139571428Y-106059523D01*
X139447619Y-106121428D01*
X142233333Y-104450000D02*
X142109523Y-104388095D01*
X141923809Y-104388095D01*
X141738095Y-104450000D01*
X141614285Y-104573809D01*
X141552380Y-104697619D01*
X141490476Y-104945238D01*
X141490476Y-105130952D01*
X141552380Y-105378571D01*
X141614285Y-105502380D01*
X141738095Y-105626190D01*
X141923809Y-105688095D01*
X142047619Y-105688095D01*
X142233333Y-105626190D01*
X142295238Y-105564285D01*
X142295238Y-105130952D01*
X142047619Y-105130952D01*
X143409523Y-104821428D02*
X143409523Y-105688095D01*
X142852380Y-104821428D02*
X142852380Y-105502380D01*
X142914285Y-105626190D01*
X143038095Y-105688095D01*
X143223809Y-105688095D01*
X143347619Y-105626190D01*
X143409523Y-105564285D01*
X143966666Y-105626190D02*
X144090476Y-105688095D01*
X144338095Y-105688095D01*
X144461904Y-105626190D01*
X144523809Y-105502380D01*
X144523809Y-105440476D01*
X144461904Y-105316666D01*
X144338095Y-105254761D01*
X144152380Y-105254761D01*
X144028571Y-105192857D01*
X143966666Y-105069047D01*
X143966666Y-105007142D01*
X144028571Y-104883333D01*
X144152380Y-104821428D01*
X144338095Y-104821428D01*
X144461904Y-104883333D01*
X144895238Y-104821428D02*
X145390476Y-104821428D01*
X145080952Y-104388095D02*
X145080952Y-105502380D01*
X145142857Y-105626190D01*
X145266666Y-105688095D01*
X145390476Y-105688095D01*
X146380952Y-105688095D02*
X146380952Y-105007142D01*
X146319047Y-104883333D01*
X146195238Y-104821428D01*
X145947619Y-104821428D01*
X145823809Y-104883333D01*
X146380952Y-105626190D02*
X146257142Y-105688095D01*
X145947619Y-105688095D01*
X145823809Y-105626190D01*
X145761904Y-105502380D01*
X145761904Y-105378571D01*
X145823809Y-105254761D01*
X145947619Y-105192857D01*
X146257142Y-105192857D01*
X146380952Y-105130952D01*
X146876190Y-104821428D02*
X147185714Y-105688095D01*
X147495238Y-104821428D01*
X148176190Y-105688095D02*
X148052380Y-105626190D01*
X147990476Y-105564285D01*
X147928571Y-105440476D01*
X147928571Y-105069047D01*
X147990476Y-104945238D01*
X148052380Y-104883333D01*
X148176190Y-104821428D01*
X148361904Y-104821428D01*
X148485714Y-104883333D01*
X148547619Y-104945238D01*
X148609523Y-105069047D01*
X148609523Y-105440476D01*
X148547619Y-105564285D01*
X148485714Y-105626190D01*
X148361904Y-105688095D01*
X148176190Y-105688095D01*
X127152380Y-84650000D02*
X127028571Y-84588095D01*
X126842857Y-84588095D01*
X126657142Y-84650000D01*
X126533333Y-84773809D01*
X126471428Y-84897619D01*
X126409523Y-85145238D01*
X126409523Y-85330952D01*
X126471428Y-85578571D01*
X126533333Y-85702380D01*
X126657142Y-85826190D01*
X126842857Y-85888095D01*
X126966666Y-85888095D01*
X127152380Y-85826190D01*
X127214285Y-85764285D01*
X127214285Y-85330952D01*
X126966666Y-85330952D01*
X128266666Y-85826190D02*
X128142857Y-85888095D01*
X127895238Y-85888095D01*
X127771428Y-85826190D01*
X127709523Y-85702380D01*
X127709523Y-85207142D01*
X127771428Y-85083333D01*
X127895238Y-85021428D01*
X128142857Y-85021428D01*
X128266666Y-85083333D01*
X128328571Y-85207142D01*
X128328571Y-85330952D01*
X127709523Y-85454761D01*
X128700000Y-85021428D02*
X129195238Y-85021428D01*
X128885714Y-84588095D02*
X128885714Y-85702380D01*
X128947619Y-85826190D01*
X129071428Y-85888095D01*
X129195238Y-85888095D01*
X129442857Y-85021428D02*
X129938095Y-85021428D01*
X129628571Y-84588095D02*
X129628571Y-85702380D01*
X129690476Y-85826190D01*
X129814285Y-85888095D01*
X129938095Y-85888095D01*
X130371428Y-85888095D02*
X130371428Y-85021428D01*
X130371428Y-84588095D02*
X130309523Y-84650000D01*
X130371428Y-84711904D01*
X130433333Y-84650000D01*
X130371428Y-84588095D01*
X130371428Y-84711904D01*
X130990476Y-85021428D02*
X130990476Y-85888095D01*
X130990476Y-85145238D02*
X131052380Y-85083333D01*
X131176190Y-85021428D01*
X131361904Y-85021428D01*
X131485714Y-85083333D01*
X131547619Y-85207142D01*
X131547619Y-85888095D01*
X132723809Y-85021428D02*
X132723809Y-86073809D01*
X132661904Y-86197619D01*
X132600000Y-86259523D01*
X132476190Y-86321428D01*
X132290476Y-86321428D01*
X132166666Y-86259523D01*
X132723809Y-85826190D02*
X132600000Y-85888095D01*
X132352380Y-85888095D01*
X132228571Y-85826190D01*
X132166666Y-85764285D01*
X132104761Y-85640476D01*
X132104761Y-85269047D01*
X132166666Y-85145238D01*
X132228571Y-85083333D01*
X132352380Y-85021428D01*
X132600000Y-85021428D01*
X132723809Y-85083333D01*
X134147619Y-85021428D02*
X134642857Y-85021428D01*
X134333333Y-84588095D02*
X134333333Y-85702380D01*
X134395238Y-85826190D01*
X134519047Y-85888095D01*
X134642857Y-85888095D01*
X135261904Y-85888095D02*
X135138095Y-85826190D01*
X135076190Y-85764285D01*
X135014285Y-85640476D01*
X135014285Y-85269047D01*
X135076190Y-85145238D01*
X135138095Y-85083333D01*
X135261904Y-85021428D01*
X135447619Y-85021428D01*
X135571428Y-85083333D01*
X135633333Y-85145238D01*
X135695238Y-85269047D01*
X135695238Y-85640476D01*
X135633333Y-85764285D01*
X135571428Y-85826190D01*
X135447619Y-85888095D01*
X135261904Y-85888095D01*
X137676190Y-85207142D02*
X137861904Y-85269047D01*
X137923809Y-85330952D01*
X137985714Y-85454761D01*
X137985714Y-85640476D01*
X137923809Y-85764285D01*
X137861904Y-85826190D01*
X137738095Y-85888095D01*
X137242857Y-85888095D01*
X137242857Y-84588095D01*
X137676190Y-84588095D01*
X137800000Y-84650000D01*
X137861904Y-84711904D01*
X137923809Y-84835714D01*
X137923809Y-84959523D01*
X137861904Y-85083333D01*
X137800000Y-85145238D01*
X137676190Y-85207142D01*
X137242857Y-85207142D01*
X138728571Y-85888095D02*
X138604761Y-85826190D01*
X138542857Y-85702380D01*
X138542857Y-84588095D01*
X139223809Y-85888095D02*
X139223809Y-85021428D01*
X139223809Y-84588095D02*
X139161904Y-84650000D01*
X139223809Y-84711904D01*
X139285714Y-84650000D01*
X139223809Y-84588095D01*
X139223809Y-84711904D01*
X139842857Y-85021428D02*
X139842857Y-85888095D01*
X139842857Y-85145238D02*
X139904761Y-85083333D01*
X140028571Y-85021428D01*
X140214285Y-85021428D01*
X140338095Y-85083333D01*
X140400000Y-85207142D01*
X140400000Y-85888095D01*
X141019047Y-85888095D02*
X141019047Y-84588095D01*
X141142857Y-85392857D02*
X141514285Y-85888095D01*
X141514285Y-85021428D02*
X141019047Y-85516666D01*
X141947619Y-85021428D02*
X142257142Y-85888095D01*
X142566666Y-85021428D02*
X142257142Y-85888095D01*
X142133333Y-86197619D01*
X142071428Y-86259523D01*
X141947619Y-86321428D01*
X144671428Y-84588095D02*
X144052380Y-84588095D01*
X143990476Y-85207142D01*
X144052380Y-85145238D01*
X144176190Y-85083333D01*
X144485714Y-85083333D01*
X144609523Y-85145238D01*
X144671428Y-85207142D01*
X144733333Y-85330952D01*
X144733333Y-85640476D01*
X144671428Y-85764285D01*
X144609523Y-85826190D01*
X144485714Y-85888095D01*
X144176190Y-85888095D01*
X144052380Y-85826190D01*
X143990476Y-85764285D01*
X145290476Y-85764285D02*
X145352380Y-85826190D01*
X145290476Y-85888095D01*
X145228571Y-85826190D01*
X145290476Y-85764285D01*
X145290476Y-85888095D01*
X146157142Y-84588095D02*
X146280952Y-84588095D01*
X146404761Y-84650000D01*
X146466666Y-84711904D01*
X146528571Y-84835714D01*
X146590476Y-85083333D01*
X146590476Y-85392857D01*
X146528571Y-85640476D01*
X146466666Y-85764285D01*
X146404761Y-85826190D01*
X146280952Y-85888095D01*
X146157142Y-85888095D01*
X146033333Y-85826190D01*
X145971428Y-85764285D01*
X145909523Y-85640476D01*
X145847619Y-85392857D01*
X145847619Y-85083333D01*
X145909523Y-84835714D01*
X145971428Y-84711904D01*
X146033333Y-84650000D01*
X146157142Y-84588095D01*
D11*
%TO.C,U1*%
X136499600Y-97479800D02*
X138449600Y-97479800D01*
X136499600Y-97479800D02*
X134549600Y-97479800D01*
X136499600Y-92359800D02*
X138449600Y-92359800D01*
X136499600Y-92359800D02*
X133049600Y-92359800D01*
%TO.C,R3*%
X129239400Y-97207336D02*
X129239400Y-97661464D01*
X127769400Y-97207336D02*
X127769400Y-97661464D01*
%TO.C,R2*%
X144035000Y-98172936D02*
X144035000Y-98627064D01*
X142565000Y-98172936D02*
X142565000Y-98627064D01*
%TO.C,R1*%
X144079900Y-93759136D02*
X144079900Y-94213264D01*
X142609900Y-93759136D02*
X142609900Y-94213264D01*
%TO.C,D1*%
X127589400Y-100727000D02*
X127589400Y-103587000D01*
X127589400Y-103587000D02*
X129509400Y-103587000D01*
X129509400Y-103587000D02*
X129509400Y-100727000D01*
%TO.C,C1*%
X127799400Y-93361252D02*
X127799400Y-92838748D01*
X129269400Y-93361252D02*
X129269400Y-92838748D01*
%TO.C,U1*%
D10*
X135509123Y-90807895D02*
X135509123Y-91860276D01*
X135571028Y-91984085D01*
X135632933Y-92045990D01*
X135756742Y-92107895D01*
X136004361Y-92107895D01*
X136128171Y-92045990D01*
X136190076Y-91984085D01*
X136251980Y-91860276D01*
X136251980Y-90807895D01*
X137551980Y-92107895D02*
X136809123Y-92107895D01*
X137180552Y-92107895D02*
X137180552Y-90807895D01*
X137056742Y-90993609D01*
X136932933Y-91117419D01*
X136809123Y-91179323D01*
%TO.C,R3*%
X126688095Y-97516666D02*
X126069047Y-97950000D01*
X126688095Y-98259523D02*
X125388095Y-98259523D01*
X125388095Y-97764285D01*
X125450000Y-97640476D01*
X125511904Y-97578571D01*
X125635714Y-97516666D01*
X125821428Y-97516666D01*
X125945238Y-97578571D01*
X126007142Y-97640476D01*
X126069047Y-97764285D01*
X126069047Y-98259523D01*
X125388095Y-97083333D02*
X125388095Y-96278571D01*
X125883333Y-96711904D01*
X125883333Y-96526190D01*
X125945238Y-96402380D01*
X126007142Y-96340476D01*
X126130952Y-96278571D01*
X126440476Y-96278571D01*
X126564285Y-96340476D01*
X126626190Y-96402380D01*
X126688095Y-96526190D01*
X126688095Y-96897619D01*
X126626190Y-97021428D01*
X126564285Y-97083333D01*
%TO.C,R2*%
X146238095Y-98416666D02*
X145619047Y-98850000D01*
X146238095Y-99159523D02*
X144938095Y-99159523D01*
X144938095Y-98664285D01*
X145000000Y-98540476D01*
X145061904Y-98478571D01*
X145185714Y-98416666D01*
X145371428Y-98416666D01*
X145495238Y-98478571D01*
X145557142Y-98540476D01*
X145619047Y-98664285D01*
X145619047Y-99159523D01*
X145061904Y-97921428D02*
X145000000Y-97859523D01*
X144938095Y-97735714D01*
X144938095Y-97426190D01*
X145000000Y-97302380D01*
X145061904Y-97240476D01*
X145185714Y-97178571D01*
X145309523Y-97178571D01*
X145495238Y-97240476D01*
X146238095Y-97983333D01*
X146238095Y-97178571D01*
%TO.C,R1*%
X146282995Y-94002866D02*
X145663947Y-94436200D01*
X146282995Y-94745723D02*
X144982995Y-94745723D01*
X144982995Y-94250485D01*
X145044900Y-94126676D01*
X145106804Y-94064771D01*
X145230614Y-94002866D01*
X145416328Y-94002866D01*
X145540138Y-94064771D01*
X145602042Y-94126676D01*
X145663947Y-94250485D01*
X145663947Y-94745723D01*
X146282995Y-92764771D02*
X146282995Y-93507628D01*
X146282995Y-93136200D02*
X144982995Y-93136200D01*
X145168709Y-93260009D01*
X145292519Y-93383819D01*
X145354423Y-93507628D01*
%TO.C,D1*%
X126887495Y-102686523D02*
X125587495Y-102686523D01*
X125587495Y-102377000D01*
X125649400Y-102191285D01*
X125773209Y-102067476D01*
X125897019Y-102005571D01*
X126144638Y-101943666D01*
X126330352Y-101943666D01*
X126577971Y-102005571D01*
X126701780Y-102067476D01*
X126825590Y-102191285D01*
X126887495Y-102377000D01*
X126887495Y-102686523D01*
X126887495Y-100705571D02*
X126887495Y-101448428D01*
X126887495Y-101077000D02*
X125587495Y-101077000D01*
X125773209Y-101200809D01*
X125897019Y-101324619D01*
X125958923Y-101448428D01*
%TO.C,C1*%
X126718685Y-93316666D02*
X126780590Y-93378571D01*
X126842495Y-93564285D01*
X126842495Y-93688095D01*
X126780590Y-93873809D01*
X126656780Y-93997619D01*
X126532971Y-94059523D01*
X126285352Y-94121428D01*
X126099638Y-94121428D01*
X125852019Y-94059523D01*
X125728209Y-93997619D01*
X125604400Y-93873809D01*
X125542495Y-93688095D01*
X125542495Y-93564285D01*
X125604400Y-93378571D01*
X125666304Y-93316666D01*
X126842495Y-92078571D02*
X126842495Y-92821428D01*
X126842495Y-92450000D02*
X125542495Y-92450000D01*
X125728209Y-92573809D01*
X125852019Y-92697619D01*
X125913923Y-92821428D01*
%TD*%
M02*
