%TF.GenerationSoftware,KiCad,Pcbnew,(5.1.7)-1*%
%TF.CreationDate,2021-01-13T16:49:11-03:00*%
%TF.ProjectId,Raspberry Pi Hat,52617370-6265-4727-9279-205069204861,-*%
%TF.SameCoordinates,Original*%
%TF.FileFunction,Legend,Top*%
%TF.FilePolarity,Positive*%
%FSLAX46Y46*%
G04 Gerber Fmt 4.6, Leading zero omitted, Abs format (unit mm)*
G04 Created by KiCad (PCBNEW (5.1.7)-1) date 2021-01-13 16:49:11*
%MOMM*%
%LPD*%
G01*
G04 APERTURE LIST*
%ADD10C,0.100000*%
%ADD11C,0.375000*%
%ADD12C,0.120000*%
G04 APERTURE END LIST*
D10*
X109280952Y-84226190D02*
X109590476Y-84226190D01*
X109423809Y-84416666D01*
X109495238Y-84416666D01*
X109542857Y-84440476D01*
X109566666Y-84464285D01*
X109590476Y-84511904D01*
X109590476Y-84630952D01*
X109566666Y-84678571D01*
X109542857Y-84702380D01*
X109495238Y-84726190D01*
X109352380Y-84726190D01*
X109304761Y-84702380D01*
X109280952Y-84678571D01*
X109733333Y-84226190D02*
X109900000Y-84726190D01*
X110066666Y-84226190D01*
X110185714Y-84226190D02*
X110495238Y-84226190D01*
X110328571Y-84416666D01*
X110400000Y-84416666D01*
X110447619Y-84440476D01*
X110471428Y-84464285D01*
X110495238Y-84511904D01*
X110495238Y-84630952D01*
X110471428Y-84678571D01*
X110447619Y-84702380D01*
X110400000Y-84726190D01*
X110257142Y-84726190D01*
X110209523Y-84702380D01*
X110185714Y-84678571D01*
X105880952Y-84226190D02*
X106190476Y-84226190D01*
X106023809Y-84416666D01*
X106095238Y-84416666D01*
X106142857Y-84440476D01*
X106166666Y-84464285D01*
X106190476Y-84511904D01*
X106190476Y-84630952D01*
X106166666Y-84678571D01*
X106142857Y-84702380D01*
X106095238Y-84726190D01*
X105952380Y-84726190D01*
X105904761Y-84702380D01*
X105880952Y-84678571D01*
X106333333Y-84226190D02*
X106500000Y-84726190D01*
X106666666Y-84226190D01*
X106785714Y-84226190D02*
X107095238Y-84226190D01*
X106928571Y-84416666D01*
X107000000Y-84416666D01*
X107047619Y-84440476D01*
X107071428Y-84464285D01*
X107095238Y-84511904D01*
X107095238Y-84630952D01*
X107071428Y-84678571D01*
X107047619Y-84702380D01*
X107000000Y-84726190D01*
X106857142Y-84726190D01*
X106809523Y-84702380D01*
X106785714Y-84678571D01*
X119950000Y-85326190D02*
X119950000Y-84826190D01*
X120069047Y-84826190D01*
X120140476Y-84850000D01*
X120188095Y-84897619D01*
X120211904Y-84945238D01*
X120235714Y-85040476D01*
X120235714Y-85111904D01*
X120211904Y-85207142D01*
X120188095Y-85254761D01*
X120140476Y-85302380D01*
X120069047Y-85326190D01*
X119950000Y-85326190D01*
X120426190Y-85183333D02*
X120664285Y-85183333D01*
X120378571Y-85326190D02*
X120545238Y-84826190D01*
X120711904Y-85326190D01*
X120807142Y-84826190D02*
X121092857Y-84826190D01*
X120950000Y-85326190D02*
X120950000Y-84826190D01*
X121235714Y-85183333D02*
X121473809Y-85183333D01*
X121188095Y-85326190D02*
X121354761Y-84826190D01*
X121521428Y-85326190D01*
X122680952Y-84826190D02*
X122990476Y-84826190D01*
X122823809Y-85016666D01*
X122895238Y-85016666D01*
X122942857Y-85040476D01*
X122966666Y-85064285D01*
X122990476Y-85111904D01*
X122990476Y-85230952D01*
X122966666Y-85278571D01*
X122942857Y-85302380D01*
X122895238Y-85326190D01*
X122752380Y-85326190D01*
X122704761Y-85302380D01*
X122680952Y-85278571D01*
X123133333Y-84826190D02*
X123300000Y-85326190D01*
X123466666Y-84826190D01*
X123585714Y-84826190D02*
X123895238Y-84826190D01*
X123728571Y-85016666D01*
X123800000Y-85016666D01*
X123847619Y-85040476D01*
X123871428Y-85064285D01*
X123895238Y-85111904D01*
X123895238Y-85230952D01*
X123871428Y-85278571D01*
X123847619Y-85302380D01*
X123800000Y-85326190D01*
X123657142Y-85326190D01*
X123609523Y-85302380D01*
X123585714Y-85278571D01*
X115319047Y-84850000D02*
X115271428Y-84826190D01*
X115200000Y-84826190D01*
X115128571Y-84850000D01*
X115080952Y-84897619D01*
X115057142Y-84945238D01*
X115033333Y-85040476D01*
X115033333Y-85111904D01*
X115057142Y-85207142D01*
X115080952Y-85254761D01*
X115128571Y-85302380D01*
X115200000Y-85326190D01*
X115247619Y-85326190D01*
X115319047Y-85302380D01*
X115342857Y-85278571D01*
X115342857Y-85111904D01*
X115247619Y-85111904D01*
X115557142Y-85326190D02*
X115557142Y-84826190D01*
X115842857Y-85326190D01*
X115842857Y-84826190D01*
X116080952Y-85326190D02*
X116080952Y-84826190D01*
X116200000Y-84826190D01*
X116271428Y-84850000D01*
X116319047Y-84897619D01*
X116342857Y-84945238D01*
X116366666Y-85040476D01*
X116366666Y-85111904D01*
X116342857Y-85207142D01*
X116319047Y-85254761D01*
X116271428Y-85302380D01*
X116200000Y-85326190D01*
X116080952Y-85326190D01*
D11*
X125700000Y-82435714D02*
X125771428Y-82507142D01*
X125700000Y-82578571D01*
X125628571Y-82507142D01*
X125700000Y-82435714D01*
X125700000Y-82578571D01*
X125700000Y-79735714D02*
X125771428Y-79807142D01*
X125700000Y-79878571D01*
X125628571Y-79807142D01*
X125700000Y-79735714D01*
X125700000Y-79878571D01*
D12*
%TO.C,SW1*%
X105900000Y-89300000D02*
X110400000Y-89300000D01*
X104650000Y-85300000D02*
X104650000Y-86800000D01*
X110400000Y-82800000D02*
X105900000Y-82800000D01*
X111650000Y-86800000D02*
X111650000Y-85300000D01*
%TO.C,D1*%
X125360000Y-81640000D02*
X122500000Y-81640000D01*
X125360000Y-83560000D02*
X125360000Y-81640000D01*
X122500000Y-83560000D02*
X125360000Y-83560000D01*
%TO.C,D2*%
X122500000Y-80860000D02*
X125360000Y-80860000D01*
X125360000Y-80860000D02*
X125360000Y-78940000D01*
X125360000Y-78940000D02*
X122500000Y-78940000D01*
%TO.C,R1*%
X105022936Y-80590000D02*
X105477064Y-80590000D01*
X105022936Y-79120000D02*
X105477064Y-79120000D01*
%TO.C,R2*%
X110822936Y-80590000D02*
X111277064Y-80590000D01*
X110822936Y-79120000D02*
X111277064Y-79120000D01*
%TO.C,R3*%
X118772936Y-81910000D02*
X119227064Y-81910000D01*
X118772936Y-83380000D02*
X119227064Y-83380000D01*
%TO.C,R4*%
X118772936Y-79120000D02*
X119227064Y-79120000D01*
X118772936Y-80590000D02*
X119227064Y-80590000D01*
%TO.C,U1*%
X125900000Y-83640000D02*
X125900000Y-85250000D01*
X125900000Y-83640000D02*
X123900000Y-83640000D01*
X113360000Y-83920000D02*
X125610000Y-83920000D01*
X113360000Y-89680000D02*
X113360000Y-83920000D01*
X125620000Y-89680000D02*
X113360000Y-89680000D01*
X125620000Y-83930000D02*
X125620000Y-89670000D01*
%TO.C,SW1*%
D10*
X104002380Y-86766666D02*
X104026190Y-86695238D01*
X104026190Y-86576190D01*
X104002380Y-86528571D01*
X103978571Y-86504761D01*
X103930952Y-86480952D01*
X103883333Y-86480952D01*
X103835714Y-86504761D01*
X103811904Y-86528571D01*
X103788095Y-86576190D01*
X103764285Y-86671428D01*
X103740476Y-86719047D01*
X103716666Y-86742857D01*
X103669047Y-86766666D01*
X103621428Y-86766666D01*
X103573809Y-86742857D01*
X103550000Y-86719047D01*
X103526190Y-86671428D01*
X103526190Y-86552380D01*
X103550000Y-86480952D01*
X103526190Y-86314285D02*
X104026190Y-86195238D01*
X103669047Y-86100000D01*
X104026190Y-86004761D01*
X103526190Y-85885714D01*
X104026190Y-85433333D02*
X104026190Y-85719047D01*
X104026190Y-85576190D02*
X103526190Y-85576190D01*
X103597619Y-85623809D01*
X103645238Y-85671428D01*
X103669047Y-85719047D01*
X107223809Y-81650000D02*
X107176190Y-81626190D01*
X107104761Y-81626190D01*
X107033333Y-81650000D01*
X106985714Y-81697619D01*
X106961904Y-81745238D01*
X106938095Y-81840476D01*
X106938095Y-81911904D01*
X106961904Y-82007142D01*
X106985714Y-82054761D01*
X107033333Y-82102380D01*
X107104761Y-82126190D01*
X107152380Y-82126190D01*
X107223809Y-82102380D01*
X107247619Y-82078571D01*
X107247619Y-81911904D01*
X107152380Y-81911904D01*
X107461904Y-82126190D02*
X107461904Y-81626190D01*
X107652380Y-81626190D01*
X107700000Y-81650000D01*
X107723809Y-81673809D01*
X107747619Y-81721428D01*
X107747619Y-81792857D01*
X107723809Y-81840476D01*
X107700000Y-81864285D01*
X107652380Y-81888095D01*
X107461904Y-81888095D01*
X107961904Y-82126190D02*
X107961904Y-81626190D01*
X108295238Y-81626190D02*
X108390476Y-81626190D01*
X108438095Y-81650000D01*
X108485714Y-81697619D01*
X108509523Y-81792857D01*
X108509523Y-81959523D01*
X108485714Y-82054761D01*
X108438095Y-82102380D01*
X108390476Y-82126190D01*
X108295238Y-82126190D01*
X108247619Y-82102380D01*
X108200000Y-82054761D01*
X108176190Y-81959523D01*
X108176190Y-81792857D01*
X108200000Y-81697619D01*
X108247619Y-81650000D01*
X108295238Y-81626190D01*
X108985714Y-82126190D02*
X108700000Y-82126190D01*
X108842857Y-82126190D02*
X108842857Y-81626190D01*
X108795238Y-81697619D01*
X108747619Y-81745238D01*
X108700000Y-81769047D01*
X109414285Y-81792857D02*
X109414285Y-82126190D01*
X109295238Y-81602380D02*
X109176190Y-81959523D01*
X109485714Y-81959523D01*
%TO.C,D1*%
X121630952Y-81526190D02*
X121630952Y-81026190D01*
X121750000Y-81026190D01*
X121821428Y-81050000D01*
X121869047Y-81097619D01*
X121892857Y-81145238D01*
X121916666Y-81240476D01*
X121916666Y-81311904D01*
X121892857Y-81407142D01*
X121869047Y-81454761D01*
X121821428Y-81502380D01*
X121750000Y-81526190D01*
X121630952Y-81526190D01*
X122392857Y-81526190D02*
X122107142Y-81526190D01*
X122250000Y-81526190D02*
X122250000Y-81026190D01*
X122202380Y-81097619D01*
X122154761Y-81145238D01*
X122107142Y-81169047D01*
X123661904Y-81050000D02*
X123614285Y-81026190D01*
X123542857Y-81026190D01*
X123471428Y-81050000D01*
X123423809Y-81097619D01*
X123400000Y-81145238D01*
X123376190Y-81240476D01*
X123376190Y-81311904D01*
X123400000Y-81407142D01*
X123423809Y-81454761D01*
X123471428Y-81502380D01*
X123542857Y-81526190D01*
X123590476Y-81526190D01*
X123661904Y-81502380D01*
X123685714Y-81478571D01*
X123685714Y-81311904D01*
X123590476Y-81311904D01*
X123900000Y-81526190D02*
X123900000Y-81026190D01*
X124090476Y-81026190D01*
X124138095Y-81050000D01*
X124161904Y-81073809D01*
X124185714Y-81121428D01*
X124185714Y-81192857D01*
X124161904Y-81240476D01*
X124138095Y-81264285D01*
X124090476Y-81288095D01*
X123900000Y-81288095D01*
X124400000Y-81526190D02*
X124400000Y-81026190D01*
X124733333Y-81026190D02*
X124828571Y-81026190D01*
X124876190Y-81050000D01*
X124923809Y-81097619D01*
X124947619Y-81192857D01*
X124947619Y-81359523D01*
X124923809Y-81454761D01*
X124876190Y-81502380D01*
X124828571Y-81526190D01*
X124733333Y-81526190D01*
X124685714Y-81502380D01*
X124638095Y-81454761D01*
X124614285Y-81359523D01*
X124614285Y-81192857D01*
X124638095Y-81097619D01*
X124685714Y-81050000D01*
X124733333Y-81026190D01*
X125376190Y-81192857D02*
X125376190Y-81526190D01*
X125257142Y-81002380D02*
X125138095Y-81359523D01*
X125447619Y-81359523D01*
%TO.C,D2*%
X121730952Y-78826190D02*
X121730952Y-78326190D01*
X121850000Y-78326190D01*
X121921428Y-78350000D01*
X121969047Y-78397619D01*
X121992857Y-78445238D01*
X122016666Y-78540476D01*
X122016666Y-78611904D01*
X121992857Y-78707142D01*
X121969047Y-78754761D01*
X121921428Y-78802380D01*
X121850000Y-78826190D01*
X121730952Y-78826190D01*
X122207142Y-78373809D02*
X122230952Y-78350000D01*
X122278571Y-78326190D01*
X122397619Y-78326190D01*
X122445238Y-78350000D01*
X122469047Y-78373809D01*
X122492857Y-78421428D01*
X122492857Y-78469047D01*
X122469047Y-78540476D01*
X122183333Y-78826190D01*
X122492857Y-78826190D01*
X123933333Y-78726190D02*
X123933333Y-78226190D01*
X124123809Y-78226190D01*
X124171428Y-78250000D01*
X124195238Y-78273809D01*
X124219047Y-78321428D01*
X124219047Y-78392857D01*
X124195238Y-78440476D01*
X124171428Y-78464285D01*
X124123809Y-78488095D01*
X123933333Y-78488095D01*
X124385714Y-78226190D02*
X124504761Y-78726190D01*
X124600000Y-78369047D01*
X124695238Y-78726190D01*
X124814285Y-78226190D01*
X125290476Y-78726190D02*
X125123809Y-78488095D01*
X125004761Y-78726190D02*
X125004761Y-78226190D01*
X125195238Y-78226190D01*
X125242857Y-78250000D01*
X125266666Y-78273809D01*
X125290476Y-78321428D01*
X125290476Y-78392857D01*
X125266666Y-78440476D01*
X125242857Y-78464285D01*
X125195238Y-78488095D01*
X125004761Y-78488095D01*
%TO.C,R1*%
X103716666Y-78826190D02*
X103550000Y-78588095D01*
X103430952Y-78826190D02*
X103430952Y-78326190D01*
X103621428Y-78326190D01*
X103669047Y-78350000D01*
X103692857Y-78373809D01*
X103716666Y-78421428D01*
X103716666Y-78492857D01*
X103692857Y-78540476D01*
X103669047Y-78564285D01*
X103621428Y-78588095D01*
X103430952Y-78588095D01*
X104192857Y-78826190D02*
X103907142Y-78826190D01*
X104050000Y-78826190D02*
X104050000Y-78326190D01*
X104002380Y-78397619D01*
X103954761Y-78445238D01*
X103907142Y-78469047D01*
X105616666Y-78826190D02*
X105330952Y-78826190D01*
X105473809Y-78826190D02*
X105473809Y-78326190D01*
X105426190Y-78397619D01*
X105378571Y-78445238D01*
X105330952Y-78469047D01*
X105926190Y-78326190D02*
X105973809Y-78326190D01*
X106021428Y-78350000D01*
X106045238Y-78373809D01*
X106069047Y-78421428D01*
X106092857Y-78516666D01*
X106092857Y-78635714D01*
X106069047Y-78730952D01*
X106045238Y-78778571D01*
X106021428Y-78802380D01*
X105973809Y-78826190D01*
X105926190Y-78826190D01*
X105878571Y-78802380D01*
X105854761Y-78778571D01*
X105830952Y-78730952D01*
X105807142Y-78635714D01*
X105807142Y-78516666D01*
X105830952Y-78421428D01*
X105854761Y-78373809D01*
X105878571Y-78350000D01*
X105926190Y-78326190D01*
X106307142Y-78826190D02*
X106307142Y-78326190D01*
X106354761Y-78635714D02*
X106497619Y-78826190D01*
X106497619Y-78492857D02*
X106307142Y-78683333D01*
X106688095Y-78826190D02*
X106807142Y-78826190D01*
X106807142Y-78730952D01*
X106759523Y-78707142D01*
X106711904Y-78659523D01*
X106688095Y-78588095D01*
X106688095Y-78469047D01*
X106711904Y-78397619D01*
X106759523Y-78350000D01*
X106830952Y-78326190D01*
X106926190Y-78326190D01*
X106997619Y-78350000D01*
X107045238Y-78397619D01*
X107069047Y-78469047D01*
X107069047Y-78588095D01*
X107045238Y-78659523D01*
X106997619Y-78707142D01*
X106950000Y-78730952D01*
X106950000Y-78826190D01*
X107069047Y-78826190D01*
%TO.C,R2*%
X109516666Y-78826190D02*
X109350000Y-78588095D01*
X109230952Y-78826190D02*
X109230952Y-78326190D01*
X109421428Y-78326190D01*
X109469047Y-78350000D01*
X109492857Y-78373809D01*
X109516666Y-78421428D01*
X109516666Y-78492857D01*
X109492857Y-78540476D01*
X109469047Y-78564285D01*
X109421428Y-78588095D01*
X109230952Y-78588095D01*
X109707142Y-78373809D02*
X109730952Y-78350000D01*
X109778571Y-78326190D01*
X109897619Y-78326190D01*
X109945238Y-78350000D01*
X109969047Y-78373809D01*
X109992857Y-78421428D01*
X109992857Y-78469047D01*
X109969047Y-78540476D01*
X109683333Y-78826190D01*
X109992857Y-78826190D01*
X111416666Y-78826190D02*
X111130952Y-78826190D01*
X111273809Y-78826190D02*
X111273809Y-78326190D01*
X111226190Y-78397619D01*
X111178571Y-78445238D01*
X111130952Y-78469047D01*
X111726190Y-78326190D02*
X111773809Y-78326190D01*
X111821428Y-78350000D01*
X111845238Y-78373809D01*
X111869047Y-78421428D01*
X111892857Y-78516666D01*
X111892857Y-78635714D01*
X111869047Y-78730952D01*
X111845238Y-78778571D01*
X111821428Y-78802380D01*
X111773809Y-78826190D01*
X111726190Y-78826190D01*
X111678571Y-78802380D01*
X111654761Y-78778571D01*
X111630952Y-78730952D01*
X111607142Y-78635714D01*
X111607142Y-78516666D01*
X111630952Y-78421428D01*
X111654761Y-78373809D01*
X111678571Y-78350000D01*
X111726190Y-78326190D01*
X112107142Y-78826190D02*
X112107142Y-78326190D01*
X112154761Y-78635714D02*
X112297619Y-78826190D01*
X112297619Y-78492857D02*
X112107142Y-78683333D01*
X112488095Y-78826190D02*
X112607142Y-78826190D01*
X112607142Y-78730952D01*
X112559523Y-78707142D01*
X112511904Y-78659523D01*
X112488095Y-78588095D01*
X112488095Y-78469047D01*
X112511904Y-78397619D01*
X112559523Y-78350000D01*
X112630952Y-78326190D01*
X112726190Y-78326190D01*
X112797619Y-78350000D01*
X112845238Y-78397619D01*
X112869047Y-78469047D01*
X112869047Y-78588095D01*
X112845238Y-78659523D01*
X112797619Y-78707142D01*
X112750000Y-78730952D01*
X112750000Y-78826190D01*
X112869047Y-78826190D01*
%TO.C,R3*%
X117516666Y-81526190D02*
X117350000Y-81288095D01*
X117230952Y-81526190D02*
X117230952Y-81026190D01*
X117421428Y-81026190D01*
X117469047Y-81050000D01*
X117492857Y-81073809D01*
X117516666Y-81121428D01*
X117516666Y-81192857D01*
X117492857Y-81240476D01*
X117469047Y-81264285D01*
X117421428Y-81288095D01*
X117230952Y-81288095D01*
X117683333Y-81026190D02*
X117992857Y-81026190D01*
X117826190Y-81216666D01*
X117897619Y-81216666D01*
X117945238Y-81240476D01*
X117969047Y-81264285D01*
X117992857Y-81311904D01*
X117992857Y-81430952D01*
X117969047Y-81478571D01*
X117945238Y-81502380D01*
X117897619Y-81526190D01*
X117754761Y-81526190D01*
X117707142Y-81502380D01*
X117683333Y-81478571D01*
X118971428Y-81026190D02*
X119280952Y-81026190D01*
X119114285Y-81216666D01*
X119185714Y-81216666D01*
X119233333Y-81240476D01*
X119257142Y-81264285D01*
X119280952Y-81311904D01*
X119280952Y-81430952D01*
X119257142Y-81478571D01*
X119233333Y-81502380D01*
X119185714Y-81526190D01*
X119042857Y-81526190D01*
X118995238Y-81502380D01*
X118971428Y-81478571D01*
X119447619Y-81026190D02*
X119757142Y-81026190D01*
X119590476Y-81216666D01*
X119661904Y-81216666D01*
X119709523Y-81240476D01*
X119733333Y-81264285D01*
X119757142Y-81311904D01*
X119757142Y-81430952D01*
X119733333Y-81478571D01*
X119709523Y-81502380D01*
X119661904Y-81526190D01*
X119519047Y-81526190D01*
X119471428Y-81502380D01*
X119447619Y-81478571D01*
X120066666Y-81026190D02*
X120114285Y-81026190D01*
X120161904Y-81050000D01*
X120185714Y-81073809D01*
X120209523Y-81121428D01*
X120233333Y-81216666D01*
X120233333Y-81335714D01*
X120209523Y-81430952D01*
X120185714Y-81478571D01*
X120161904Y-81502380D01*
X120114285Y-81526190D01*
X120066666Y-81526190D01*
X120019047Y-81502380D01*
X119995238Y-81478571D01*
X119971428Y-81430952D01*
X119947619Y-81335714D01*
X119947619Y-81216666D01*
X119971428Y-81121428D01*
X119995238Y-81073809D01*
X120019047Y-81050000D01*
X120066666Y-81026190D01*
X120423809Y-81526190D02*
X120542857Y-81526190D01*
X120542857Y-81430952D01*
X120495238Y-81407142D01*
X120447619Y-81359523D01*
X120423809Y-81288095D01*
X120423809Y-81169047D01*
X120447619Y-81097619D01*
X120495238Y-81050000D01*
X120566666Y-81026190D01*
X120661904Y-81026190D01*
X120733333Y-81050000D01*
X120780952Y-81097619D01*
X120804761Y-81169047D01*
X120804761Y-81288095D01*
X120780952Y-81359523D01*
X120733333Y-81407142D01*
X120685714Y-81430952D01*
X120685714Y-81526190D01*
X120804761Y-81526190D01*
%TO.C,R4*%
X117416666Y-78826190D02*
X117250000Y-78588095D01*
X117130952Y-78826190D02*
X117130952Y-78326190D01*
X117321428Y-78326190D01*
X117369047Y-78350000D01*
X117392857Y-78373809D01*
X117416666Y-78421428D01*
X117416666Y-78492857D01*
X117392857Y-78540476D01*
X117369047Y-78564285D01*
X117321428Y-78588095D01*
X117130952Y-78588095D01*
X117845238Y-78492857D02*
X117845238Y-78826190D01*
X117726190Y-78302380D02*
X117607142Y-78659523D01*
X117916666Y-78659523D01*
X118971428Y-78326190D02*
X119280952Y-78326190D01*
X119114285Y-78516666D01*
X119185714Y-78516666D01*
X119233333Y-78540476D01*
X119257142Y-78564285D01*
X119280952Y-78611904D01*
X119280952Y-78730952D01*
X119257142Y-78778571D01*
X119233333Y-78802380D01*
X119185714Y-78826190D01*
X119042857Y-78826190D01*
X118995238Y-78802380D01*
X118971428Y-78778571D01*
X119447619Y-78326190D02*
X119757142Y-78326190D01*
X119590476Y-78516666D01*
X119661904Y-78516666D01*
X119709523Y-78540476D01*
X119733333Y-78564285D01*
X119757142Y-78611904D01*
X119757142Y-78730952D01*
X119733333Y-78778571D01*
X119709523Y-78802380D01*
X119661904Y-78826190D01*
X119519047Y-78826190D01*
X119471428Y-78802380D01*
X119447619Y-78778571D01*
X120066666Y-78326190D02*
X120114285Y-78326190D01*
X120161904Y-78350000D01*
X120185714Y-78373809D01*
X120209523Y-78421428D01*
X120233333Y-78516666D01*
X120233333Y-78635714D01*
X120209523Y-78730952D01*
X120185714Y-78778571D01*
X120161904Y-78802380D01*
X120114285Y-78826190D01*
X120066666Y-78826190D01*
X120019047Y-78802380D01*
X119995238Y-78778571D01*
X119971428Y-78730952D01*
X119947619Y-78635714D01*
X119947619Y-78516666D01*
X119971428Y-78421428D01*
X119995238Y-78373809D01*
X120019047Y-78350000D01*
X120066666Y-78326190D01*
X120423809Y-78826190D02*
X120542857Y-78826190D01*
X120542857Y-78730952D01*
X120495238Y-78707142D01*
X120447619Y-78659523D01*
X120423809Y-78588095D01*
X120423809Y-78469047D01*
X120447619Y-78397619D01*
X120495238Y-78350000D01*
X120566666Y-78326190D01*
X120661904Y-78326190D01*
X120733333Y-78350000D01*
X120780952Y-78397619D01*
X120804761Y-78469047D01*
X120804761Y-78588095D01*
X120780952Y-78659523D01*
X120733333Y-78707142D01*
X120685714Y-78730952D01*
X120685714Y-78826190D01*
X120804761Y-78826190D01*
%TO.C,U1*%
X113319047Y-83126190D02*
X113319047Y-83530952D01*
X113342857Y-83578571D01*
X113366666Y-83602380D01*
X113414285Y-83626190D01*
X113509523Y-83626190D01*
X113557142Y-83602380D01*
X113580952Y-83578571D01*
X113604761Y-83530952D01*
X113604761Y-83126190D01*
X114104761Y-83626190D02*
X113819047Y-83626190D01*
X113961904Y-83626190D02*
X113961904Y-83126190D01*
X113914285Y-83197619D01*
X113866666Y-83245238D01*
X113819047Y-83269047D01*
%TD*%
M02*
