%TF.GenerationSoftware,KiCad,Pcbnew,(5.1.7)-1*%
%TF.CreationDate,2021-01-13T16:49:05-03:00*%
%TF.ProjectId,Raspberry Pi Hat,52617370-6265-4727-9279-205069204861,-*%
%TF.SameCoordinates,Original*%
%TF.FileFunction,Legend,Bot*%
%TF.FilePolarity,Positive*%
%FSLAX46Y46*%
G04 Gerber Fmt 4.6, Leading zero omitted, Abs format (unit mm)*
G04 Created by KiCad (PCBNEW (5.1.7)-1) date 2021-01-13 16:49:05*
%MOMM*%
%LPD*%
G01*
G04 APERTURE LIST*
%ADD10C,0.100000*%
%ADD11C,0.010000*%
%ADD12C,0.120000*%
G04 APERTURE END LIST*
D10*
X106342857Y-80198809D02*
X106176190Y-80436904D01*
X106057142Y-80198809D02*
X106057142Y-80698809D01*
X106247619Y-80698809D01*
X106295238Y-80675000D01*
X106319047Y-80651190D01*
X106342857Y-80603571D01*
X106342857Y-80532142D01*
X106319047Y-80484523D01*
X106295238Y-80460714D01*
X106247619Y-80436904D01*
X106057142Y-80436904D01*
X106771428Y-80198809D02*
X106771428Y-80460714D01*
X106747619Y-80508333D01*
X106700000Y-80532142D01*
X106604761Y-80532142D01*
X106557142Y-80508333D01*
X106771428Y-80222619D02*
X106723809Y-80198809D01*
X106604761Y-80198809D01*
X106557142Y-80222619D01*
X106533333Y-80270238D01*
X106533333Y-80317857D01*
X106557142Y-80365476D01*
X106604761Y-80389285D01*
X106723809Y-80389285D01*
X106771428Y-80413095D01*
X106985714Y-80222619D02*
X107033333Y-80198809D01*
X107128571Y-80198809D01*
X107176190Y-80222619D01*
X107200000Y-80270238D01*
X107200000Y-80294047D01*
X107176190Y-80341666D01*
X107128571Y-80365476D01*
X107057142Y-80365476D01*
X107009523Y-80389285D01*
X106985714Y-80436904D01*
X106985714Y-80460714D01*
X107009523Y-80508333D01*
X107057142Y-80532142D01*
X107128571Y-80532142D01*
X107176190Y-80508333D01*
X107414285Y-80532142D02*
X107414285Y-80032142D01*
X107414285Y-80508333D02*
X107461904Y-80532142D01*
X107557142Y-80532142D01*
X107604761Y-80508333D01*
X107628571Y-80484523D01*
X107652380Y-80436904D01*
X107652380Y-80294047D01*
X107628571Y-80246428D01*
X107604761Y-80222619D01*
X107557142Y-80198809D01*
X107461904Y-80198809D01*
X107414285Y-80222619D01*
X107866666Y-80198809D02*
X107866666Y-80698809D01*
X107866666Y-80508333D02*
X107914285Y-80532142D01*
X108009523Y-80532142D01*
X108057142Y-80508333D01*
X108080952Y-80484523D01*
X108104761Y-80436904D01*
X108104761Y-80294047D01*
X108080952Y-80246428D01*
X108057142Y-80222619D01*
X108009523Y-80198809D01*
X107914285Y-80198809D01*
X107866666Y-80222619D01*
X108509523Y-80222619D02*
X108461904Y-80198809D01*
X108366666Y-80198809D01*
X108319047Y-80222619D01*
X108295238Y-80270238D01*
X108295238Y-80460714D01*
X108319047Y-80508333D01*
X108366666Y-80532142D01*
X108461904Y-80532142D01*
X108509523Y-80508333D01*
X108533333Y-80460714D01*
X108533333Y-80413095D01*
X108295238Y-80365476D01*
X108747619Y-80198809D02*
X108747619Y-80532142D01*
X108747619Y-80436904D02*
X108771428Y-80484523D01*
X108795238Y-80508333D01*
X108842857Y-80532142D01*
X108890476Y-80532142D01*
X109057142Y-80198809D02*
X109057142Y-80532142D01*
X109057142Y-80436904D02*
X109080952Y-80484523D01*
X109104761Y-80508333D01*
X109152380Y-80532142D01*
X109200000Y-80532142D01*
X109319047Y-80532142D02*
X109438095Y-80198809D01*
X109557142Y-80532142D02*
X109438095Y-80198809D01*
X109390476Y-80079761D01*
X109366666Y-80055952D01*
X109319047Y-80032142D01*
X110128571Y-80198809D02*
X110128571Y-80698809D01*
X110319047Y-80698809D01*
X110366666Y-80675000D01*
X110390476Y-80651190D01*
X110414285Y-80603571D01*
X110414285Y-80532142D01*
X110390476Y-80484523D01*
X110366666Y-80460714D01*
X110319047Y-80436904D01*
X110128571Y-80436904D01*
X110628571Y-80198809D02*
X110628571Y-80532142D01*
X110628571Y-80698809D02*
X110604761Y-80675000D01*
X110628571Y-80651190D01*
X110652380Y-80675000D01*
X110628571Y-80698809D01*
X110628571Y-80651190D01*
X111247619Y-80198809D02*
X111247619Y-80698809D01*
X111247619Y-80460714D02*
X111533333Y-80460714D01*
X111533333Y-80198809D02*
X111533333Y-80698809D01*
X111747619Y-80341666D02*
X111985714Y-80341666D01*
X111700000Y-80198809D02*
X111866666Y-80698809D01*
X112033333Y-80198809D01*
X112128571Y-80698809D02*
X112414285Y-80698809D01*
X112271428Y-80198809D02*
X112271428Y-80698809D01*
X105045238Y-79348809D02*
X105045238Y-79848809D01*
X105164285Y-79848809D01*
X105235714Y-79825000D01*
X105283333Y-79777380D01*
X105307142Y-79729761D01*
X105330952Y-79634523D01*
X105330952Y-79563095D01*
X105307142Y-79467857D01*
X105283333Y-79420238D01*
X105235714Y-79372619D01*
X105164285Y-79348809D01*
X105045238Y-79348809D01*
X105545238Y-79348809D02*
X105545238Y-79848809D01*
X105545238Y-79610714D02*
X105830952Y-79610714D01*
X105830952Y-79348809D02*
X105830952Y-79848809D01*
X105997619Y-79848809D02*
X106283333Y-79848809D01*
X106140476Y-79348809D02*
X106140476Y-79848809D01*
X106450000Y-79539285D02*
X106830952Y-79539285D01*
X107330952Y-79348809D02*
X107045238Y-79348809D01*
X107188095Y-79348809D02*
X107188095Y-79848809D01*
X107140476Y-79777380D01*
X107092857Y-79729761D01*
X107045238Y-79705952D01*
X107807142Y-79348809D02*
X107521428Y-79348809D01*
X107664285Y-79348809D02*
X107664285Y-79848809D01*
X107616666Y-79777380D01*
X107569047Y-79729761D01*
X107521428Y-79705952D01*
X108402380Y-79539285D02*
X108783333Y-79539285D01*
X108592857Y-79348809D02*
X108592857Y-79729761D01*
X109402380Y-79348809D02*
X109402380Y-79848809D01*
X109592857Y-79848809D01*
X109640476Y-79825000D01*
X109664285Y-79801190D01*
X109688095Y-79753571D01*
X109688095Y-79682142D01*
X109664285Y-79634523D01*
X109640476Y-79610714D01*
X109592857Y-79586904D01*
X109402380Y-79586904D01*
X110116666Y-79682142D02*
X110116666Y-79348809D01*
X109902380Y-79682142D02*
X109902380Y-79420238D01*
X109926190Y-79372619D01*
X109973809Y-79348809D01*
X110045238Y-79348809D01*
X110092857Y-79372619D01*
X110116666Y-79396428D01*
X110330952Y-79372619D02*
X110378571Y-79348809D01*
X110473809Y-79348809D01*
X110521428Y-79372619D01*
X110545238Y-79420238D01*
X110545238Y-79444047D01*
X110521428Y-79491666D01*
X110473809Y-79515476D01*
X110402380Y-79515476D01*
X110354761Y-79539285D01*
X110330952Y-79586904D01*
X110330952Y-79610714D01*
X110354761Y-79658333D01*
X110402380Y-79682142D01*
X110473809Y-79682142D01*
X110521428Y-79658333D01*
X110759523Y-79348809D02*
X110759523Y-79848809D01*
X110973809Y-79348809D02*
X110973809Y-79610714D01*
X110950000Y-79658333D01*
X110902380Y-79682142D01*
X110830952Y-79682142D01*
X110783333Y-79658333D01*
X110759523Y-79634523D01*
X111211904Y-79348809D02*
X111211904Y-79848809D01*
X111211904Y-79658333D02*
X111259523Y-79682142D01*
X111354761Y-79682142D01*
X111402380Y-79658333D01*
X111426190Y-79634523D01*
X111450000Y-79586904D01*
X111450000Y-79444047D01*
X111426190Y-79396428D01*
X111402380Y-79372619D01*
X111354761Y-79348809D01*
X111259523Y-79348809D01*
X111211904Y-79372619D01*
X111878571Y-79682142D02*
X111878571Y-79348809D01*
X111664285Y-79682142D02*
X111664285Y-79420238D01*
X111688095Y-79372619D01*
X111735714Y-79348809D01*
X111807142Y-79348809D01*
X111854761Y-79372619D01*
X111878571Y-79396428D01*
X112045238Y-79682142D02*
X112235714Y-79682142D01*
X112116666Y-79848809D02*
X112116666Y-79420238D01*
X112140476Y-79372619D01*
X112188095Y-79348809D01*
X112235714Y-79348809D01*
X112330952Y-79682142D02*
X112521428Y-79682142D01*
X112402380Y-79848809D02*
X112402380Y-79420238D01*
X112426190Y-79372619D01*
X112473809Y-79348809D01*
X112521428Y-79348809D01*
X112759523Y-79348809D02*
X112711904Y-79372619D01*
X112688095Y-79396428D01*
X112664285Y-79444047D01*
X112664285Y-79586904D01*
X112688095Y-79634523D01*
X112711904Y-79658333D01*
X112759523Y-79682142D01*
X112830952Y-79682142D01*
X112878571Y-79658333D01*
X112902380Y-79634523D01*
X112926190Y-79586904D01*
X112926190Y-79444047D01*
X112902380Y-79396428D01*
X112878571Y-79372619D01*
X112830952Y-79348809D01*
X112759523Y-79348809D01*
X113140476Y-79682142D02*
X113140476Y-79348809D01*
X113140476Y-79634523D02*
X113164285Y-79658333D01*
X113211904Y-79682142D01*
X113283333Y-79682142D01*
X113330952Y-79658333D01*
X113354761Y-79610714D01*
X113354761Y-79348809D01*
D11*
%TO.C,REF\u002A\u002A*%
G36*
X117491241Y-80330816D02*
G01*
X117517753Y-80317718D01*
X117550447Y-80294894D01*
X117574275Y-80270004D01*
X117590594Y-80238751D01*
X117600760Y-80196834D01*
X117606128Y-80139956D01*
X117608056Y-80063816D01*
X117608169Y-80031083D01*
X117607839Y-79959344D01*
X117606473Y-79908073D01*
X117603500Y-79872596D01*
X117598351Y-79848237D01*
X117590457Y-79830320D01*
X117582243Y-79818098D01*
X117529813Y-79766095D01*
X117468070Y-79734816D01*
X117401464Y-79725408D01*
X117334442Y-79739020D01*
X117313208Y-79748646D01*
X117262376Y-79775141D01*
X117262376Y-79359948D01*
X117299475Y-79379132D01*
X117348357Y-79393975D01*
X117408439Y-79397778D01*
X117468436Y-79390757D01*
X117513744Y-79374987D01*
X117551325Y-79344953D01*
X117583436Y-79301976D01*
X117585850Y-79297564D01*
X117596033Y-79276779D01*
X117603470Y-79255830D01*
X117608589Y-79230452D01*
X117611819Y-79196382D01*
X117613587Y-79149359D01*
X117614323Y-79085118D01*
X117614456Y-79012824D01*
X117614456Y-78782178D01*
X117476139Y-78782178D01*
X117476139Y-79207467D01*
X117437451Y-79240021D01*
X117397262Y-79266060D01*
X117359203Y-79270795D01*
X117320934Y-79258611D01*
X117300538Y-79246680D01*
X117285358Y-79229687D01*
X117274562Y-79204005D01*
X117267317Y-79166009D01*
X117262792Y-79112074D01*
X117260156Y-79038575D01*
X117259228Y-78989653D01*
X117256089Y-78788465D01*
X117190074Y-78784664D01*
X117124060Y-78780864D01*
X117124060Y-80029350D01*
X117262376Y-80029350D01*
X117265903Y-79959746D01*
X117277785Y-79911431D01*
X117299980Y-79881369D01*
X117334441Y-79866529D01*
X117369258Y-79863564D01*
X117408671Y-79866972D01*
X117434829Y-79880383D01*
X117451186Y-79898104D01*
X117464063Y-79917165D01*
X117471728Y-79938399D01*
X117475139Y-79968151D01*
X117475251Y-80012764D01*
X117474103Y-80050120D01*
X117471468Y-80106396D01*
X117467544Y-80143342D01*
X117460937Y-80166777D01*
X117450251Y-80182520D01*
X117440167Y-80191620D01*
X117398030Y-80211463D01*
X117348160Y-80214668D01*
X117319524Y-80207832D01*
X117291172Y-80183536D01*
X117272391Y-80136272D01*
X117263288Y-80066376D01*
X117262376Y-80029350D01*
X117124060Y-80029350D01*
X117124060Y-80341386D01*
X117193218Y-80341386D01*
X117234740Y-80339744D01*
X117256162Y-80333913D01*
X117262374Y-80322539D01*
X117262376Y-80322202D01*
X117265258Y-80311062D01*
X117277970Y-80312327D01*
X117303243Y-80324567D01*
X117362131Y-80343293D01*
X117428385Y-80345261D01*
X117491241Y-80330816D01*
G37*
X117491241Y-80330816D02*
X117517753Y-80317718D01*
X117550447Y-80294894D01*
X117574275Y-80270004D01*
X117590594Y-80238751D01*
X117600760Y-80196834D01*
X117606128Y-80139956D01*
X117608056Y-80063816D01*
X117608169Y-80031083D01*
X117607839Y-79959344D01*
X117606473Y-79908073D01*
X117603500Y-79872596D01*
X117598351Y-79848237D01*
X117590457Y-79830320D01*
X117582243Y-79818098D01*
X117529813Y-79766095D01*
X117468070Y-79734816D01*
X117401464Y-79725408D01*
X117334442Y-79739020D01*
X117313208Y-79748646D01*
X117262376Y-79775141D01*
X117262376Y-79359948D01*
X117299475Y-79379132D01*
X117348357Y-79393975D01*
X117408439Y-79397778D01*
X117468436Y-79390757D01*
X117513744Y-79374987D01*
X117551325Y-79344953D01*
X117583436Y-79301976D01*
X117585850Y-79297564D01*
X117596033Y-79276779D01*
X117603470Y-79255830D01*
X117608589Y-79230452D01*
X117611819Y-79196382D01*
X117613587Y-79149359D01*
X117614323Y-79085118D01*
X117614456Y-79012824D01*
X117614456Y-78782178D01*
X117476139Y-78782178D01*
X117476139Y-79207467D01*
X117437451Y-79240021D01*
X117397262Y-79266060D01*
X117359203Y-79270795D01*
X117320934Y-79258611D01*
X117300538Y-79246680D01*
X117285358Y-79229687D01*
X117274562Y-79204005D01*
X117267317Y-79166009D01*
X117262792Y-79112074D01*
X117260156Y-79038575D01*
X117259228Y-78989653D01*
X117256089Y-78788465D01*
X117190074Y-78784664D01*
X117124060Y-78780864D01*
X117124060Y-80029350D01*
X117262376Y-80029350D01*
X117265903Y-79959746D01*
X117277785Y-79911431D01*
X117299980Y-79881369D01*
X117334441Y-79866529D01*
X117369258Y-79863564D01*
X117408671Y-79866972D01*
X117434829Y-79880383D01*
X117451186Y-79898104D01*
X117464063Y-79917165D01*
X117471728Y-79938399D01*
X117475139Y-79968151D01*
X117475251Y-80012764D01*
X117474103Y-80050120D01*
X117471468Y-80106396D01*
X117467544Y-80143342D01*
X117460937Y-80166777D01*
X117450251Y-80182520D01*
X117440167Y-80191620D01*
X117398030Y-80211463D01*
X117348160Y-80214668D01*
X117319524Y-80207832D01*
X117291172Y-80183536D01*
X117272391Y-80136272D01*
X117263288Y-80066376D01*
X117262376Y-80029350D01*
X117124060Y-80029350D01*
X117124060Y-80341386D01*
X117193218Y-80341386D01*
X117234740Y-80339744D01*
X117256162Y-80333913D01*
X117262374Y-80322539D01*
X117262376Y-80322202D01*
X117265258Y-80311062D01*
X117277970Y-80312327D01*
X117303243Y-80324567D01*
X117362131Y-80343293D01*
X117428385Y-80345261D01*
X117491241Y-80330816D01*
G36*
X118015790Y-79393445D02*
G01*
X118074945Y-79377661D01*
X118119977Y-79349052D01*
X118151754Y-79311581D01*
X118161634Y-79295589D01*
X118168927Y-79278837D01*
X118174026Y-79257408D01*
X118177321Y-79227384D01*
X118179203Y-79184846D01*
X118180063Y-79125878D01*
X118180293Y-79046560D01*
X118180297Y-79025516D01*
X118180297Y-78782178D01*
X118119941Y-78782178D01*
X118081443Y-78784874D01*
X118052977Y-78791705D01*
X118045845Y-78795917D01*
X118026348Y-78803187D01*
X118006434Y-78795917D01*
X117973647Y-78786840D01*
X117926022Y-78783187D01*
X117873236Y-78784772D01*
X117824964Y-78791411D01*
X117796782Y-78799928D01*
X117742247Y-78834937D01*
X117708165Y-78883521D01*
X117692843Y-78948118D01*
X117692701Y-78949777D01*
X117694045Y-78978434D01*
X117815644Y-78978434D01*
X117826274Y-78945839D01*
X117843590Y-78927495D01*
X117878348Y-78913621D01*
X117924227Y-78908083D01*
X117971012Y-78910809D01*
X118008486Y-78921726D01*
X118018985Y-78928731D01*
X118037332Y-78961096D01*
X118041980Y-78997889D01*
X118041980Y-79046237D01*
X117972418Y-79046237D01*
X117906333Y-79041150D01*
X117856236Y-79026737D01*
X117825071Y-79004271D01*
X117815644Y-78978434D01*
X117694045Y-78978434D01*
X117696013Y-79020353D01*
X117719290Y-79076155D01*
X117763052Y-79118353D01*
X117769101Y-79122192D01*
X117795093Y-79134691D01*
X117827265Y-79142260D01*
X117872240Y-79145939D01*
X117925669Y-79146784D01*
X118041980Y-79146831D01*
X118041980Y-79195589D01*
X118037047Y-79233419D01*
X118024457Y-79258764D01*
X118022983Y-79260113D01*
X117994966Y-79271200D01*
X117952674Y-79275497D01*
X117905936Y-79273385D01*
X117864582Y-79265244D01*
X117840043Y-79253035D01*
X117826747Y-79243254D01*
X117812706Y-79241387D01*
X117793329Y-79249400D01*
X117764024Y-79269261D01*
X117720197Y-79302937D01*
X117716175Y-79306091D01*
X117718236Y-79317764D01*
X117735432Y-79337178D01*
X117761567Y-79358752D01*
X117790448Y-79376904D01*
X117799522Y-79381191D01*
X117832620Y-79389744D01*
X117881120Y-79395845D01*
X117935305Y-79398292D01*
X117937839Y-79398297D01*
X118015790Y-79393445D01*
G37*
X118015790Y-79393445D02*
X118074945Y-79377661D01*
X118119977Y-79349052D01*
X118151754Y-79311581D01*
X118161634Y-79295589D01*
X118168927Y-79278837D01*
X118174026Y-79257408D01*
X118177321Y-79227384D01*
X118179203Y-79184846D01*
X118180063Y-79125878D01*
X118180293Y-79046560D01*
X118180297Y-79025516D01*
X118180297Y-78782178D01*
X118119941Y-78782178D01*
X118081443Y-78784874D01*
X118052977Y-78791705D01*
X118045845Y-78795917D01*
X118026348Y-78803187D01*
X118006434Y-78795917D01*
X117973647Y-78786840D01*
X117926022Y-78783187D01*
X117873236Y-78784772D01*
X117824964Y-78791411D01*
X117796782Y-78799928D01*
X117742247Y-78834937D01*
X117708165Y-78883521D01*
X117692843Y-78948118D01*
X117692701Y-78949777D01*
X117694045Y-78978434D01*
X117815644Y-78978434D01*
X117826274Y-78945839D01*
X117843590Y-78927495D01*
X117878348Y-78913621D01*
X117924227Y-78908083D01*
X117971012Y-78910809D01*
X118008486Y-78921726D01*
X118018985Y-78928731D01*
X118037332Y-78961096D01*
X118041980Y-78997889D01*
X118041980Y-79046237D01*
X117972418Y-79046237D01*
X117906333Y-79041150D01*
X117856236Y-79026737D01*
X117825071Y-79004271D01*
X117815644Y-78978434D01*
X117694045Y-78978434D01*
X117696013Y-79020353D01*
X117719290Y-79076155D01*
X117763052Y-79118353D01*
X117769101Y-79122192D01*
X117795093Y-79134691D01*
X117827265Y-79142260D01*
X117872240Y-79145939D01*
X117925669Y-79146784D01*
X118041980Y-79146831D01*
X118041980Y-79195589D01*
X118037047Y-79233419D01*
X118024457Y-79258764D01*
X118022983Y-79260113D01*
X117994966Y-79271200D01*
X117952674Y-79275497D01*
X117905936Y-79273385D01*
X117864582Y-79265244D01*
X117840043Y-79253035D01*
X117826747Y-79243254D01*
X117812706Y-79241387D01*
X117793329Y-79249400D01*
X117764024Y-79269261D01*
X117720197Y-79302937D01*
X117716175Y-79306091D01*
X117718236Y-79317764D01*
X117735432Y-79337178D01*
X117761567Y-79358752D01*
X117790448Y-79376904D01*
X117799522Y-79381191D01*
X117832620Y-79389744D01*
X117881120Y-79395845D01*
X117935305Y-79398292D01*
X117937839Y-79398297D01*
X118015790Y-79393445D01*
G36*
X118406644Y-79396980D02*
G01*
X118425461Y-79391340D01*
X118431527Y-79378947D01*
X118431782Y-79373353D01*
X118432871Y-79357770D01*
X118440368Y-79355324D01*
X118460619Y-79366007D01*
X118472649Y-79373306D01*
X118510600Y-79388937D01*
X118555928Y-79396666D01*
X118603456Y-79397260D01*
X118648005Y-79391487D01*
X118684398Y-79380116D01*
X118707457Y-79363912D01*
X118712004Y-79343645D01*
X118709709Y-79338157D01*
X118692980Y-79315374D01*
X118667037Y-79287353D01*
X118662345Y-79282823D01*
X118637617Y-79261995D01*
X118616282Y-79255265D01*
X118586445Y-79259962D01*
X118574492Y-79263083D01*
X118537295Y-79270579D01*
X118511141Y-79267208D01*
X118489054Y-79255319D01*
X118468822Y-79239365D01*
X118453921Y-79219300D01*
X118443566Y-79191298D01*
X118436971Y-79151533D01*
X118433351Y-79096177D01*
X118431922Y-79021406D01*
X118431782Y-78976260D01*
X118431782Y-78782178D01*
X118306040Y-78782178D01*
X118306040Y-79398317D01*
X118368911Y-79398317D01*
X118406644Y-79396980D01*
G37*
X118406644Y-79396980D02*
X118425461Y-79391340D01*
X118431527Y-79378947D01*
X118431782Y-79373353D01*
X118432871Y-79357770D01*
X118440368Y-79355324D01*
X118460619Y-79366007D01*
X118472649Y-79373306D01*
X118510600Y-79388937D01*
X118555928Y-79396666D01*
X118603456Y-79397260D01*
X118648005Y-79391487D01*
X118684398Y-79380116D01*
X118707457Y-79363912D01*
X118712004Y-79343645D01*
X118709709Y-79338157D01*
X118692980Y-79315374D01*
X118667037Y-79287353D01*
X118662345Y-79282823D01*
X118637617Y-79261995D01*
X118616282Y-79255265D01*
X118586445Y-79259962D01*
X118574492Y-79263083D01*
X118537295Y-79270579D01*
X118511141Y-79267208D01*
X118489054Y-79255319D01*
X118468822Y-79239365D01*
X118453921Y-79219300D01*
X118443566Y-79191298D01*
X118436971Y-79151533D01*
X118433351Y-79096177D01*
X118431922Y-79021406D01*
X118431782Y-78976260D01*
X118431782Y-78782178D01*
X118306040Y-78782178D01*
X118306040Y-79398317D01*
X118368911Y-79398317D01*
X118406644Y-79396980D01*
G36*
X119198812Y-78782178D02*
G01*
X119129654Y-78782178D01*
X119089512Y-78783355D01*
X119068606Y-78788228D01*
X119061078Y-78798814D01*
X119060495Y-78805971D01*
X119059226Y-78820324D01*
X119051221Y-78823077D01*
X119030185Y-78814229D01*
X119013827Y-78805971D01*
X118951023Y-78786403D01*
X118882752Y-78785271D01*
X118827248Y-78799865D01*
X118775562Y-78835123D01*
X118736162Y-78887165D01*
X118714587Y-78948550D01*
X118714038Y-78951982D01*
X118710833Y-78989429D01*
X118709239Y-79043187D01*
X118709367Y-79083845D01*
X118846721Y-79083845D01*
X118849903Y-79029806D01*
X118857141Y-78985265D01*
X118866940Y-78960112D01*
X118904011Y-78925740D01*
X118948026Y-78913418D01*
X118993416Y-78923382D01*
X119032203Y-78953105D01*
X119046892Y-78973095D01*
X119055481Y-78996950D01*
X119059504Y-79031770D01*
X119060495Y-79084070D01*
X119058722Y-79135861D01*
X119054037Y-79181366D01*
X119047397Y-79211819D01*
X119046290Y-79214548D01*
X119019509Y-79247000D01*
X118980421Y-79264817D01*
X118936685Y-79267694D01*
X118895962Y-79255326D01*
X118865913Y-79227407D01*
X118862796Y-79221852D01*
X118853039Y-79187978D01*
X118847723Y-79139272D01*
X118846721Y-79083845D01*
X118709367Y-79083845D01*
X118709432Y-79104460D01*
X118710336Y-79137437D01*
X118716486Y-79219019D01*
X118729267Y-79280270D01*
X118750529Y-79325551D01*
X118782122Y-79359221D01*
X118812793Y-79378986D01*
X118855646Y-79392880D01*
X118908944Y-79397646D01*
X118963520Y-79393764D01*
X119010208Y-79381718D01*
X119034876Y-79367307D01*
X119060495Y-79344122D01*
X119060495Y-79637227D01*
X119198812Y-79637227D01*
X119198812Y-78782178D01*
G37*
X119198812Y-78782178D02*
X119129654Y-78782178D01*
X119089512Y-78783355D01*
X119068606Y-78788228D01*
X119061078Y-78798814D01*
X119060495Y-78805971D01*
X119059226Y-78820324D01*
X119051221Y-78823077D01*
X119030185Y-78814229D01*
X119013827Y-78805971D01*
X118951023Y-78786403D01*
X118882752Y-78785271D01*
X118827248Y-78799865D01*
X118775562Y-78835123D01*
X118736162Y-78887165D01*
X118714587Y-78948550D01*
X118714038Y-78951982D01*
X118710833Y-78989429D01*
X118709239Y-79043187D01*
X118709367Y-79083845D01*
X118846721Y-79083845D01*
X118849903Y-79029806D01*
X118857141Y-78985265D01*
X118866940Y-78960112D01*
X118904011Y-78925740D01*
X118948026Y-78913418D01*
X118993416Y-78923382D01*
X119032203Y-78953105D01*
X119046892Y-78973095D01*
X119055481Y-78996950D01*
X119059504Y-79031770D01*
X119060495Y-79084070D01*
X119058722Y-79135861D01*
X119054037Y-79181366D01*
X119047397Y-79211819D01*
X119046290Y-79214548D01*
X119019509Y-79247000D01*
X118980421Y-79264817D01*
X118936685Y-79267694D01*
X118895962Y-79255326D01*
X118865913Y-79227407D01*
X118862796Y-79221852D01*
X118853039Y-79187978D01*
X118847723Y-79139272D01*
X118846721Y-79083845D01*
X118709367Y-79083845D01*
X118709432Y-79104460D01*
X118710336Y-79137437D01*
X118716486Y-79219019D01*
X118729267Y-79280270D01*
X118750529Y-79325551D01*
X118782122Y-79359221D01*
X118812793Y-79378986D01*
X118855646Y-79392880D01*
X118908944Y-79397646D01*
X118963520Y-79393764D01*
X119010208Y-79381718D01*
X119034876Y-79367307D01*
X119060495Y-79344122D01*
X119060495Y-79637227D01*
X119198812Y-79637227D01*
X119198812Y-78782178D01*
G36*
X119681524Y-79395763D02*
G01*
X119731255Y-79392029D01*
X119861291Y-79002227D01*
X119881678Y-79071386D01*
X119893946Y-79114126D01*
X119910085Y-79171885D01*
X119927512Y-79235375D01*
X119936726Y-79269430D01*
X119971388Y-79398317D01*
X120114391Y-79398317D01*
X120071646Y-79263143D01*
X120050596Y-79196658D01*
X120025167Y-79116461D01*
X119998610Y-79032807D01*
X119974902Y-78958218D01*
X119920902Y-78788465D01*
X119862598Y-78784672D01*
X119804295Y-78780878D01*
X119772679Y-78885266D01*
X119753182Y-78950111D01*
X119731904Y-79021600D01*
X119713308Y-79084737D01*
X119712574Y-79087250D01*
X119698684Y-79130031D01*
X119686429Y-79159221D01*
X119677846Y-79170259D01*
X119676082Y-79168982D01*
X119669891Y-79151870D01*
X119658128Y-79115213D01*
X119642225Y-79063622D01*
X119623614Y-79001706D01*
X119613543Y-78967648D01*
X119559007Y-78782178D01*
X119443264Y-78782178D01*
X119350737Y-79074529D01*
X119324744Y-79156538D01*
X119301066Y-79231013D01*
X119280820Y-79294456D01*
X119265126Y-79343368D01*
X119255102Y-79374251D01*
X119252055Y-79383274D01*
X119254467Y-79392513D01*
X119273408Y-79396559D01*
X119312823Y-79396154D01*
X119318993Y-79395848D01*
X119392086Y-79392029D01*
X119439957Y-79215990D01*
X119457553Y-79151789D01*
X119473277Y-79095351D01*
X119485746Y-79051578D01*
X119493574Y-79025370D01*
X119495020Y-79021097D01*
X119501014Y-79026010D01*
X119513101Y-79051468D01*
X119529893Y-79094003D01*
X119550003Y-79150150D01*
X119567003Y-79200870D01*
X119631794Y-79399496D01*
X119681524Y-79395763D01*
G37*
X119681524Y-79395763D02*
X119731255Y-79392029D01*
X119861291Y-79002227D01*
X119881678Y-79071386D01*
X119893946Y-79114126D01*
X119910085Y-79171885D01*
X119927512Y-79235375D01*
X119936726Y-79269430D01*
X119971388Y-79398317D01*
X120114391Y-79398317D01*
X120071646Y-79263143D01*
X120050596Y-79196658D01*
X120025167Y-79116461D01*
X119998610Y-79032807D01*
X119974902Y-78958218D01*
X119920902Y-78788465D01*
X119862598Y-78784672D01*
X119804295Y-78780878D01*
X119772679Y-78885266D01*
X119753182Y-78950111D01*
X119731904Y-79021600D01*
X119713308Y-79084737D01*
X119712574Y-79087250D01*
X119698684Y-79130031D01*
X119686429Y-79159221D01*
X119677846Y-79170259D01*
X119676082Y-79168982D01*
X119669891Y-79151870D01*
X119658128Y-79115213D01*
X119642225Y-79063622D01*
X119623614Y-79001706D01*
X119613543Y-78967648D01*
X119559007Y-78782178D01*
X119443264Y-78782178D01*
X119350737Y-79074529D01*
X119324744Y-79156538D01*
X119301066Y-79231013D01*
X119280820Y-79294456D01*
X119265126Y-79343368D01*
X119255102Y-79374251D01*
X119252055Y-79383274D01*
X119254467Y-79392513D01*
X119273408Y-79396559D01*
X119312823Y-79396154D01*
X119318993Y-79395848D01*
X119392086Y-79392029D01*
X119439957Y-79215990D01*
X119457553Y-79151789D01*
X119473277Y-79095351D01*
X119485746Y-79051578D01*
X119493574Y-79025370D01*
X119495020Y-79021097D01*
X119501014Y-79026010D01*
X119513101Y-79051468D01*
X119529893Y-79094003D01*
X119550003Y-79150150D01*
X119567003Y-79200870D01*
X119631794Y-79399496D01*
X119681524Y-79395763D01*
G36*
X120438411Y-79394583D02*
G01*
X120491411Y-79381710D01*
X120506731Y-79374890D01*
X120536428Y-79357026D01*
X120559220Y-79336907D01*
X120576083Y-79311038D01*
X120587998Y-79275927D01*
X120595942Y-79228080D01*
X120600894Y-79164004D01*
X120603831Y-79080206D01*
X120604947Y-79024232D01*
X120609052Y-78782178D01*
X120538932Y-78782178D01*
X120496393Y-78783962D01*
X120474476Y-78790058D01*
X120468812Y-78800294D01*
X120465821Y-78811363D01*
X120452451Y-78809246D01*
X120434233Y-78800371D01*
X120388624Y-78786767D01*
X120330007Y-78783101D01*
X120268354Y-78789097D01*
X120213638Y-78804479D01*
X120208730Y-78806614D01*
X120158723Y-78841745D01*
X120125756Y-78890581D01*
X120110587Y-78947667D01*
X120111746Y-78968176D01*
X120235508Y-78968176D01*
X120246413Y-78940575D01*
X120278745Y-78920796D01*
X120330910Y-78910181D01*
X120358787Y-78908772D01*
X120405247Y-78912380D01*
X120436129Y-78926403D01*
X120443664Y-78933069D01*
X120464076Y-78969334D01*
X120468812Y-79002227D01*
X120468812Y-79046237D01*
X120407513Y-79046237D01*
X120336256Y-79042605D01*
X120286276Y-79031182D01*
X120254696Y-79011176D01*
X120247626Y-79002257D01*
X120235508Y-78968176D01*
X120111746Y-78968176D01*
X120113971Y-79007544D01*
X120136663Y-79064756D01*
X120167624Y-79103420D01*
X120186376Y-79120136D01*
X120204733Y-79131122D01*
X120228619Y-79137820D01*
X120263957Y-79141674D01*
X120316669Y-79144127D01*
X120337577Y-79144832D01*
X120468812Y-79149121D01*
X120468620Y-79188842D01*
X120463537Y-79230595D01*
X120445162Y-79255842D01*
X120408039Y-79271970D01*
X120407043Y-79272258D01*
X120354410Y-79278600D01*
X120302906Y-79270316D01*
X120264630Y-79250173D01*
X120249272Y-79240227D01*
X120232730Y-79241603D01*
X120207275Y-79256013D01*
X120192328Y-79266183D01*
X120163091Y-79287912D01*
X120144980Y-79304200D01*
X120142074Y-79308863D01*
X120154040Y-79332995D01*
X120189396Y-79361815D01*
X120204753Y-79371539D01*
X120248901Y-79388286D01*
X120308398Y-79397773D01*
X120374487Y-79399905D01*
X120438411Y-79394583D01*
G37*
X120438411Y-79394583D02*
X120491411Y-79381710D01*
X120506731Y-79374890D01*
X120536428Y-79357026D01*
X120559220Y-79336907D01*
X120576083Y-79311038D01*
X120587998Y-79275927D01*
X120595942Y-79228080D01*
X120600894Y-79164004D01*
X120603831Y-79080206D01*
X120604947Y-79024232D01*
X120609052Y-78782178D01*
X120538932Y-78782178D01*
X120496393Y-78783962D01*
X120474476Y-78790058D01*
X120468812Y-78800294D01*
X120465821Y-78811363D01*
X120452451Y-78809246D01*
X120434233Y-78800371D01*
X120388624Y-78786767D01*
X120330007Y-78783101D01*
X120268354Y-78789097D01*
X120213638Y-78804479D01*
X120208730Y-78806614D01*
X120158723Y-78841745D01*
X120125756Y-78890581D01*
X120110587Y-78947667D01*
X120111746Y-78968176D01*
X120235508Y-78968176D01*
X120246413Y-78940575D01*
X120278745Y-78920796D01*
X120330910Y-78910181D01*
X120358787Y-78908772D01*
X120405247Y-78912380D01*
X120436129Y-78926403D01*
X120443664Y-78933069D01*
X120464076Y-78969334D01*
X120468812Y-79002227D01*
X120468812Y-79046237D01*
X120407513Y-79046237D01*
X120336256Y-79042605D01*
X120286276Y-79031182D01*
X120254696Y-79011176D01*
X120247626Y-79002257D01*
X120235508Y-78968176D01*
X120111746Y-78968176D01*
X120113971Y-79007544D01*
X120136663Y-79064756D01*
X120167624Y-79103420D01*
X120186376Y-79120136D01*
X120204733Y-79131122D01*
X120228619Y-79137820D01*
X120263957Y-79141674D01*
X120316669Y-79144127D01*
X120337577Y-79144832D01*
X120468812Y-79149121D01*
X120468620Y-79188842D01*
X120463537Y-79230595D01*
X120445162Y-79255842D01*
X120408039Y-79271970D01*
X120407043Y-79272258D01*
X120354410Y-79278600D01*
X120302906Y-79270316D01*
X120264630Y-79250173D01*
X120249272Y-79240227D01*
X120232730Y-79241603D01*
X120207275Y-79256013D01*
X120192328Y-79266183D01*
X120163091Y-79287912D01*
X120144980Y-79304200D01*
X120142074Y-79308863D01*
X120154040Y-79332995D01*
X120189396Y-79361815D01*
X120204753Y-79371539D01*
X120248901Y-79388286D01*
X120308398Y-79397773D01*
X120374487Y-79399905D01*
X120438411Y-79394583D01*
G36*
X121035255Y-79398514D02*
G01*
X121083595Y-79388985D01*
X121111114Y-79374875D01*
X121140064Y-79351432D01*
X121098876Y-79299429D01*
X121073482Y-79267936D01*
X121056238Y-79252572D01*
X121039102Y-79250224D01*
X121014027Y-79257783D01*
X121002257Y-79262059D01*
X120954270Y-79268369D01*
X120910324Y-79254844D01*
X120878060Y-79224290D01*
X120872819Y-79214548D01*
X120867112Y-79188742D01*
X120862706Y-79141183D01*
X120859811Y-79075242D01*
X120858631Y-78994290D01*
X120858614Y-78982774D01*
X120858614Y-78782178D01*
X120720297Y-78782178D01*
X120720297Y-79398317D01*
X120789456Y-79398317D01*
X120829333Y-79397275D01*
X120850107Y-79392642D01*
X120857789Y-79382151D01*
X120858614Y-79372255D01*
X120858614Y-79346194D01*
X120891745Y-79372255D01*
X120929735Y-79390035D01*
X120980770Y-79398826D01*
X121035255Y-79398514D01*
G37*
X121035255Y-79398514D02*
X121083595Y-79388985D01*
X121111114Y-79374875D01*
X121140064Y-79351432D01*
X121098876Y-79299429D01*
X121073482Y-79267936D01*
X121056238Y-79252572D01*
X121039102Y-79250224D01*
X121014027Y-79257783D01*
X121002257Y-79262059D01*
X120954270Y-79268369D01*
X120910324Y-79254844D01*
X120878060Y-79224290D01*
X120872819Y-79214548D01*
X120867112Y-79188742D01*
X120862706Y-79141183D01*
X120859811Y-79075242D01*
X120858631Y-78994290D01*
X120858614Y-78982774D01*
X120858614Y-78782178D01*
X120720297Y-78782178D01*
X120720297Y-79398317D01*
X120789456Y-79398317D01*
X120829333Y-79397275D01*
X120850107Y-79392642D01*
X120857789Y-79382151D01*
X120858614Y-79372255D01*
X120858614Y-79346194D01*
X120891745Y-79372255D01*
X120929735Y-79390035D01*
X120980770Y-79398826D01*
X121035255Y-79398514D01*
G36*
X121432581Y-79395030D02*
G01*
X121492685Y-79379403D01*
X121543021Y-79347152D01*
X121567393Y-79323060D01*
X121607345Y-79266105D01*
X121630242Y-79200035D01*
X121638108Y-79118818D01*
X121638148Y-79112252D01*
X121638218Y-79046237D01*
X121258264Y-79046237D01*
X121266363Y-79011658D01*
X121280987Y-78980341D01*
X121306581Y-78947709D01*
X121311935Y-78942500D01*
X121357943Y-78914306D01*
X121410410Y-78909525D01*
X121470803Y-78928074D01*
X121481040Y-78933069D01*
X121512439Y-78948255D01*
X121533470Y-78956906D01*
X121537139Y-78957707D01*
X121549948Y-78949937D01*
X121574378Y-78930928D01*
X121586779Y-78920540D01*
X121612476Y-78896679D01*
X121620915Y-78880923D01*
X121615058Y-78866429D01*
X121611928Y-78862466D01*
X121590725Y-78845121D01*
X121555738Y-78824041D01*
X121531337Y-78811735D01*
X121462072Y-78790054D01*
X121385388Y-78783029D01*
X121312765Y-78791353D01*
X121292426Y-78797314D01*
X121229476Y-78831048D01*
X121182815Y-78882955D01*
X121152173Y-78953541D01*
X121137282Y-79043308D01*
X121135647Y-79090247D01*
X121140421Y-79158587D01*
X121260990Y-79158587D01*
X121272652Y-79153535D01*
X121303998Y-79149571D01*
X121349571Y-79147232D01*
X121380446Y-79146831D01*
X121435981Y-79147217D01*
X121471033Y-79149025D01*
X121490262Y-79153227D01*
X121498330Y-79160797D01*
X121499901Y-79171782D01*
X121489121Y-79205619D01*
X121461980Y-79239060D01*
X121426277Y-79264728D01*
X121390560Y-79275228D01*
X121342048Y-79265914D01*
X121300053Y-79238987D01*
X121270936Y-79200173D01*
X121260990Y-79158587D01*
X121140421Y-79158587D01*
X121142599Y-79189764D01*
X121164055Y-79269051D01*
X121200470Y-79328737D01*
X121252297Y-79369451D01*
X121319990Y-79391821D01*
X121356662Y-79396129D01*
X121432581Y-79395030D01*
G37*
X121432581Y-79395030D02*
X121492685Y-79379403D01*
X121543021Y-79347152D01*
X121567393Y-79323060D01*
X121607345Y-79266105D01*
X121630242Y-79200035D01*
X121638108Y-79118818D01*
X121638148Y-79112252D01*
X121638218Y-79046237D01*
X121258264Y-79046237D01*
X121266363Y-79011658D01*
X121280987Y-78980341D01*
X121306581Y-78947709D01*
X121311935Y-78942500D01*
X121357943Y-78914306D01*
X121410410Y-78909525D01*
X121470803Y-78928074D01*
X121481040Y-78933069D01*
X121512439Y-78948255D01*
X121533470Y-78956906D01*
X121537139Y-78957707D01*
X121549948Y-78949937D01*
X121574378Y-78930928D01*
X121586779Y-78920540D01*
X121612476Y-78896679D01*
X121620915Y-78880923D01*
X121615058Y-78866429D01*
X121611928Y-78862466D01*
X121590725Y-78845121D01*
X121555738Y-78824041D01*
X121531337Y-78811735D01*
X121462072Y-78790054D01*
X121385388Y-78783029D01*
X121312765Y-78791353D01*
X121292426Y-78797314D01*
X121229476Y-78831048D01*
X121182815Y-78882955D01*
X121152173Y-78953541D01*
X121137282Y-79043308D01*
X121135647Y-79090247D01*
X121140421Y-79158587D01*
X121260990Y-79158587D01*
X121272652Y-79153535D01*
X121303998Y-79149571D01*
X121349571Y-79147232D01*
X121380446Y-79146831D01*
X121435981Y-79147217D01*
X121471033Y-79149025D01*
X121490262Y-79153227D01*
X121498330Y-79160797D01*
X121499901Y-79171782D01*
X121489121Y-79205619D01*
X121461980Y-79239060D01*
X121426277Y-79264728D01*
X121390560Y-79275228D01*
X121342048Y-79265914D01*
X121300053Y-79238987D01*
X121270936Y-79200173D01*
X121260990Y-79158587D01*
X121140421Y-79158587D01*
X121142599Y-79189764D01*
X121164055Y-79269051D01*
X121200470Y-79328737D01*
X121252297Y-79369451D01*
X121319990Y-79391821D01*
X121356662Y-79396129D01*
X121432581Y-79395030D01*
G36*
X116861739Y-80334852D02*
G01*
X116927521Y-80305769D01*
X116977460Y-80257207D01*
X117011626Y-80189092D01*
X117030093Y-80101349D01*
X117031417Y-80087649D01*
X117032454Y-79991061D01*
X117019007Y-79906398D01*
X116991892Y-79837779D01*
X116977373Y-79815706D01*
X116926799Y-79768989D01*
X116862391Y-79738732D01*
X116790334Y-79726176D01*
X116716815Y-79732561D01*
X116660928Y-79752228D01*
X116612868Y-79785371D01*
X116573588Y-79828825D01*
X116572908Y-79829842D01*
X116556956Y-79856662D01*
X116546590Y-79883632D01*
X116540312Y-79917668D01*
X116536627Y-79965690D01*
X116535003Y-80005069D01*
X116534328Y-80040781D01*
X116660045Y-80040781D01*
X116661274Y-80005230D01*
X116665734Y-79957906D01*
X116673603Y-79927535D01*
X116687793Y-79905928D01*
X116701083Y-79893306D01*
X116748198Y-79866878D01*
X116797495Y-79863347D01*
X116843407Y-79882361D01*
X116866362Y-79903669D01*
X116882904Y-79925141D01*
X116892579Y-79945687D01*
X116896826Y-79972426D01*
X116897080Y-80012477D01*
X116895772Y-80049362D01*
X116892957Y-80102053D01*
X116888495Y-80136228D01*
X116880452Y-80158520D01*
X116866897Y-80175558D01*
X116856155Y-80185297D01*
X116811223Y-80210877D01*
X116762751Y-80212153D01*
X116722106Y-80197001D01*
X116687433Y-80165358D01*
X116666776Y-80113380D01*
X116660045Y-80040781D01*
X116534328Y-80040781D01*
X116533521Y-80083379D01*
X116536052Y-80141944D01*
X116543638Y-80185993D01*
X116557319Y-80220752D01*
X116578135Y-80251449D01*
X116585853Y-80260564D01*
X116634111Y-80305979D01*
X116685872Y-80332507D01*
X116749172Y-80343621D01*
X116780039Y-80344529D01*
X116861739Y-80334852D01*
G37*
X116861739Y-80334852D02*
X116927521Y-80305769D01*
X116977460Y-80257207D01*
X117011626Y-80189092D01*
X117030093Y-80101349D01*
X117031417Y-80087649D01*
X117032454Y-79991061D01*
X117019007Y-79906398D01*
X116991892Y-79837779D01*
X116977373Y-79815706D01*
X116926799Y-79768989D01*
X116862391Y-79738732D01*
X116790334Y-79726176D01*
X116716815Y-79732561D01*
X116660928Y-79752228D01*
X116612868Y-79785371D01*
X116573588Y-79828825D01*
X116572908Y-79829842D01*
X116556956Y-79856662D01*
X116546590Y-79883632D01*
X116540312Y-79917668D01*
X116536627Y-79965690D01*
X116535003Y-80005069D01*
X116534328Y-80040781D01*
X116660045Y-80040781D01*
X116661274Y-80005230D01*
X116665734Y-79957906D01*
X116673603Y-79927535D01*
X116687793Y-79905928D01*
X116701083Y-79893306D01*
X116748198Y-79866878D01*
X116797495Y-79863347D01*
X116843407Y-79882361D01*
X116866362Y-79903669D01*
X116882904Y-79925141D01*
X116892579Y-79945687D01*
X116896826Y-79972426D01*
X116897080Y-80012477D01*
X116895772Y-80049362D01*
X116892957Y-80102053D01*
X116888495Y-80136228D01*
X116880452Y-80158520D01*
X116866897Y-80175558D01*
X116856155Y-80185297D01*
X116811223Y-80210877D01*
X116762751Y-80212153D01*
X116722106Y-80197001D01*
X116687433Y-80165358D01*
X116666776Y-80113380D01*
X116660045Y-80040781D01*
X116534328Y-80040781D01*
X116533521Y-80083379D01*
X116536052Y-80141944D01*
X116543638Y-80185993D01*
X116557319Y-80220752D01*
X116578135Y-80251449D01*
X116585853Y-80260564D01*
X116634111Y-80305979D01*
X116685872Y-80332507D01*
X116749172Y-80343621D01*
X116780039Y-80344529D01*
X116861739Y-80334852D01*
G36*
X118043301Y-80327386D02*
G01*
X118055832Y-80321486D01*
X118099201Y-80289717D01*
X118140210Y-80243354D01*
X118170832Y-80192304D01*
X118179541Y-80168834D01*
X118187488Y-80126909D01*
X118192226Y-80076243D01*
X118192801Y-80055321D01*
X118192871Y-79989307D01*
X117812917Y-79989307D01*
X117821017Y-79954727D01*
X117840896Y-79913830D01*
X117875653Y-79878486D01*
X117917002Y-79855718D01*
X117943351Y-79850990D01*
X117979084Y-79856727D01*
X118021718Y-79871118D01*
X118036201Y-79877738D01*
X118089760Y-79904487D01*
X118135467Y-79869624D01*
X118161842Y-79846045D01*
X118175876Y-79826583D01*
X118176586Y-79820871D01*
X118164049Y-79807027D01*
X118136572Y-79785988D01*
X118111634Y-79769575D01*
X118044336Y-79740070D01*
X117968890Y-79726716D01*
X117894112Y-79730188D01*
X117834505Y-79748337D01*
X117773059Y-79787216D01*
X117729392Y-79838405D01*
X117702074Y-79904633D01*
X117689678Y-79988629D01*
X117688579Y-80027064D01*
X117692978Y-80115139D01*
X117693518Y-80117701D01*
X117819418Y-80117701D01*
X117822885Y-80109442D01*
X117837137Y-80104887D01*
X117866530Y-80102935D01*
X117915425Y-80102483D01*
X117934252Y-80102475D01*
X117991533Y-80103157D01*
X118027859Y-80105636D01*
X118047396Y-80110557D01*
X118054310Y-80118566D01*
X118054555Y-80121138D01*
X118046664Y-80141577D01*
X118026915Y-80170211D01*
X118018425Y-80180237D01*
X117986906Y-80208592D01*
X117954051Y-80219741D01*
X117936349Y-80220673D01*
X117888461Y-80209019D01*
X117848301Y-80177715D01*
X117822827Y-80132248D01*
X117822375Y-80130767D01*
X117819418Y-80117701D01*
X117693518Y-80117701D01*
X117707608Y-80184490D01*
X117733962Y-80239975D01*
X117766193Y-80279361D01*
X117825783Y-80322069D01*
X117895832Y-80344891D01*
X117970339Y-80346954D01*
X118043301Y-80327386D01*
G37*
X118043301Y-80327386D02*
X118055832Y-80321486D01*
X118099201Y-80289717D01*
X118140210Y-80243354D01*
X118170832Y-80192304D01*
X118179541Y-80168834D01*
X118187488Y-80126909D01*
X118192226Y-80076243D01*
X118192801Y-80055321D01*
X118192871Y-79989307D01*
X117812917Y-79989307D01*
X117821017Y-79954727D01*
X117840896Y-79913830D01*
X117875653Y-79878486D01*
X117917002Y-79855718D01*
X117943351Y-79850990D01*
X117979084Y-79856727D01*
X118021718Y-79871118D01*
X118036201Y-79877738D01*
X118089760Y-79904487D01*
X118135467Y-79869624D01*
X118161842Y-79846045D01*
X118175876Y-79826583D01*
X118176586Y-79820871D01*
X118164049Y-79807027D01*
X118136572Y-79785988D01*
X118111634Y-79769575D01*
X118044336Y-79740070D01*
X117968890Y-79726716D01*
X117894112Y-79730188D01*
X117834505Y-79748337D01*
X117773059Y-79787216D01*
X117729392Y-79838405D01*
X117702074Y-79904633D01*
X117689678Y-79988629D01*
X117688579Y-80027064D01*
X117692978Y-80115139D01*
X117693518Y-80117701D01*
X117819418Y-80117701D01*
X117822885Y-80109442D01*
X117837137Y-80104887D01*
X117866530Y-80102935D01*
X117915425Y-80102483D01*
X117934252Y-80102475D01*
X117991533Y-80103157D01*
X118027859Y-80105636D01*
X118047396Y-80110557D01*
X118054310Y-80118566D01*
X118054555Y-80121138D01*
X118046664Y-80141577D01*
X118026915Y-80170211D01*
X118018425Y-80180237D01*
X117986906Y-80208592D01*
X117954051Y-80219741D01*
X117936349Y-80220673D01*
X117888461Y-80209019D01*
X117848301Y-80177715D01*
X117822827Y-80132248D01*
X117822375Y-80130767D01*
X117819418Y-80117701D01*
X117693518Y-80117701D01*
X117707608Y-80184490D01*
X117733962Y-80239975D01*
X117766193Y-80279361D01*
X117825783Y-80322069D01*
X117895832Y-80344891D01*
X117970339Y-80346954D01*
X118043301Y-80327386D01*
G36*
X119414017Y-80343548D02*
G01*
X119461634Y-80334518D01*
X119511034Y-80315630D01*
X119516312Y-80313223D01*
X119553774Y-80293524D01*
X119579717Y-80275219D01*
X119588103Y-80263492D01*
X119580117Y-80244368D01*
X119560720Y-80216150D01*
X119552110Y-80205616D01*
X119516628Y-80164153D01*
X119470885Y-80191142D01*
X119427350Y-80209122D01*
X119377050Y-80218733D01*
X119328812Y-80219340D01*
X119291467Y-80210309D01*
X119282505Y-80204673D01*
X119265437Y-80178829D01*
X119263363Y-80149059D01*
X119276134Y-80125803D01*
X119283688Y-80121292D01*
X119306325Y-80115691D01*
X119346115Y-80109108D01*
X119395166Y-80102817D01*
X119404215Y-80101830D01*
X119482996Y-80088202D01*
X119540136Y-80065054D01*
X119578030Y-80030248D01*
X119599079Y-79981646D01*
X119605635Y-79922282D01*
X119596577Y-79854802D01*
X119567164Y-79801812D01*
X119517278Y-79763217D01*
X119446800Y-79738919D01*
X119368565Y-79729333D01*
X119304766Y-79729448D01*
X119253016Y-79738155D01*
X119217673Y-79750175D01*
X119173017Y-79771120D01*
X119131747Y-79795426D01*
X119117079Y-79806124D01*
X119079357Y-79836916D01*
X119124852Y-79882951D01*
X119170347Y-79928987D01*
X119222072Y-79894757D01*
X119273952Y-79869048D01*
X119329351Y-79855601D01*
X119382605Y-79854182D01*
X119428049Y-79864557D01*
X119460016Y-79886493D01*
X119470338Y-79905002D01*
X119468789Y-79934686D01*
X119443140Y-79957385D01*
X119393460Y-79973060D01*
X119339031Y-79980305D01*
X119255264Y-79994127D01*
X119193033Y-80020204D01*
X119151507Y-80059301D01*
X119129853Y-80112180D01*
X119126853Y-80174874D01*
X119141671Y-80240358D01*
X119175454Y-80289856D01*
X119228505Y-80323592D01*
X119301126Y-80341793D01*
X119354928Y-80345361D01*
X119414017Y-80343548D01*
G37*
X119414017Y-80343548D02*
X119461634Y-80334518D01*
X119511034Y-80315630D01*
X119516312Y-80313223D01*
X119553774Y-80293524D01*
X119579717Y-80275219D01*
X119588103Y-80263492D01*
X119580117Y-80244368D01*
X119560720Y-80216150D01*
X119552110Y-80205616D01*
X119516628Y-80164153D01*
X119470885Y-80191142D01*
X119427350Y-80209122D01*
X119377050Y-80218733D01*
X119328812Y-80219340D01*
X119291467Y-80210309D01*
X119282505Y-80204673D01*
X119265437Y-80178829D01*
X119263363Y-80149059D01*
X119276134Y-80125803D01*
X119283688Y-80121292D01*
X119306325Y-80115691D01*
X119346115Y-80109108D01*
X119395166Y-80102817D01*
X119404215Y-80101830D01*
X119482996Y-80088202D01*
X119540136Y-80065054D01*
X119578030Y-80030248D01*
X119599079Y-79981646D01*
X119605635Y-79922282D01*
X119596577Y-79854802D01*
X119567164Y-79801812D01*
X119517278Y-79763217D01*
X119446800Y-79738919D01*
X119368565Y-79729333D01*
X119304766Y-79729448D01*
X119253016Y-79738155D01*
X119217673Y-79750175D01*
X119173017Y-79771120D01*
X119131747Y-79795426D01*
X119117079Y-79806124D01*
X119079357Y-79836916D01*
X119124852Y-79882951D01*
X119170347Y-79928987D01*
X119222072Y-79894757D01*
X119273952Y-79869048D01*
X119329351Y-79855601D01*
X119382605Y-79854182D01*
X119428049Y-79864557D01*
X119460016Y-79886493D01*
X119470338Y-79905002D01*
X119468789Y-79934686D01*
X119443140Y-79957385D01*
X119393460Y-79973060D01*
X119339031Y-79980305D01*
X119255264Y-79994127D01*
X119193033Y-80020204D01*
X119151507Y-80059301D01*
X119129853Y-80112180D01*
X119126853Y-80174874D01*
X119141671Y-80240358D01*
X119175454Y-80289856D01*
X119228505Y-80323592D01*
X119301126Y-80341793D01*
X119354928Y-80345361D01*
X119414017Y-80343548D01*
G36*
X120010762Y-80333945D02*
G01*
X120074363Y-80299308D01*
X120124123Y-80244628D01*
X120147568Y-80200158D01*
X120157634Y-80160879D01*
X120164156Y-80104884D01*
X120166951Y-80040379D01*
X120165836Y-79975571D01*
X120160626Y-79918666D01*
X120154541Y-79888273D01*
X120134014Y-79846694D01*
X120098463Y-79802532D01*
X120055619Y-79763913D01*
X120013211Y-79738966D01*
X120012177Y-79738570D01*
X119959553Y-79727669D01*
X119897188Y-79727399D01*
X119837924Y-79737324D01*
X119815040Y-79745278D01*
X119756102Y-79778700D01*
X119713890Y-79822489D01*
X119686156Y-79880462D01*
X119670651Y-79956435D01*
X119667143Y-79996229D01*
X119667590Y-80046234D01*
X119802376Y-80046234D01*
X119806917Y-79973268D01*
X119819986Y-79917666D01*
X119840756Y-79882139D01*
X119855552Y-79871980D01*
X119893464Y-79864896D01*
X119938527Y-79866993D01*
X119977487Y-79877188D01*
X119987704Y-79882796D01*
X120014659Y-79915462D01*
X120032451Y-79965455D01*
X120040024Y-80026295D01*
X120036325Y-80091503D01*
X120028057Y-80130747D01*
X120004320Y-80176195D01*
X119966849Y-80204604D01*
X119921720Y-80214427D01*
X119875011Y-80204113D01*
X119839132Y-80178888D01*
X119820277Y-80158075D01*
X119809272Y-80137561D01*
X119804026Y-80109797D01*
X119802449Y-80067238D01*
X119802376Y-80046234D01*
X119667590Y-80046234D01*
X119668094Y-80102420D01*
X119685388Y-80189499D01*
X119719029Y-80257470D01*
X119769018Y-80306336D01*
X119835356Y-80336101D01*
X119849601Y-80339552D01*
X119935210Y-80347655D01*
X120010762Y-80333945D01*
G37*
X120010762Y-80333945D02*
X120074363Y-80299308D01*
X120124123Y-80244628D01*
X120147568Y-80200158D01*
X120157634Y-80160879D01*
X120164156Y-80104884D01*
X120166951Y-80040379D01*
X120165836Y-79975571D01*
X120160626Y-79918666D01*
X120154541Y-79888273D01*
X120134014Y-79846694D01*
X120098463Y-79802532D01*
X120055619Y-79763913D01*
X120013211Y-79738966D01*
X120012177Y-79738570D01*
X119959553Y-79727669D01*
X119897188Y-79727399D01*
X119837924Y-79737324D01*
X119815040Y-79745278D01*
X119756102Y-79778700D01*
X119713890Y-79822489D01*
X119686156Y-79880462D01*
X119670651Y-79956435D01*
X119667143Y-79996229D01*
X119667590Y-80046234D01*
X119802376Y-80046234D01*
X119806917Y-79973268D01*
X119819986Y-79917666D01*
X119840756Y-79882139D01*
X119855552Y-79871980D01*
X119893464Y-79864896D01*
X119938527Y-79866993D01*
X119977487Y-79877188D01*
X119987704Y-79882796D01*
X120014659Y-79915462D01*
X120032451Y-79965455D01*
X120040024Y-80026295D01*
X120036325Y-80091503D01*
X120028057Y-80130747D01*
X120004320Y-80176195D01*
X119966849Y-80204604D01*
X119921720Y-80214427D01*
X119875011Y-80204113D01*
X119839132Y-80178888D01*
X119820277Y-80158075D01*
X119809272Y-80137561D01*
X119804026Y-80109797D01*
X119802449Y-80067238D01*
X119802376Y-80046234D01*
X119667590Y-80046234D01*
X119668094Y-80102420D01*
X119685388Y-80189499D01*
X119719029Y-80257470D01*
X119769018Y-80306336D01*
X119835356Y-80336101D01*
X119849601Y-80339552D01*
X119935210Y-80347655D01*
X120010762Y-80333945D01*
G36*
X120393367Y-80145658D02*
G01*
X120394555Y-80053437D01*
X120398897Y-79983390D01*
X120407558Y-79932619D01*
X120421704Y-79898228D01*
X120442500Y-79877321D01*
X120471110Y-79867000D01*
X120506535Y-79864364D01*
X120543636Y-79867318D01*
X120571818Y-79878111D01*
X120592243Y-79899640D01*
X120606079Y-79934801D01*
X120614491Y-79986490D01*
X120618643Y-80057606D01*
X120619703Y-80145658D01*
X120619703Y-80341386D01*
X120758020Y-80341386D01*
X120758020Y-79737821D01*
X120688862Y-79737821D01*
X120647170Y-79739511D01*
X120625701Y-79745444D01*
X120619703Y-79756707D01*
X120616091Y-79766739D01*
X120601714Y-79764617D01*
X120572736Y-79750420D01*
X120506319Y-79728520D01*
X120435875Y-79730072D01*
X120368377Y-79753853D01*
X120336233Y-79772638D01*
X120311715Y-79792978D01*
X120293804Y-79818427D01*
X120281479Y-79852542D01*
X120273723Y-79898879D01*
X120269516Y-79960993D01*
X120267840Y-80042439D01*
X120267624Y-80105422D01*
X120267624Y-80341386D01*
X120393367Y-80341386D01*
X120393367Y-80145658D01*
G37*
X120393367Y-80145658D02*
X120394555Y-80053437D01*
X120398897Y-79983390D01*
X120407558Y-79932619D01*
X120421704Y-79898228D01*
X120442500Y-79877321D01*
X120471110Y-79867000D01*
X120506535Y-79864364D01*
X120543636Y-79867318D01*
X120571818Y-79878111D01*
X120592243Y-79899640D01*
X120606079Y-79934801D01*
X120614491Y-79986490D01*
X120618643Y-80057606D01*
X120619703Y-80145658D01*
X120619703Y-80341386D01*
X120758020Y-80341386D01*
X120758020Y-79737821D01*
X120688862Y-79737821D01*
X120647170Y-79739511D01*
X120625701Y-79745444D01*
X120619703Y-79756707D01*
X120616091Y-79766739D01*
X120601714Y-79764617D01*
X120572736Y-79750420D01*
X120506319Y-79728520D01*
X120435875Y-79730072D01*
X120368377Y-79753853D01*
X120336233Y-79772638D01*
X120311715Y-79792978D01*
X120293804Y-79818427D01*
X120281479Y-79852542D01*
X120273723Y-79898879D01*
X120269516Y-79960993D01*
X120267840Y-80042439D01*
X120267624Y-80105422D01*
X120267624Y-80341386D01*
X120393367Y-80341386D01*
X120393367Y-80145658D01*
G36*
X121617226Y-80336120D02*
G01*
X121690080Y-80305170D01*
X121713027Y-80290105D01*
X121742354Y-80266952D01*
X121760764Y-80248747D01*
X121763961Y-80242817D01*
X121754935Y-80229660D01*
X121731837Y-80207333D01*
X121713344Y-80191750D01*
X121662728Y-80151074D01*
X121622760Y-80184705D01*
X121591874Y-80206416D01*
X121561759Y-80213910D01*
X121527292Y-80212080D01*
X121472561Y-80198472D01*
X121434886Y-80170228D01*
X121411991Y-80124567D01*
X121401597Y-80058711D01*
X121401595Y-80058669D01*
X121402494Y-79985061D01*
X121416463Y-79931054D01*
X121444328Y-79894284D01*
X121463325Y-79881832D01*
X121513776Y-79866327D01*
X121567663Y-79866317D01*
X121614546Y-79881362D01*
X121625644Y-79888713D01*
X121653476Y-79907489D01*
X121675236Y-79910566D01*
X121698704Y-79896591D01*
X121724649Y-79871490D01*
X121765716Y-79829120D01*
X121720121Y-79791536D01*
X121649674Y-79749118D01*
X121570233Y-79728215D01*
X121487215Y-79729728D01*
X121432694Y-79743589D01*
X121368970Y-79777865D01*
X121318005Y-79831788D01*
X121294851Y-79869851D01*
X121276099Y-79924464D01*
X121266715Y-79993631D01*
X121266643Y-80068593D01*
X121275824Y-80140591D01*
X121294199Y-80200863D01*
X121297093Y-80207042D01*
X121339952Y-80267649D01*
X121397979Y-80311776D01*
X121466591Y-80338507D01*
X121541201Y-80346927D01*
X121617226Y-80336120D01*
G37*
X121617226Y-80336120D02*
X121690080Y-80305170D01*
X121713027Y-80290105D01*
X121742354Y-80266952D01*
X121760764Y-80248747D01*
X121763961Y-80242817D01*
X121754935Y-80229660D01*
X121731837Y-80207333D01*
X121713344Y-80191750D01*
X121662728Y-80151074D01*
X121622760Y-80184705D01*
X121591874Y-80206416D01*
X121561759Y-80213910D01*
X121527292Y-80212080D01*
X121472561Y-80198472D01*
X121434886Y-80170228D01*
X121411991Y-80124567D01*
X121401597Y-80058711D01*
X121401595Y-80058669D01*
X121402494Y-79985061D01*
X121416463Y-79931054D01*
X121444328Y-79894284D01*
X121463325Y-79881832D01*
X121513776Y-79866327D01*
X121567663Y-79866317D01*
X121614546Y-79881362D01*
X121625644Y-79888713D01*
X121653476Y-79907489D01*
X121675236Y-79910566D01*
X121698704Y-79896591D01*
X121724649Y-79871490D01*
X121765716Y-79829120D01*
X121720121Y-79791536D01*
X121649674Y-79749118D01*
X121570233Y-79728215D01*
X121487215Y-79729728D01*
X121432694Y-79743589D01*
X121368970Y-79777865D01*
X121318005Y-79831788D01*
X121294851Y-79869851D01*
X121276099Y-79924464D01*
X121266715Y-79993631D01*
X121266643Y-80068593D01*
X121275824Y-80140591D01*
X121294199Y-80200863D01*
X121297093Y-80207042D01*
X121339952Y-80267649D01*
X121397979Y-80311776D01*
X121466591Y-80338507D01*
X121541201Y-80346927D01*
X121617226Y-80336120D01*
G36*
X122077898Y-80343543D02*
G01*
X122110096Y-80335721D01*
X122171825Y-80307079D01*
X122224610Y-80263333D01*
X122261141Y-80210883D01*
X122266160Y-80199107D01*
X122273045Y-80168260D01*
X122277864Y-80122629D01*
X122279505Y-80076508D01*
X122279505Y-79989307D01*
X122097178Y-79989307D01*
X122021979Y-79989022D01*
X121969003Y-79987296D01*
X121935325Y-79982819D01*
X121918020Y-79974280D01*
X121914163Y-79960370D01*
X121920829Y-79939778D01*
X121932770Y-79915685D01*
X121966080Y-79875475D01*
X122012368Y-79855442D01*
X122068944Y-79856095D01*
X122133031Y-79877899D01*
X122188417Y-79904807D01*
X122234375Y-79868468D01*
X122280333Y-79832128D01*
X122237096Y-79792181D01*
X122179374Y-79754437D01*
X122108386Y-79731680D01*
X122032029Y-79725312D01*
X121958199Y-79736732D01*
X121946287Y-79740607D01*
X121881399Y-79774494D01*
X121833130Y-79825014D01*
X121800465Y-79893675D01*
X121782385Y-79981986D01*
X121782175Y-79983879D01*
X121780556Y-80080122D01*
X121787100Y-80114458D01*
X121914852Y-80114458D01*
X121926584Y-80109178D01*
X121958438Y-80105133D01*
X122005397Y-80102824D01*
X122035154Y-80102475D01*
X122090648Y-80102694D01*
X122125346Y-80104084D01*
X122143601Y-80107749D01*
X122149766Y-80114790D01*
X122148195Y-80126310D01*
X122146878Y-80130767D01*
X122124382Y-80172645D01*
X122089003Y-80206396D01*
X122057780Y-80221227D01*
X122016301Y-80220332D01*
X121974269Y-80201836D01*
X121939012Y-80171214D01*
X121917854Y-80133938D01*
X121914852Y-80114458D01*
X121787100Y-80114458D01*
X121796690Y-80164771D01*
X121828698Y-80235809D01*
X121874701Y-80291221D01*
X121932821Y-80328991D01*
X122001180Y-80347104D01*
X122077898Y-80343543D01*
G37*
X122077898Y-80343543D02*
X122110096Y-80335721D01*
X122171825Y-80307079D01*
X122224610Y-80263333D01*
X122261141Y-80210883D01*
X122266160Y-80199107D01*
X122273045Y-80168260D01*
X122277864Y-80122629D01*
X122279505Y-80076508D01*
X122279505Y-79989307D01*
X122097178Y-79989307D01*
X122021979Y-79989022D01*
X121969003Y-79987296D01*
X121935325Y-79982819D01*
X121918020Y-79974280D01*
X121914163Y-79960370D01*
X121920829Y-79939778D01*
X121932770Y-79915685D01*
X121966080Y-79875475D01*
X122012368Y-79855442D01*
X122068944Y-79856095D01*
X122133031Y-79877899D01*
X122188417Y-79904807D01*
X122234375Y-79868468D01*
X122280333Y-79832128D01*
X122237096Y-79792181D01*
X122179374Y-79754437D01*
X122108386Y-79731680D01*
X122032029Y-79725312D01*
X121958199Y-79736732D01*
X121946287Y-79740607D01*
X121881399Y-79774494D01*
X121833130Y-79825014D01*
X121800465Y-79893675D01*
X121782385Y-79981986D01*
X121782175Y-79983879D01*
X121780556Y-80080122D01*
X121787100Y-80114458D01*
X121914852Y-80114458D01*
X121926584Y-80109178D01*
X121958438Y-80105133D01*
X122005397Y-80102824D01*
X122035154Y-80102475D01*
X122090648Y-80102694D01*
X122125346Y-80104084D01*
X122143601Y-80107749D01*
X122149766Y-80114790D01*
X122148195Y-80126310D01*
X122146878Y-80130767D01*
X122124382Y-80172645D01*
X122089003Y-80206396D01*
X122057780Y-80221227D01*
X122016301Y-80220332D01*
X121974269Y-80201836D01*
X121939012Y-80171214D01*
X121917854Y-80133938D01*
X121914852Y-80114458D01*
X121787100Y-80114458D01*
X121796690Y-80164771D01*
X121828698Y-80235809D01*
X121874701Y-80291221D01*
X121932821Y-80328991D01*
X122001180Y-80347104D01*
X122077898Y-80343543D01*
G36*
X118645988Y-80330998D02*
G01*
X118677283Y-80316050D01*
X118707591Y-80294459D01*
X118730682Y-80269609D01*
X118747500Y-80237913D01*
X118758994Y-80195786D01*
X118766109Y-80139642D01*
X118769793Y-80065894D01*
X118770992Y-79970956D01*
X118771011Y-79961015D01*
X118771287Y-79737821D01*
X118632970Y-79737821D01*
X118632970Y-79943582D01*
X118632872Y-80019811D01*
X118632191Y-80075061D01*
X118630349Y-80113499D01*
X118626767Y-80139294D01*
X118620868Y-80156616D01*
X118612073Y-80169632D01*
X118599820Y-80182493D01*
X118556953Y-80210127D01*
X118510157Y-80215255D01*
X118465576Y-80197783D01*
X118450072Y-80184779D01*
X118438690Y-80172553D01*
X118430519Y-80159460D01*
X118425026Y-80141385D01*
X118421680Y-80114213D01*
X118419949Y-80073830D01*
X118419303Y-80016121D01*
X118419208Y-79945868D01*
X118419208Y-79737821D01*
X118280891Y-79737821D01*
X118280891Y-80341386D01*
X118350050Y-80341386D01*
X118391572Y-80339744D01*
X118412994Y-80333913D01*
X118419205Y-80322539D01*
X118419208Y-80322202D01*
X118422090Y-80311062D01*
X118434801Y-80312326D01*
X118460074Y-80324566D01*
X118517395Y-80342576D01*
X118582963Y-80344579D01*
X118645988Y-80330998D01*
G37*
X118645988Y-80330998D02*
X118677283Y-80316050D01*
X118707591Y-80294459D01*
X118730682Y-80269609D01*
X118747500Y-80237913D01*
X118758994Y-80195786D01*
X118766109Y-80139642D01*
X118769793Y-80065894D01*
X118770992Y-79970956D01*
X118771011Y-79961015D01*
X118771287Y-79737821D01*
X118632970Y-79737821D01*
X118632970Y-79943582D01*
X118632872Y-80019811D01*
X118632191Y-80075061D01*
X118630349Y-80113499D01*
X118626767Y-80139294D01*
X118620868Y-80156616D01*
X118612073Y-80169632D01*
X118599820Y-80182493D01*
X118556953Y-80210127D01*
X118510157Y-80215255D01*
X118465576Y-80197783D01*
X118450072Y-80184779D01*
X118438690Y-80172553D01*
X118430519Y-80159460D01*
X118425026Y-80141385D01*
X118421680Y-80114213D01*
X118419949Y-80073830D01*
X118419303Y-80016121D01*
X118419208Y-79945868D01*
X118419208Y-79737821D01*
X118280891Y-79737821D01*
X118280891Y-80341386D01*
X118350050Y-80341386D01*
X118391572Y-80339744D01*
X118412994Y-80333913D01*
X118419205Y-80322539D01*
X118419208Y-80322202D01*
X118422090Y-80311062D01*
X118434801Y-80312326D01*
X118460074Y-80324566D01*
X118517395Y-80342576D01*
X118582963Y-80344579D01*
X118645988Y-80330998D01*
G36*
X121199460Y-80341970D02*
G01*
X121242711Y-80328755D01*
X121270558Y-80312059D01*
X121279629Y-80298855D01*
X121277132Y-80283203D01*
X121260931Y-80258615D01*
X121247232Y-80241200D01*
X121218992Y-80209717D01*
X121197775Y-80196471D01*
X121179688Y-80197336D01*
X121126035Y-80210990D01*
X121086630Y-80210370D01*
X121054632Y-80194896D01*
X121043890Y-80185839D01*
X121009505Y-80153973D01*
X121009505Y-79737821D01*
X120871188Y-79737821D01*
X120871188Y-80341386D01*
X120940347Y-80341386D01*
X120981869Y-80339744D01*
X121003291Y-80333913D01*
X121009502Y-80322539D01*
X121009505Y-80322202D01*
X121012439Y-80310287D01*
X121025704Y-80311841D01*
X121044084Y-80320437D01*
X121082046Y-80336432D01*
X121112872Y-80346055D01*
X121152536Y-80348522D01*
X121199460Y-80341970D01*
G37*
X121199460Y-80341970D02*
X121242711Y-80328755D01*
X121270558Y-80312059D01*
X121279629Y-80298855D01*
X121277132Y-80283203D01*
X121260931Y-80258615D01*
X121247232Y-80241200D01*
X121218992Y-80209717D01*
X121197775Y-80196471D01*
X121179688Y-80197336D01*
X121126035Y-80210990D01*
X121086630Y-80210370D01*
X121054632Y-80194896D01*
X121043890Y-80185839D01*
X121009505Y-80153973D01*
X121009505Y-79737821D01*
X120871188Y-79737821D01*
X120871188Y-80341386D01*
X120940347Y-80341386D01*
X120981869Y-80339744D01*
X121003291Y-80333913D01*
X121009502Y-80322539D01*
X121009505Y-80322202D01*
X121012439Y-80310287D01*
X121025704Y-80311841D01*
X121044084Y-80320437D01*
X121082046Y-80336432D01*
X121112872Y-80346055D01*
X121152536Y-80348522D01*
X121199460Y-80341970D01*
G36*
X119776964Y-84509982D02*
G01*
X119833812Y-84208430D01*
X120253338Y-84035488D01*
X120504984Y-84206605D01*
X120575458Y-84254250D01*
X120639163Y-84296790D01*
X120693126Y-84332285D01*
X120734373Y-84358790D01*
X120759934Y-84374364D01*
X120766895Y-84377722D01*
X120779435Y-84369086D01*
X120806231Y-84345208D01*
X120844280Y-84309141D01*
X120890579Y-84263933D01*
X120942123Y-84212636D01*
X120995909Y-84158299D01*
X121048935Y-84103972D01*
X121098195Y-84052705D01*
X121140687Y-84007549D01*
X121173407Y-83971554D01*
X121193351Y-83947770D01*
X121198119Y-83939810D01*
X121191257Y-83925135D01*
X121172020Y-83892986D01*
X121142430Y-83846508D01*
X121104510Y-83788844D01*
X121060282Y-83723140D01*
X121034654Y-83685664D01*
X120987941Y-83617232D01*
X120946432Y-83555480D01*
X120912140Y-83503481D01*
X120887080Y-83464308D01*
X120873264Y-83441035D01*
X120871188Y-83436145D01*
X120875895Y-83422245D01*
X120888723Y-83389850D01*
X120907738Y-83343515D01*
X120931003Y-83287794D01*
X120956584Y-83227242D01*
X120982545Y-83166414D01*
X121006950Y-83109864D01*
X121027863Y-83062148D01*
X121043349Y-83027819D01*
X121051472Y-83011432D01*
X121051952Y-83010788D01*
X121064707Y-83007659D01*
X121098677Y-83000679D01*
X121150340Y-82990533D01*
X121216176Y-82977908D01*
X121292664Y-82963491D01*
X121337290Y-82955177D01*
X121419021Y-82939616D01*
X121492843Y-82924808D01*
X121555021Y-82911564D01*
X121601822Y-82900695D01*
X121629509Y-82893011D01*
X121635074Y-82890573D01*
X121640526Y-82874070D01*
X121644924Y-82836800D01*
X121648272Y-82783120D01*
X121650574Y-82717388D01*
X121651832Y-82643963D01*
X121652048Y-82567204D01*
X121651227Y-82491468D01*
X121649371Y-82421114D01*
X121646482Y-82360500D01*
X121642565Y-82313984D01*
X121637622Y-82285925D01*
X121634657Y-82280084D01*
X121616934Y-82273083D01*
X121579381Y-82263073D01*
X121526964Y-82251231D01*
X121464652Y-82238733D01*
X121442900Y-82234690D01*
X121338024Y-82215480D01*
X121255180Y-82200009D01*
X121191630Y-82187663D01*
X121144637Y-82177827D01*
X121111463Y-82169886D01*
X121089371Y-82163224D01*
X121075624Y-82157227D01*
X121067484Y-82151281D01*
X121066345Y-82150106D01*
X121054977Y-82131174D01*
X121037635Y-82094331D01*
X121016050Y-82044087D01*
X120991954Y-81984954D01*
X120967079Y-81921444D01*
X120943157Y-81858068D01*
X120921919Y-81799338D01*
X120905097Y-81749765D01*
X120894422Y-81713861D01*
X120891627Y-81696138D01*
X120891860Y-81695517D01*
X120901331Y-81681030D01*
X120922818Y-81649156D01*
X120954063Y-81603211D01*
X120992807Y-81546515D01*
X121036793Y-81482383D01*
X121049319Y-81464158D01*
X121093984Y-81398086D01*
X121133288Y-81337800D01*
X121165088Y-81286765D01*
X121187245Y-81248440D01*
X121197617Y-81226289D01*
X121198119Y-81223568D01*
X121189405Y-81209264D01*
X121165325Y-81180928D01*
X121128976Y-81141604D01*
X121083453Y-81094339D01*
X121031852Y-81042177D01*
X120977267Y-80988165D01*
X120922794Y-80935347D01*
X120871529Y-80886769D01*
X120826567Y-80845477D01*
X120791004Y-80814515D01*
X120767935Y-80796930D01*
X120761554Y-80794059D01*
X120746699Y-80800822D01*
X120716286Y-80819061D01*
X120675268Y-80845703D01*
X120643709Y-80867148D01*
X120586525Y-80906497D01*
X120518806Y-80952829D01*
X120450880Y-80999087D01*
X120414361Y-81023845D01*
X120290752Y-81107453D01*
X120186991Y-81051350D01*
X120139720Y-81026772D01*
X120099523Y-81007669D01*
X120072326Y-80996773D01*
X120065402Y-80995257D01*
X120057077Y-81006451D01*
X120040654Y-81038083D01*
X120017357Y-81087235D01*
X119988414Y-81150990D01*
X119955050Y-81226429D01*
X119918491Y-81310636D01*
X119879964Y-81400692D01*
X119840694Y-81493679D01*
X119801908Y-81586680D01*
X119764830Y-81676777D01*
X119730689Y-81761052D01*
X119700708Y-81836587D01*
X119676116Y-81900466D01*
X119658136Y-81949769D01*
X119647997Y-81981579D01*
X119646366Y-81992504D01*
X119659291Y-82006439D01*
X119687589Y-82029060D01*
X119725346Y-82055667D01*
X119728515Y-82057772D01*
X119826100Y-82135886D01*
X119904786Y-82227018D01*
X119963891Y-82328255D01*
X120002732Y-82436682D01*
X120020628Y-82549386D01*
X120016897Y-82663452D01*
X119990857Y-82775966D01*
X119941825Y-82884015D01*
X119927400Y-82907655D01*
X119852369Y-83003113D01*
X119763730Y-83079768D01*
X119664549Y-83137220D01*
X119557895Y-83175071D01*
X119446836Y-83192922D01*
X119334439Y-83190375D01*
X119223773Y-83167030D01*
X119117906Y-83122490D01*
X119019905Y-83056355D01*
X118989590Y-83029513D01*
X118912438Y-82945488D01*
X118856218Y-82857034D01*
X118817653Y-82757885D01*
X118796174Y-82659697D01*
X118790872Y-82549303D01*
X118808552Y-82438360D01*
X118847419Y-82330619D01*
X118905677Y-82229831D01*
X118981531Y-82139744D01*
X119073183Y-82064108D01*
X119085228Y-82056136D01*
X119123389Y-82030026D01*
X119152399Y-82007405D01*
X119166268Y-81992961D01*
X119166469Y-81992504D01*
X119163492Y-81976879D01*
X119151689Y-81941418D01*
X119132286Y-81889038D01*
X119106512Y-81822655D01*
X119075591Y-81745186D01*
X119040751Y-81659550D01*
X119003217Y-81568663D01*
X118964217Y-81475441D01*
X118924977Y-81382803D01*
X118886724Y-81293665D01*
X118850683Y-81210945D01*
X118818083Y-81137559D01*
X118790148Y-81076425D01*
X118768105Y-81030459D01*
X118753182Y-81002579D01*
X118747172Y-80995257D01*
X118728809Y-81000959D01*
X118694448Y-81016251D01*
X118650016Y-81038401D01*
X118625583Y-81051350D01*
X118521822Y-81107453D01*
X118398213Y-81023845D01*
X118335114Y-80981013D01*
X118266030Y-80933878D01*
X118201293Y-80889497D01*
X118168866Y-80867148D01*
X118123259Y-80836523D01*
X118084640Y-80812253D01*
X118058048Y-80797413D01*
X118049410Y-80794276D01*
X118036839Y-80802739D01*
X118009016Y-80826364D01*
X117968639Y-80862698D01*
X117918405Y-80909289D01*
X117861012Y-80963683D01*
X117824714Y-80998608D01*
X117761210Y-81061004D01*
X117706327Y-81116812D01*
X117662286Y-81163646D01*
X117631305Y-81199118D01*
X117615602Y-81220839D01*
X117614095Y-81225248D01*
X117621086Y-81242015D01*
X117640406Y-81275918D01*
X117669909Y-81323524D01*
X117707455Y-81381401D01*
X117750900Y-81446116D01*
X117763255Y-81464158D01*
X117808273Y-81529733D01*
X117848660Y-81588772D01*
X117882160Y-81637958D01*
X117906514Y-81673972D01*
X117919464Y-81693498D01*
X117920715Y-81695517D01*
X117918844Y-81711078D01*
X117908913Y-81745291D01*
X117892653Y-81793645D01*
X117871795Y-81851629D01*
X117848073Y-81914730D01*
X117823216Y-81978437D01*
X117798958Y-82038239D01*
X117777029Y-82089624D01*
X117759162Y-82128081D01*
X117747087Y-82149098D01*
X117746229Y-82150106D01*
X117738846Y-82156112D01*
X117726375Y-82162052D01*
X117706080Y-82168540D01*
X117675222Y-82176191D01*
X117631066Y-82185620D01*
X117570874Y-82197441D01*
X117491907Y-82212271D01*
X117391430Y-82230723D01*
X117369675Y-82234690D01*
X117305198Y-82247147D01*
X117248989Y-82259334D01*
X117206013Y-82270074D01*
X117181240Y-82278191D01*
X117177918Y-82280084D01*
X117172444Y-82296862D01*
X117167994Y-82334355D01*
X117164572Y-82388206D01*
X117162181Y-82454056D01*
X117160823Y-82527547D01*
X117160501Y-82604320D01*
X117161219Y-82680017D01*
X117162979Y-82750280D01*
X117165784Y-82810750D01*
X117169638Y-82857070D01*
X117174543Y-82884881D01*
X117177500Y-82890573D01*
X117193963Y-82896314D01*
X117231449Y-82905655D01*
X117286225Y-82917785D01*
X117354555Y-82931893D01*
X117432706Y-82947170D01*
X117475284Y-82955177D01*
X117556071Y-82970279D01*
X117628113Y-82983960D01*
X117687889Y-82995533D01*
X117731879Y-83004313D01*
X117756561Y-83009613D01*
X117760623Y-83010788D01*
X117767489Y-83024035D01*
X117782002Y-83055943D01*
X117802229Y-83101953D01*
X117826234Y-83157508D01*
X117852082Y-83218047D01*
X117877840Y-83279014D01*
X117901573Y-83335849D01*
X117921346Y-83383994D01*
X117935224Y-83418890D01*
X117941274Y-83435979D01*
X117941386Y-83436726D01*
X117934528Y-83450207D01*
X117915302Y-83481230D01*
X117885728Y-83526711D01*
X117847827Y-83583568D01*
X117803620Y-83648717D01*
X117777921Y-83686138D01*
X117731093Y-83754753D01*
X117689501Y-83817048D01*
X117655175Y-83869871D01*
X117630143Y-83910073D01*
X117616435Y-83934500D01*
X117614456Y-83939976D01*
X117622966Y-83952722D01*
X117646493Y-83979937D01*
X117682032Y-84018572D01*
X117726577Y-84065577D01*
X117777123Y-84117905D01*
X117830664Y-84172505D01*
X117884195Y-84226330D01*
X117934711Y-84276330D01*
X117979206Y-84319457D01*
X118014675Y-84352661D01*
X118038113Y-84372894D01*
X118045954Y-84377722D01*
X118058720Y-84370933D01*
X118089256Y-84351858D01*
X118134590Y-84322439D01*
X118191756Y-84284619D01*
X118257784Y-84240339D01*
X118307590Y-84206605D01*
X118559236Y-84035488D01*
X118768999Y-84121959D01*
X118978763Y-84208430D01*
X119035611Y-84509982D01*
X119092460Y-84811534D01*
X119720115Y-84811534D01*
X119776964Y-84509982D01*
G37*
X119776964Y-84509982D02*
X119833812Y-84208430D01*
X120253338Y-84035488D01*
X120504984Y-84206605D01*
X120575458Y-84254250D01*
X120639163Y-84296790D01*
X120693126Y-84332285D01*
X120734373Y-84358790D01*
X120759934Y-84374364D01*
X120766895Y-84377722D01*
X120779435Y-84369086D01*
X120806231Y-84345208D01*
X120844280Y-84309141D01*
X120890579Y-84263933D01*
X120942123Y-84212636D01*
X120995909Y-84158299D01*
X121048935Y-84103972D01*
X121098195Y-84052705D01*
X121140687Y-84007549D01*
X121173407Y-83971554D01*
X121193351Y-83947770D01*
X121198119Y-83939810D01*
X121191257Y-83925135D01*
X121172020Y-83892986D01*
X121142430Y-83846508D01*
X121104510Y-83788844D01*
X121060282Y-83723140D01*
X121034654Y-83685664D01*
X120987941Y-83617232D01*
X120946432Y-83555480D01*
X120912140Y-83503481D01*
X120887080Y-83464308D01*
X120873264Y-83441035D01*
X120871188Y-83436145D01*
X120875895Y-83422245D01*
X120888723Y-83389850D01*
X120907738Y-83343515D01*
X120931003Y-83287794D01*
X120956584Y-83227242D01*
X120982545Y-83166414D01*
X121006950Y-83109864D01*
X121027863Y-83062148D01*
X121043349Y-83027819D01*
X121051472Y-83011432D01*
X121051952Y-83010788D01*
X121064707Y-83007659D01*
X121098677Y-83000679D01*
X121150340Y-82990533D01*
X121216176Y-82977908D01*
X121292664Y-82963491D01*
X121337290Y-82955177D01*
X121419021Y-82939616D01*
X121492843Y-82924808D01*
X121555021Y-82911564D01*
X121601822Y-82900695D01*
X121629509Y-82893011D01*
X121635074Y-82890573D01*
X121640526Y-82874070D01*
X121644924Y-82836800D01*
X121648272Y-82783120D01*
X121650574Y-82717388D01*
X121651832Y-82643963D01*
X121652048Y-82567204D01*
X121651227Y-82491468D01*
X121649371Y-82421114D01*
X121646482Y-82360500D01*
X121642565Y-82313984D01*
X121637622Y-82285925D01*
X121634657Y-82280084D01*
X121616934Y-82273083D01*
X121579381Y-82263073D01*
X121526964Y-82251231D01*
X121464652Y-82238733D01*
X121442900Y-82234690D01*
X121338024Y-82215480D01*
X121255180Y-82200009D01*
X121191630Y-82187663D01*
X121144637Y-82177827D01*
X121111463Y-82169886D01*
X121089371Y-82163224D01*
X121075624Y-82157227D01*
X121067484Y-82151281D01*
X121066345Y-82150106D01*
X121054977Y-82131174D01*
X121037635Y-82094331D01*
X121016050Y-82044087D01*
X120991954Y-81984954D01*
X120967079Y-81921444D01*
X120943157Y-81858068D01*
X120921919Y-81799338D01*
X120905097Y-81749765D01*
X120894422Y-81713861D01*
X120891627Y-81696138D01*
X120891860Y-81695517D01*
X120901331Y-81681030D01*
X120922818Y-81649156D01*
X120954063Y-81603211D01*
X120992807Y-81546515D01*
X121036793Y-81482383D01*
X121049319Y-81464158D01*
X121093984Y-81398086D01*
X121133288Y-81337800D01*
X121165088Y-81286765D01*
X121187245Y-81248440D01*
X121197617Y-81226289D01*
X121198119Y-81223568D01*
X121189405Y-81209264D01*
X121165325Y-81180928D01*
X121128976Y-81141604D01*
X121083453Y-81094339D01*
X121031852Y-81042177D01*
X120977267Y-80988165D01*
X120922794Y-80935347D01*
X120871529Y-80886769D01*
X120826567Y-80845477D01*
X120791004Y-80814515D01*
X120767935Y-80796930D01*
X120761554Y-80794059D01*
X120746699Y-80800822D01*
X120716286Y-80819061D01*
X120675268Y-80845703D01*
X120643709Y-80867148D01*
X120586525Y-80906497D01*
X120518806Y-80952829D01*
X120450880Y-80999087D01*
X120414361Y-81023845D01*
X120290752Y-81107453D01*
X120186991Y-81051350D01*
X120139720Y-81026772D01*
X120099523Y-81007669D01*
X120072326Y-80996773D01*
X120065402Y-80995257D01*
X120057077Y-81006451D01*
X120040654Y-81038083D01*
X120017357Y-81087235D01*
X119988414Y-81150990D01*
X119955050Y-81226429D01*
X119918491Y-81310636D01*
X119879964Y-81400692D01*
X119840694Y-81493679D01*
X119801908Y-81586680D01*
X119764830Y-81676777D01*
X119730689Y-81761052D01*
X119700708Y-81836587D01*
X119676116Y-81900466D01*
X119658136Y-81949769D01*
X119647997Y-81981579D01*
X119646366Y-81992504D01*
X119659291Y-82006439D01*
X119687589Y-82029060D01*
X119725346Y-82055667D01*
X119728515Y-82057772D01*
X119826100Y-82135886D01*
X119904786Y-82227018D01*
X119963891Y-82328255D01*
X120002732Y-82436682D01*
X120020628Y-82549386D01*
X120016897Y-82663452D01*
X119990857Y-82775966D01*
X119941825Y-82884015D01*
X119927400Y-82907655D01*
X119852369Y-83003113D01*
X119763730Y-83079768D01*
X119664549Y-83137220D01*
X119557895Y-83175071D01*
X119446836Y-83192922D01*
X119334439Y-83190375D01*
X119223773Y-83167030D01*
X119117906Y-83122490D01*
X119019905Y-83056355D01*
X118989590Y-83029513D01*
X118912438Y-82945488D01*
X118856218Y-82857034D01*
X118817653Y-82757885D01*
X118796174Y-82659697D01*
X118790872Y-82549303D01*
X118808552Y-82438360D01*
X118847419Y-82330619D01*
X118905677Y-82229831D01*
X118981531Y-82139744D01*
X119073183Y-82064108D01*
X119085228Y-82056136D01*
X119123389Y-82030026D01*
X119152399Y-82007405D01*
X119166268Y-81992961D01*
X119166469Y-81992504D01*
X119163492Y-81976879D01*
X119151689Y-81941418D01*
X119132286Y-81889038D01*
X119106512Y-81822655D01*
X119075591Y-81745186D01*
X119040751Y-81659550D01*
X119003217Y-81568663D01*
X118964217Y-81475441D01*
X118924977Y-81382803D01*
X118886724Y-81293665D01*
X118850683Y-81210945D01*
X118818083Y-81137559D01*
X118790148Y-81076425D01*
X118768105Y-81030459D01*
X118753182Y-81002579D01*
X118747172Y-80995257D01*
X118728809Y-81000959D01*
X118694448Y-81016251D01*
X118650016Y-81038401D01*
X118625583Y-81051350D01*
X118521822Y-81107453D01*
X118398213Y-81023845D01*
X118335114Y-80981013D01*
X118266030Y-80933878D01*
X118201293Y-80889497D01*
X118168866Y-80867148D01*
X118123259Y-80836523D01*
X118084640Y-80812253D01*
X118058048Y-80797413D01*
X118049410Y-80794276D01*
X118036839Y-80802739D01*
X118009016Y-80826364D01*
X117968639Y-80862698D01*
X117918405Y-80909289D01*
X117861012Y-80963683D01*
X117824714Y-80998608D01*
X117761210Y-81061004D01*
X117706327Y-81116812D01*
X117662286Y-81163646D01*
X117631305Y-81199118D01*
X117615602Y-81220839D01*
X117614095Y-81225248D01*
X117621086Y-81242015D01*
X117640406Y-81275918D01*
X117669909Y-81323524D01*
X117707455Y-81381401D01*
X117750900Y-81446116D01*
X117763255Y-81464158D01*
X117808273Y-81529733D01*
X117848660Y-81588772D01*
X117882160Y-81637958D01*
X117906514Y-81673972D01*
X117919464Y-81693498D01*
X117920715Y-81695517D01*
X117918844Y-81711078D01*
X117908913Y-81745291D01*
X117892653Y-81793645D01*
X117871795Y-81851629D01*
X117848073Y-81914730D01*
X117823216Y-81978437D01*
X117798958Y-82038239D01*
X117777029Y-82089624D01*
X117759162Y-82128081D01*
X117747087Y-82149098D01*
X117746229Y-82150106D01*
X117738846Y-82156112D01*
X117726375Y-82162052D01*
X117706080Y-82168540D01*
X117675222Y-82176191D01*
X117631066Y-82185620D01*
X117570874Y-82197441D01*
X117491907Y-82212271D01*
X117391430Y-82230723D01*
X117369675Y-82234690D01*
X117305198Y-82247147D01*
X117248989Y-82259334D01*
X117206013Y-82270074D01*
X117181240Y-82278191D01*
X117177918Y-82280084D01*
X117172444Y-82296862D01*
X117167994Y-82334355D01*
X117164572Y-82388206D01*
X117162181Y-82454056D01*
X117160823Y-82527547D01*
X117160501Y-82604320D01*
X117161219Y-82680017D01*
X117162979Y-82750280D01*
X117165784Y-82810750D01*
X117169638Y-82857070D01*
X117174543Y-82884881D01*
X117177500Y-82890573D01*
X117193963Y-82896314D01*
X117231449Y-82905655D01*
X117286225Y-82917785D01*
X117354555Y-82931893D01*
X117432706Y-82947170D01*
X117475284Y-82955177D01*
X117556071Y-82970279D01*
X117628113Y-82983960D01*
X117687889Y-82995533D01*
X117731879Y-83004313D01*
X117756561Y-83009613D01*
X117760623Y-83010788D01*
X117767489Y-83024035D01*
X117782002Y-83055943D01*
X117802229Y-83101953D01*
X117826234Y-83157508D01*
X117852082Y-83218047D01*
X117877840Y-83279014D01*
X117901573Y-83335849D01*
X117921346Y-83383994D01*
X117935224Y-83418890D01*
X117941274Y-83435979D01*
X117941386Y-83436726D01*
X117934528Y-83450207D01*
X117915302Y-83481230D01*
X117885728Y-83526711D01*
X117847827Y-83583568D01*
X117803620Y-83648717D01*
X117777921Y-83686138D01*
X117731093Y-83754753D01*
X117689501Y-83817048D01*
X117655175Y-83869871D01*
X117630143Y-83910073D01*
X117616435Y-83934500D01*
X117614456Y-83939976D01*
X117622966Y-83952722D01*
X117646493Y-83979937D01*
X117682032Y-84018572D01*
X117726577Y-84065577D01*
X117777123Y-84117905D01*
X117830664Y-84172505D01*
X117884195Y-84226330D01*
X117934711Y-84276330D01*
X117979206Y-84319457D01*
X118014675Y-84352661D01*
X118038113Y-84372894D01*
X118045954Y-84377722D01*
X118058720Y-84370933D01*
X118089256Y-84351858D01*
X118134590Y-84322439D01*
X118191756Y-84284619D01*
X118257784Y-84240339D01*
X118307590Y-84206605D01*
X118559236Y-84035488D01*
X118768999Y-84121959D01*
X118978763Y-84208430D01*
X119035611Y-84509982D01*
X119092460Y-84811534D01*
X119720115Y-84811534D01*
X119776964Y-84509982D01*
D12*
%TO.C,J1*%
X104070000Y-76700000D02*
X104070000Y-78030000D01*
X104070000Y-78030000D02*
X105400000Y-78030000D01*
X104070000Y-75430000D02*
X106670000Y-75430000D01*
X106670000Y-75430000D02*
X106670000Y-78030000D01*
X106670000Y-78030000D02*
X124510000Y-78030000D01*
X124510000Y-72830000D02*
X124510000Y-78030000D01*
X104070000Y-72830000D02*
X124510000Y-72830000D01*
X104070000Y-72830000D02*
X104070000Y-75430000D01*
D10*
X102356190Y-75263333D02*
X102713333Y-75263333D01*
X102784761Y-75239523D01*
X102832380Y-75191904D01*
X102856190Y-75120476D01*
X102856190Y-75072857D01*
X102856190Y-75763333D02*
X102856190Y-75477619D01*
X102856190Y-75620476D02*
X102356190Y-75620476D01*
X102427619Y-75572857D01*
X102475238Y-75525238D01*
X102499047Y-75477619D01*
%TD*%
M02*
