%TF.GenerationSoftware,KiCad,Pcbnew,(5.1.7)-1*%
%TF.CreationDate,2021-01-13T16:49:05-03:00*%
%TF.ProjectId,Raspberry Pi Hat,52617370-6265-4727-9279-205069204861,-*%
%TF.SameCoordinates,Original*%
%TF.FileFunction,Copper,L2,Bot*%
%TF.FilePolarity,Positive*%
%FSLAX46Y46*%
G04 Gerber Fmt 4.6, Leading zero omitted, Abs format (unit mm)*
G04 Created by KiCad (PCBNEW (5.1.7)-1) date 2021-01-13 16:49:05*
%MOMM*%
%LPD*%
G01*
G04 APERTURE LIST*
%TA.AperFunction,ComponentPad*%
%ADD10C,2.000000*%
%TD*%
%TA.AperFunction,ComponentPad*%
%ADD11R,1.700000X1.700000*%
%TD*%
%TA.AperFunction,ComponentPad*%
%ADD12O,1.700000X1.700000*%
%TD*%
%TA.AperFunction,ComponentPad*%
%ADD13R,1.500000X1.500000*%
%TD*%
%TA.AperFunction,ComponentPad*%
%ADD14C,1.500000*%
%TD*%
%TA.AperFunction,ViaPad*%
%ADD15C,1.000000*%
%TD*%
%TA.AperFunction,ViaPad*%
%ADD16C,0.800000*%
%TD*%
%TA.AperFunction,Conductor*%
%ADD17C,0.300000*%
%TD*%
%TA.AperFunction,Conductor*%
%ADD18C,0.254000*%
%TD*%
%TA.AperFunction,Conductor*%
%ADD19C,0.100000*%
%TD*%
G04 APERTURE END LIST*
D10*
%TO.P,SW1,1*%
%TO.N,/3V3*%
X111400000Y-83800000D03*
%TO.P,SW1,2*%
%TO.N,/BUTTON*%
X111400000Y-88300000D03*
%TO.P,SW1,1*%
%TO.N,/3V3*%
X104900000Y-83800000D03*
%TO.P,SW1,2*%
%TO.N,/BUTTON*%
X104900000Y-88300000D03*
%TD*%
D11*
%TO.P,J1,1*%
%TO.N,/3V3*%
X105400000Y-76700000D03*
D12*
%TO.P,J1,2*%
%TO.N,N/C*%
X105400000Y-74160000D03*
%TO.P,J1,3*%
X107940000Y-76700000D03*
%TO.P,J1,4*%
X107940000Y-74160000D03*
%TO.P,J1,5*%
X110480000Y-76700000D03*
%TO.P,J1,6*%
%TO.N,GND*%
X110480000Y-74160000D03*
%TO.P,J1,7*%
%TO.N,Net-(J1-Pad7)*%
X113020000Y-76700000D03*
%TO.P,J1,8*%
%TO.N,/BUTTON*%
X113020000Y-74160000D03*
%TO.P,J1,9*%
%TO.N,GND*%
X115560000Y-76700000D03*
%TO.P,J1,10*%
%TO.N,N/C*%
X115560000Y-74160000D03*
%TO.P,J1,11*%
%TO.N,/DHT*%
X118100000Y-76700000D03*
%TO.P,J1,12*%
%TO.N,N/C*%
X118100000Y-74160000D03*
%TO.P,J1,13*%
X120640000Y-76700000D03*
%TO.P,J1,14*%
%TO.N,GND*%
X120640000Y-74160000D03*
%TO.P,J1,15*%
%TO.N,N/C*%
X123180000Y-76700000D03*
%TO.P,J1,16*%
X123180000Y-74160000D03*
%TD*%
D13*
%TO.P,U1,1*%
%TO.N,/3V3*%
X123300000Y-86800000D03*
D14*
%TO.P,U1,2*%
%TO.N,/DHT*%
X120760000Y-86800000D03*
%TO.P,U1,3*%
%TO.N,N/C*%
X118220000Y-86800000D03*
%TO.P,U1,4*%
%TO.N,GND*%
X115680000Y-86800000D03*
%TD*%
D15*
%TO.N,GND*%
X109200000Y-75500000D03*
X107800000Y-79900000D03*
D16*
%TO.N,Net-(J1-Pad7)*%
X114200000Y-78500000D03*
X116600000Y-81300000D03*
%TO.N,/DHT*%
X110100000Y-81500000D03*
%TO.N,/BUTTON*%
X108200000Y-86100000D03*
X104200000Y-81500000D03*
%TD*%
D17*
%TO.N,GND*%
X109240001Y-75459999D02*
X109200000Y-75500000D01*
X109240001Y-73535999D02*
X109240001Y-75459999D01*
X108564001Y-72859999D02*
X109240001Y-73535999D01*
X104775999Y-72859999D02*
X108564001Y-72859999D01*
X104099999Y-73535999D02*
X104775999Y-72859999D01*
X104099999Y-77910001D02*
X104099999Y-73535999D01*
X106089998Y-79900000D02*
X104099999Y-77910001D01*
X107800000Y-79900000D02*
X106089998Y-79900000D01*
%TO.N,Net-(J1-Pad7)*%
X116600000Y-80900000D02*
X116600000Y-81300000D01*
X114200000Y-78500000D02*
X116600000Y-80900000D01*
%TO.N,/BUTTON*%
X104200000Y-81500000D02*
X106100000Y-81500000D01*
X108200000Y-83600000D02*
X108200000Y-86100000D01*
X106100000Y-81500000D02*
X108200000Y-83600000D01*
%TO.N,/DHT*%
X115460000Y-81500000D02*
X120760000Y-86800000D01*
X110100000Y-81500000D02*
X115460000Y-81500000D01*
%TD*%
D18*
%TO.N,GND*%
X104696589Y-72844010D02*
X104453368Y-73006525D01*
X104246525Y-73213368D01*
X104084010Y-73456589D01*
X103972068Y-73726842D01*
X103915000Y-74013740D01*
X103915000Y-74306260D01*
X103972068Y-74593158D01*
X104084010Y-74863411D01*
X104246525Y-75106632D01*
X104378380Y-75238487D01*
X104305820Y-75260498D01*
X104195506Y-75319463D01*
X104098815Y-75398815D01*
X104019463Y-75495506D01*
X103960498Y-75605820D01*
X103924188Y-75725518D01*
X103911928Y-75850000D01*
X103911928Y-77550000D01*
X103924188Y-77674482D01*
X103960498Y-77794180D01*
X104019463Y-77904494D01*
X104098815Y-78001185D01*
X104195506Y-78080537D01*
X104305820Y-78139502D01*
X104425518Y-78175812D01*
X104550000Y-78188072D01*
X106250000Y-78188072D01*
X106374482Y-78175812D01*
X106494180Y-78139502D01*
X106604494Y-78080537D01*
X106701185Y-78001185D01*
X106780537Y-77904494D01*
X106839502Y-77794180D01*
X106861513Y-77721620D01*
X106993368Y-77853475D01*
X107236589Y-78015990D01*
X107506842Y-78127932D01*
X107793740Y-78185000D01*
X108086260Y-78185000D01*
X108373158Y-78127932D01*
X108643411Y-78015990D01*
X108886632Y-77853475D01*
X109093475Y-77646632D01*
X109210000Y-77472240D01*
X109326525Y-77646632D01*
X109533368Y-77853475D01*
X109776589Y-78015990D01*
X110046842Y-78127932D01*
X110333740Y-78185000D01*
X110626260Y-78185000D01*
X110913158Y-78127932D01*
X111183411Y-78015990D01*
X111426632Y-77853475D01*
X111633475Y-77646632D01*
X111750000Y-77472240D01*
X111866525Y-77646632D01*
X112073368Y-77853475D01*
X112316589Y-78015990D01*
X112586842Y-78127932D01*
X112873740Y-78185000D01*
X113166260Y-78185000D01*
X113214147Y-78175475D01*
X113204774Y-78198102D01*
X113165000Y-78398061D01*
X113165000Y-78601939D01*
X113204774Y-78801898D01*
X113282795Y-78990256D01*
X113396063Y-79159774D01*
X113540226Y-79303937D01*
X113709744Y-79417205D01*
X113898102Y-79495226D01*
X114098061Y-79535000D01*
X114124843Y-79535000D01*
X115304843Y-80715000D01*
X110778711Y-80715000D01*
X110759774Y-80696063D01*
X110590256Y-80582795D01*
X110401898Y-80504774D01*
X110201939Y-80465000D01*
X109998061Y-80465000D01*
X109798102Y-80504774D01*
X109609744Y-80582795D01*
X109440226Y-80696063D01*
X109296063Y-80840226D01*
X109182795Y-81009744D01*
X109104774Y-81198102D01*
X109065000Y-81398061D01*
X109065000Y-81601939D01*
X109104774Y-81801898D01*
X109182795Y-81990256D01*
X109296063Y-82159774D01*
X109440226Y-82303937D01*
X109609744Y-82417205D01*
X109798102Y-82495226D01*
X109998061Y-82535000D01*
X110201939Y-82535000D01*
X110401898Y-82495226D01*
X110422716Y-82486603D01*
X110357748Y-82530013D01*
X110130013Y-82757748D01*
X109951082Y-83025537D01*
X109827832Y-83323088D01*
X109765000Y-83638967D01*
X109765000Y-83961033D01*
X109827832Y-84276912D01*
X109951082Y-84574463D01*
X110130013Y-84842252D01*
X110357748Y-85069987D01*
X110625537Y-85248918D01*
X110923088Y-85372168D01*
X111238967Y-85435000D01*
X111561033Y-85435000D01*
X111876912Y-85372168D01*
X112174463Y-85248918D01*
X112442252Y-85069987D01*
X112669987Y-84842252D01*
X112848918Y-84574463D01*
X112972168Y-84276912D01*
X113035000Y-83961033D01*
X113035000Y-83638967D01*
X112972168Y-83323088D01*
X112848918Y-83025537D01*
X112669987Y-82757748D01*
X112442252Y-82530013D01*
X112174463Y-82351082D01*
X112014927Y-82285000D01*
X115134843Y-82285000D01*
X118264843Y-85415000D01*
X118083589Y-85415000D01*
X117816011Y-85468225D01*
X117563957Y-85572629D01*
X117337114Y-85724201D01*
X117144201Y-85917114D01*
X116992629Y-86143957D01*
X116951489Y-86243279D01*
X116936277Y-86201168D01*
X116875860Y-86088137D01*
X116636993Y-86022612D01*
X115859605Y-86800000D01*
X116636993Y-87577388D01*
X116875860Y-87511863D01*
X116950164Y-87353523D01*
X116992629Y-87456043D01*
X117144201Y-87682886D01*
X117337114Y-87875799D01*
X117563957Y-88027371D01*
X117816011Y-88131775D01*
X118083589Y-88185000D01*
X118356411Y-88185000D01*
X118623989Y-88131775D01*
X118876043Y-88027371D01*
X119102886Y-87875799D01*
X119295799Y-87682886D01*
X119447371Y-87456043D01*
X119490000Y-87353127D01*
X119532629Y-87456043D01*
X119684201Y-87682886D01*
X119877114Y-87875799D01*
X120103957Y-88027371D01*
X120356011Y-88131775D01*
X120623589Y-88185000D01*
X120896411Y-88185000D01*
X121163989Y-88131775D01*
X121416043Y-88027371D01*
X121642886Y-87875799D01*
X121835799Y-87682886D01*
X121913555Y-87566517D01*
X121924188Y-87674482D01*
X121960498Y-87794180D01*
X122019463Y-87904494D01*
X122098815Y-88001185D01*
X122195506Y-88080537D01*
X122305820Y-88139502D01*
X122425518Y-88175812D01*
X122550000Y-88188072D01*
X124050000Y-88188072D01*
X124174482Y-88175812D01*
X124294180Y-88139502D01*
X124404494Y-88080537D01*
X124501185Y-88001185D01*
X124580537Y-87904494D01*
X124639502Y-87794180D01*
X124675812Y-87674482D01*
X124688072Y-87550000D01*
X124688072Y-86050000D01*
X124675812Y-85925518D01*
X124639502Y-85805820D01*
X124580537Y-85695506D01*
X124501185Y-85598815D01*
X124404494Y-85519463D01*
X124294180Y-85460498D01*
X124174482Y-85424188D01*
X124050000Y-85411928D01*
X122550000Y-85411928D01*
X122425518Y-85424188D01*
X122305820Y-85460498D01*
X122195506Y-85519463D01*
X122098815Y-85598815D01*
X122019463Y-85695506D01*
X121960498Y-85805820D01*
X121924188Y-85925518D01*
X121913555Y-86033483D01*
X121835799Y-85917114D01*
X121642886Y-85724201D01*
X121416043Y-85572629D01*
X121163989Y-85468225D01*
X120896411Y-85415000D01*
X120623589Y-85415000D01*
X120508125Y-85437968D01*
X117208413Y-82138256D01*
X117259774Y-82103937D01*
X117403937Y-81959774D01*
X117517205Y-81790256D01*
X117595226Y-81601898D01*
X117635000Y-81401939D01*
X117635000Y-81198061D01*
X117595226Y-80998102D01*
X117517205Y-80809744D01*
X117403937Y-80640226D01*
X117290750Y-80527039D01*
X117255862Y-80461767D01*
X117157764Y-80342236D01*
X117127811Y-80317654D01*
X115235000Y-78424843D01*
X115235000Y-78398061D01*
X115195226Y-78198102D01*
X115167267Y-78130604D01*
X115203110Y-78141476D01*
X115433000Y-78020155D01*
X115433000Y-76827000D01*
X115413000Y-76827000D01*
X115413000Y-76573000D01*
X115433000Y-76573000D01*
X115433000Y-76553000D01*
X115687000Y-76553000D01*
X115687000Y-76573000D01*
X115707000Y-76573000D01*
X115707000Y-76827000D01*
X115687000Y-76827000D01*
X115687000Y-78020155D01*
X115916890Y-78141476D01*
X116064099Y-78096825D01*
X116326920Y-77971641D01*
X116560269Y-77797588D01*
X116755178Y-77581355D01*
X116824805Y-77464466D01*
X116946525Y-77646632D01*
X117153368Y-77853475D01*
X117396589Y-78015990D01*
X117666842Y-78127932D01*
X117953740Y-78185000D01*
X118246260Y-78185000D01*
X118533158Y-78127932D01*
X118803411Y-78015990D01*
X119046632Y-77853475D01*
X119253475Y-77646632D01*
X119370000Y-77472240D01*
X119486525Y-77646632D01*
X119693368Y-77853475D01*
X119936589Y-78015990D01*
X120206842Y-78127932D01*
X120493740Y-78185000D01*
X120786260Y-78185000D01*
X121073158Y-78127932D01*
X121343411Y-78015990D01*
X121586632Y-77853475D01*
X121793475Y-77646632D01*
X121910000Y-77472240D01*
X122026525Y-77646632D01*
X122233368Y-77853475D01*
X122476589Y-78015990D01*
X122746842Y-78127932D01*
X123033740Y-78185000D01*
X123326260Y-78185000D01*
X123613158Y-78127932D01*
X123883411Y-78015990D01*
X124126632Y-77853475D01*
X124333475Y-77646632D01*
X124495990Y-77403411D01*
X124607932Y-77133158D01*
X124665000Y-76846260D01*
X124665000Y-76553740D01*
X124607932Y-76266842D01*
X124495990Y-75996589D01*
X124333475Y-75753368D01*
X124126632Y-75546525D01*
X123952240Y-75430000D01*
X124126632Y-75313475D01*
X124333475Y-75106632D01*
X124495990Y-74863411D01*
X124607932Y-74593158D01*
X124665000Y-74306260D01*
X124665000Y-74013740D01*
X124607932Y-73726842D01*
X124495990Y-73456589D01*
X124333475Y-73213368D01*
X124126632Y-73006525D01*
X123883411Y-72844010D01*
X123680592Y-72760000D01*
X125440000Y-72760000D01*
X125440001Y-89340000D01*
X112671492Y-89340000D01*
X112848918Y-89074463D01*
X112972168Y-88776912D01*
X113035000Y-88461033D01*
X113035000Y-88138967D01*
X112972168Y-87823088D01*
X112944791Y-87756993D01*
X114902612Y-87756993D01*
X114968137Y-87995860D01*
X115215116Y-88111760D01*
X115479960Y-88177250D01*
X115752492Y-88189812D01*
X116022238Y-88148965D01*
X116278832Y-88056277D01*
X116391863Y-87995860D01*
X116457388Y-87756993D01*
X115680000Y-86979605D01*
X114902612Y-87756993D01*
X112944791Y-87756993D01*
X112848918Y-87525537D01*
X112669987Y-87257748D01*
X112442252Y-87030013D01*
X112206506Y-86872492D01*
X114290188Y-86872492D01*
X114331035Y-87142238D01*
X114423723Y-87398832D01*
X114484140Y-87511863D01*
X114723007Y-87577388D01*
X115500395Y-86800000D01*
X114723007Y-86022612D01*
X114484140Y-86088137D01*
X114368240Y-86335116D01*
X114302750Y-86599960D01*
X114290188Y-86872492D01*
X112206506Y-86872492D01*
X112174463Y-86851082D01*
X111876912Y-86727832D01*
X111561033Y-86665000D01*
X111238967Y-86665000D01*
X110923088Y-86727832D01*
X110625537Y-86851082D01*
X110357748Y-87030013D01*
X110130013Y-87257748D01*
X109951082Y-87525537D01*
X109827832Y-87823088D01*
X109765000Y-88138967D01*
X109765000Y-88461033D01*
X109827832Y-88776912D01*
X109951082Y-89074463D01*
X110128508Y-89340000D01*
X106171492Y-89340000D01*
X106348918Y-89074463D01*
X106472168Y-88776912D01*
X106535000Y-88461033D01*
X106535000Y-88138967D01*
X106472168Y-87823088D01*
X106348918Y-87525537D01*
X106169987Y-87257748D01*
X105942252Y-87030013D01*
X105674463Y-86851082D01*
X105376912Y-86727832D01*
X105061033Y-86665000D01*
X104738967Y-86665000D01*
X104423088Y-86727832D01*
X104125537Y-86851082D01*
X103860000Y-87028508D01*
X103860000Y-85071492D01*
X104125537Y-85248918D01*
X104423088Y-85372168D01*
X104738967Y-85435000D01*
X105061033Y-85435000D01*
X105376912Y-85372168D01*
X105674463Y-85248918D01*
X105942252Y-85069987D01*
X106169987Y-84842252D01*
X106348918Y-84574463D01*
X106472168Y-84276912D01*
X106535000Y-83961033D01*
X106535000Y-83638967D01*
X106472168Y-83323088D01*
X106348918Y-83025537D01*
X106169987Y-82757748D01*
X105942252Y-82530013D01*
X105674463Y-82351082D01*
X105514927Y-82285000D01*
X105774843Y-82285000D01*
X107415000Y-83925158D01*
X107415001Y-85421288D01*
X107396063Y-85440226D01*
X107282795Y-85609744D01*
X107204774Y-85798102D01*
X107165000Y-85998061D01*
X107165000Y-86201939D01*
X107204774Y-86401898D01*
X107282795Y-86590256D01*
X107396063Y-86759774D01*
X107540226Y-86903937D01*
X107709744Y-87017205D01*
X107898102Y-87095226D01*
X108098061Y-87135000D01*
X108301939Y-87135000D01*
X108501898Y-87095226D01*
X108690256Y-87017205D01*
X108859774Y-86903937D01*
X109003937Y-86759774D01*
X109117205Y-86590256D01*
X109195226Y-86401898D01*
X109235000Y-86201939D01*
X109235000Y-85998061D01*
X109204159Y-85843007D01*
X114902612Y-85843007D01*
X115680000Y-86620395D01*
X116457388Y-85843007D01*
X116391863Y-85604140D01*
X116144884Y-85488240D01*
X115880040Y-85422750D01*
X115607508Y-85410188D01*
X115337762Y-85451035D01*
X115081168Y-85543723D01*
X114968137Y-85604140D01*
X114902612Y-85843007D01*
X109204159Y-85843007D01*
X109195226Y-85798102D01*
X109117205Y-85609744D01*
X109003937Y-85440226D01*
X108985000Y-85421289D01*
X108985000Y-83638552D01*
X108988797Y-83599999D01*
X108985000Y-83561446D01*
X108985000Y-83561439D01*
X108973641Y-83446113D01*
X108928754Y-83298140D01*
X108855862Y-83161767D01*
X108757764Y-83042236D01*
X108727817Y-83017659D01*
X106682347Y-80972190D01*
X106657764Y-80942236D01*
X106538233Y-80844138D01*
X106401860Y-80771246D01*
X106253887Y-80726359D01*
X106138561Y-80715000D01*
X106138553Y-80715000D01*
X106100000Y-80711203D01*
X106061447Y-80715000D01*
X104878711Y-80715000D01*
X104859774Y-80696063D01*
X104690256Y-80582795D01*
X104501898Y-80504774D01*
X104301939Y-80465000D01*
X104098061Y-80465000D01*
X103898102Y-80504774D01*
X103860000Y-80520556D01*
X103860000Y-78967581D01*
X103857271Y-78939877D01*
X103857279Y-78938789D01*
X103856380Y-78929618D01*
X103854488Y-78911619D01*
X103850450Y-78870617D01*
X103843359Y-78847242D01*
X103840276Y-78832222D01*
X103829064Y-78773443D01*
X103826400Y-78764621D01*
X103814858Y-78727334D01*
X103791686Y-78672208D01*
X103769271Y-78616727D01*
X103764944Y-78608591D01*
X103764943Y-78608588D01*
X103764940Y-78608583D01*
X103746379Y-78574254D01*
X103712928Y-78524661D01*
X103680165Y-78474594D01*
X103674340Y-78467453D01*
X103649459Y-78437378D01*
X103607020Y-78395235D01*
X103565162Y-78352492D01*
X103558061Y-78346618D01*
X103527812Y-78321949D01*
X103478042Y-78288883D01*
X103428638Y-78255054D01*
X103420531Y-78250672D01*
X103386067Y-78232347D01*
X103330785Y-78209561D01*
X103275782Y-78185986D01*
X103266979Y-78183261D01*
X103229612Y-78171979D01*
X103170927Y-78160359D01*
X103151175Y-78156161D01*
X103129383Y-78149550D01*
X103105888Y-78147236D01*
X103103252Y-78146959D01*
X103064405Y-78143150D01*
X103064402Y-78143150D01*
X103032419Y-78140000D01*
X98460000Y-78140000D01*
X98460000Y-76728140D01*
X98717023Y-76985163D01*
X99072355Y-77222588D01*
X99467179Y-77386130D01*
X99886323Y-77469503D01*
X100313677Y-77469503D01*
X100732821Y-77386130D01*
X101127645Y-77222588D01*
X101482977Y-76985163D01*
X101785163Y-76682977D01*
X102022588Y-76327645D01*
X102186130Y-75932821D01*
X102269503Y-75513677D01*
X102269503Y-75086323D01*
X102186130Y-74667179D01*
X102022588Y-74272355D01*
X101785163Y-73917023D01*
X101482977Y-73614837D01*
X101127645Y-73377412D01*
X100732821Y-73213870D01*
X100313677Y-73130497D01*
X99886323Y-73130497D01*
X99467179Y-73213870D01*
X99072355Y-73377412D01*
X98717023Y-73614837D01*
X98460000Y-73871860D01*
X98460000Y-72760000D01*
X104899408Y-72760000D01*
X104696589Y-72844010D01*
%TA.AperFunction,Conductor*%
D19*
G36*
X104696589Y-72844010D02*
G01*
X104453368Y-73006525D01*
X104246525Y-73213368D01*
X104084010Y-73456589D01*
X103972068Y-73726842D01*
X103915000Y-74013740D01*
X103915000Y-74306260D01*
X103972068Y-74593158D01*
X104084010Y-74863411D01*
X104246525Y-75106632D01*
X104378380Y-75238487D01*
X104305820Y-75260498D01*
X104195506Y-75319463D01*
X104098815Y-75398815D01*
X104019463Y-75495506D01*
X103960498Y-75605820D01*
X103924188Y-75725518D01*
X103911928Y-75850000D01*
X103911928Y-77550000D01*
X103924188Y-77674482D01*
X103960498Y-77794180D01*
X104019463Y-77904494D01*
X104098815Y-78001185D01*
X104195506Y-78080537D01*
X104305820Y-78139502D01*
X104425518Y-78175812D01*
X104550000Y-78188072D01*
X106250000Y-78188072D01*
X106374482Y-78175812D01*
X106494180Y-78139502D01*
X106604494Y-78080537D01*
X106701185Y-78001185D01*
X106780537Y-77904494D01*
X106839502Y-77794180D01*
X106861513Y-77721620D01*
X106993368Y-77853475D01*
X107236589Y-78015990D01*
X107506842Y-78127932D01*
X107793740Y-78185000D01*
X108086260Y-78185000D01*
X108373158Y-78127932D01*
X108643411Y-78015990D01*
X108886632Y-77853475D01*
X109093475Y-77646632D01*
X109210000Y-77472240D01*
X109326525Y-77646632D01*
X109533368Y-77853475D01*
X109776589Y-78015990D01*
X110046842Y-78127932D01*
X110333740Y-78185000D01*
X110626260Y-78185000D01*
X110913158Y-78127932D01*
X111183411Y-78015990D01*
X111426632Y-77853475D01*
X111633475Y-77646632D01*
X111750000Y-77472240D01*
X111866525Y-77646632D01*
X112073368Y-77853475D01*
X112316589Y-78015990D01*
X112586842Y-78127932D01*
X112873740Y-78185000D01*
X113166260Y-78185000D01*
X113214147Y-78175475D01*
X113204774Y-78198102D01*
X113165000Y-78398061D01*
X113165000Y-78601939D01*
X113204774Y-78801898D01*
X113282795Y-78990256D01*
X113396063Y-79159774D01*
X113540226Y-79303937D01*
X113709744Y-79417205D01*
X113898102Y-79495226D01*
X114098061Y-79535000D01*
X114124843Y-79535000D01*
X115304843Y-80715000D01*
X110778711Y-80715000D01*
X110759774Y-80696063D01*
X110590256Y-80582795D01*
X110401898Y-80504774D01*
X110201939Y-80465000D01*
X109998061Y-80465000D01*
X109798102Y-80504774D01*
X109609744Y-80582795D01*
X109440226Y-80696063D01*
X109296063Y-80840226D01*
X109182795Y-81009744D01*
X109104774Y-81198102D01*
X109065000Y-81398061D01*
X109065000Y-81601939D01*
X109104774Y-81801898D01*
X109182795Y-81990256D01*
X109296063Y-82159774D01*
X109440226Y-82303937D01*
X109609744Y-82417205D01*
X109798102Y-82495226D01*
X109998061Y-82535000D01*
X110201939Y-82535000D01*
X110401898Y-82495226D01*
X110422716Y-82486603D01*
X110357748Y-82530013D01*
X110130013Y-82757748D01*
X109951082Y-83025537D01*
X109827832Y-83323088D01*
X109765000Y-83638967D01*
X109765000Y-83961033D01*
X109827832Y-84276912D01*
X109951082Y-84574463D01*
X110130013Y-84842252D01*
X110357748Y-85069987D01*
X110625537Y-85248918D01*
X110923088Y-85372168D01*
X111238967Y-85435000D01*
X111561033Y-85435000D01*
X111876912Y-85372168D01*
X112174463Y-85248918D01*
X112442252Y-85069987D01*
X112669987Y-84842252D01*
X112848918Y-84574463D01*
X112972168Y-84276912D01*
X113035000Y-83961033D01*
X113035000Y-83638967D01*
X112972168Y-83323088D01*
X112848918Y-83025537D01*
X112669987Y-82757748D01*
X112442252Y-82530013D01*
X112174463Y-82351082D01*
X112014927Y-82285000D01*
X115134843Y-82285000D01*
X118264843Y-85415000D01*
X118083589Y-85415000D01*
X117816011Y-85468225D01*
X117563957Y-85572629D01*
X117337114Y-85724201D01*
X117144201Y-85917114D01*
X116992629Y-86143957D01*
X116951489Y-86243279D01*
X116936277Y-86201168D01*
X116875860Y-86088137D01*
X116636993Y-86022612D01*
X115859605Y-86800000D01*
X116636993Y-87577388D01*
X116875860Y-87511863D01*
X116950164Y-87353523D01*
X116992629Y-87456043D01*
X117144201Y-87682886D01*
X117337114Y-87875799D01*
X117563957Y-88027371D01*
X117816011Y-88131775D01*
X118083589Y-88185000D01*
X118356411Y-88185000D01*
X118623989Y-88131775D01*
X118876043Y-88027371D01*
X119102886Y-87875799D01*
X119295799Y-87682886D01*
X119447371Y-87456043D01*
X119490000Y-87353127D01*
X119532629Y-87456043D01*
X119684201Y-87682886D01*
X119877114Y-87875799D01*
X120103957Y-88027371D01*
X120356011Y-88131775D01*
X120623589Y-88185000D01*
X120896411Y-88185000D01*
X121163989Y-88131775D01*
X121416043Y-88027371D01*
X121642886Y-87875799D01*
X121835799Y-87682886D01*
X121913555Y-87566517D01*
X121924188Y-87674482D01*
X121960498Y-87794180D01*
X122019463Y-87904494D01*
X122098815Y-88001185D01*
X122195506Y-88080537D01*
X122305820Y-88139502D01*
X122425518Y-88175812D01*
X122550000Y-88188072D01*
X124050000Y-88188072D01*
X124174482Y-88175812D01*
X124294180Y-88139502D01*
X124404494Y-88080537D01*
X124501185Y-88001185D01*
X124580537Y-87904494D01*
X124639502Y-87794180D01*
X124675812Y-87674482D01*
X124688072Y-87550000D01*
X124688072Y-86050000D01*
X124675812Y-85925518D01*
X124639502Y-85805820D01*
X124580537Y-85695506D01*
X124501185Y-85598815D01*
X124404494Y-85519463D01*
X124294180Y-85460498D01*
X124174482Y-85424188D01*
X124050000Y-85411928D01*
X122550000Y-85411928D01*
X122425518Y-85424188D01*
X122305820Y-85460498D01*
X122195506Y-85519463D01*
X122098815Y-85598815D01*
X122019463Y-85695506D01*
X121960498Y-85805820D01*
X121924188Y-85925518D01*
X121913555Y-86033483D01*
X121835799Y-85917114D01*
X121642886Y-85724201D01*
X121416043Y-85572629D01*
X121163989Y-85468225D01*
X120896411Y-85415000D01*
X120623589Y-85415000D01*
X120508125Y-85437968D01*
X117208413Y-82138256D01*
X117259774Y-82103937D01*
X117403937Y-81959774D01*
X117517205Y-81790256D01*
X117595226Y-81601898D01*
X117635000Y-81401939D01*
X117635000Y-81198061D01*
X117595226Y-80998102D01*
X117517205Y-80809744D01*
X117403937Y-80640226D01*
X117290750Y-80527039D01*
X117255862Y-80461767D01*
X117157764Y-80342236D01*
X117127811Y-80317654D01*
X115235000Y-78424843D01*
X115235000Y-78398061D01*
X115195226Y-78198102D01*
X115167267Y-78130604D01*
X115203110Y-78141476D01*
X115433000Y-78020155D01*
X115433000Y-76827000D01*
X115413000Y-76827000D01*
X115413000Y-76573000D01*
X115433000Y-76573000D01*
X115433000Y-76553000D01*
X115687000Y-76553000D01*
X115687000Y-76573000D01*
X115707000Y-76573000D01*
X115707000Y-76827000D01*
X115687000Y-76827000D01*
X115687000Y-78020155D01*
X115916890Y-78141476D01*
X116064099Y-78096825D01*
X116326920Y-77971641D01*
X116560269Y-77797588D01*
X116755178Y-77581355D01*
X116824805Y-77464466D01*
X116946525Y-77646632D01*
X117153368Y-77853475D01*
X117396589Y-78015990D01*
X117666842Y-78127932D01*
X117953740Y-78185000D01*
X118246260Y-78185000D01*
X118533158Y-78127932D01*
X118803411Y-78015990D01*
X119046632Y-77853475D01*
X119253475Y-77646632D01*
X119370000Y-77472240D01*
X119486525Y-77646632D01*
X119693368Y-77853475D01*
X119936589Y-78015990D01*
X120206842Y-78127932D01*
X120493740Y-78185000D01*
X120786260Y-78185000D01*
X121073158Y-78127932D01*
X121343411Y-78015990D01*
X121586632Y-77853475D01*
X121793475Y-77646632D01*
X121910000Y-77472240D01*
X122026525Y-77646632D01*
X122233368Y-77853475D01*
X122476589Y-78015990D01*
X122746842Y-78127932D01*
X123033740Y-78185000D01*
X123326260Y-78185000D01*
X123613158Y-78127932D01*
X123883411Y-78015990D01*
X124126632Y-77853475D01*
X124333475Y-77646632D01*
X124495990Y-77403411D01*
X124607932Y-77133158D01*
X124665000Y-76846260D01*
X124665000Y-76553740D01*
X124607932Y-76266842D01*
X124495990Y-75996589D01*
X124333475Y-75753368D01*
X124126632Y-75546525D01*
X123952240Y-75430000D01*
X124126632Y-75313475D01*
X124333475Y-75106632D01*
X124495990Y-74863411D01*
X124607932Y-74593158D01*
X124665000Y-74306260D01*
X124665000Y-74013740D01*
X124607932Y-73726842D01*
X124495990Y-73456589D01*
X124333475Y-73213368D01*
X124126632Y-73006525D01*
X123883411Y-72844010D01*
X123680592Y-72760000D01*
X125440000Y-72760000D01*
X125440001Y-89340000D01*
X112671492Y-89340000D01*
X112848918Y-89074463D01*
X112972168Y-88776912D01*
X113035000Y-88461033D01*
X113035000Y-88138967D01*
X112972168Y-87823088D01*
X112944791Y-87756993D01*
X114902612Y-87756993D01*
X114968137Y-87995860D01*
X115215116Y-88111760D01*
X115479960Y-88177250D01*
X115752492Y-88189812D01*
X116022238Y-88148965D01*
X116278832Y-88056277D01*
X116391863Y-87995860D01*
X116457388Y-87756993D01*
X115680000Y-86979605D01*
X114902612Y-87756993D01*
X112944791Y-87756993D01*
X112848918Y-87525537D01*
X112669987Y-87257748D01*
X112442252Y-87030013D01*
X112206506Y-86872492D01*
X114290188Y-86872492D01*
X114331035Y-87142238D01*
X114423723Y-87398832D01*
X114484140Y-87511863D01*
X114723007Y-87577388D01*
X115500395Y-86800000D01*
X114723007Y-86022612D01*
X114484140Y-86088137D01*
X114368240Y-86335116D01*
X114302750Y-86599960D01*
X114290188Y-86872492D01*
X112206506Y-86872492D01*
X112174463Y-86851082D01*
X111876912Y-86727832D01*
X111561033Y-86665000D01*
X111238967Y-86665000D01*
X110923088Y-86727832D01*
X110625537Y-86851082D01*
X110357748Y-87030013D01*
X110130013Y-87257748D01*
X109951082Y-87525537D01*
X109827832Y-87823088D01*
X109765000Y-88138967D01*
X109765000Y-88461033D01*
X109827832Y-88776912D01*
X109951082Y-89074463D01*
X110128508Y-89340000D01*
X106171492Y-89340000D01*
X106348918Y-89074463D01*
X106472168Y-88776912D01*
X106535000Y-88461033D01*
X106535000Y-88138967D01*
X106472168Y-87823088D01*
X106348918Y-87525537D01*
X106169987Y-87257748D01*
X105942252Y-87030013D01*
X105674463Y-86851082D01*
X105376912Y-86727832D01*
X105061033Y-86665000D01*
X104738967Y-86665000D01*
X104423088Y-86727832D01*
X104125537Y-86851082D01*
X103860000Y-87028508D01*
X103860000Y-85071492D01*
X104125537Y-85248918D01*
X104423088Y-85372168D01*
X104738967Y-85435000D01*
X105061033Y-85435000D01*
X105376912Y-85372168D01*
X105674463Y-85248918D01*
X105942252Y-85069987D01*
X106169987Y-84842252D01*
X106348918Y-84574463D01*
X106472168Y-84276912D01*
X106535000Y-83961033D01*
X106535000Y-83638967D01*
X106472168Y-83323088D01*
X106348918Y-83025537D01*
X106169987Y-82757748D01*
X105942252Y-82530013D01*
X105674463Y-82351082D01*
X105514927Y-82285000D01*
X105774843Y-82285000D01*
X107415000Y-83925158D01*
X107415001Y-85421288D01*
X107396063Y-85440226D01*
X107282795Y-85609744D01*
X107204774Y-85798102D01*
X107165000Y-85998061D01*
X107165000Y-86201939D01*
X107204774Y-86401898D01*
X107282795Y-86590256D01*
X107396063Y-86759774D01*
X107540226Y-86903937D01*
X107709744Y-87017205D01*
X107898102Y-87095226D01*
X108098061Y-87135000D01*
X108301939Y-87135000D01*
X108501898Y-87095226D01*
X108690256Y-87017205D01*
X108859774Y-86903937D01*
X109003937Y-86759774D01*
X109117205Y-86590256D01*
X109195226Y-86401898D01*
X109235000Y-86201939D01*
X109235000Y-85998061D01*
X109204159Y-85843007D01*
X114902612Y-85843007D01*
X115680000Y-86620395D01*
X116457388Y-85843007D01*
X116391863Y-85604140D01*
X116144884Y-85488240D01*
X115880040Y-85422750D01*
X115607508Y-85410188D01*
X115337762Y-85451035D01*
X115081168Y-85543723D01*
X114968137Y-85604140D01*
X114902612Y-85843007D01*
X109204159Y-85843007D01*
X109195226Y-85798102D01*
X109117205Y-85609744D01*
X109003937Y-85440226D01*
X108985000Y-85421289D01*
X108985000Y-83638552D01*
X108988797Y-83599999D01*
X108985000Y-83561446D01*
X108985000Y-83561439D01*
X108973641Y-83446113D01*
X108928754Y-83298140D01*
X108855862Y-83161767D01*
X108757764Y-83042236D01*
X108727817Y-83017659D01*
X106682347Y-80972190D01*
X106657764Y-80942236D01*
X106538233Y-80844138D01*
X106401860Y-80771246D01*
X106253887Y-80726359D01*
X106138561Y-80715000D01*
X106138553Y-80715000D01*
X106100000Y-80711203D01*
X106061447Y-80715000D01*
X104878711Y-80715000D01*
X104859774Y-80696063D01*
X104690256Y-80582795D01*
X104501898Y-80504774D01*
X104301939Y-80465000D01*
X104098061Y-80465000D01*
X103898102Y-80504774D01*
X103860000Y-80520556D01*
X103860000Y-78967581D01*
X103857271Y-78939877D01*
X103857279Y-78938789D01*
X103856380Y-78929618D01*
X103854488Y-78911619D01*
X103850450Y-78870617D01*
X103843359Y-78847242D01*
X103840276Y-78832222D01*
X103829064Y-78773443D01*
X103826400Y-78764621D01*
X103814858Y-78727334D01*
X103791686Y-78672208D01*
X103769271Y-78616727D01*
X103764944Y-78608591D01*
X103764943Y-78608588D01*
X103764940Y-78608583D01*
X103746379Y-78574254D01*
X103712928Y-78524661D01*
X103680165Y-78474594D01*
X103674340Y-78467453D01*
X103649459Y-78437378D01*
X103607020Y-78395235D01*
X103565162Y-78352492D01*
X103558061Y-78346618D01*
X103527812Y-78321949D01*
X103478042Y-78288883D01*
X103428638Y-78255054D01*
X103420531Y-78250672D01*
X103386067Y-78232347D01*
X103330785Y-78209561D01*
X103275782Y-78185986D01*
X103266979Y-78183261D01*
X103229612Y-78171979D01*
X103170927Y-78160359D01*
X103151175Y-78156161D01*
X103129383Y-78149550D01*
X103105888Y-78147236D01*
X103103252Y-78146959D01*
X103064405Y-78143150D01*
X103064402Y-78143150D01*
X103032419Y-78140000D01*
X98460000Y-78140000D01*
X98460000Y-76728140D01*
X98717023Y-76985163D01*
X99072355Y-77222588D01*
X99467179Y-77386130D01*
X99886323Y-77469503D01*
X100313677Y-77469503D01*
X100732821Y-77386130D01*
X101127645Y-77222588D01*
X101482977Y-76985163D01*
X101785163Y-76682977D01*
X102022588Y-76327645D01*
X102186130Y-75932821D01*
X102269503Y-75513677D01*
X102269503Y-75086323D01*
X102186130Y-74667179D01*
X102022588Y-74272355D01*
X101785163Y-73917023D01*
X101482977Y-73614837D01*
X101127645Y-73377412D01*
X100732821Y-73213870D01*
X100313677Y-73130497D01*
X99886323Y-73130497D01*
X99467179Y-73213870D01*
X99072355Y-73377412D01*
X98717023Y-73614837D01*
X98460000Y-73871860D01*
X98460000Y-72760000D01*
X104899408Y-72760000D01*
X104696589Y-72844010D01*
G37*
%TD.AperFunction*%
D18*
X109284822Y-75041355D02*
X109479731Y-75257588D01*
X109709406Y-75428900D01*
X109533368Y-75546525D01*
X109326525Y-75753368D01*
X109210000Y-75927760D01*
X109093475Y-75753368D01*
X108886632Y-75546525D01*
X108712240Y-75430000D01*
X108886632Y-75313475D01*
X109093475Y-75106632D01*
X109215195Y-74924466D01*
X109284822Y-75041355D01*
%TA.AperFunction,Conductor*%
D19*
G36*
X109284822Y-75041355D02*
G01*
X109479731Y-75257588D01*
X109709406Y-75428900D01*
X109533368Y-75546525D01*
X109326525Y-75753368D01*
X109210000Y-75927760D01*
X109093475Y-75753368D01*
X108886632Y-75546525D01*
X108712240Y-75430000D01*
X108886632Y-75313475D01*
X109093475Y-75106632D01*
X109215195Y-74924466D01*
X109284822Y-75041355D01*
G37*
%TD.AperFunction*%
D18*
X120767000Y-74033000D02*
X120787000Y-74033000D01*
X120787000Y-74287000D01*
X120767000Y-74287000D01*
X120767000Y-74307000D01*
X120513000Y-74307000D01*
X120513000Y-74287000D01*
X120493000Y-74287000D01*
X120493000Y-74033000D01*
X120513000Y-74033000D01*
X120513000Y-74013000D01*
X120767000Y-74013000D01*
X120767000Y-74033000D01*
%TA.AperFunction,Conductor*%
D19*
G36*
X120767000Y-74033000D02*
G01*
X120787000Y-74033000D01*
X120787000Y-74287000D01*
X120767000Y-74287000D01*
X120767000Y-74307000D01*
X120513000Y-74307000D01*
X120513000Y-74287000D01*
X120493000Y-74287000D01*
X120493000Y-74033000D01*
X120513000Y-74033000D01*
X120513000Y-74013000D01*
X120767000Y-74013000D01*
X120767000Y-74033000D01*
G37*
%TD.AperFunction*%
D18*
X110607000Y-74033000D02*
X110627000Y-74033000D01*
X110627000Y-74287000D01*
X110607000Y-74287000D01*
X110607000Y-74307000D01*
X110353000Y-74307000D01*
X110353000Y-74287000D01*
X110333000Y-74287000D01*
X110333000Y-74033000D01*
X110353000Y-74033000D01*
X110353000Y-74013000D01*
X110607000Y-74013000D01*
X110607000Y-74033000D01*
%TA.AperFunction,Conductor*%
D19*
G36*
X110607000Y-74033000D02*
G01*
X110627000Y-74033000D01*
X110627000Y-74287000D01*
X110607000Y-74287000D01*
X110607000Y-74307000D01*
X110353000Y-74307000D01*
X110353000Y-74287000D01*
X110333000Y-74287000D01*
X110333000Y-74033000D01*
X110353000Y-74033000D01*
X110353000Y-74013000D01*
X110607000Y-74013000D01*
X110607000Y-74033000D01*
G37*
%TD.AperFunction*%
D18*
X109975901Y-72763175D02*
X109713080Y-72888359D01*
X109479731Y-73062412D01*
X109284822Y-73278645D01*
X109215195Y-73395534D01*
X109093475Y-73213368D01*
X108886632Y-73006525D01*
X108643411Y-72844010D01*
X108440592Y-72760000D01*
X109986369Y-72760000D01*
X109975901Y-72763175D01*
%TA.AperFunction,Conductor*%
D19*
G36*
X109975901Y-72763175D02*
G01*
X109713080Y-72888359D01*
X109479731Y-73062412D01*
X109284822Y-73278645D01*
X109215195Y-73395534D01*
X109093475Y-73213368D01*
X108886632Y-73006525D01*
X108643411Y-72844010D01*
X108440592Y-72760000D01*
X109986369Y-72760000D01*
X109975901Y-72763175D01*
G37*
%TD.AperFunction*%
%TD*%
M02*
