%TF.GenerationSoftware,KiCad,Pcbnew,(5.1.7)-1*%
%TF.CreationDate,2021-01-13T16:49:05-03:00*%
%TF.ProjectId,Raspberry Pi Hat,52617370-6265-4727-9279-205069204861,-*%
%TF.SameCoordinates,Original*%
%TF.FileFunction,Soldermask,Top*%
%TF.FilePolarity,Negative*%
%FSLAX46Y46*%
G04 Gerber Fmt 4.6, Leading zero omitted, Abs format (unit mm)*
G04 Created by KiCad (PCBNEW (5.1.7)-1) date 2021-01-13 16:49:05*
%MOMM*%
%LPD*%
G01*
G04 APERTURE LIST*
%ADD10C,2.000000*%
%ADD11R,1.700000X1.700000*%
%ADD12O,1.700000X1.700000*%
%ADD13R,1.500000X1.500000*%
%ADD14C,1.500000*%
G04 APERTURE END LIST*
D10*
%TO.C,SW1*%
X111400000Y-83800000D03*
X111400000Y-88300000D03*
X104900000Y-83800000D03*
X104900000Y-88300000D03*
%TD*%
%TO.C,D1*%
G36*
G01*
X125100000Y-82149999D02*
X125100000Y-83050001D01*
G75*
G02*
X124850001Y-83300000I-249999J0D01*
G01*
X124199999Y-83300000D01*
G75*
G02*
X123950000Y-83050001I0J249999D01*
G01*
X123950000Y-82149999D01*
G75*
G02*
X124199999Y-81900000I249999J0D01*
G01*
X124850001Y-81900000D01*
G75*
G02*
X125100000Y-82149999I0J-249999D01*
G01*
G37*
G36*
G01*
X123050000Y-82149999D02*
X123050000Y-83050001D01*
G75*
G02*
X122800001Y-83300000I-249999J0D01*
G01*
X122149999Y-83300000D01*
G75*
G02*
X121900000Y-83050001I0J249999D01*
G01*
X121900000Y-82149999D01*
G75*
G02*
X122149999Y-81900000I249999J0D01*
G01*
X122800001Y-81900000D01*
G75*
G02*
X123050000Y-82149999I0J-249999D01*
G01*
G37*
%TD*%
%TO.C,D2*%
G36*
G01*
X123050000Y-79449999D02*
X123050000Y-80350001D01*
G75*
G02*
X122800001Y-80600000I-249999J0D01*
G01*
X122149999Y-80600000D01*
G75*
G02*
X121900000Y-80350001I0J249999D01*
G01*
X121900000Y-79449999D01*
G75*
G02*
X122149999Y-79200000I249999J0D01*
G01*
X122800001Y-79200000D01*
G75*
G02*
X123050000Y-79449999I0J-249999D01*
G01*
G37*
G36*
G01*
X125100000Y-79449999D02*
X125100000Y-80350001D01*
G75*
G02*
X124850001Y-80600000I-249999J0D01*
G01*
X124199999Y-80600000D01*
G75*
G02*
X123950000Y-80350001I0J249999D01*
G01*
X123950000Y-79449999D01*
G75*
G02*
X124199999Y-79200000I249999J0D01*
G01*
X124850001Y-79200000D01*
G75*
G02*
X125100000Y-79449999I0J-249999D01*
G01*
G37*
%TD*%
D11*
%TO.C,J1*%
X105400000Y-76700000D03*
D12*
X105400000Y-74160000D03*
X107940000Y-76700000D03*
X107940000Y-74160000D03*
X110480000Y-76700000D03*
X110480000Y-74160000D03*
X113020000Y-76700000D03*
X113020000Y-74160000D03*
X115560000Y-76700000D03*
X115560000Y-74160000D03*
X118100000Y-76700000D03*
X118100000Y-74160000D03*
X120640000Y-76700000D03*
X120640000Y-74160000D03*
X123180000Y-76700000D03*
X123180000Y-74160000D03*
%TD*%
%TO.C,R1*%
G36*
G01*
X103650000Y-80305001D02*
X103650000Y-79404999D01*
G75*
G02*
X103899999Y-79155000I249999J0D01*
G01*
X104600001Y-79155000D01*
G75*
G02*
X104850000Y-79404999I0J-249999D01*
G01*
X104850000Y-80305001D01*
G75*
G02*
X104600001Y-80555000I-249999J0D01*
G01*
X103899999Y-80555000D01*
G75*
G02*
X103650000Y-80305001I0J249999D01*
G01*
G37*
G36*
G01*
X105650000Y-80305001D02*
X105650000Y-79404999D01*
G75*
G02*
X105899999Y-79155000I249999J0D01*
G01*
X106600001Y-79155000D01*
G75*
G02*
X106850000Y-79404999I0J-249999D01*
G01*
X106850000Y-80305001D01*
G75*
G02*
X106600001Y-80555000I-249999J0D01*
G01*
X105899999Y-80555000D01*
G75*
G02*
X105650000Y-80305001I0J249999D01*
G01*
G37*
%TD*%
%TO.C,R2*%
G36*
G01*
X109450000Y-80305001D02*
X109450000Y-79404999D01*
G75*
G02*
X109699999Y-79155000I249999J0D01*
G01*
X110400001Y-79155000D01*
G75*
G02*
X110650000Y-79404999I0J-249999D01*
G01*
X110650000Y-80305001D01*
G75*
G02*
X110400001Y-80555000I-249999J0D01*
G01*
X109699999Y-80555000D01*
G75*
G02*
X109450000Y-80305001I0J249999D01*
G01*
G37*
G36*
G01*
X111450000Y-80305001D02*
X111450000Y-79404999D01*
G75*
G02*
X111699999Y-79155000I249999J0D01*
G01*
X112400001Y-79155000D01*
G75*
G02*
X112650000Y-79404999I0J-249999D01*
G01*
X112650000Y-80305001D01*
G75*
G02*
X112400001Y-80555000I-249999J0D01*
G01*
X111699999Y-80555000D01*
G75*
G02*
X111450000Y-80305001I0J249999D01*
G01*
G37*
%TD*%
%TO.C,R3*%
G36*
G01*
X119400000Y-83095001D02*
X119400000Y-82194999D01*
G75*
G02*
X119649999Y-81945000I249999J0D01*
G01*
X120350001Y-81945000D01*
G75*
G02*
X120600000Y-82194999I0J-249999D01*
G01*
X120600000Y-83095001D01*
G75*
G02*
X120350001Y-83345000I-249999J0D01*
G01*
X119649999Y-83345000D01*
G75*
G02*
X119400000Y-83095001I0J249999D01*
G01*
G37*
G36*
G01*
X117400000Y-83095001D02*
X117400000Y-82194999D01*
G75*
G02*
X117649999Y-81945000I249999J0D01*
G01*
X118350001Y-81945000D01*
G75*
G02*
X118600000Y-82194999I0J-249999D01*
G01*
X118600000Y-83095001D01*
G75*
G02*
X118350001Y-83345000I-249999J0D01*
G01*
X117649999Y-83345000D01*
G75*
G02*
X117400000Y-83095001I0J249999D01*
G01*
G37*
%TD*%
%TO.C,R4*%
G36*
G01*
X119400000Y-80305001D02*
X119400000Y-79404999D01*
G75*
G02*
X119649999Y-79155000I249999J0D01*
G01*
X120350001Y-79155000D01*
G75*
G02*
X120600000Y-79404999I0J-249999D01*
G01*
X120600000Y-80305001D01*
G75*
G02*
X120350001Y-80555000I-249999J0D01*
G01*
X119649999Y-80555000D01*
G75*
G02*
X119400000Y-80305001I0J249999D01*
G01*
G37*
G36*
G01*
X117400000Y-80305001D02*
X117400000Y-79404999D01*
G75*
G02*
X117649999Y-79155000I249999J0D01*
G01*
X118350001Y-79155000D01*
G75*
G02*
X118600000Y-79404999I0J-249999D01*
G01*
X118600000Y-80305001D01*
G75*
G02*
X118350001Y-80555000I-249999J0D01*
G01*
X117649999Y-80555000D01*
G75*
G02*
X117400000Y-80305001I0J249999D01*
G01*
G37*
%TD*%
D13*
%TO.C,U1*%
X123300000Y-86800000D03*
D14*
X120760000Y-86800000D03*
X118220000Y-86800000D03*
X115680000Y-86800000D03*
%TD*%
M02*
