%TF.GenerationSoftware,KiCad,Pcbnew,(5.1.7)-1*%
%TF.CreationDate,2021-01-13T16:49:11-03:00*%
%TF.ProjectId,Raspberry Pi Hat,52617370-6265-4727-9279-205069204861,-*%
%TF.SameCoordinates,Original*%
%TF.FileFunction,Copper,L1,Top*%
%TF.FilePolarity,Positive*%
%FSLAX46Y46*%
G04 Gerber Fmt 4.6, Leading zero omitted, Abs format (unit mm)*
G04 Created by KiCad (PCBNEW (5.1.7)-1) date 2021-01-13 16:49:11*
%MOMM*%
%LPD*%
G01*
G04 APERTURE LIST*
%TA.AperFunction,ComponentPad*%
%ADD10C,2.000000*%
%TD*%
%TA.AperFunction,ComponentPad*%
%ADD11R,1.700000X1.700000*%
%TD*%
%TA.AperFunction,ComponentPad*%
%ADD12O,1.700000X1.700000*%
%TD*%
%TA.AperFunction,ComponentPad*%
%ADD13R,1.500000X1.500000*%
%TD*%
%TA.AperFunction,ComponentPad*%
%ADD14C,1.500000*%
%TD*%
%TA.AperFunction,ViaPad*%
%ADD15C,1.000000*%
%TD*%
%TA.AperFunction,ViaPad*%
%ADD16C,0.800000*%
%TD*%
%TA.AperFunction,Conductor*%
%ADD17C,0.300000*%
%TD*%
%TA.AperFunction,Conductor*%
%ADD18C,0.254000*%
%TD*%
%TA.AperFunction,Conductor*%
%ADD19C,0.100000*%
%TD*%
G04 APERTURE END LIST*
D10*
%TO.P,SW1,1*%
%TO.N,/3V3*%
X111400000Y-83800000D03*
%TO.P,SW1,2*%
%TO.N,/BUTTON*%
X111400000Y-88300000D03*
%TO.P,SW1,1*%
%TO.N,/3V3*%
X104900000Y-83800000D03*
%TO.P,SW1,2*%
%TO.N,/BUTTON*%
X104900000Y-88300000D03*
%TD*%
%TO.P,D1,1*%
%TO.N,GND*%
%TA.AperFunction,SMDPad,CuDef*%
G36*
G01*
X125100000Y-82149999D02*
X125100000Y-83050001D01*
G75*
G02*
X124850001Y-83300000I-249999J0D01*
G01*
X124199999Y-83300000D01*
G75*
G02*
X123950000Y-83050001I0J249999D01*
G01*
X123950000Y-82149999D01*
G75*
G02*
X124199999Y-81900000I249999J0D01*
G01*
X124850001Y-81900000D01*
G75*
G02*
X125100000Y-82149999I0J-249999D01*
G01*
G37*
%TD.AperFunction*%
%TO.P,D1,2*%
%TO.N,Net-(D1-Pad2)*%
%TA.AperFunction,SMDPad,CuDef*%
G36*
G01*
X123050000Y-82149999D02*
X123050000Y-83050001D01*
G75*
G02*
X122800001Y-83300000I-249999J0D01*
G01*
X122149999Y-83300000D01*
G75*
G02*
X121900000Y-83050001I0J249999D01*
G01*
X121900000Y-82149999D01*
G75*
G02*
X122149999Y-81900000I249999J0D01*
G01*
X122800001Y-81900000D01*
G75*
G02*
X123050000Y-82149999I0J-249999D01*
G01*
G37*
%TD.AperFunction*%
%TD*%
%TO.P,D2,2*%
%TO.N,Net-(D2-Pad2)*%
%TA.AperFunction,SMDPad,CuDef*%
G36*
G01*
X123050000Y-79449999D02*
X123050000Y-80350001D01*
G75*
G02*
X122800001Y-80600000I-249999J0D01*
G01*
X122149999Y-80600000D01*
G75*
G02*
X121900000Y-80350001I0J249999D01*
G01*
X121900000Y-79449999D01*
G75*
G02*
X122149999Y-79200000I249999J0D01*
G01*
X122800001Y-79200000D01*
G75*
G02*
X123050000Y-79449999I0J-249999D01*
G01*
G37*
%TD.AperFunction*%
%TO.P,D2,1*%
%TO.N,GND*%
%TA.AperFunction,SMDPad,CuDef*%
G36*
G01*
X125100000Y-79449999D02*
X125100000Y-80350001D01*
G75*
G02*
X124850001Y-80600000I-249999J0D01*
G01*
X124199999Y-80600000D01*
G75*
G02*
X123950000Y-80350001I0J249999D01*
G01*
X123950000Y-79449999D01*
G75*
G02*
X124199999Y-79200000I249999J0D01*
G01*
X124850001Y-79200000D01*
G75*
G02*
X125100000Y-79449999I0J-249999D01*
G01*
G37*
%TD.AperFunction*%
%TD*%
D11*
%TO.P,J1,1*%
%TO.N,/3V3*%
X105400000Y-76700000D03*
D12*
%TO.P,J1,2*%
%TO.N,N/C*%
X105400000Y-74160000D03*
%TO.P,J1,3*%
X107940000Y-76700000D03*
%TO.P,J1,4*%
X107940000Y-74160000D03*
%TO.P,J1,5*%
X110480000Y-76700000D03*
%TO.P,J1,6*%
%TO.N,GND*%
X110480000Y-74160000D03*
%TO.P,J1,7*%
%TO.N,Net-(J1-Pad7)*%
X113020000Y-76700000D03*
%TO.P,J1,8*%
%TO.N,/BUTTON*%
X113020000Y-74160000D03*
%TO.P,J1,9*%
%TO.N,GND*%
X115560000Y-76700000D03*
%TO.P,J1,10*%
%TO.N,N/C*%
X115560000Y-74160000D03*
%TO.P,J1,11*%
%TO.N,/DHT*%
X118100000Y-76700000D03*
%TO.P,J1,12*%
%TO.N,N/C*%
X118100000Y-74160000D03*
%TO.P,J1,13*%
X120640000Y-76700000D03*
%TO.P,J1,14*%
%TO.N,GND*%
X120640000Y-74160000D03*
%TO.P,J1,15*%
%TO.N,N/C*%
X123180000Y-76700000D03*
%TO.P,J1,16*%
X123180000Y-74160000D03*
%TD*%
%TO.P,R1,1*%
%TO.N,/BUTTON*%
%TA.AperFunction,SMDPad,CuDef*%
G36*
G01*
X103650000Y-80305001D02*
X103650000Y-79404999D01*
G75*
G02*
X103899999Y-79155000I249999J0D01*
G01*
X104600001Y-79155000D01*
G75*
G02*
X104850000Y-79404999I0J-249999D01*
G01*
X104850000Y-80305001D01*
G75*
G02*
X104600001Y-80555000I-249999J0D01*
G01*
X103899999Y-80555000D01*
G75*
G02*
X103650000Y-80305001I0J249999D01*
G01*
G37*
%TD.AperFunction*%
%TO.P,R1,2*%
%TO.N,GND*%
%TA.AperFunction,SMDPad,CuDef*%
G36*
G01*
X105650000Y-80305001D02*
X105650000Y-79404999D01*
G75*
G02*
X105899999Y-79155000I249999J0D01*
G01*
X106600001Y-79155000D01*
G75*
G02*
X106850000Y-79404999I0J-249999D01*
G01*
X106850000Y-80305001D01*
G75*
G02*
X106600001Y-80555000I-249999J0D01*
G01*
X105899999Y-80555000D01*
G75*
G02*
X105650000Y-80305001I0J249999D01*
G01*
G37*
%TD.AperFunction*%
%TD*%
%TO.P,R2,1*%
%TO.N,/DHT*%
%TA.AperFunction,SMDPad,CuDef*%
G36*
G01*
X109450000Y-80305001D02*
X109450000Y-79404999D01*
G75*
G02*
X109699999Y-79155000I249999J0D01*
G01*
X110400001Y-79155000D01*
G75*
G02*
X110650000Y-79404999I0J-249999D01*
G01*
X110650000Y-80305001D01*
G75*
G02*
X110400001Y-80555000I-249999J0D01*
G01*
X109699999Y-80555000D01*
G75*
G02*
X109450000Y-80305001I0J249999D01*
G01*
G37*
%TD.AperFunction*%
%TO.P,R2,2*%
%TO.N,/3V3*%
%TA.AperFunction,SMDPad,CuDef*%
G36*
G01*
X111450000Y-80305001D02*
X111450000Y-79404999D01*
G75*
G02*
X111699999Y-79155000I249999J0D01*
G01*
X112400001Y-79155000D01*
G75*
G02*
X112650000Y-79404999I0J-249999D01*
G01*
X112650000Y-80305001D01*
G75*
G02*
X112400001Y-80555000I-249999J0D01*
G01*
X111699999Y-80555000D01*
G75*
G02*
X111450000Y-80305001I0J249999D01*
G01*
G37*
%TD.AperFunction*%
%TD*%
%TO.P,R3,2*%
%TO.N,Net-(D1-Pad2)*%
%TA.AperFunction,SMDPad,CuDef*%
G36*
G01*
X119400000Y-83095001D02*
X119400000Y-82194999D01*
G75*
G02*
X119649999Y-81945000I249999J0D01*
G01*
X120350001Y-81945000D01*
G75*
G02*
X120600000Y-82194999I0J-249999D01*
G01*
X120600000Y-83095001D01*
G75*
G02*
X120350001Y-83345000I-249999J0D01*
G01*
X119649999Y-83345000D01*
G75*
G02*
X119400000Y-83095001I0J249999D01*
G01*
G37*
%TD.AperFunction*%
%TO.P,R3,1*%
%TO.N,Net-(J1-Pad7)*%
%TA.AperFunction,SMDPad,CuDef*%
G36*
G01*
X117400000Y-83095001D02*
X117400000Y-82194999D01*
G75*
G02*
X117649999Y-81945000I249999J0D01*
G01*
X118350001Y-81945000D01*
G75*
G02*
X118600000Y-82194999I0J-249999D01*
G01*
X118600000Y-83095001D01*
G75*
G02*
X118350001Y-83345000I-249999J0D01*
G01*
X117649999Y-83345000D01*
G75*
G02*
X117400000Y-83095001I0J249999D01*
G01*
G37*
%TD.AperFunction*%
%TD*%
%TO.P,R4,2*%
%TO.N,Net-(D2-Pad2)*%
%TA.AperFunction,SMDPad,CuDef*%
G36*
G01*
X119400000Y-80305001D02*
X119400000Y-79404999D01*
G75*
G02*
X119649999Y-79155000I249999J0D01*
G01*
X120350001Y-79155000D01*
G75*
G02*
X120600000Y-79404999I0J-249999D01*
G01*
X120600000Y-80305001D01*
G75*
G02*
X120350001Y-80555000I-249999J0D01*
G01*
X119649999Y-80555000D01*
G75*
G02*
X119400000Y-80305001I0J249999D01*
G01*
G37*
%TD.AperFunction*%
%TO.P,R4,1*%
%TO.N,/3V3*%
%TA.AperFunction,SMDPad,CuDef*%
G36*
G01*
X117400000Y-80305001D02*
X117400000Y-79404999D01*
G75*
G02*
X117649999Y-79155000I249999J0D01*
G01*
X118350001Y-79155000D01*
G75*
G02*
X118600000Y-79404999I0J-249999D01*
G01*
X118600000Y-80305001D01*
G75*
G02*
X118350001Y-80555000I-249999J0D01*
G01*
X117649999Y-80555000D01*
G75*
G02*
X117400000Y-80305001I0J249999D01*
G01*
G37*
%TD.AperFunction*%
%TD*%
D13*
%TO.P,U1,1*%
%TO.N,/3V3*%
X123300000Y-86800000D03*
D14*
%TO.P,U1,2*%
%TO.N,/DHT*%
X120760000Y-86800000D03*
%TO.P,U1,3*%
%TO.N,N/C*%
X118220000Y-86800000D03*
%TO.P,U1,4*%
%TO.N,GND*%
X115680000Y-86800000D03*
%TD*%
D15*
%TO.N,GND*%
X109200000Y-75500000D03*
X107800000Y-79900000D03*
D16*
%TO.N,Net-(J1-Pad7)*%
X114200000Y-78500000D03*
X116600000Y-81300000D03*
%TO.N,/DHT*%
X110100000Y-81500000D03*
%TO.N,/BUTTON*%
X108200000Y-86100000D03*
X104200000Y-81500000D03*
%TD*%
D17*
%TO.N,GND*%
X125300000Y-79125000D02*
X124525000Y-79900000D01*
X125300000Y-73600000D02*
X125300000Y-79125000D01*
X124559999Y-72859999D02*
X125300000Y-73600000D01*
X121940001Y-72859999D02*
X124559999Y-72859999D01*
X120640000Y-74160000D02*
X121940001Y-72859999D01*
X124525000Y-79900000D02*
X124525000Y-82600000D01*
X109200000Y-75440000D02*
X110480000Y-74160000D01*
X109200000Y-75500000D02*
X109200000Y-75440000D01*
X107755000Y-79855000D02*
X107800000Y-79900000D01*
X106250000Y-79855000D02*
X107755000Y-79855000D01*
%TO.N,Net-(D1-Pad2)*%
X122430000Y-82645000D02*
X122475000Y-82600000D01*
X120000000Y-82645000D02*
X122430000Y-82645000D01*
%TO.N,Net-(D2-Pad2)*%
X122430000Y-79855000D02*
X122475000Y-79900000D01*
X120000000Y-79855000D02*
X122430000Y-79855000D01*
%TO.N,/3V3*%
X104900000Y-83800000D02*
X111400000Y-83800000D01*
X111400000Y-83800000D02*
X112500000Y-82700000D01*
X112500000Y-82700000D02*
X112500000Y-81800000D01*
X112050000Y-81350000D02*
X112050000Y-79855000D01*
X112500000Y-81800000D02*
X112050000Y-81350000D01*
X112050000Y-79855000D02*
X118000000Y-79855000D01*
X113500000Y-85900000D02*
X111400000Y-83800000D01*
X113500000Y-87600000D02*
X113500000Y-85900000D01*
X114700000Y-88800000D02*
X113500000Y-87600000D01*
X122300000Y-88800000D02*
X114700000Y-88800000D01*
X123300000Y-87800000D02*
X122300000Y-88800000D01*
X123300000Y-86800000D02*
X123300000Y-87800000D01*
X108900000Y-79200000D02*
X105400000Y-76700000D01*
X108900000Y-81900000D02*
X108900000Y-79200000D01*
X104900000Y-83800000D02*
X108900000Y-81900000D01*
%TO.N,Net-(J1-Pad7)*%
X116655000Y-81300000D02*
X118000000Y-82645000D01*
X116600000Y-81300000D02*
X116655000Y-81300000D01*
X114200000Y-77880000D02*
X113020000Y-76700000D01*
X114200000Y-78500000D02*
X114200000Y-77880000D01*
%TO.N,/BUTTON*%
X104099999Y-73683999D02*
X105308988Y-72475010D01*
X104099999Y-79004999D02*
X104099999Y-73683999D01*
X104250000Y-79155000D02*
X104099999Y-79004999D01*
X104250000Y-79855000D02*
X104250000Y-79155000D01*
X111335010Y-72475010D02*
X113020000Y-74160000D01*
X105308988Y-72475010D02*
X111335010Y-72475010D01*
X107100000Y-86100000D02*
X108200000Y-86100000D01*
X104900000Y-88300000D02*
X107100000Y-86100000D01*
X109200000Y-86100000D02*
X108200000Y-86100000D01*
X111400000Y-88300000D02*
X109200000Y-86100000D01*
X104200000Y-79905000D02*
X104250000Y-79855000D01*
X104200000Y-81500000D02*
X104200000Y-79905000D01*
%TO.N,/DHT*%
X110100000Y-79905000D02*
X110050000Y-79855000D01*
X110100000Y-81500000D02*
X110100000Y-79905000D01*
X110050000Y-79855000D02*
X110050000Y-78950000D01*
X110050000Y-78950000D02*
X110500000Y-78500000D01*
X112700000Y-78500000D02*
X113454990Y-79254990D01*
X110500000Y-78500000D02*
X112700000Y-78500000D01*
X115545010Y-79254990D02*
X118100000Y-76700000D01*
X113454990Y-79254990D02*
X115545010Y-79254990D01*
%TD*%
D18*
%TO.N,GND*%
X125440000Y-78661716D02*
X125344180Y-78610498D01*
X125224482Y-78574188D01*
X125100000Y-78561928D01*
X124810750Y-78565000D01*
X124652000Y-78723750D01*
X124652000Y-79773000D01*
X124672000Y-79773000D01*
X124672000Y-80027000D01*
X124652000Y-80027000D01*
X124652000Y-81076250D01*
X124810750Y-81235000D01*
X125100000Y-81238072D01*
X125224482Y-81225812D01*
X125344180Y-81189502D01*
X125440001Y-81138284D01*
X125440001Y-81361716D01*
X125344180Y-81310498D01*
X125224482Y-81274188D01*
X125100000Y-81261928D01*
X124810750Y-81265000D01*
X124652000Y-81423750D01*
X124652000Y-82473000D01*
X124672000Y-82473000D01*
X124672000Y-82727000D01*
X124652000Y-82727000D01*
X124652000Y-83776250D01*
X124810750Y-83935000D01*
X125100000Y-83938072D01*
X125224482Y-83925812D01*
X125344180Y-83889502D01*
X125440001Y-83838284D01*
X125440001Y-89340000D01*
X122872343Y-89340000D01*
X122882347Y-89327810D01*
X123827810Y-88382347D01*
X123857764Y-88357764D01*
X123955862Y-88238233D01*
X123982673Y-88188072D01*
X124050000Y-88188072D01*
X124174482Y-88175812D01*
X124294180Y-88139502D01*
X124404494Y-88080537D01*
X124501185Y-88001185D01*
X124580537Y-87904494D01*
X124639502Y-87794180D01*
X124675812Y-87674482D01*
X124688072Y-87550000D01*
X124688072Y-86050000D01*
X124675812Y-85925518D01*
X124639502Y-85805820D01*
X124580537Y-85695506D01*
X124501185Y-85598815D01*
X124404494Y-85519463D01*
X124294180Y-85460498D01*
X124174482Y-85424188D01*
X124050000Y-85411928D01*
X122550000Y-85411928D01*
X122425518Y-85424188D01*
X122305820Y-85460498D01*
X122195506Y-85519463D01*
X122098815Y-85598815D01*
X122019463Y-85695506D01*
X121960498Y-85805820D01*
X121924188Y-85925518D01*
X121913555Y-86033483D01*
X121835799Y-85917114D01*
X121642886Y-85724201D01*
X121416043Y-85572629D01*
X121163989Y-85468225D01*
X120896411Y-85415000D01*
X120623589Y-85415000D01*
X120356011Y-85468225D01*
X120103957Y-85572629D01*
X119877114Y-85724201D01*
X119684201Y-85917114D01*
X119532629Y-86143957D01*
X119490000Y-86246873D01*
X119447371Y-86143957D01*
X119295799Y-85917114D01*
X119102886Y-85724201D01*
X118876043Y-85572629D01*
X118623989Y-85468225D01*
X118356411Y-85415000D01*
X118083589Y-85415000D01*
X117816011Y-85468225D01*
X117563957Y-85572629D01*
X117337114Y-85724201D01*
X117144201Y-85917114D01*
X116992629Y-86143957D01*
X116951489Y-86243279D01*
X116936277Y-86201168D01*
X116875860Y-86088137D01*
X116636993Y-86022612D01*
X115859605Y-86800000D01*
X116636993Y-87577388D01*
X116875860Y-87511863D01*
X116950164Y-87353523D01*
X116992629Y-87456043D01*
X117144201Y-87682886D01*
X117337114Y-87875799D01*
X117545443Y-88015000D01*
X116356055Y-88015000D01*
X116391863Y-87995860D01*
X116457388Y-87756993D01*
X115680000Y-86979605D01*
X115665858Y-86993748D01*
X115486253Y-86814143D01*
X115500395Y-86800000D01*
X114723007Y-86022612D01*
X114484140Y-86088137D01*
X114368240Y-86335116D01*
X114302750Y-86599960D01*
X114290188Y-86872492D01*
X114331035Y-87142238D01*
X114423723Y-87398832D01*
X114440642Y-87430484D01*
X114285000Y-87274843D01*
X114285000Y-85938552D01*
X114288797Y-85899999D01*
X114285000Y-85861446D01*
X114285000Y-85861439D01*
X114283185Y-85843007D01*
X114902612Y-85843007D01*
X115680000Y-86620395D01*
X116457388Y-85843007D01*
X116391863Y-85604140D01*
X116144884Y-85488240D01*
X115880040Y-85422750D01*
X115607508Y-85410188D01*
X115337762Y-85451035D01*
X115081168Y-85543723D01*
X114968137Y-85604140D01*
X114902612Y-85843007D01*
X114283185Y-85843007D01*
X114273641Y-85746113D01*
X114228754Y-85598140D01*
X114155862Y-85461767D01*
X114057764Y-85342236D01*
X114027816Y-85317658D01*
X112974640Y-84264483D01*
X113035000Y-83961033D01*
X113035000Y-83638967D01*
X112974640Y-83335518D01*
X113027817Y-83282341D01*
X113057764Y-83257764D01*
X113086086Y-83223255D01*
X113106450Y-83198441D01*
X113155862Y-83138233D01*
X113228754Y-83001860D01*
X113245438Y-82946860D01*
X113273642Y-82853887D01*
X113283110Y-82757748D01*
X113285000Y-82738561D01*
X113285000Y-82738556D01*
X113288797Y-82700000D01*
X113285000Y-82661445D01*
X113285000Y-81838552D01*
X113288797Y-81799999D01*
X113285000Y-81761446D01*
X113285000Y-81761439D01*
X113273641Y-81646113D01*
X113247993Y-81561561D01*
X113228754Y-81498140D01*
X113206548Y-81456595D01*
X113155862Y-81361767D01*
X113057764Y-81242236D01*
X113027810Y-81217653D01*
X112867434Y-81057277D01*
X112893387Y-81043405D01*
X113027962Y-80932962D01*
X113138405Y-80798387D01*
X113220472Y-80644851D01*
X113221944Y-80640000D01*
X115796289Y-80640000D01*
X115796063Y-80640226D01*
X115682795Y-80809744D01*
X115604774Y-80998102D01*
X115565000Y-81198061D01*
X115565000Y-81401939D01*
X115604774Y-81601898D01*
X115682795Y-81790256D01*
X115796063Y-81959774D01*
X115940226Y-82103937D01*
X116109744Y-82217205D01*
X116298102Y-82295226D01*
X116498061Y-82335000D01*
X116579843Y-82335000D01*
X116761928Y-82517085D01*
X116761928Y-83095001D01*
X116778992Y-83268255D01*
X116829528Y-83434851D01*
X116911595Y-83588387D01*
X117022038Y-83722962D01*
X117156613Y-83833405D01*
X117310149Y-83915472D01*
X117476745Y-83966008D01*
X117649999Y-83983072D01*
X118350001Y-83983072D01*
X118523255Y-83966008D01*
X118689851Y-83915472D01*
X118843387Y-83833405D01*
X118977962Y-83722962D01*
X119000000Y-83696109D01*
X119022038Y-83722962D01*
X119156613Y-83833405D01*
X119310149Y-83915472D01*
X119476745Y-83966008D01*
X119649999Y-83983072D01*
X120350001Y-83983072D01*
X120523255Y-83966008D01*
X120689851Y-83915472D01*
X120843387Y-83833405D01*
X120977962Y-83722962D01*
X121088405Y-83588387D01*
X121170472Y-83434851D01*
X121171944Y-83430000D01*
X121350988Y-83430000D01*
X121411595Y-83543387D01*
X121522038Y-83677962D01*
X121656613Y-83788405D01*
X121810149Y-83870472D01*
X121976745Y-83921008D01*
X122149999Y-83938072D01*
X122800001Y-83938072D01*
X122973255Y-83921008D01*
X123139851Y-83870472D01*
X123293387Y-83788405D01*
X123427962Y-83677962D01*
X123433342Y-83671406D01*
X123498815Y-83751185D01*
X123595506Y-83830537D01*
X123705820Y-83889502D01*
X123825518Y-83925812D01*
X123950000Y-83938072D01*
X124239250Y-83935000D01*
X124398000Y-83776250D01*
X124398000Y-82727000D01*
X124378000Y-82727000D01*
X124378000Y-82473000D01*
X124398000Y-82473000D01*
X124398000Y-81423750D01*
X124239250Y-81265000D01*
X123950000Y-81261928D01*
X123825518Y-81274188D01*
X123705820Y-81310498D01*
X123595506Y-81369463D01*
X123498815Y-81448815D01*
X123433342Y-81528594D01*
X123427962Y-81522038D01*
X123293387Y-81411595D01*
X123139851Y-81329528D01*
X122973255Y-81278992D01*
X122800001Y-81261928D01*
X122149999Y-81261928D01*
X121976745Y-81278992D01*
X121810149Y-81329528D01*
X121656613Y-81411595D01*
X121522038Y-81522038D01*
X121411595Y-81656613D01*
X121329528Y-81810149D01*
X121314406Y-81860000D01*
X121171944Y-81860000D01*
X121170472Y-81855149D01*
X121088405Y-81701613D01*
X120977962Y-81567038D01*
X120843387Y-81456595D01*
X120689851Y-81374528D01*
X120523255Y-81323992D01*
X120350001Y-81306928D01*
X119649999Y-81306928D01*
X119476745Y-81323992D01*
X119310149Y-81374528D01*
X119156613Y-81456595D01*
X119022038Y-81567038D01*
X119000000Y-81593891D01*
X118977962Y-81567038D01*
X118843387Y-81456595D01*
X118689851Y-81374528D01*
X118523255Y-81323992D01*
X118350001Y-81306928D01*
X117772085Y-81306928D01*
X117658229Y-81193072D01*
X118350001Y-81193072D01*
X118523255Y-81176008D01*
X118689851Y-81125472D01*
X118843387Y-81043405D01*
X118977962Y-80932962D01*
X119000000Y-80906109D01*
X119022038Y-80932962D01*
X119156613Y-81043405D01*
X119310149Y-81125472D01*
X119476745Y-81176008D01*
X119649999Y-81193072D01*
X120350001Y-81193072D01*
X120523255Y-81176008D01*
X120689851Y-81125472D01*
X120843387Y-81043405D01*
X120977962Y-80932962D01*
X121088405Y-80798387D01*
X121170472Y-80644851D01*
X121171944Y-80640000D01*
X121314406Y-80640000D01*
X121329528Y-80689851D01*
X121411595Y-80843387D01*
X121522038Y-80977962D01*
X121656613Y-81088405D01*
X121810149Y-81170472D01*
X121976745Y-81221008D01*
X122149999Y-81238072D01*
X122800001Y-81238072D01*
X122973255Y-81221008D01*
X123139851Y-81170472D01*
X123293387Y-81088405D01*
X123427962Y-80977962D01*
X123433342Y-80971406D01*
X123498815Y-81051185D01*
X123595506Y-81130537D01*
X123705820Y-81189502D01*
X123825518Y-81225812D01*
X123950000Y-81238072D01*
X124239250Y-81235000D01*
X124398000Y-81076250D01*
X124398000Y-80027000D01*
X124378000Y-80027000D01*
X124378000Y-79773000D01*
X124398000Y-79773000D01*
X124398000Y-78723750D01*
X124239250Y-78565000D01*
X123950000Y-78561928D01*
X123825518Y-78574188D01*
X123705820Y-78610498D01*
X123595506Y-78669463D01*
X123498815Y-78748815D01*
X123433342Y-78828594D01*
X123427962Y-78822038D01*
X123293387Y-78711595D01*
X123139851Y-78629528D01*
X122973255Y-78578992D01*
X122800001Y-78561928D01*
X122149999Y-78561928D01*
X121976745Y-78578992D01*
X121810149Y-78629528D01*
X121656613Y-78711595D01*
X121522038Y-78822038D01*
X121411595Y-78956613D01*
X121350988Y-79070000D01*
X121171944Y-79070000D01*
X121170472Y-79065149D01*
X121088405Y-78911613D01*
X120977962Y-78777038D01*
X120843387Y-78666595D01*
X120689851Y-78584528D01*
X120523255Y-78533992D01*
X120350001Y-78516928D01*
X119649999Y-78516928D01*
X119476745Y-78533992D01*
X119310149Y-78584528D01*
X119156613Y-78666595D01*
X119022038Y-78777038D01*
X119000000Y-78803891D01*
X118977962Y-78777038D01*
X118843387Y-78666595D01*
X118689851Y-78584528D01*
X118523255Y-78533992D01*
X118350001Y-78516928D01*
X117649999Y-78516928D01*
X117476745Y-78533992D01*
X117332369Y-78577788D01*
X117763082Y-78147075D01*
X117953740Y-78185000D01*
X118246260Y-78185000D01*
X118533158Y-78127932D01*
X118803411Y-78015990D01*
X119046632Y-77853475D01*
X119253475Y-77646632D01*
X119370000Y-77472240D01*
X119486525Y-77646632D01*
X119693368Y-77853475D01*
X119936589Y-78015990D01*
X120206842Y-78127932D01*
X120493740Y-78185000D01*
X120786260Y-78185000D01*
X121073158Y-78127932D01*
X121343411Y-78015990D01*
X121586632Y-77853475D01*
X121793475Y-77646632D01*
X121910000Y-77472240D01*
X122026525Y-77646632D01*
X122233368Y-77853475D01*
X122476589Y-78015990D01*
X122746842Y-78127932D01*
X123033740Y-78185000D01*
X123326260Y-78185000D01*
X123613158Y-78127932D01*
X123883411Y-78015990D01*
X124126632Y-77853475D01*
X124333475Y-77646632D01*
X124495990Y-77403411D01*
X124607932Y-77133158D01*
X124665000Y-76846260D01*
X124665000Y-76553740D01*
X124607932Y-76266842D01*
X124495990Y-75996589D01*
X124333475Y-75753368D01*
X124126632Y-75546525D01*
X123952240Y-75430000D01*
X124126632Y-75313475D01*
X124333475Y-75106632D01*
X124495990Y-74863411D01*
X124607932Y-74593158D01*
X124665000Y-74306260D01*
X124665000Y-74013740D01*
X124607932Y-73726842D01*
X124495990Y-73456589D01*
X124333475Y-73213368D01*
X124126632Y-73006525D01*
X123883411Y-72844010D01*
X123680592Y-72760000D01*
X125440000Y-72760000D01*
X125440000Y-78661716D01*
%TA.AperFunction,Conductor*%
D19*
G36*
X125440000Y-78661716D02*
G01*
X125344180Y-78610498D01*
X125224482Y-78574188D01*
X125100000Y-78561928D01*
X124810750Y-78565000D01*
X124652000Y-78723750D01*
X124652000Y-79773000D01*
X124672000Y-79773000D01*
X124672000Y-80027000D01*
X124652000Y-80027000D01*
X124652000Y-81076250D01*
X124810750Y-81235000D01*
X125100000Y-81238072D01*
X125224482Y-81225812D01*
X125344180Y-81189502D01*
X125440001Y-81138284D01*
X125440001Y-81361716D01*
X125344180Y-81310498D01*
X125224482Y-81274188D01*
X125100000Y-81261928D01*
X124810750Y-81265000D01*
X124652000Y-81423750D01*
X124652000Y-82473000D01*
X124672000Y-82473000D01*
X124672000Y-82727000D01*
X124652000Y-82727000D01*
X124652000Y-83776250D01*
X124810750Y-83935000D01*
X125100000Y-83938072D01*
X125224482Y-83925812D01*
X125344180Y-83889502D01*
X125440001Y-83838284D01*
X125440001Y-89340000D01*
X122872343Y-89340000D01*
X122882347Y-89327810D01*
X123827810Y-88382347D01*
X123857764Y-88357764D01*
X123955862Y-88238233D01*
X123982673Y-88188072D01*
X124050000Y-88188072D01*
X124174482Y-88175812D01*
X124294180Y-88139502D01*
X124404494Y-88080537D01*
X124501185Y-88001185D01*
X124580537Y-87904494D01*
X124639502Y-87794180D01*
X124675812Y-87674482D01*
X124688072Y-87550000D01*
X124688072Y-86050000D01*
X124675812Y-85925518D01*
X124639502Y-85805820D01*
X124580537Y-85695506D01*
X124501185Y-85598815D01*
X124404494Y-85519463D01*
X124294180Y-85460498D01*
X124174482Y-85424188D01*
X124050000Y-85411928D01*
X122550000Y-85411928D01*
X122425518Y-85424188D01*
X122305820Y-85460498D01*
X122195506Y-85519463D01*
X122098815Y-85598815D01*
X122019463Y-85695506D01*
X121960498Y-85805820D01*
X121924188Y-85925518D01*
X121913555Y-86033483D01*
X121835799Y-85917114D01*
X121642886Y-85724201D01*
X121416043Y-85572629D01*
X121163989Y-85468225D01*
X120896411Y-85415000D01*
X120623589Y-85415000D01*
X120356011Y-85468225D01*
X120103957Y-85572629D01*
X119877114Y-85724201D01*
X119684201Y-85917114D01*
X119532629Y-86143957D01*
X119490000Y-86246873D01*
X119447371Y-86143957D01*
X119295799Y-85917114D01*
X119102886Y-85724201D01*
X118876043Y-85572629D01*
X118623989Y-85468225D01*
X118356411Y-85415000D01*
X118083589Y-85415000D01*
X117816011Y-85468225D01*
X117563957Y-85572629D01*
X117337114Y-85724201D01*
X117144201Y-85917114D01*
X116992629Y-86143957D01*
X116951489Y-86243279D01*
X116936277Y-86201168D01*
X116875860Y-86088137D01*
X116636993Y-86022612D01*
X115859605Y-86800000D01*
X116636993Y-87577388D01*
X116875860Y-87511863D01*
X116950164Y-87353523D01*
X116992629Y-87456043D01*
X117144201Y-87682886D01*
X117337114Y-87875799D01*
X117545443Y-88015000D01*
X116356055Y-88015000D01*
X116391863Y-87995860D01*
X116457388Y-87756993D01*
X115680000Y-86979605D01*
X115665858Y-86993748D01*
X115486253Y-86814143D01*
X115500395Y-86800000D01*
X114723007Y-86022612D01*
X114484140Y-86088137D01*
X114368240Y-86335116D01*
X114302750Y-86599960D01*
X114290188Y-86872492D01*
X114331035Y-87142238D01*
X114423723Y-87398832D01*
X114440642Y-87430484D01*
X114285000Y-87274843D01*
X114285000Y-85938552D01*
X114288797Y-85899999D01*
X114285000Y-85861446D01*
X114285000Y-85861439D01*
X114283185Y-85843007D01*
X114902612Y-85843007D01*
X115680000Y-86620395D01*
X116457388Y-85843007D01*
X116391863Y-85604140D01*
X116144884Y-85488240D01*
X115880040Y-85422750D01*
X115607508Y-85410188D01*
X115337762Y-85451035D01*
X115081168Y-85543723D01*
X114968137Y-85604140D01*
X114902612Y-85843007D01*
X114283185Y-85843007D01*
X114273641Y-85746113D01*
X114228754Y-85598140D01*
X114155862Y-85461767D01*
X114057764Y-85342236D01*
X114027816Y-85317658D01*
X112974640Y-84264483D01*
X113035000Y-83961033D01*
X113035000Y-83638967D01*
X112974640Y-83335518D01*
X113027817Y-83282341D01*
X113057764Y-83257764D01*
X113086086Y-83223255D01*
X113106450Y-83198441D01*
X113155862Y-83138233D01*
X113228754Y-83001860D01*
X113245438Y-82946860D01*
X113273642Y-82853887D01*
X113283110Y-82757748D01*
X113285000Y-82738561D01*
X113285000Y-82738556D01*
X113288797Y-82700000D01*
X113285000Y-82661445D01*
X113285000Y-81838552D01*
X113288797Y-81799999D01*
X113285000Y-81761446D01*
X113285000Y-81761439D01*
X113273641Y-81646113D01*
X113247993Y-81561561D01*
X113228754Y-81498140D01*
X113206548Y-81456595D01*
X113155862Y-81361767D01*
X113057764Y-81242236D01*
X113027810Y-81217653D01*
X112867434Y-81057277D01*
X112893387Y-81043405D01*
X113027962Y-80932962D01*
X113138405Y-80798387D01*
X113220472Y-80644851D01*
X113221944Y-80640000D01*
X115796289Y-80640000D01*
X115796063Y-80640226D01*
X115682795Y-80809744D01*
X115604774Y-80998102D01*
X115565000Y-81198061D01*
X115565000Y-81401939D01*
X115604774Y-81601898D01*
X115682795Y-81790256D01*
X115796063Y-81959774D01*
X115940226Y-82103937D01*
X116109744Y-82217205D01*
X116298102Y-82295226D01*
X116498061Y-82335000D01*
X116579843Y-82335000D01*
X116761928Y-82517085D01*
X116761928Y-83095001D01*
X116778992Y-83268255D01*
X116829528Y-83434851D01*
X116911595Y-83588387D01*
X117022038Y-83722962D01*
X117156613Y-83833405D01*
X117310149Y-83915472D01*
X117476745Y-83966008D01*
X117649999Y-83983072D01*
X118350001Y-83983072D01*
X118523255Y-83966008D01*
X118689851Y-83915472D01*
X118843387Y-83833405D01*
X118977962Y-83722962D01*
X119000000Y-83696109D01*
X119022038Y-83722962D01*
X119156613Y-83833405D01*
X119310149Y-83915472D01*
X119476745Y-83966008D01*
X119649999Y-83983072D01*
X120350001Y-83983072D01*
X120523255Y-83966008D01*
X120689851Y-83915472D01*
X120843387Y-83833405D01*
X120977962Y-83722962D01*
X121088405Y-83588387D01*
X121170472Y-83434851D01*
X121171944Y-83430000D01*
X121350988Y-83430000D01*
X121411595Y-83543387D01*
X121522038Y-83677962D01*
X121656613Y-83788405D01*
X121810149Y-83870472D01*
X121976745Y-83921008D01*
X122149999Y-83938072D01*
X122800001Y-83938072D01*
X122973255Y-83921008D01*
X123139851Y-83870472D01*
X123293387Y-83788405D01*
X123427962Y-83677962D01*
X123433342Y-83671406D01*
X123498815Y-83751185D01*
X123595506Y-83830537D01*
X123705820Y-83889502D01*
X123825518Y-83925812D01*
X123950000Y-83938072D01*
X124239250Y-83935000D01*
X124398000Y-83776250D01*
X124398000Y-82727000D01*
X124378000Y-82727000D01*
X124378000Y-82473000D01*
X124398000Y-82473000D01*
X124398000Y-81423750D01*
X124239250Y-81265000D01*
X123950000Y-81261928D01*
X123825518Y-81274188D01*
X123705820Y-81310498D01*
X123595506Y-81369463D01*
X123498815Y-81448815D01*
X123433342Y-81528594D01*
X123427962Y-81522038D01*
X123293387Y-81411595D01*
X123139851Y-81329528D01*
X122973255Y-81278992D01*
X122800001Y-81261928D01*
X122149999Y-81261928D01*
X121976745Y-81278992D01*
X121810149Y-81329528D01*
X121656613Y-81411595D01*
X121522038Y-81522038D01*
X121411595Y-81656613D01*
X121329528Y-81810149D01*
X121314406Y-81860000D01*
X121171944Y-81860000D01*
X121170472Y-81855149D01*
X121088405Y-81701613D01*
X120977962Y-81567038D01*
X120843387Y-81456595D01*
X120689851Y-81374528D01*
X120523255Y-81323992D01*
X120350001Y-81306928D01*
X119649999Y-81306928D01*
X119476745Y-81323992D01*
X119310149Y-81374528D01*
X119156613Y-81456595D01*
X119022038Y-81567038D01*
X119000000Y-81593891D01*
X118977962Y-81567038D01*
X118843387Y-81456595D01*
X118689851Y-81374528D01*
X118523255Y-81323992D01*
X118350001Y-81306928D01*
X117772085Y-81306928D01*
X117658229Y-81193072D01*
X118350001Y-81193072D01*
X118523255Y-81176008D01*
X118689851Y-81125472D01*
X118843387Y-81043405D01*
X118977962Y-80932962D01*
X119000000Y-80906109D01*
X119022038Y-80932962D01*
X119156613Y-81043405D01*
X119310149Y-81125472D01*
X119476745Y-81176008D01*
X119649999Y-81193072D01*
X120350001Y-81193072D01*
X120523255Y-81176008D01*
X120689851Y-81125472D01*
X120843387Y-81043405D01*
X120977962Y-80932962D01*
X121088405Y-80798387D01*
X121170472Y-80644851D01*
X121171944Y-80640000D01*
X121314406Y-80640000D01*
X121329528Y-80689851D01*
X121411595Y-80843387D01*
X121522038Y-80977962D01*
X121656613Y-81088405D01*
X121810149Y-81170472D01*
X121976745Y-81221008D01*
X122149999Y-81238072D01*
X122800001Y-81238072D01*
X122973255Y-81221008D01*
X123139851Y-81170472D01*
X123293387Y-81088405D01*
X123427962Y-80977962D01*
X123433342Y-80971406D01*
X123498815Y-81051185D01*
X123595506Y-81130537D01*
X123705820Y-81189502D01*
X123825518Y-81225812D01*
X123950000Y-81238072D01*
X124239250Y-81235000D01*
X124398000Y-81076250D01*
X124398000Y-80027000D01*
X124378000Y-80027000D01*
X124378000Y-79773000D01*
X124398000Y-79773000D01*
X124398000Y-78723750D01*
X124239250Y-78565000D01*
X123950000Y-78561928D01*
X123825518Y-78574188D01*
X123705820Y-78610498D01*
X123595506Y-78669463D01*
X123498815Y-78748815D01*
X123433342Y-78828594D01*
X123427962Y-78822038D01*
X123293387Y-78711595D01*
X123139851Y-78629528D01*
X122973255Y-78578992D01*
X122800001Y-78561928D01*
X122149999Y-78561928D01*
X121976745Y-78578992D01*
X121810149Y-78629528D01*
X121656613Y-78711595D01*
X121522038Y-78822038D01*
X121411595Y-78956613D01*
X121350988Y-79070000D01*
X121171944Y-79070000D01*
X121170472Y-79065149D01*
X121088405Y-78911613D01*
X120977962Y-78777038D01*
X120843387Y-78666595D01*
X120689851Y-78584528D01*
X120523255Y-78533992D01*
X120350001Y-78516928D01*
X119649999Y-78516928D01*
X119476745Y-78533992D01*
X119310149Y-78584528D01*
X119156613Y-78666595D01*
X119022038Y-78777038D01*
X119000000Y-78803891D01*
X118977962Y-78777038D01*
X118843387Y-78666595D01*
X118689851Y-78584528D01*
X118523255Y-78533992D01*
X118350001Y-78516928D01*
X117649999Y-78516928D01*
X117476745Y-78533992D01*
X117332369Y-78577788D01*
X117763082Y-78147075D01*
X117953740Y-78185000D01*
X118246260Y-78185000D01*
X118533158Y-78127932D01*
X118803411Y-78015990D01*
X119046632Y-77853475D01*
X119253475Y-77646632D01*
X119370000Y-77472240D01*
X119486525Y-77646632D01*
X119693368Y-77853475D01*
X119936589Y-78015990D01*
X120206842Y-78127932D01*
X120493740Y-78185000D01*
X120786260Y-78185000D01*
X121073158Y-78127932D01*
X121343411Y-78015990D01*
X121586632Y-77853475D01*
X121793475Y-77646632D01*
X121910000Y-77472240D01*
X122026525Y-77646632D01*
X122233368Y-77853475D01*
X122476589Y-78015990D01*
X122746842Y-78127932D01*
X123033740Y-78185000D01*
X123326260Y-78185000D01*
X123613158Y-78127932D01*
X123883411Y-78015990D01*
X124126632Y-77853475D01*
X124333475Y-77646632D01*
X124495990Y-77403411D01*
X124607932Y-77133158D01*
X124665000Y-76846260D01*
X124665000Y-76553740D01*
X124607932Y-76266842D01*
X124495990Y-75996589D01*
X124333475Y-75753368D01*
X124126632Y-75546525D01*
X123952240Y-75430000D01*
X124126632Y-75313475D01*
X124333475Y-75106632D01*
X124495990Y-74863411D01*
X124607932Y-74593158D01*
X124665000Y-74306260D01*
X124665000Y-74013740D01*
X124607932Y-73726842D01*
X124495990Y-73456589D01*
X124333475Y-73213368D01*
X124126632Y-73006525D01*
X123883411Y-72844010D01*
X123680592Y-72760000D01*
X125440000Y-72760000D01*
X125440000Y-78661716D01*
G37*
%TD.AperFunction*%
D18*
X106596603Y-78519405D02*
X106535750Y-78520000D01*
X106377000Y-78678750D01*
X106377000Y-79728000D01*
X107326250Y-79728000D01*
X107485000Y-79569250D01*
X107488063Y-79156163D01*
X108115001Y-79603976D01*
X108115000Y-81403818D01*
X105859904Y-82474989D01*
X105674463Y-82351082D01*
X105376912Y-82227832D01*
X105061033Y-82165000D01*
X104998711Y-82165000D01*
X105003937Y-82159774D01*
X105117205Y-81990256D01*
X105195226Y-81801898D01*
X105235000Y-81601939D01*
X105235000Y-81398061D01*
X105195226Y-81198102D01*
X105121568Y-81020277D01*
X105174637Y-80976724D01*
X105198815Y-81006185D01*
X105295506Y-81085537D01*
X105405820Y-81144502D01*
X105525518Y-81180812D01*
X105650000Y-81193072D01*
X105964250Y-81190000D01*
X106123000Y-81031250D01*
X106123000Y-79982000D01*
X106377000Y-79982000D01*
X106377000Y-81031250D01*
X106535750Y-81190000D01*
X106850000Y-81193072D01*
X106974482Y-81180812D01*
X107094180Y-81144502D01*
X107204494Y-81085537D01*
X107301185Y-81006185D01*
X107380537Y-80909494D01*
X107439502Y-80799180D01*
X107475812Y-80679482D01*
X107488072Y-80555000D01*
X107485000Y-80140750D01*
X107326250Y-79982000D01*
X106377000Y-79982000D01*
X106123000Y-79982000D01*
X106103000Y-79982000D01*
X106103000Y-79728000D01*
X106123000Y-79728000D01*
X106123000Y-78678750D01*
X105964250Y-78520000D01*
X105650000Y-78516928D01*
X105525518Y-78529188D01*
X105405820Y-78565498D01*
X105295506Y-78624463D01*
X105198815Y-78703815D01*
X105174637Y-78733276D01*
X105093387Y-78666595D01*
X104939851Y-78584528D01*
X104884999Y-78567889D01*
X104884999Y-78188072D01*
X106132736Y-78188072D01*
X106596603Y-78519405D01*
%TA.AperFunction,Conductor*%
D19*
G36*
X106596603Y-78519405D02*
G01*
X106535750Y-78520000D01*
X106377000Y-78678750D01*
X106377000Y-79728000D01*
X107326250Y-79728000D01*
X107485000Y-79569250D01*
X107488063Y-79156163D01*
X108115001Y-79603976D01*
X108115000Y-81403818D01*
X105859904Y-82474989D01*
X105674463Y-82351082D01*
X105376912Y-82227832D01*
X105061033Y-82165000D01*
X104998711Y-82165000D01*
X105003937Y-82159774D01*
X105117205Y-81990256D01*
X105195226Y-81801898D01*
X105235000Y-81601939D01*
X105235000Y-81398061D01*
X105195226Y-81198102D01*
X105121568Y-81020277D01*
X105174637Y-80976724D01*
X105198815Y-81006185D01*
X105295506Y-81085537D01*
X105405820Y-81144502D01*
X105525518Y-81180812D01*
X105650000Y-81193072D01*
X105964250Y-81190000D01*
X106123000Y-81031250D01*
X106123000Y-79982000D01*
X106377000Y-79982000D01*
X106377000Y-81031250D01*
X106535750Y-81190000D01*
X106850000Y-81193072D01*
X106974482Y-81180812D01*
X107094180Y-81144502D01*
X107204494Y-81085537D01*
X107301185Y-81006185D01*
X107380537Y-80909494D01*
X107439502Y-80799180D01*
X107475812Y-80679482D01*
X107488072Y-80555000D01*
X107485000Y-80140750D01*
X107326250Y-79982000D01*
X106377000Y-79982000D01*
X106123000Y-79982000D01*
X106103000Y-79982000D01*
X106103000Y-79728000D01*
X106123000Y-79728000D01*
X106123000Y-78678750D01*
X105964250Y-78520000D01*
X105650000Y-78516928D01*
X105525518Y-78529188D01*
X105405820Y-78565498D01*
X105295506Y-78624463D01*
X105198815Y-78703815D01*
X105174637Y-78733276D01*
X105093387Y-78666595D01*
X104939851Y-78584528D01*
X104884999Y-78567889D01*
X104884999Y-78188072D01*
X106132736Y-78188072D01*
X106596603Y-78519405D01*
G37*
%TD.AperFunction*%
D18*
X115687000Y-76573000D02*
X115707000Y-76573000D01*
X115707000Y-76827000D01*
X115687000Y-76827000D01*
X115687000Y-76847000D01*
X115433000Y-76847000D01*
X115433000Y-76827000D01*
X115413000Y-76827000D01*
X115413000Y-76573000D01*
X115433000Y-76573000D01*
X115433000Y-76553000D01*
X115687000Y-76553000D01*
X115687000Y-76573000D01*
%TA.AperFunction,Conductor*%
D19*
G36*
X115687000Y-76573000D02*
G01*
X115707000Y-76573000D01*
X115707000Y-76827000D01*
X115687000Y-76827000D01*
X115687000Y-76847000D01*
X115433000Y-76847000D01*
X115433000Y-76827000D01*
X115413000Y-76827000D01*
X115413000Y-76573000D01*
X115433000Y-76573000D01*
X115433000Y-76553000D01*
X115687000Y-76553000D01*
X115687000Y-76573000D01*
G37*
%TD.AperFunction*%
D18*
X109284822Y-75041355D02*
X109479731Y-75257588D01*
X109709406Y-75428900D01*
X109533368Y-75546525D01*
X109326525Y-75753368D01*
X109210000Y-75927760D01*
X109093475Y-75753368D01*
X108886632Y-75546525D01*
X108712240Y-75430000D01*
X108886632Y-75313475D01*
X109093475Y-75106632D01*
X109215195Y-74924466D01*
X109284822Y-75041355D01*
%TA.AperFunction,Conductor*%
D19*
G36*
X109284822Y-75041355D02*
G01*
X109479731Y-75257588D01*
X109709406Y-75428900D01*
X109533368Y-75546525D01*
X109326525Y-75753368D01*
X109210000Y-75927760D01*
X109093475Y-75753368D01*
X108886632Y-75546525D01*
X108712240Y-75430000D01*
X108886632Y-75313475D01*
X109093475Y-75106632D01*
X109215195Y-74924466D01*
X109284822Y-75041355D01*
G37*
%TD.AperFunction*%
D18*
X120767000Y-74033000D02*
X120787000Y-74033000D01*
X120787000Y-74287000D01*
X120767000Y-74287000D01*
X120767000Y-74307000D01*
X120513000Y-74307000D01*
X120513000Y-74287000D01*
X120493000Y-74287000D01*
X120493000Y-74033000D01*
X120513000Y-74033000D01*
X120513000Y-74013000D01*
X120767000Y-74013000D01*
X120767000Y-74033000D01*
%TA.AperFunction,Conductor*%
D19*
G36*
X120767000Y-74033000D02*
G01*
X120787000Y-74033000D01*
X120787000Y-74287000D01*
X120767000Y-74287000D01*
X120767000Y-74307000D01*
X120513000Y-74307000D01*
X120513000Y-74287000D01*
X120493000Y-74287000D01*
X120493000Y-74033000D01*
X120513000Y-74033000D01*
X120513000Y-74013000D01*
X120767000Y-74013000D01*
X120767000Y-74033000D01*
G37*
%TD.AperFunction*%
D18*
X110607000Y-74033000D02*
X110627000Y-74033000D01*
X110627000Y-74287000D01*
X110607000Y-74287000D01*
X110607000Y-74307000D01*
X110353000Y-74307000D01*
X110353000Y-74287000D01*
X110333000Y-74287000D01*
X110333000Y-74033000D01*
X110353000Y-74033000D01*
X110353000Y-74013000D01*
X110607000Y-74013000D01*
X110607000Y-74033000D01*
%TA.AperFunction,Conductor*%
D19*
G36*
X110607000Y-74033000D02*
G01*
X110627000Y-74033000D01*
X110627000Y-74287000D01*
X110607000Y-74287000D01*
X110607000Y-74307000D01*
X110353000Y-74307000D01*
X110353000Y-74287000D01*
X110333000Y-74287000D01*
X110333000Y-74033000D01*
X110353000Y-74033000D01*
X110353000Y-74013000D01*
X110607000Y-74013000D01*
X110607000Y-74033000D01*
G37*
%TD.AperFunction*%
D18*
X122476589Y-72844010D02*
X122233368Y-73006525D01*
X122026525Y-73213368D01*
X121904805Y-73395534D01*
X121835178Y-73278645D01*
X121640269Y-73062412D01*
X121406920Y-72888359D01*
X121144099Y-72763175D01*
X121133631Y-72760000D01*
X122679408Y-72760000D01*
X122476589Y-72844010D01*
%TA.AperFunction,Conductor*%
D19*
G36*
X122476589Y-72844010D02*
G01*
X122233368Y-73006525D01*
X122026525Y-73213368D01*
X121904805Y-73395534D01*
X121835178Y-73278645D01*
X121640269Y-73062412D01*
X121406920Y-72888359D01*
X121144099Y-72763175D01*
X121133631Y-72760000D01*
X122679408Y-72760000D01*
X122476589Y-72844010D01*
G37*
%TD.AperFunction*%
%TD*%
M02*
