M48
INCH
T1C0.0157
T2C0.0315
T3C0.0394
T4C0.0433
%
G90
G05
T1
X4.1024Y-3.2087
X4.2598Y-3.3898
X4.3346Y-3.2087
X4.4961Y-3.0906
X4.5906Y-3.2008
T2
X4.2441Y-3.1457
X4.2992Y-2.9724
X4.5543Y-3.4173
X4.6543Y-3.4173
X4.7543Y-3.4173
X4.8543Y-3.4173
T3
X4.1496Y-2.9197
X4.1496Y-3.0197
X4.2496Y-2.9197
X4.2496Y-3.0197
X4.3496Y-2.9197
X4.3496Y-3.0197
X4.4496Y-2.9197
X4.4496Y-3.0197
X4.5496Y-2.9197
X4.5496Y-3.0197
X4.6496Y-2.9197
X4.6496Y-3.0197
X4.7496Y-2.9197
X4.7496Y-3.0197
X4.8496Y-2.9197
X4.8496Y-3.0197
T4
X4.1299Y-3.2992
X4.1299Y-3.4764
X4.3858Y-3.2992
X4.3858Y-3.4764
T0
M30
